G04 #@! TF.GenerationSoftware,KiCad,Pcbnew,10.0.5*
G04 #@! TF.CreationDate,2026-08-28T20:13:45-06:00*
G04 #@! TF.ProjectId,candidate_routed,63616e64-6964-4617-9465-5f726f757465,rev?*
G04 #@! TF.SameCoordinates,Original*
G04 #@! TF.FileFunction,Copper,L4,Bot*
G04 #@! TF.FilePolarity,Positive*
%FSLAX46Y46*%
G04 Gerber Fmt 4.6, Leading zero omitted, Abs format (unit mm)*
G04 Created by KiCad (PCBNEW 10.0.5) date 2026-08-28 20:13:45*
%MOMM*%
%LPD*%
G01*
G04 APERTURE LIST*
G04 #@! TA.AperFunction,ComponentPad*
%ADD10R,1.700000X1.700000*%
G04 #@! TD*
G04 #@! TA.AperFunction,ComponentPad*
%ADD11C,1.700000*%
G04 #@! TD*
G04 #@! TA.AperFunction,ViaPad*
%ADD12C,0.600000*%
G04 #@! TD*
G04 #@! TA.AperFunction,ViaPad*
%ADD13C,0.450000*%
G04 #@! TD*
G04 #@! TA.AperFunction,Conductor*
%ADD14C,0.600000*%
G04 #@! TD*
G04 #@! TA.AperFunction,Conductor*
%ADD15C,0.200000*%
G04 #@! TD*
G04 #@! TA.AperFunction,Conductor*
%ADD16C,0.300000*%
G04 #@! TD*
G04 APERTURE END LIST*
D10*
X165240000Y-179190000D03*
D11*
X165240000Y-181730000D03*
X162700000Y-179190000D03*
X162700000Y-181730000D03*
X160160000Y-179190000D03*
X160160000Y-181730000D03*
X157620000Y-179190000D03*
X157620000Y-181730000D03*
X155080000Y-179190000D03*
X155080000Y-181730000D03*
X152540000Y-179190000D03*
X152540000Y-181730000D03*
X150000000Y-179190000D03*
X150000000Y-181730000D03*
X147460000Y-179190000D03*
X147460000Y-181730000D03*
X144920000Y-179190000D03*
X144920000Y-181730000D03*
X142380000Y-179190000D03*
X142380000Y-181730000D03*
X139840000Y-179190000D03*
X139840000Y-181730000D03*
X137300000Y-179190000D03*
X137300000Y-181730000D03*
X134760000Y-179190000D03*
X134760000Y-181730000D03*
D10*
X189210000Y-138570000D03*
D11*
X186670000Y-138570000D03*
X184130000Y-138570000D03*
X181590000Y-138570000D03*
X179050000Y-138570000D03*
X176510000Y-138570000D03*
X173970000Y-138570000D03*
X171430000Y-138570000D03*
X168890000Y-138570000D03*
X166350000Y-138570000D03*
X163810000Y-138570000D03*
X161270000Y-138570000D03*
X158730000Y-138570000D03*
X156190000Y-138570000D03*
X153650000Y-138570000D03*
X151110000Y-138570000D03*
X148570000Y-138570000D03*
X146030000Y-138570000D03*
X143490000Y-138570000D03*
X140950000Y-138570000D03*
X138410000Y-138570000D03*
X135870000Y-138570000D03*
X133330000Y-138570000D03*
X130790000Y-138570000D03*
D10*
X189210000Y-161430000D03*
D11*
X186670000Y-161430000D03*
X184130000Y-161430000D03*
X181590000Y-161430000D03*
X179050000Y-161430000D03*
X176510000Y-161430000D03*
X173970000Y-161430000D03*
X171430000Y-161430000D03*
X168890000Y-161430000D03*
X166350000Y-161430000D03*
X163810000Y-161430000D03*
X161270000Y-161430000D03*
X158730000Y-161430000D03*
X156190000Y-161430000D03*
X153650000Y-161430000D03*
X151110000Y-161430000D03*
X148570000Y-161430000D03*
X146030000Y-161430000D03*
X143490000Y-161430000D03*
X140950000Y-161430000D03*
X138410000Y-161430000D03*
X135870000Y-161430000D03*
X133330000Y-161430000D03*
X130790000Y-161430000D03*
D12*
X131300000Y-159400000D03*
D13*
X185183200Y-113360800D03*
X200647900Y-150070200D03*
X100515400Y-132005900D03*
X188547700Y-114683100D03*
D12*
X163300000Y-175500000D03*
D13*
X128842300Y-98195700D03*
D12*
X173900000Y-107700000D03*
D13*
X111374700Y-109918800D03*
X113360800Y-114816800D03*
X198710800Y-127251900D03*
X150616200Y-206032600D03*
X186716700Y-110052400D03*
X101289200Y-172748100D03*
D12*
X158500000Y-129400000D03*
X128200000Y-195200000D03*
D13*
X150070200Y-99352100D03*
X127261200Y-198853200D03*
X101146800Y-127261200D03*
D12*
X158500000Y-126000000D03*
D13*
X186639200Y-185183200D03*
X172738800Y-101146800D03*
X190081200Y-111374700D03*
X199484600Y-167994100D03*
X147919000Y-96171900D03*
X172748100Y-198710800D03*
X93967400Y-150616200D03*
X130424800Y-103466600D03*
X98192000Y-128875300D03*
X149383800Y-93967400D03*
X130391900Y-196529800D03*
X114816800Y-186639200D03*
X205792100Y-149929800D03*
X132005900Y-199484600D03*
X201942900Y-152269800D03*
X111452300Y-185316900D03*
X147927900Y-203290200D03*
X196529800Y-169608100D03*
D12*
X174900000Y-174900000D03*
X167450000Y-169650000D03*
D13*
X96850200Y-152072100D03*
X110052400Y-113283300D03*
X188625300Y-190081200D03*
X201808000Y-171124700D03*
X201804300Y-128842300D03*
X114683100Y-111452300D03*
X103466600Y-169575200D03*
D12*
X161300000Y-144600000D03*
D13*
X99352100Y-149929800D03*
D12*
X128000000Y-97400000D03*
D13*
X113283300Y-189947600D03*
X189947600Y-186716700D03*
X103470200Y-130391900D03*
D12*
X175700000Y-174800000D03*
X162000000Y-140100000D03*
D13*
X196533400Y-130424800D03*
X100373000Y-167984700D03*
X171157700Y-201804300D03*
D12*
X154500000Y-126600000D03*
D13*
X167984700Y-199627000D03*
X152081000Y-203828100D03*
X128875300Y-201808000D03*
X171124700Y-98192000D03*
X169575200Y-196533400D03*
X169608100Y-103470200D03*
D12*
X168600000Y-175800000D03*
D13*
X185316900Y-188547700D03*
X98057100Y-147730200D03*
X149929800Y-200647900D03*
X109918800Y-188625300D03*
X167994100Y-100515400D03*
D12*
X172000000Y-202600000D03*
D13*
X132015300Y-100373000D03*
X98195700Y-171157700D03*
D12*
X173900000Y-105500000D03*
D13*
X127251900Y-101289200D03*
X198853200Y-172738800D03*
X152072100Y-96709800D03*
X199627000Y-132015300D03*
X201879500Y-147812900D03*
D12*
X183800000Y-112700000D03*
X181200000Y-114800000D03*
X182100000Y-113900000D03*
X185500000Y-116500000D03*
X136400000Y-100900000D03*
X134600000Y-100900000D03*
X157500000Y-125500000D03*
X162800000Y-143700000D03*
X174800000Y-163000000D03*
X161200000Y-143700000D03*
X159600000Y-124900000D03*
X123300000Y-161300000D03*
X177900000Y-123100000D03*
X162800000Y-127500000D03*
X174900000Y-110800000D03*
X128300000Y-187300000D03*
X156200000Y-125700000D03*
X138200000Y-124100000D03*
X129200000Y-139800000D03*
X132300000Y-107000000D03*
X185700000Y-179600000D03*
X134500000Y-107000000D03*
X140400000Y-124100000D03*
X192600000Y-166600000D03*
X191500000Y-165500000D03*
X123300000Y-156800000D03*
X159400000Y-130600000D03*
X126200000Y-185200000D03*
X143400000Y-136000000D03*
X160000000Y-135300000D03*
X162700000Y-144600000D03*
X159600000Y-128600000D03*
X172900000Y-108800000D03*
X176400000Y-121600000D03*
X171500000Y-105500000D03*
X171300000Y-103600000D03*
D13*
X167000000Y-181700000D03*
D12*
X195700000Y-166100000D03*
X196800000Y-167800000D03*
X129100000Y-195500000D03*
X128400000Y-196900000D03*
X128200000Y-189200000D03*
X125600000Y-186600000D03*
X154400000Y-131400000D03*
X166700000Y-171300000D03*
X173600000Y-174900000D03*
X155700000Y-132300000D03*
X166700000Y-156800000D03*
X154300000Y-152000000D03*
X163000000Y-152000000D03*
X168000000Y-174700000D03*
D13*
X161000000Y-169500000D03*
X161400000Y-170700000D03*
D12*
X189900000Y-170300000D03*
X168800000Y-195400000D03*
X168200000Y-197800000D03*
X188500000Y-171700000D03*
D13*
X131400000Y-105000000D03*
X129700000Y-104800000D03*
D12*
X169900000Y-180700000D03*
D13*
X143000000Y-176900000D03*
X143100000Y-172100000D03*
X145500000Y-176900000D03*
X167000000Y-177600000D03*
X161800000Y-177500000D03*
D12*
X102200000Y-168000000D03*
X120000000Y-161200000D03*
X121400000Y-159800000D03*
X103100000Y-167100000D03*
D13*
X167000000Y-179700000D03*
X142700000Y-176300000D03*
D12*
X195400000Y-131400000D03*
X197600000Y-131800000D03*
X107400000Y-124100000D03*
X108800000Y-124100000D03*
D13*
X161400000Y-176900000D03*
X167100000Y-176900000D03*
X144300000Y-172200000D03*
X148000000Y-173600000D03*
X157900000Y-172600000D03*
X158700000Y-173400000D03*
X147900000Y-172900000D03*
X161100000Y-175600000D03*
X151600000Y-173200000D03*
X161400000Y-176200000D03*
X165500000Y-176300000D03*
X156000000Y-176300000D03*
D12*
X165200000Y-175500000D03*
X168900000Y-178700000D03*
D14*
X165100000Y-183600000D02*
X167400000Y-183600000D01*
D15*
X169578947Y-174778947D02*
X169600000Y-174800000D01*
D14*
X169500000Y-181800000D02*
X170000000Y-181800000D01*
X171700000Y-180000000D02*
X171700000Y-176300000D01*
D16*
X167450000Y-171400000D02*
X167475000Y-171375000D01*
D14*
X174700000Y-175100000D02*
X174900000Y-174900000D01*
X167500000Y-183500000D02*
X167800000Y-183500000D01*
X160700000Y-181900000D02*
X162100000Y-183300000D01*
X160400000Y-181900000D02*
X160700000Y-181900000D01*
D16*
X167450000Y-171475000D02*
X167450000Y-171400000D01*
D14*
X171300000Y-180400000D02*
X171700000Y-180000000D01*
D16*
X165600000Y-173600000D02*
X166700000Y-172500000D01*
D14*
X171700000Y-178300000D02*
X174500000Y-175500000D01*
X170900000Y-181200000D02*
X170900000Y-180900000D01*
X167400000Y-183600000D02*
X167500000Y-183500000D01*
X163700000Y-175500000D02*
X163300000Y-175500000D01*
D16*
X167375000Y-171700000D02*
X167375000Y-171650000D01*
X167475000Y-171375000D02*
X167475000Y-169675000D01*
D14*
X174500000Y-175400000D02*
X174700000Y-175200000D01*
X170100000Y-181700000D02*
X170400000Y-181700000D01*
X171700000Y-178252778D02*
X171700000Y-178300000D01*
X170000000Y-181800000D02*
X170100000Y-181700000D01*
X162100000Y-183300000D02*
X164800000Y-183300000D01*
X165600000Y-173600000D02*
X163700000Y-175500000D01*
D16*
X167400000Y-171625000D02*
X167400000Y-171575000D01*
D14*
X170400000Y-181700000D02*
X170900000Y-181200000D01*
D15*
X169600000Y-174800000D02*
X168600000Y-175800000D01*
D14*
X174700000Y-175200000D02*
X174700000Y-175100000D01*
X160200000Y-181700000D02*
X160400000Y-181900000D01*
D16*
X167425000Y-171500000D02*
X167450000Y-171475000D01*
D14*
X168400000Y-173600000D02*
X165600000Y-173600000D01*
X160160000Y-181730000D02*
X160200000Y-181700000D01*
X174500000Y-175500000D02*
X174500000Y-175400000D01*
D16*
X167400000Y-171575000D02*
X167425000Y-171550000D01*
D14*
X167800000Y-183500000D02*
X169500000Y-181800000D01*
X164800000Y-183300000D02*
X165100000Y-183600000D01*
D16*
X167425000Y-171550000D02*
X167425000Y-171500000D01*
D14*
X171300000Y-180500000D02*
X171300000Y-180400000D01*
X170900000Y-180900000D02*
X171300000Y-180500000D01*
X169800000Y-175000000D02*
X168400000Y-173600000D01*
D16*
X166700000Y-172500000D02*
X166700000Y-172375000D01*
D14*
X170400000Y-175000000D02*
X169800000Y-175000000D01*
D16*
X167475000Y-169675000D02*
X167450000Y-169650000D01*
X166700000Y-172375000D02*
X167375000Y-171700000D01*
X167375000Y-171650000D02*
X167400000Y-171625000D01*
D14*
X171700000Y-176300000D02*
X170400000Y-175000000D01*
D15*
X161800000Y-140800000D02*
X161600000Y-140800000D01*
X161600000Y-140800000D02*
X160000000Y-139200000D01*
X162500000Y-144400000D02*
X162400000Y-144400000D01*
X162400000Y-144400000D02*
X162000000Y-144000000D01*
X162000000Y-144000000D02*
X162000000Y-141000000D01*
X162700000Y-144600000D02*
X162500000Y-144400000D01*
X162000000Y-141000000D02*
X161800000Y-140800000D01*
X160000000Y-139200000D02*
X160000000Y-135300000D01*
D14*
X165200000Y-181700000D02*
X162700000Y-181700000D01*
X166800000Y-180800000D02*
X166900000Y-180700000D01*
X165200000Y-181700000D02*
X166100000Y-180800000D01*
X166900000Y-180700000D02*
X169900000Y-180700000D01*
X166100000Y-180800000D02*
X166800000Y-180800000D01*
D15*
X153300000Y-180200000D02*
X153900000Y-179600000D01*
X153100000Y-180300000D02*
X153200000Y-180200000D01*
X153900000Y-179600000D02*
X153900000Y-179500000D01*
X147500000Y-181700000D02*
X149000000Y-180200000D01*
X152900000Y-180400000D02*
X153000000Y-180300000D01*
X153200000Y-180200000D02*
X153300000Y-180200000D01*
X149200000Y-180200000D02*
X149300000Y-180300000D01*
X153800000Y-179400000D02*
X153800000Y-178500000D01*
X153900000Y-179500000D02*
X153800000Y-179400000D01*
X149600000Y-180400000D02*
X152900000Y-180400000D01*
X153800000Y-178500000D02*
X156000000Y-176300000D01*
X153000000Y-180300000D02*
X153100000Y-180300000D01*
X149000000Y-180200000D02*
X149200000Y-180200000D01*
X149500000Y-180300000D02*
X149600000Y-180400000D01*
X149300000Y-180300000D02*
X149500000Y-180300000D01*
M02*
