G04 #@! TF.GenerationSoftware,KiCad,Pcbnew,10.0.5*
G04 #@! TF.CreationDate,2026-08-28T06:19:02-06:00*
G04 #@! TF.ProjectId,candidate_routed,63616e64-6964-4617-9465-5f726f757465,rev?*
G04 #@! TF.SameCoordinates,Original*
G04 #@! TF.FileFunction,Copper,L4,Bot*
G04 #@! TF.FilePolarity,Positive*
%FSLAX46Y46*%
G04 Gerber Fmt 4.6, Leading zero omitted, Abs format (unit mm)*
G04 Created by KiCad (PCBNEW 10.0.5) date 2026-08-28 06:19:02*
%MOMM*%
%LPD*%
G01*
G04 APERTURE LIST*
G04 #@! TA.AperFunction,ComponentPad*
%ADD10R,1.700000X1.700000*%
G04 #@! TD*
G04 #@! TA.AperFunction,ComponentPad*
%ADD11C,1.700000*%
G04 #@! TD*
G04 #@! TA.AperFunction,ViaPad*
%ADD12C,0.450000*%
G04 #@! TD*
G04 #@! TA.AperFunction,Conductor*
%ADD13C,0.200000*%
G04 #@! TD*
G04 APERTURE END LIST*
D10*
X165240000Y-179190000D03*
D11*
X165240000Y-181730000D03*
X162700000Y-179190000D03*
X162700000Y-181730000D03*
X160160000Y-179190000D03*
X160160000Y-181730000D03*
X157620000Y-179190000D03*
X157620000Y-181730000D03*
X155080000Y-179190000D03*
X155080000Y-181730000D03*
X152540000Y-179190000D03*
X152540000Y-181730000D03*
X150000000Y-179190000D03*
X150000000Y-181730000D03*
X147460000Y-179190000D03*
X147460000Y-181730000D03*
X144920000Y-179190000D03*
X144920000Y-181730000D03*
X142380000Y-179190000D03*
X142380000Y-181730000D03*
X139840000Y-179190000D03*
X139840000Y-181730000D03*
X137300000Y-179190000D03*
X137300000Y-181730000D03*
X134760000Y-179190000D03*
X134760000Y-181730000D03*
D10*
X189210000Y-138570000D03*
D11*
X186670000Y-138570000D03*
X184130000Y-138570000D03*
X181590000Y-138570000D03*
X179050000Y-138570000D03*
X176510000Y-138570000D03*
X173970000Y-138570000D03*
X171430000Y-138570000D03*
X168890000Y-138570000D03*
X166350000Y-138570000D03*
X163810000Y-138570000D03*
X161270000Y-138570000D03*
X158730000Y-138570000D03*
X156190000Y-138570000D03*
X153650000Y-138570000D03*
X151110000Y-138570000D03*
X148570000Y-138570000D03*
X146030000Y-138570000D03*
X143490000Y-138570000D03*
X140950000Y-138570000D03*
X138410000Y-138570000D03*
X135870000Y-138570000D03*
X133330000Y-138570000D03*
X130790000Y-138570000D03*
D10*
X189210000Y-161430000D03*
D11*
X186670000Y-161430000D03*
X184130000Y-161430000D03*
X181590000Y-161430000D03*
X179050000Y-161430000D03*
X176510000Y-161430000D03*
X173970000Y-161430000D03*
X171430000Y-161430000D03*
X168890000Y-161430000D03*
X166350000Y-161430000D03*
X163810000Y-161430000D03*
X161270000Y-161430000D03*
X158730000Y-161430000D03*
X156190000Y-161430000D03*
X153650000Y-161430000D03*
X151110000Y-161430000D03*
X148570000Y-161430000D03*
X146030000Y-161430000D03*
X143490000Y-161430000D03*
X140950000Y-161430000D03*
X138410000Y-161430000D03*
X135870000Y-161430000D03*
X133330000Y-161430000D03*
X130790000Y-161430000D03*
D12*
X168707700Y-157382000D03*
X160547700Y-151362000D03*
X128000000Y-97500000D03*
X129075000Y-103025000D03*
X161400000Y-182700000D03*
X158700000Y-163900000D03*
X158200000Y-172700000D03*
X162700000Y-177000000D03*
X161600000Y-178100000D03*
X149500000Y-169000000D03*
X164500000Y-183900000D03*
X168300000Y-180200000D03*
X114900000Y-191900000D03*
X116400000Y-191900000D03*
X166800000Y-178100000D03*
X145300000Y-174300000D03*
X158400000Y-174100000D03*
X151200000Y-170900000D03*
X97200000Y-171677400D03*
X98180000Y-170245000D03*
X163500000Y-176000000D03*
X165500000Y-173400000D03*
X152300000Y-168100000D03*
X152300000Y-165200000D03*
X170600000Y-180200000D03*
X152200000Y-176000000D03*
X146100000Y-176000000D03*
X165900000Y-183400000D03*
X170700000Y-178600000D03*
X167100000Y-179500000D03*
X151200000Y-171700000D03*
X170600000Y-162900000D03*
X153600000Y-186800000D03*
D13*
X162500000Y-180400000D02*
X162400000Y-180500000D01*
X162000000Y-180600000D02*
X161500000Y-181100000D01*
X163700000Y-180400000D02*
X162500000Y-180400000D01*
X163800000Y-178500000D02*
X163800000Y-178700000D01*
X162200000Y-180500000D02*
X162100000Y-180600000D01*
X161400000Y-181400000D02*
X161400000Y-182700000D01*
X163900000Y-180200000D02*
X163700000Y-180400000D01*
X162100000Y-180600000D02*
X162000000Y-180600000D01*
X162400000Y-180500000D02*
X162200000Y-180500000D01*
X162700000Y-177900000D02*
X163200000Y-177900000D01*
X163200000Y-177900000D02*
X163800000Y-178500000D01*
X161500000Y-181100000D02*
X161500000Y-181300000D01*
X161500000Y-181300000D02*
X161400000Y-181400000D01*
X162000000Y-177200000D02*
X162700000Y-177900000D01*
X162000000Y-176500000D02*
X162000000Y-177200000D01*
X163800000Y-178700000D02*
X163900000Y-178800000D01*
X163900000Y-178800000D02*
X163900000Y-180200000D01*
X158200000Y-172700000D02*
X162000000Y-176500000D01*
X153800000Y-182100000D02*
X153800000Y-176600000D01*
X152900000Y-165400000D02*
X153600000Y-164700000D01*
X152900000Y-175700000D02*
X152900000Y-165400000D01*
X153600000Y-182300000D02*
X153800000Y-182100000D01*
X153600000Y-164700000D02*
X153600000Y-161400000D01*
X153600000Y-186800000D02*
X153600000Y-182300000D01*
X153800000Y-176600000D02*
X152900000Y-175700000D01*
M02*
