G04 #@! TF.GenerationSoftware,KiCad,Pcbnew,10.0.5*
G04 #@! TF.CreationDate,2026-08-28T06:19:02-06:00*
G04 #@! TF.ProjectId,candidate_routed,63616e64-6964-4617-9465-5f726f757465,rev?*
G04 #@! TF.SameCoordinates,Original*
G04 #@! TF.FileFunction,Copper,L3,Inr*
G04 #@! TF.FilePolarity,Positive*
%FSLAX46Y46*%
G04 Gerber Fmt 4.6, Leading zero omitted, Abs format (unit mm)*
G04 Created by KiCad (PCBNEW 10.0.5) date 2026-08-28 06:19:02*
%MOMM*%
%LPD*%
G01*
G04 APERTURE LIST*
G04 #@! TA.AperFunction,ComponentPad*
%ADD10R,1.700000X1.700000*%
G04 #@! TD*
G04 #@! TA.AperFunction,ComponentPad*
%ADD11C,1.700000*%
G04 #@! TD*
G04 #@! TA.AperFunction,ViaPad*
%ADD12C,0.450000*%
G04 #@! TD*
G04 #@! TA.AperFunction,Conductor*
%ADD13C,0.200000*%
G04 #@! TD*
G04 APERTURE END LIST*
D10*
X165240000Y-179190000D03*
D11*
X165240000Y-181730000D03*
X162700000Y-179190000D03*
X162700000Y-181730000D03*
X160160000Y-179190000D03*
X160160000Y-181730000D03*
X157620000Y-179190000D03*
X157620000Y-181730000D03*
X155080000Y-179190000D03*
X155080000Y-181730000D03*
X152540000Y-179190000D03*
X152540000Y-181730000D03*
X150000000Y-179190000D03*
X150000000Y-181730000D03*
X147460000Y-179190000D03*
X147460000Y-181730000D03*
X144920000Y-179190000D03*
X144920000Y-181730000D03*
X142380000Y-179190000D03*
X142380000Y-181730000D03*
X139840000Y-179190000D03*
X139840000Y-181730000D03*
X137300000Y-179190000D03*
X137300000Y-181730000D03*
X134760000Y-179190000D03*
X134760000Y-181730000D03*
D10*
X189210000Y-138570000D03*
D11*
X186670000Y-138570000D03*
X184130000Y-138570000D03*
X181590000Y-138570000D03*
X179050000Y-138570000D03*
X176510000Y-138570000D03*
X173970000Y-138570000D03*
X171430000Y-138570000D03*
X168890000Y-138570000D03*
X166350000Y-138570000D03*
X163810000Y-138570000D03*
X161270000Y-138570000D03*
X158730000Y-138570000D03*
X156190000Y-138570000D03*
X153650000Y-138570000D03*
X151110000Y-138570000D03*
X148570000Y-138570000D03*
X146030000Y-138570000D03*
X143490000Y-138570000D03*
X140950000Y-138570000D03*
X138410000Y-138570000D03*
X135870000Y-138570000D03*
X133330000Y-138570000D03*
X130790000Y-138570000D03*
D10*
X189210000Y-161430000D03*
D11*
X186670000Y-161430000D03*
X184130000Y-161430000D03*
X181590000Y-161430000D03*
X179050000Y-161430000D03*
X176510000Y-161430000D03*
X173970000Y-161430000D03*
X171430000Y-161430000D03*
X168890000Y-161430000D03*
X166350000Y-161430000D03*
X163810000Y-161430000D03*
X161270000Y-161430000D03*
X158730000Y-161430000D03*
X156190000Y-161430000D03*
X153650000Y-161430000D03*
X151110000Y-161430000D03*
X148570000Y-161430000D03*
X146030000Y-161430000D03*
X143490000Y-161430000D03*
X140950000Y-161430000D03*
X138410000Y-161430000D03*
X135870000Y-161430000D03*
X133330000Y-161430000D03*
X130790000Y-161430000D03*
D12*
X168707700Y-157382000D03*
X160547700Y-151362000D03*
X128000000Y-97500000D03*
X129075000Y-103025000D03*
X161400000Y-182700000D03*
X158700000Y-163900000D03*
X158200000Y-172700000D03*
X162700000Y-177000000D03*
X161600000Y-178100000D03*
X149500000Y-169000000D03*
X164500000Y-183900000D03*
X168300000Y-180200000D03*
X114900000Y-191900000D03*
X116400000Y-191900000D03*
X166800000Y-178100000D03*
X145300000Y-174300000D03*
X158400000Y-174100000D03*
X151200000Y-170900000D03*
X97200000Y-171677400D03*
X98180000Y-170245000D03*
X163500000Y-176000000D03*
X165500000Y-173400000D03*
X152300000Y-168100000D03*
X152300000Y-165200000D03*
X170600000Y-180200000D03*
X152200000Y-176000000D03*
X146100000Y-176000000D03*
X165900000Y-183400000D03*
X170700000Y-178600000D03*
X167100000Y-179500000D03*
X151200000Y-171700000D03*
X170600000Y-162900000D03*
X153600000Y-186800000D03*
D13*
X166000000Y-184100000D02*
X166100000Y-184000000D01*
X168500000Y-181700000D02*
X168500000Y-180400000D01*
X168500000Y-180400000D02*
X168300000Y-180200000D01*
X166200000Y-184000000D02*
X168500000Y-181700000D01*
X164600000Y-183900000D02*
X164800000Y-184100000D01*
X164800000Y-184100000D02*
X166000000Y-184100000D01*
X166100000Y-184000000D02*
X166200000Y-184000000D01*
X162700000Y-177900000D02*
X166100000Y-177900000D01*
X154300000Y-178100000D02*
X154500000Y-178100000D01*
X162200000Y-177400000D02*
X162700000Y-177900000D01*
X160900000Y-177900000D02*
X161300000Y-177500000D01*
X167800000Y-177400000D02*
X170600000Y-180200000D01*
X142900000Y-179200000D02*
X142400000Y-179200000D01*
X166600000Y-177400000D02*
X167800000Y-177400000D01*
X161400000Y-177500000D02*
X161500000Y-177400000D01*
X161500000Y-177400000D02*
X162200000Y-177400000D01*
X161300000Y-177500000D02*
X161400000Y-177500000D01*
X146100000Y-176000000D02*
X142900000Y-179200000D01*
X154600000Y-178000000D02*
X154900000Y-178000000D01*
X154900000Y-178000000D02*
X155000000Y-177900000D01*
X152200000Y-176000000D02*
X154300000Y-178100000D01*
X154500000Y-178100000D02*
X154600000Y-178000000D01*
X166100000Y-177900000D02*
X166600000Y-177400000D01*
X155000000Y-177900000D02*
X160900000Y-177900000D01*
X148800000Y-180400000D02*
X147500000Y-181700000D01*
X166500000Y-180200000D02*
X166300000Y-180400000D01*
X166500000Y-180100000D02*
X166500000Y-180200000D01*
X166300000Y-180400000D02*
X148800000Y-180400000D01*
X167100000Y-179500000D02*
X166500000Y-180100000D01*
X156200000Y-166800000D02*
X156200000Y-161400000D01*
X151500000Y-171500000D02*
X156200000Y-166800000D01*
X151200000Y-171700000D02*
X151400000Y-171500000D01*
X151400000Y-171500000D02*
X151500000Y-171500000D01*
X169800000Y-162400000D02*
X169600000Y-162600000D01*
X169100000Y-162700000D02*
X165100000Y-162700000D01*
X170100000Y-162400000D02*
X169800000Y-162400000D01*
X170600000Y-162900000D02*
X170100000Y-162400000D01*
X165100000Y-162700000D02*
X163800000Y-161400000D01*
X169600000Y-162600000D02*
X169200000Y-162600000D01*
X169200000Y-162600000D02*
X169100000Y-162700000D01*
G04 #@! TA.AperFunction,Conductor*
G36*
X151556244Y-90520372D02*
G01*
X151558822Y-90520439D01*
X153112758Y-90581493D01*
X153115244Y-90581624D01*
X154667028Y-90683333D01*
X154669573Y-90683533D01*
X156218227Y-90825835D01*
X156220665Y-90826091D01*
X157765082Y-91008885D01*
X157767576Y-91009213D01*
X159306588Y-91232360D01*
X159309072Y-91232753D01*
X160497740Y-91437003D01*
X160841726Y-91496111D01*
X160844274Y-91496583D01*
X161321987Y-91591605D01*
X162369507Y-91799970D01*
X162371987Y-91800498D01*
X163833929Y-92131301D01*
X163888735Y-92143703D01*
X163891256Y-92144308D01*
X165398497Y-92527099D01*
X165400963Y-92527760D01*
X166897674Y-92949875D01*
X166900135Y-92950604D01*
X168385289Y-93411757D01*
X168387726Y-93412549D01*
X169860277Y-93912413D01*
X169862711Y-93913274D01*
X171321726Y-94451534D01*
X171324073Y-94452435D01*
X172460063Y-94905649D01*
X172768458Y-95028686D01*
X172770853Y-95029678D01*
X174199672Y-95643547D01*
X174201982Y-95644576D01*
X175614228Y-96295630D01*
X175616568Y-96296746D01*
X177011256Y-96984530D01*
X177013562Y-96985704D01*
X178389840Y-97709799D01*
X178392043Y-97710995D01*
X179748899Y-98470871D01*
X179751107Y-98472146D01*
X181087569Y-99267258D01*
X181089725Y-99268580D01*
X182404938Y-100098417D01*
X182407094Y-100099817D01*
X183700092Y-100963770D01*
X183702228Y-100965238D01*
X184972174Y-101862747D01*
X184974271Y-101864271D01*
X186220275Y-102794707D01*
X186222331Y-102796285D01*
X187443547Y-103759014D01*
X187445561Y-103760645D01*
X188641152Y-104755008D01*
X188643123Y-104756691D01*
X189812292Y-105782024D01*
X189814218Y-105783758D01*
X190956144Y-106839343D01*
X190958024Y-106841127D01*
X192071924Y-107926241D01*
X192073757Y-107928074D01*
X193158871Y-109041974D01*
X193160655Y-109043854D01*
X194216240Y-110185780D01*
X194217974Y-110187706D01*
X195243307Y-111356875D01*
X195244990Y-111358846D01*
X196239353Y-112554437D01*
X196240984Y-112556451D01*
X197203713Y-113777667D01*
X197205291Y-113779723D01*
X198135727Y-115025727D01*
X198137251Y-115027824D01*
X199034760Y-116297770D01*
X199036228Y-116299906D01*
X199900181Y-117592904D01*
X199901592Y-117595077D01*
X200731402Y-118910246D01*
X200732756Y-118912456D01*
X201527841Y-120248874D01*
X201529137Y-120251118D01*
X202288982Y-121607917D01*
X202290219Y-121610195D01*
X203014292Y-122986433D01*
X203015468Y-122988742D01*
X203703252Y-124383430D01*
X203704368Y-124385770D01*
X204355409Y-125797987D01*
X204356463Y-125800354D01*
X204970320Y-127229145D01*
X204971312Y-127231540D01*
X205547549Y-128675889D01*
X205548478Y-128678308D01*
X206086720Y-130137278D01*
X206087585Y-130139721D01*
X206587444Y-131612258D01*
X206588245Y-131614723D01*
X207049390Y-133099851D01*
X207050126Y-133102336D01*
X207472233Y-134599016D01*
X207472904Y-134601520D01*
X207855690Y-136108743D01*
X207856295Y-136111263D01*
X208199494Y-137627983D01*
X208200033Y-137630518D01*
X208503415Y-139155724D01*
X208503887Y-139158272D01*
X208767239Y-140690888D01*
X208767644Y-140693448D01*
X208990779Y-142232383D01*
X208991118Y-142234953D01*
X209173899Y-143779263D01*
X209174170Y-143781840D01*
X209316463Y-145330406D01*
X209316666Y-145332990D01*
X209418371Y-146884702D01*
X209418507Y-146887290D01*
X209479558Y-148441170D01*
X209479626Y-148443761D01*
X209499983Y-149998703D01*
X209499983Y-150001295D01*
X209479626Y-151556237D01*
X209479558Y-151558828D01*
X209418507Y-153112708D01*
X209418371Y-153115296D01*
X209316666Y-154667008D01*
X209316463Y-154669592D01*
X209174170Y-156218158D01*
X209173899Y-156220735D01*
X208991118Y-157765045D01*
X208990779Y-157767615D01*
X208767644Y-159306550D01*
X208767239Y-159309110D01*
X208503887Y-160841726D01*
X208503415Y-160844274D01*
X208200033Y-162369480D01*
X208199494Y-162372015D01*
X207856295Y-163888735D01*
X207855690Y-163891255D01*
X207472904Y-165398478D01*
X207472233Y-165400982D01*
X207050126Y-166897662D01*
X207049390Y-166900147D01*
X206588245Y-168385275D01*
X206587444Y-168387740D01*
X206087585Y-169860277D01*
X206086720Y-169862720D01*
X205548478Y-171321690D01*
X205547549Y-171324109D01*
X204971312Y-172768458D01*
X204970320Y-172770853D01*
X204356463Y-174199644D01*
X204355409Y-174202011D01*
X203704368Y-175614228D01*
X203703252Y-175616568D01*
X203015468Y-177011256D01*
X203014292Y-177013565D01*
X202290219Y-178389803D01*
X202288982Y-178392081D01*
X201529137Y-179748881D01*
X201527841Y-179751125D01*
X200732756Y-181087542D01*
X200731402Y-181089752D01*
X199901592Y-182404921D01*
X199900181Y-182407094D01*
X199036228Y-183700092D01*
X199034760Y-183702228D01*
X198137251Y-184972174D01*
X198135727Y-184974271D01*
X197205291Y-186220275D01*
X197203713Y-186222331D01*
X196240984Y-187443547D01*
X196239353Y-187445561D01*
X195244990Y-188641152D01*
X195243307Y-188643123D01*
X194217974Y-189812292D01*
X194216240Y-189814218D01*
X193160655Y-190956144D01*
X193158871Y-190958024D01*
X192073757Y-192071924D01*
X192071924Y-192073757D01*
X190958024Y-193158871D01*
X190956144Y-193160655D01*
X189814218Y-194216240D01*
X189812292Y-194217974D01*
X188643123Y-195243307D01*
X188641152Y-195244990D01*
X187445561Y-196239353D01*
X187443547Y-196240984D01*
X186222331Y-197203713D01*
X186220275Y-197205291D01*
X184974271Y-198135727D01*
X184972174Y-198137251D01*
X183702228Y-199034760D01*
X183700092Y-199036228D01*
X182407094Y-199900181D01*
X182404921Y-199901592D01*
X181089752Y-200731402D01*
X181087542Y-200732756D01*
X179751125Y-201527841D01*
X179748881Y-201529137D01*
X178392081Y-202288982D01*
X178389803Y-202290219D01*
X177013565Y-203014292D01*
X177011256Y-203015468D01*
X175616568Y-203703252D01*
X175614228Y-203704368D01*
X174202011Y-204355409D01*
X174199644Y-204356463D01*
X172770853Y-204970320D01*
X172768458Y-204971312D01*
X171324109Y-205547549D01*
X171321690Y-205548478D01*
X169862720Y-206086720D01*
X169860277Y-206087585D01*
X168387740Y-206587444D01*
X168385275Y-206588245D01*
X166900147Y-207049390D01*
X166897662Y-207050126D01*
X165400982Y-207472233D01*
X165398478Y-207472904D01*
X163891255Y-207855690D01*
X163888735Y-207856295D01*
X162372015Y-208199494D01*
X162369480Y-208200033D01*
X160844274Y-208503415D01*
X160841726Y-208503887D01*
X159309110Y-208767239D01*
X159306550Y-208767644D01*
X157767615Y-208990779D01*
X157765045Y-208991118D01*
X156220735Y-209173899D01*
X156218158Y-209174170D01*
X154669592Y-209316463D01*
X154667008Y-209316666D01*
X153115296Y-209418371D01*
X153112708Y-209418507D01*
X151558828Y-209479558D01*
X151556237Y-209479626D01*
X150001295Y-209499983D01*
X149998703Y-209499983D01*
X148443761Y-209479626D01*
X148441170Y-209479558D01*
X146887290Y-209418507D01*
X146884702Y-209418371D01*
X145332990Y-209316666D01*
X145330406Y-209316463D01*
X143781840Y-209174170D01*
X143779263Y-209173899D01*
X142234953Y-208991118D01*
X142232383Y-208990779D01*
X140693448Y-208767644D01*
X140690888Y-208767239D01*
X139158272Y-208503887D01*
X139155724Y-208503415D01*
X137630518Y-208200033D01*
X137627983Y-208199494D01*
X136111263Y-207856295D01*
X136108743Y-207855690D01*
X134601520Y-207472904D01*
X134599016Y-207472233D01*
X133102336Y-207050126D01*
X133099851Y-207049390D01*
X131614723Y-206588245D01*
X131612258Y-206587444D01*
X130139721Y-206087585D01*
X130137278Y-206086720D01*
X128678308Y-205548478D01*
X128675889Y-205547549D01*
X127231540Y-204971312D01*
X127229145Y-204970320D01*
X125800354Y-204356463D01*
X125797987Y-204355409D01*
X124385770Y-203704368D01*
X124383430Y-203703252D01*
X122988742Y-203015468D01*
X122986433Y-203014292D01*
X121610195Y-202290219D01*
X121607917Y-202288982D01*
X120251118Y-201529137D01*
X120248874Y-201527841D01*
X118912456Y-200732756D01*
X118910246Y-200731402D01*
X117595077Y-199901592D01*
X117592904Y-199900181D01*
X116299906Y-199036228D01*
X116297770Y-199034760D01*
X115027824Y-198137251D01*
X115025727Y-198135727D01*
X113779723Y-197205291D01*
X113777667Y-197203713D01*
X112556451Y-196240984D01*
X112554437Y-196239353D01*
X111358846Y-195244990D01*
X111356875Y-195243307D01*
X110187706Y-194217974D01*
X110185780Y-194216240D01*
X109043854Y-193160655D01*
X109041974Y-193158871D01*
X107928074Y-192073757D01*
X107926241Y-192071924D01*
X107758751Y-191899991D01*
X107697778Y-191837401D01*
X107697776Y-191837399D01*
X114424500Y-191837399D01*
X114424500Y-191962601D01*
X114456905Y-192083536D01*
X114519505Y-192191964D01*
X114608036Y-192280495D01*
X114716464Y-192343095D01*
X114837399Y-192375500D01*
X114837401Y-192375500D01*
X114962599Y-192375500D01*
X114962601Y-192375500D01*
X115083536Y-192343095D01*
X115191964Y-192280495D01*
X115280495Y-192191964D01*
X115343095Y-192083536D01*
X115375500Y-191962601D01*
X115375500Y-191837399D01*
X115924500Y-191837399D01*
X115924500Y-191962601D01*
X115956905Y-192083536D01*
X116019505Y-192191964D01*
X116108036Y-192280495D01*
X116216464Y-192343095D01*
X116337399Y-192375500D01*
X116337401Y-192375500D01*
X116462599Y-192375500D01*
X116462601Y-192375500D01*
X116583536Y-192343095D01*
X116691964Y-192280495D01*
X116780495Y-192191964D01*
X116843095Y-192083536D01*
X116875500Y-191962601D01*
X116875500Y-191837399D01*
X116843095Y-191716464D01*
X116780495Y-191608036D01*
X116691964Y-191519505D01*
X116583536Y-191456905D01*
X116462601Y-191424500D01*
X116337399Y-191424500D01*
X116256775Y-191446103D01*
X116216463Y-191456905D01*
X116108036Y-191519505D01*
X116019505Y-191608036D01*
X115956905Y-191716463D01*
X115956905Y-191716464D01*
X115924500Y-191837399D01*
X115375500Y-191837399D01*
X115343095Y-191716464D01*
X115280495Y-191608036D01*
X115191964Y-191519505D01*
X115083536Y-191456905D01*
X114962601Y-191424500D01*
X114837399Y-191424500D01*
X114756775Y-191446103D01*
X114716463Y-191456905D01*
X114608036Y-191519505D01*
X114519505Y-191608036D01*
X114456905Y-191716463D01*
X114456905Y-191716464D01*
X114424500Y-191837399D01*
X107697776Y-191837399D01*
X106841125Y-190958022D01*
X106839343Y-190956144D01*
X105783758Y-189814218D01*
X105782024Y-189812292D01*
X104756691Y-188643123D01*
X104755008Y-188641152D01*
X103760645Y-187445561D01*
X103759014Y-187443547D01*
X103626536Y-187275500D01*
X103202332Y-186737399D01*
X153124500Y-186737399D01*
X153124500Y-186862601D01*
X153156905Y-186983536D01*
X153219505Y-187091964D01*
X153308036Y-187180495D01*
X153416464Y-187243095D01*
X153537399Y-187275500D01*
X153537401Y-187275500D01*
X153662599Y-187275500D01*
X153662601Y-187275500D01*
X153783536Y-187243095D01*
X153891964Y-187180495D01*
X153980495Y-187091964D01*
X154043095Y-186983536D01*
X154075500Y-186862601D01*
X154075500Y-186737399D01*
X154043095Y-186616464D01*
X153980495Y-186508036D01*
X153891964Y-186419505D01*
X153783536Y-186356905D01*
X153662601Y-186324500D01*
X153537399Y-186324500D01*
X153456775Y-186346103D01*
X153416463Y-186356905D01*
X153308036Y-186419505D01*
X153219505Y-186508036D01*
X153156905Y-186616463D01*
X153156905Y-186616464D01*
X153124500Y-186737399D01*
X103202332Y-186737399D01*
X102796285Y-186222331D01*
X102794707Y-186220275D01*
X101864271Y-184974271D01*
X101862747Y-184972174D01*
X101494064Y-184450500D01*
X101096562Y-183888047D01*
X101096561Y-183888044D01*
X101060769Y-183837399D01*
X164024500Y-183837399D01*
X164024500Y-183962601D01*
X164056905Y-184083536D01*
X164119505Y-184191964D01*
X164208036Y-184280495D01*
X164316464Y-184343095D01*
X164437399Y-184375500D01*
X164437401Y-184375500D01*
X164549653Y-184375500D01*
X164599151Y-184388762D01*
X164664712Y-184426614D01*
X164753856Y-184450500D01*
X164753857Y-184450500D01*
X164753858Y-184450500D01*
X166046142Y-184450500D01*
X166046144Y-184450500D01*
X166135288Y-184426614D01*
X166215212Y-184380470D01*
X166226072Y-184369609D01*
X166270450Y-184343987D01*
X166335288Y-184326614D01*
X166415212Y-184280470D01*
X168780470Y-181915212D01*
X168826614Y-181835288D01*
X168831618Y-181816611D01*
X168850500Y-181746144D01*
X168850500Y-180353856D01*
X168826614Y-180264712D01*
X168809626Y-180235288D01*
X168788762Y-180199151D01*
X168775500Y-180149652D01*
X168775500Y-180137401D01*
X168775500Y-180137399D01*
X168743095Y-180016464D01*
X168680495Y-179908036D01*
X168591964Y-179819505D01*
X168483536Y-179756905D01*
X168362601Y-179724500D01*
X168237399Y-179724500D01*
X168156775Y-179746103D01*
X168116463Y-179756905D01*
X168008036Y-179819505D01*
X167919505Y-179908036D01*
X167856905Y-180016463D01*
X167856905Y-180016464D01*
X167824500Y-180137399D01*
X167824500Y-180262601D01*
X167856905Y-180383536D01*
X167919505Y-180491964D01*
X168008036Y-180580495D01*
X168100001Y-180633590D01*
X168140941Y-180679057D01*
X168149500Y-180719325D01*
X168149500Y-181513809D01*
X168130593Y-181572000D01*
X168120504Y-181583813D01*
X166487310Y-183217006D01*
X166432793Y-183244783D01*
X166372361Y-183235212D01*
X166331570Y-183196502D01*
X166280495Y-183108036D01*
X166191964Y-183019505D01*
X166083536Y-182956905D01*
X165962601Y-182924500D01*
X165837399Y-182924500D01*
X165756775Y-182946103D01*
X165716463Y-182956905D01*
X165608036Y-183019505D01*
X165519505Y-183108036D01*
X165456905Y-183216463D01*
X165456905Y-183216464D01*
X165424500Y-183337399D01*
X165424500Y-183462601D01*
X165439748Y-183519505D01*
X165456906Y-183583539D01*
X165456907Y-183583540D01*
X165466988Y-183601002D01*
X165479708Y-183660850D01*
X165454821Y-183716745D01*
X165401833Y-183747337D01*
X165381251Y-183749500D01*
X165019326Y-183749500D01*
X164961135Y-183730593D01*
X164933590Y-183700002D01*
X164880495Y-183608036D01*
X164791964Y-183519505D01*
X164683536Y-183456905D01*
X164562601Y-183424500D01*
X164437399Y-183424500D01*
X164356775Y-183446103D01*
X164316463Y-183456905D01*
X164208036Y-183519505D01*
X164119505Y-183608036D01*
X164056905Y-183716463D01*
X164053119Y-183730593D01*
X164024500Y-183837399D01*
X101060769Y-183837399D01*
X100965239Y-183702228D01*
X100963770Y-183700092D01*
X100801278Y-183456905D01*
X100099807Y-182407078D01*
X100098406Y-182404921D01*
X99999411Y-182248024D01*
X99727211Y-181816612D01*
X133659499Y-181816612D01*
X133686597Y-181987702D01*
X133686598Y-181987706D01*
X133740123Y-182152438D01*
X133740125Y-182152441D01*
X133793351Y-182256905D01*
X133818768Y-182306788D01*
X133920586Y-182446928D01*
X134043072Y-182569414D01*
X134183212Y-182671232D01*
X134337555Y-182749873D01*
X134337557Y-182749873D01*
X134337558Y-182749874D01*
X134337561Y-182749876D01*
X134502293Y-182803401D01*
X134502297Y-182803402D01*
X134673386Y-182830500D01*
X134673389Y-182830500D01*
X134846614Y-182830500D01*
X135017702Y-182803402D01*
X135017706Y-182803401D01*
X135182438Y-182749876D01*
X135182440Y-182749874D01*
X135182445Y-182749873D01*
X135336788Y-182671232D01*
X135476928Y-182569414D01*
X135599414Y-182446928D01*
X135701232Y-182306788D01*
X135779873Y-182152445D01*
X135779874Y-182152440D01*
X135779876Y-182152438D01*
X135833401Y-181987706D01*
X135833402Y-181987702D01*
X135860500Y-181816612D01*
X136199499Y-181816612D01*
X136226597Y-181987702D01*
X136226598Y-181987706D01*
X136280123Y-182152438D01*
X136280125Y-182152441D01*
X136333351Y-182256905D01*
X136358768Y-182306788D01*
X136460586Y-182446928D01*
X136583072Y-182569414D01*
X136723212Y-182671232D01*
X136877555Y-182749873D01*
X136877557Y-182749873D01*
X136877558Y-182749874D01*
X136877561Y-182749876D01*
X137042293Y-182803401D01*
X137042297Y-182803402D01*
X137213386Y-182830500D01*
X137213389Y-182830500D01*
X137386614Y-182830500D01*
X137557702Y-182803402D01*
X137557706Y-182803401D01*
X137722438Y-182749876D01*
X137722440Y-182749874D01*
X137722445Y-182749873D01*
X137876788Y-182671232D01*
X138016928Y-182569414D01*
X138139414Y-182446928D01*
X138241232Y-182306788D01*
X138319873Y-182152445D01*
X138319874Y-182152440D01*
X138319876Y-182152438D01*
X138373401Y-181987706D01*
X138373402Y-181987702D01*
X138400500Y-181816612D01*
X138739499Y-181816612D01*
X138766597Y-181987702D01*
X138766598Y-181987706D01*
X138820123Y-182152438D01*
X138820125Y-182152441D01*
X138873351Y-182256905D01*
X138898768Y-182306788D01*
X139000586Y-182446928D01*
X139123072Y-182569414D01*
X139263212Y-182671232D01*
X139417555Y-182749873D01*
X139417557Y-182749873D01*
X139417558Y-182749874D01*
X139417561Y-182749876D01*
X139582293Y-182803401D01*
X139582297Y-182803402D01*
X139753386Y-182830500D01*
X139753389Y-182830500D01*
X139926614Y-182830500D01*
X140097702Y-182803402D01*
X140097706Y-182803401D01*
X140262438Y-182749876D01*
X140262440Y-182749874D01*
X140262445Y-182749873D01*
X140416788Y-182671232D01*
X140556928Y-182569414D01*
X140679414Y-182446928D01*
X140781232Y-182306788D01*
X140859873Y-182152445D01*
X140859874Y-182152440D01*
X140859876Y-182152438D01*
X140913401Y-181987706D01*
X140913402Y-181987702D01*
X140940500Y-181816612D01*
X143819499Y-181816612D01*
X143846597Y-181987702D01*
X143846598Y-181987706D01*
X143900123Y-182152438D01*
X143900125Y-182152441D01*
X143953351Y-182256905D01*
X143978768Y-182306788D01*
X144080586Y-182446928D01*
X144203072Y-182569414D01*
X144343212Y-182671232D01*
X144497555Y-182749873D01*
X144497557Y-182749873D01*
X144497558Y-182749874D01*
X144497561Y-182749876D01*
X144662293Y-182803401D01*
X144662297Y-182803402D01*
X144833386Y-182830500D01*
X144833389Y-182830500D01*
X145006614Y-182830500D01*
X145177702Y-182803402D01*
X145177706Y-182803401D01*
X145342438Y-182749876D01*
X145342440Y-182749874D01*
X145342445Y-182749873D01*
X145496788Y-182671232D01*
X145636928Y-182569414D01*
X145759414Y-182446928D01*
X145861232Y-182306788D01*
X145939873Y-182152445D01*
X145939874Y-182152440D01*
X145939876Y-182152438D01*
X145993401Y-181987706D01*
X145993402Y-181987702D01*
X146020500Y-181816612D01*
X146359499Y-181816612D01*
X146386597Y-181987702D01*
X146386598Y-181987706D01*
X146440123Y-182152438D01*
X146440125Y-182152441D01*
X146493351Y-182256905D01*
X146518768Y-182306788D01*
X146620586Y-182446928D01*
X146743072Y-182569414D01*
X146883212Y-182671232D01*
X147037555Y-182749873D01*
X147037557Y-182749873D01*
X147037558Y-182749874D01*
X147037561Y-182749876D01*
X147202293Y-182803401D01*
X147202297Y-182803402D01*
X147373386Y-182830500D01*
X147373389Y-182830500D01*
X147546614Y-182830500D01*
X147717702Y-182803402D01*
X147717706Y-182803401D01*
X147882438Y-182749876D01*
X147882440Y-182749874D01*
X147882445Y-182749873D01*
X148036788Y-182671232D01*
X148176928Y-182569414D01*
X148299414Y-182446928D01*
X148401232Y-182306788D01*
X148479873Y-182152445D01*
X148479874Y-182152440D01*
X148479876Y-182152438D01*
X148533401Y-181987706D01*
X148533402Y-181987702D01*
X148560500Y-181816612D01*
X148560500Y-181643385D01*
X148533402Y-181472297D01*
X148533401Y-181472293D01*
X148479876Y-181307561D01*
X148478385Y-181303962D01*
X148480338Y-181303152D01*
X148471988Y-181250434D01*
X148499764Y-181195917D01*
X148499766Y-181195915D01*
X148916187Y-180779496D01*
X148970703Y-180751719D01*
X148986190Y-180750500D01*
X151724151Y-180750500D01*
X151782342Y-180769407D01*
X151818306Y-180818907D01*
X151818306Y-180880093D01*
X151794156Y-180919501D01*
X151700586Y-181013072D01*
X151700585Y-181013073D01*
X151598766Y-181153214D01*
X151520125Y-181307558D01*
X151520123Y-181307561D01*
X151466598Y-181472293D01*
X151466597Y-181472297D01*
X151439500Y-181643385D01*
X151439500Y-181643389D01*
X151439500Y-181816611D01*
X151439500Y-181816612D01*
X151439499Y-181816612D01*
X151466597Y-181987702D01*
X151466598Y-181987706D01*
X151520123Y-182152438D01*
X151520125Y-182152441D01*
X151573351Y-182256905D01*
X151598768Y-182306788D01*
X151700586Y-182446928D01*
X151823072Y-182569414D01*
X151963212Y-182671232D01*
X152117555Y-182749873D01*
X152117557Y-182749873D01*
X152117558Y-182749874D01*
X152117561Y-182749876D01*
X152282293Y-182803401D01*
X152282297Y-182803402D01*
X152453386Y-182830500D01*
X152453389Y-182830500D01*
X152626614Y-182830500D01*
X152797702Y-182803402D01*
X152797706Y-182803401D01*
X152962438Y-182749876D01*
X152962440Y-182749874D01*
X152962445Y-182749873D01*
X153116788Y-182671232D01*
X153256928Y-182569414D01*
X153379414Y-182446928D01*
X153481232Y-182306788D01*
X153559873Y-182152445D01*
X153559874Y-182152440D01*
X153559876Y-182152438D01*
X153613401Y-181987706D01*
X153613402Y-181987702D01*
X153640500Y-181816612D01*
X153640500Y-181643385D01*
X153613402Y-181472297D01*
X153613401Y-181472293D01*
X153559876Y-181307561D01*
X153559874Y-181307558D01*
X153559873Y-181307557D01*
X153559873Y-181307555D01*
X153481232Y-181153212D01*
X153379414Y-181013072D01*
X153285843Y-180919501D01*
X153258068Y-180864987D01*
X153267639Y-180804555D01*
X153310904Y-180761290D01*
X153355849Y-180750500D01*
X154264151Y-180750500D01*
X154322342Y-180769407D01*
X154358306Y-180818907D01*
X154358306Y-180880093D01*
X154334156Y-180919501D01*
X154240586Y-181013072D01*
X154240585Y-181013073D01*
X154138766Y-181153214D01*
X154060125Y-181307558D01*
X154060123Y-181307561D01*
X154006598Y-181472293D01*
X154006597Y-181472297D01*
X153979500Y-181643385D01*
X153979500Y-181643389D01*
X153979500Y-181816611D01*
X153979500Y-181816612D01*
X153979499Y-181816612D01*
X154006597Y-181987702D01*
X154006598Y-181987706D01*
X154060123Y-182152438D01*
X154060125Y-182152441D01*
X154113351Y-182256905D01*
X154138768Y-182306788D01*
X154240586Y-182446928D01*
X154363072Y-182569414D01*
X154503212Y-182671232D01*
X154657555Y-182749873D01*
X154657557Y-182749873D01*
X154657558Y-182749874D01*
X154657561Y-182749876D01*
X154822293Y-182803401D01*
X154822297Y-182803402D01*
X154993386Y-182830500D01*
X154993389Y-182830500D01*
X155166614Y-182830500D01*
X155337702Y-182803402D01*
X155337706Y-182803401D01*
X155502438Y-182749876D01*
X155502440Y-182749874D01*
X155502445Y-182749873D01*
X155656788Y-182671232D01*
X155796928Y-182569414D01*
X155919414Y-182446928D01*
X156021232Y-182306788D01*
X156099873Y-182152445D01*
X156099874Y-182152440D01*
X156099876Y-182152438D01*
X156153401Y-181987706D01*
X156153402Y-181987702D01*
X156180500Y-181816612D01*
X156180500Y-181643385D01*
X156153402Y-181472297D01*
X156153401Y-181472293D01*
X156099876Y-181307561D01*
X156099874Y-181307558D01*
X156099873Y-181307557D01*
X156099873Y-181307555D01*
X156021232Y-181153212D01*
X155919414Y-181013072D01*
X155825843Y-180919501D01*
X155798068Y-180864987D01*
X155807639Y-180804555D01*
X155850904Y-180761290D01*
X155895849Y-180750500D01*
X156804151Y-180750500D01*
X156862342Y-180769407D01*
X156898306Y-180818907D01*
X156898306Y-180880093D01*
X156874156Y-180919501D01*
X156780586Y-181013072D01*
X156780585Y-181013073D01*
X156678766Y-181153214D01*
X156600125Y-181307558D01*
X156600123Y-181307561D01*
X156546598Y-181472293D01*
X156546597Y-181472297D01*
X156519500Y-181643385D01*
X156519500Y-181643389D01*
X156519500Y-181816611D01*
X156519500Y-181816612D01*
X156519499Y-181816612D01*
X156546597Y-181987702D01*
X156546598Y-181987706D01*
X156600123Y-182152438D01*
X156600125Y-182152441D01*
X156653351Y-182256905D01*
X156678768Y-182306788D01*
X156780586Y-182446928D01*
X156903072Y-182569414D01*
X157043212Y-182671232D01*
X157197555Y-182749873D01*
X157197557Y-182749873D01*
X157197558Y-182749874D01*
X157197561Y-182749876D01*
X157362293Y-182803401D01*
X157362297Y-182803402D01*
X157533386Y-182830500D01*
X157533389Y-182830500D01*
X157706614Y-182830500D01*
X157877702Y-182803402D01*
X157877706Y-182803401D01*
X158042438Y-182749876D01*
X158042440Y-182749874D01*
X158042445Y-182749873D01*
X158196788Y-182671232D01*
X158336928Y-182569414D01*
X158459414Y-182446928D01*
X158561232Y-182306788D01*
X158639873Y-182152445D01*
X158639874Y-182152440D01*
X158639876Y-182152438D01*
X158693401Y-181987706D01*
X158693402Y-181987702D01*
X158720500Y-181816612D01*
X158720500Y-181643385D01*
X158693402Y-181472297D01*
X158693401Y-181472293D01*
X158639876Y-181307561D01*
X158639874Y-181307558D01*
X158639873Y-181307557D01*
X158639873Y-181307555D01*
X158561232Y-181153212D01*
X158459414Y-181013072D01*
X158365843Y-180919501D01*
X158338068Y-180864987D01*
X158347639Y-180804555D01*
X158390904Y-180761290D01*
X158435849Y-180750500D01*
X161884151Y-180750500D01*
X161942342Y-180769407D01*
X161978306Y-180818907D01*
X161978306Y-180880093D01*
X161954156Y-180919501D01*
X161860586Y-181013072D01*
X161860585Y-181013073D01*
X161758766Y-181153214D01*
X161680125Y-181307558D01*
X161680123Y-181307561D01*
X161626598Y-181472293D01*
X161626597Y-181472297D01*
X161599500Y-181643385D01*
X161599500Y-181643389D01*
X161599500Y-181816611D01*
X161599500Y-181816612D01*
X161599499Y-181816612D01*
X161626597Y-181987698D01*
X161670171Y-182121804D01*
X161670171Y-182182989D01*
X161634207Y-182232490D01*
X161576016Y-182251397D01*
X161550393Y-182248024D01*
X161512314Y-182237821D01*
X161462601Y-182224500D01*
X161337399Y-182224500D01*
X161256775Y-182246103D01*
X161216463Y-182256905D01*
X161108036Y-182319505D01*
X161019505Y-182408036D01*
X160956905Y-182516463D01*
X160956905Y-182516464D01*
X160924500Y-182637399D01*
X160924500Y-182762601D01*
X160956905Y-182883536D01*
X161019505Y-182991964D01*
X161108036Y-183080495D01*
X161216464Y-183143095D01*
X161337399Y-183175500D01*
X161337401Y-183175500D01*
X161462599Y-183175500D01*
X161462601Y-183175500D01*
X161583536Y-183143095D01*
X161691964Y-183080495D01*
X161780495Y-182991964D01*
X161843095Y-182883536D01*
X161875500Y-182762601D01*
X161875500Y-182685556D01*
X161894407Y-182627365D01*
X161943907Y-182591401D01*
X162005093Y-182591401D01*
X162032689Y-182605462D01*
X162123212Y-182671232D01*
X162277555Y-182749873D01*
X162277557Y-182749873D01*
X162277558Y-182749874D01*
X162277561Y-182749876D01*
X162442293Y-182803401D01*
X162442297Y-182803402D01*
X162613386Y-182830500D01*
X162613389Y-182830500D01*
X162786614Y-182830500D01*
X162957702Y-182803402D01*
X162957706Y-182803401D01*
X163122438Y-182749876D01*
X163122440Y-182749874D01*
X163122445Y-182749873D01*
X163276788Y-182671232D01*
X163416928Y-182569414D01*
X163539414Y-182446928D01*
X163641232Y-182306788D01*
X163719873Y-182152445D01*
X163719874Y-182152440D01*
X163719876Y-182152438D01*
X163773401Y-181987706D01*
X163773402Y-181987702D01*
X163800500Y-181816612D01*
X163800500Y-181643385D01*
X163773402Y-181472297D01*
X163773401Y-181472293D01*
X163719876Y-181307561D01*
X163719874Y-181307558D01*
X163719873Y-181307557D01*
X163719873Y-181307555D01*
X163641232Y-181153212D01*
X163539414Y-181013072D01*
X163445843Y-180919501D01*
X163418068Y-180864987D01*
X163427639Y-180804555D01*
X163470904Y-180761290D01*
X163515849Y-180750500D01*
X164424151Y-180750500D01*
X164482342Y-180769407D01*
X164518306Y-180818907D01*
X164518306Y-180880093D01*
X164494156Y-180919501D01*
X164400586Y-181013072D01*
X164400585Y-181013073D01*
X164298766Y-181153214D01*
X164220125Y-181307558D01*
X164220123Y-181307561D01*
X164166598Y-181472293D01*
X164166597Y-181472297D01*
X164139500Y-181643385D01*
X164139500Y-181643389D01*
X164139500Y-181816611D01*
X164139500Y-181816612D01*
X164139499Y-181816612D01*
X164166597Y-181987702D01*
X164166598Y-181987706D01*
X164220123Y-182152438D01*
X164220125Y-182152441D01*
X164273351Y-182256905D01*
X164298768Y-182306788D01*
X164400586Y-182446928D01*
X164523072Y-182569414D01*
X164663212Y-182671232D01*
X164817555Y-182749873D01*
X164817557Y-182749873D01*
X164817558Y-182749874D01*
X164817561Y-182749876D01*
X164982293Y-182803401D01*
X164982297Y-182803402D01*
X165153386Y-182830500D01*
X165153389Y-182830500D01*
X165326614Y-182830500D01*
X165497702Y-182803402D01*
X165497706Y-182803401D01*
X165662438Y-182749876D01*
X165662440Y-182749874D01*
X165662445Y-182749873D01*
X165816788Y-182671232D01*
X165956928Y-182569414D01*
X166079414Y-182446928D01*
X166181232Y-182306788D01*
X166259873Y-182152445D01*
X166259874Y-182152440D01*
X166259876Y-182152438D01*
X166313401Y-181987706D01*
X166313402Y-181987702D01*
X166340500Y-181816612D01*
X166340500Y-181643385D01*
X166313402Y-181472297D01*
X166313401Y-181472293D01*
X166259876Y-181307561D01*
X166259874Y-181307558D01*
X166259873Y-181307557D01*
X166259873Y-181307555D01*
X166181232Y-181153212D01*
X166079414Y-181013072D01*
X165985843Y-180919501D01*
X165958068Y-180864987D01*
X165967639Y-180804555D01*
X166010904Y-180761290D01*
X166055849Y-180750500D01*
X166346142Y-180750500D01*
X166346144Y-180750500D01*
X166435288Y-180726614D01*
X166463844Y-180710127D01*
X166515212Y-180680470D01*
X166780470Y-180415212D01*
X166826614Y-180335288D01*
X166843986Y-180270452D01*
X166869609Y-180226073D01*
X167091187Y-180004496D01*
X167145703Y-179976719D01*
X167161190Y-179975500D01*
X167162599Y-179975500D01*
X167162601Y-179975500D01*
X167283536Y-179943095D01*
X167391964Y-179880495D01*
X167480495Y-179791964D01*
X167543095Y-179683536D01*
X167575500Y-179562601D01*
X167575500Y-179437399D01*
X167543095Y-179316464D01*
X167480495Y-179208036D01*
X167391964Y-179119505D01*
X167283536Y-179056905D01*
X167162601Y-179024500D01*
X167037399Y-179024500D01*
X166968003Y-179043095D01*
X166916463Y-179056905D01*
X166808036Y-179119505D01*
X166719505Y-179208036D01*
X166656905Y-179316463D01*
X166656905Y-179316464D01*
X166624500Y-179437399D01*
X166624500Y-179437401D01*
X166624500Y-179438810D01*
X166624187Y-179439771D01*
X166623653Y-179443832D01*
X166622900Y-179443732D01*
X166605593Y-179497001D01*
X166595504Y-179508814D01*
X166509504Y-179594814D01*
X166454987Y-179622591D01*
X166394555Y-179613020D01*
X166351290Y-179569755D01*
X166340500Y-179524810D01*
X166340500Y-178551966D01*
X166359407Y-178493775D01*
X166408907Y-178457811D01*
X166470093Y-178457811D01*
X166502174Y-178477470D01*
X166502886Y-178476544D01*
X166508028Y-178480489D01*
X166508032Y-178480491D01*
X166508036Y-178480495D01*
X166616464Y-178543095D01*
X166737399Y-178575500D01*
X166737401Y-178575500D01*
X166862599Y-178575500D01*
X166862601Y-178575500D01*
X166983536Y-178543095D01*
X167091964Y-178480495D01*
X167180495Y-178391964D01*
X167243095Y-178283536D01*
X167275500Y-178162601D01*
X167275500Y-178037399D01*
X167243095Y-177916464D01*
X167241905Y-177914403D01*
X167233012Y-177898998D01*
X167220292Y-177839150D01*
X167245179Y-177783255D01*
X167298167Y-177752663D01*
X167318749Y-177750500D01*
X167613810Y-177750500D01*
X167672001Y-177769407D01*
X167683814Y-177779496D01*
X170095504Y-180191186D01*
X170123281Y-180245703D01*
X170124500Y-180261190D01*
X170124500Y-180262601D01*
X170156905Y-180383536D01*
X170219505Y-180491964D01*
X170308036Y-180580495D01*
X170416464Y-180643095D01*
X170537399Y-180675500D01*
X170537401Y-180675500D01*
X170662599Y-180675500D01*
X170662601Y-180675500D01*
X170783536Y-180643095D01*
X170891964Y-180580495D01*
X170980495Y-180491964D01*
X171043095Y-180383536D01*
X171075500Y-180262601D01*
X171075500Y-180137399D01*
X171043095Y-180016464D01*
X170980495Y-179908036D01*
X170891964Y-179819505D01*
X170783536Y-179756905D01*
X170662601Y-179724500D01*
X170662599Y-179724500D01*
X170661190Y-179724500D01*
X170660228Y-179724187D01*
X170656168Y-179723653D01*
X170656267Y-179722900D01*
X170602999Y-179705593D01*
X170591186Y-179695504D01*
X169496596Y-178600914D01*
X169433081Y-178537399D01*
X170224500Y-178537399D01*
X170224500Y-178662601D01*
X170256905Y-178783536D01*
X170319505Y-178891964D01*
X170408036Y-178980495D01*
X170516464Y-179043095D01*
X170637399Y-179075500D01*
X170637401Y-179075500D01*
X170762599Y-179075500D01*
X170762601Y-179075500D01*
X170883536Y-179043095D01*
X170991964Y-178980495D01*
X171080495Y-178891964D01*
X171143095Y-178783536D01*
X171175500Y-178662601D01*
X171175500Y-178537399D01*
X171143095Y-178416464D01*
X171080495Y-178308036D01*
X170991964Y-178219505D01*
X170883536Y-178156905D01*
X170762601Y-178124500D01*
X170637399Y-178124500D01*
X170556775Y-178146103D01*
X170516463Y-178156905D01*
X170408036Y-178219505D01*
X170319505Y-178308036D01*
X170256905Y-178416463D01*
X170254185Y-178426614D01*
X170224500Y-178537399D01*
X169433081Y-178537399D01*
X168794680Y-177898998D01*
X168015212Y-177119530D01*
X167935288Y-177073386D01*
X167846144Y-177049500D01*
X166646144Y-177049500D01*
X166553856Y-177049500D01*
X166464712Y-177073386D01*
X166384785Y-177119532D01*
X165983813Y-177520504D01*
X165929297Y-177548281D01*
X165913810Y-177549500D01*
X163061966Y-177549500D01*
X163003775Y-177530593D01*
X162967811Y-177481093D01*
X162967811Y-177419907D01*
X162991962Y-177380496D01*
X162991961Y-177380496D01*
X162991964Y-177380495D01*
X163080495Y-177291964D01*
X163143095Y-177183536D01*
X163175500Y-177062601D01*
X163175500Y-176937399D01*
X163143095Y-176816464D01*
X163080495Y-176708036D01*
X162991964Y-176619505D01*
X162883536Y-176556905D01*
X162762601Y-176524500D01*
X162637399Y-176524500D01*
X162556775Y-176546103D01*
X162516463Y-176556905D01*
X162408036Y-176619505D01*
X162319505Y-176708036D01*
X162256905Y-176816463D01*
X162256905Y-176816464D01*
X162224500Y-176937399D01*
X162224500Y-176937401D01*
X162224500Y-176950500D01*
X162205593Y-177008691D01*
X162156093Y-177044655D01*
X162125500Y-177049500D01*
X161453856Y-177049500D01*
X161364712Y-177073386D01*
X161364711Y-177073386D01*
X161364709Y-177073387D01*
X161284789Y-177119529D01*
X161284784Y-177119533D01*
X161273923Y-177130394D01*
X161229548Y-177156012D01*
X161164712Y-177173385D01*
X161084789Y-177219529D01*
X160783814Y-177520504D01*
X160729298Y-177548281D01*
X160713811Y-177549500D01*
X154953856Y-177549500D01*
X154864712Y-177573386D01*
X154864711Y-177573386D01*
X154864709Y-177573387D01*
X154784790Y-177619529D01*
X154784788Y-177619530D01*
X154784788Y-177619531D01*
X154783813Y-177620505D01*
X154782935Y-177620952D01*
X154779642Y-177623480D01*
X154779173Y-177622869D01*
X154729299Y-177648281D01*
X154713812Y-177649500D01*
X154553856Y-177649500D01*
X154464712Y-177673386D01*
X154464710Y-177673386D01*
X154464710Y-177673387D01*
X154458718Y-177675869D01*
X154457555Y-177673062D01*
X154409826Y-177683112D01*
X154353979Y-177658118D01*
X154350360Y-177654678D01*
X152704496Y-176008814D01*
X152700869Y-176001696D01*
X152694407Y-175997001D01*
X152687243Y-175974952D01*
X152680497Y-175961712D01*
X152680345Y-175961503D01*
X152680308Y-175961342D01*
X152676719Y-175954297D01*
X152675500Y-175938810D01*
X152675500Y-175937401D01*
X152675500Y-175937399D01*
X163024500Y-175937399D01*
X163024500Y-176062601D01*
X163056905Y-176183536D01*
X163119505Y-176291964D01*
X163208036Y-176380495D01*
X163316464Y-176443095D01*
X163437399Y-176475500D01*
X163437401Y-176475500D01*
X163562599Y-176475500D01*
X163562601Y-176475500D01*
X163683536Y-176443095D01*
X163791964Y-176380495D01*
X163880495Y-176291964D01*
X163943095Y-176183536D01*
X163975500Y-176062601D01*
X163975500Y-175937399D01*
X163943095Y-175816464D01*
X163880495Y-175708036D01*
X163791964Y-175619505D01*
X163683536Y-175556905D01*
X163562601Y-175524500D01*
X163437399Y-175524500D01*
X163356775Y-175546103D01*
X163316463Y-175556905D01*
X163208036Y-175619505D01*
X163119505Y-175708036D01*
X163056905Y-175816463D01*
X163056905Y-175816464D01*
X163024500Y-175937399D01*
X152675500Y-175937399D01*
X152643095Y-175816464D01*
X152580495Y-175708036D01*
X152491964Y-175619505D01*
X152383536Y-175556905D01*
X152262601Y-175524500D01*
X152137399Y-175524500D01*
X152056775Y-175546103D01*
X152016463Y-175556905D01*
X151908036Y-175619505D01*
X151819505Y-175708036D01*
X151756905Y-175816463D01*
X151756905Y-175816464D01*
X151724500Y-175937399D01*
X151724500Y-176062601D01*
X151756905Y-176183536D01*
X151819505Y-176291964D01*
X151908036Y-176380495D01*
X152016464Y-176443095D01*
X152137399Y-176475500D01*
X152138810Y-176475500D01*
X152139771Y-176475812D01*
X152143832Y-176476347D01*
X152143732Y-176477099D01*
X152197001Y-176494407D01*
X152208814Y-176504496D01*
X154084787Y-178380469D01*
X154147132Y-178416464D01*
X154164712Y-178426614D01*
X154253856Y-178450500D01*
X154253858Y-178450500D01*
X154546142Y-178450500D01*
X154546144Y-178450500D01*
X154635288Y-178426614D01*
X154652868Y-178416464D01*
X154715212Y-178380470D01*
X154716187Y-178379494D01*
X154717069Y-178379045D01*
X154720362Y-178376519D01*
X154720830Y-178377129D01*
X154770702Y-178351719D01*
X154786189Y-178350500D01*
X154946142Y-178350500D01*
X154946144Y-178350500D01*
X155035288Y-178326614D01*
X155054839Y-178315326D01*
X155115212Y-178280470D01*
X155116187Y-178279494D01*
X155117069Y-178279045D01*
X155120362Y-178276519D01*
X155120830Y-178277129D01*
X155170702Y-178251719D01*
X155186189Y-178250500D01*
X156764151Y-178250500D01*
X156822342Y-178269407D01*
X156858306Y-178318907D01*
X156858306Y-178380093D01*
X156834156Y-178419501D01*
X156803158Y-178450500D01*
X156780585Y-178473073D01*
X156678766Y-178613214D01*
X156600125Y-178767558D01*
X156600123Y-178767561D01*
X156546598Y-178932293D01*
X156546597Y-178932297D01*
X156519500Y-179103385D01*
X156519500Y-179276614D01*
X156546597Y-179447702D01*
X156546598Y-179447706D01*
X156600123Y-179612438D01*
X156600125Y-179612441D01*
X156677254Y-179763818D01*
X156678768Y-179766788D01*
X156761381Y-179880495D01*
X156769965Y-179892309D01*
X156788872Y-179950500D01*
X156769965Y-180008691D01*
X156720465Y-180044655D01*
X156689872Y-180049500D01*
X153470128Y-180049500D01*
X153411937Y-180030593D01*
X153375973Y-179981093D01*
X153375973Y-179919907D01*
X153390035Y-179892309D01*
X153481232Y-179766788D01*
X153559873Y-179612445D01*
X153559874Y-179612440D01*
X153559876Y-179612438D01*
X153613401Y-179447706D01*
X153613402Y-179447702D01*
X153640500Y-179276614D01*
X153640500Y-179103385D01*
X153613402Y-178932297D01*
X153613401Y-178932293D01*
X153559876Y-178767561D01*
X153559874Y-178767558D01*
X153559873Y-178767557D01*
X153559873Y-178767555D01*
X153481232Y-178613212D01*
X153379414Y-178473072D01*
X153256928Y-178350586D01*
X153116788Y-178248768D01*
X153116787Y-178248767D01*
X153116785Y-178248766D01*
X152962441Y-178170125D01*
X152962438Y-178170123D01*
X152797706Y-178116598D01*
X152797702Y-178116597D01*
X152626614Y-178089500D01*
X152626611Y-178089500D01*
X152453389Y-178089500D01*
X152453386Y-178089500D01*
X152282297Y-178116597D01*
X152282293Y-178116598D01*
X152117561Y-178170123D01*
X152117558Y-178170125D01*
X151963214Y-178248766D01*
X151823073Y-178350585D01*
X151700585Y-178473073D01*
X151598766Y-178613214D01*
X151520125Y-178767558D01*
X151520123Y-178767561D01*
X151466598Y-178932293D01*
X151466597Y-178932297D01*
X151439500Y-179103385D01*
X151439500Y-179276614D01*
X151466597Y-179447702D01*
X151466598Y-179447706D01*
X151520123Y-179612438D01*
X151520125Y-179612441D01*
X151597254Y-179763818D01*
X151598768Y-179766788D01*
X151681381Y-179880495D01*
X151689965Y-179892309D01*
X151708872Y-179950500D01*
X151689965Y-180008691D01*
X151640465Y-180044655D01*
X151609872Y-180049500D01*
X150930128Y-180049500D01*
X150871937Y-180030593D01*
X150835973Y-179981093D01*
X150835973Y-179919907D01*
X150850035Y-179892309D01*
X150941232Y-179766788D01*
X151019873Y-179612445D01*
X151019874Y-179612440D01*
X151019876Y-179612438D01*
X151073401Y-179447706D01*
X151073402Y-179447702D01*
X151100500Y-179276614D01*
X151100500Y-179103385D01*
X151073402Y-178932297D01*
X151073401Y-178932293D01*
X151019876Y-178767561D01*
X151019874Y-178767558D01*
X151019873Y-178767557D01*
X151019873Y-178767555D01*
X150941232Y-178613212D01*
X150839414Y-178473072D01*
X150716928Y-178350586D01*
X150576788Y-178248768D01*
X150576787Y-178248767D01*
X150576785Y-178248766D01*
X150422441Y-178170125D01*
X150422438Y-178170123D01*
X150257706Y-178116598D01*
X150257702Y-178116597D01*
X150086614Y-178089500D01*
X150086611Y-178089500D01*
X149913389Y-178089500D01*
X149913386Y-178089500D01*
X149742297Y-178116597D01*
X149742293Y-178116598D01*
X149577561Y-178170123D01*
X149577558Y-178170125D01*
X149423214Y-178248766D01*
X149283073Y-178350585D01*
X149160585Y-178473073D01*
X149058766Y-178613214D01*
X148980125Y-178767558D01*
X148980123Y-178767561D01*
X148926598Y-178932293D01*
X148926597Y-178932297D01*
X148899500Y-179103385D01*
X148899500Y-179276614D01*
X148926597Y-179447702D01*
X148926598Y-179447706D01*
X148980123Y-179612438D01*
X148980125Y-179612441D01*
X149057254Y-179763818D01*
X149058768Y-179766788D01*
X149141381Y-179880495D01*
X149149965Y-179892309D01*
X149168872Y-179950500D01*
X149149965Y-180008691D01*
X149100465Y-180044655D01*
X149069872Y-180049500D01*
X148753856Y-180049500D01*
X148725541Y-180057087D01*
X148697225Y-180064674D01*
X148697224Y-180064673D01*
X148664715Y-180073384D01*
X148584785Y-180119532D01*
X148007331Y-180696984D01*
X147952815Y-180724761D01*
X147892386Y-180715191D01*
X147882449Y-180710128D01*
X147882438Y-180710123D01*
X147717706Y-180656598D01*
X147717702Y-180656597D01*
X147546614Y-180629500D01*
X147546611Y-180629500D01*
X147373389Y-180629500D01*
X147373386Y-180629500D01*
X147202297Y-180656597D01*
X147202293Y-180656598D01*
X147037561Y-180710123D01*
X147037558Y-180710125D01*
X146883214Y-180788766D01*
X146743073Y-180890585D01*
X146620585Y-181013073D01*
X146518766Y-181153214D01*
X146440125Y-181307558D01*
X146440123Y-181307561D01*
X146386598Y-181472293D01*
X146386597Y-181472297D01*
X146359500Y-181643385D01*
X146359500Y-181643389D01*
X146359500Y-181816611D01*
X146359500Y-181816612D01*
X146359499Y-181816612D01*
X146020500Y-181816612D01*
X146020500Y-181643385D01*
X145993402Y-181472297D01*
X145993401Y-181472293D01*
X145939876Y-181307561D01*
X145939874Y-181307558D01*
X145939873Y-181307557D01*
X145939873Y-181307555D01*
X145861232Y-181153212D01*
X145759414Y-181013072D01*
X145636928Y-180890586D01*
X145496788Y-180788768D01*
X145496787Y-180788767D01*
X145496785Y-180788766D01*
X145342441Y-180710125D01*
X145342438Y-180710123D01*
X145177706Y-180656598D01*
X145177702Y-180656597D01*
X145006614Y-180629500D01*
X145006611Y-180629500D01*
X144833389Y-180629500D01*
X144833386Y-180629500D01*
X144662297Y-180656597D01*
X144662293Y-180656598D01*
X144497561Y-180710123D01*
X144497558Y-180710125D01*
X144343214Y-180788766D01*
X144203073Y-180890585D01*
X144080585Y-181013073D01*
X143978766Y-181153214D01*
X143900125Y-181307558D01*
X143900123Y-181307561D01*
X143846598Y-181472293D01*
X143846597Y-181472297D01*
X143819500Y-181643385D01*
X143819500Y-181643389D01*
X143819500Y-181816611D01*
X143819500Y-181816612D01*
X143819499Y-181816612D01*
X140940500Y-181816612D01*
X140940500Y-181643385D01*
X140913402Y-181472297D01*
X140913401Y-181472293D01*
X140859876Y-181307561D01*
X140859874Y-181307558D01*
X140859873Y-181307557D01*
X140859873Y-181307555D01*
X140781232Y-181153212D01*
X140679414Y-181013072D01*
X140556928Y-180890586D01*
X140416788Y-180788768D01*
X140416787Y-180788767D01*
X140416785Y-180788766D01*
X140262441Y-180710125D01*
X140262438Y-180710123D01*
X140097706Y-180656598D01*
X140097702Y-180656597D01*
X139926614Y-180629500D01*
X139926611Y-180629500D01*
X139753389Y-180629500D01*
X139753386Y-180629500D01*
X139582297Y-180656597D01*
X139582293Y-180656598D01*
X139417561Y-180710123D01*
X139417558Y-180710125D01*
X139263214Y-180788766D01*
X139123073Y-180890585D01*
X139000585Y-181013073D01*
X138898766Y-181153214D01*
X138820125Y-181307558D01*
X138820123Y-181307561D01*
X138766598Y-181472293D01*
X138766597Y-181472297D01*
X138739500Y-181643385D01*
X138739500Y-181643389D01*
X138739500Y-181816611D01*
X138739500Y-181816612D01*
X138739499Y-181816612D01*
X138400500Y-181816612D01*
X138400500Y-181643385D01*
X138373402Y-181472297D01*
X138373401Y-181472293D01*
X138319876Y-181307561D01*
X138319874Y-181307558D01*
X138319873Y-181307557D01*
X138319873Y-181307555D01*
X138241232Y-181153212D01*
X138139414Y-181013072D01*
X138016928Y-180890586D01*
X137876788Y-180788768D01*
X137876787Y-180788767D01*
X137876785Y-180788766D01*
X137722441Y-180710125D01*
X137722438Y-180710123D01*
X137557706Y-180656598D01*
X137557702Y-180656597D01*
X137386614Y-180629500D01*
X137386611Y-180629500D01*
X137213389Y-180629500D01*
X137213386Y-180629500D01*
X137042297Y-180656597D01*
X137042293Y-180656598D01*
X136877561Y-180710123D01*
X136877558Y-180710125D01*
X136723214Y-180788766D01*
X136583073Y-180890585D01*
X136460585Y-181013073D01*
X136358766Y-181153214D01*
X136280125Y-181307558D01*
X136280123Y-181307561D01*
X136226598Y-181472293D01*
X136226597Y-181472297D01*
X136199500Y-181643385D01*
X136199500Y-181643389D01*
X136199500Y-181816611D01*
X136199500Y-181816612D01*
X136199499Y-181816612D01*
X135860500Y-181816612D01*
X135860500Y-181643385D01*
X135833402Y-181472297D01*
X135833401Y-181472293D01*
X135779876Y-181307561D01*
X135779874Y-181307558D01*
X135779873Y-181307557D01*
X135779873Y-181307555D01*
X135701232Y-181153212D01*
X135599414Y-181013072D01*
X135476928Y-180890586D01*
X135336788Y-180788768D01*
X135336787Y-180788767D01*
X135336785Y-180788766D01*
X135182441Y-180710125D01*
X135182438Y-180710123D01*
X135017706Y-180656598D01*
X135017702Y-180656597D01*
X134846614Y-180629500D01*
X134846611Y-180629500D01*
X134673389Y-180629500D01*
X134673386Y-180629500D01*
X134502297Y-180656597D01*
X134502293Y-180656598D01*
X134337561Y-180710123D01*
X134337558Y-180710125D01*
X134183214Y-180788766D01*
X134043073Y-180890585D01*
X133920585Y-181013073D01*
X133818766Y-181153214D01*
X133740125Y-181307558D01*
X133740123Y-181307561D01*
X133686598Y-181472293D01*
X133686597Y-181472297D01*
X133659500Y-181643385D01*
X133659500Y-181643389D01*
X133659500Y-181816611D01*
X133659500Y-181816612D01*
X133659499Y-181816612D01*
X99727211Y-181816612D01*
X99268580Y-181089725D01*
X99267242Y-181087542D01*
X99098882Y-180804555D01*
X98472146Y-179751107D01*
X98470861Y-179748881D01*
X98446619Y-179705593D01*
X98109366Y-179103385D01*
X136199500Y-179103385D01*
X136199500Y-179276614D01*
X136226597Y-179447702D01*
X136226598Y-179447706D01*
X136280123Y-179612438D01*
X136280125Y-179612441D01*
X136357254Y-179763818D01*
X136358768Y-179766788D01*
X136460586Y-179906928D01*
X136583072Y-180029414D01*
X136723212Y-180131232D01*
X136877555Y-180209873D01*
X136877557Y-180209873D01*
X136877558Y-180209874D01*
X136877561Y-180209876D01*
X137042293Y-180263401D01*
X137042297Y-180263402D01*
X137213386Y-180290500D01*
X137213389Y-180290500D01*
X137386614Y-180290500D01*
X137557702Y-180263402D01*
X137557706Y-180263401D01*
X137722438Y-180209876D01*
X137722440Y-180209874D01*
X137722445Y-180209873D01*
X137876788Y-180131232D01*
X138016928Y-180029414D01*
X138139414Y-179906928D01*
X138241232Y-179766788D01*
X138319873Y-179612445D01*
X138319874Y-179612440D01*
X138319876Y-179612438D01*
X138373401Y-179447706D01*
X138373402Y-179447702D01*
X138400500Y-179276614D01*
X138400500Y-179103385D01*
X138739500Y-179103385D01*
X138739500Y-179276614D01*
X138766597Y-179447702D01*
X138766598Y-179447706D01*
X138820123Y-179612438D01*
X138820125Y-179612441D01*
X138897254Y-179763818D01*
X138898768Y-179766788D01*
X139000586Y-179906928D01*
X139123072Y-180029414D01*
X139263212Y-180131232D01*
X139417555Y-180209873D01*
X139417557Y-180209873D01*
X139417558Y-180209874D01*
X139417561Y-180209876D01*
X139582293Y-180263401D01*
X139582297Y-180263402D01*
X139753386Y-180290500D01*
X139753389Y-180290500D01*
X139926614Y-180290500D01*
X140097702Y-180263402D01*
X140097706Y-180263401D01*
X140262438Y-180209876D01*
X140262440Y-180209874D01*
X140262445Y-180209873D01*
X140416788Y-180131232D01*
X140556928Y-180029414D01*
X140679414Y-179906928D01*
X140781232Y-179766788D01*
X140859873Y-179612445D01*
X140859874Y-179612440D01*
X140859876Y-179612438D01*
X140913401Y-179447706D01*
X140913402Y-179447702D01*
X140940500Y-179276614D01*
X140940500Y-179103385D01*
X141279500Y-179103385D01*
X141279500Y-179276614D01*
X141306597Y-179447702D01*
X141306598Y-179447706D01*
X141360123Y-179612438D01*
X141360125Y-179612441D01*
X141437254Y-179763818D01*
X141438768Y-179766788D01*
X141540586Y-179906928D01*
X141663072Y-180029414D01*
X141803212Y-180131232D01*
X141957555Y-180209873D01*
X141957557Y-180209873D01*
X141957558Y-180209874D01*
X141957561Y-180209876D01*
X142122293Y-180263401D01*
X142122297Y-180263402D01*
X142293386Y-180290500D01*
X142293389Y-180290500D01*
X142466614Y-180290500D01*
X142637702Y-180263402D01*
X142637706Y-180263401D01*
X142802438Y-180209876D01*
X142802440Y-180209874D01*
X142802445Y-180209873D01*
X142956788Y-180131232D01*
X143096928Y-180029414D01*
X143219414Y-179906928D01*
X143321232Y-179766788D01*
X143399873Y-179612445D01*
X143399874Y-179612440D01*
X143399876Y-179612438D01*
X143453401Y-179447706D01*
X143453402Y-179447702D01*
X143480500Y-179276614D01*
X143480500Y-179156189D01*
X143499407Y-179097998D01*
X143509496Y-179086186D01*
X143665627Y-178930054D01*
X143720144Y-178902276D01*
X143780576Y-178911847D01*
X143823841Y-178955112D01*
X143833412Y-179015543D01*
X143819500Y-179103384D01*
X143819500Y-179276614D01*
X143846597Y-179447702D01*
X143846598Y-179447706D01*
X143900123Y-179612438D01*
X143900125Y-179612441D01*
X143977254Y-179763818D01*
X143978768Y-179766788D01*
X144080586Y-179906928D01*
X144203072Y-180029414D01*
X144343212Y-180131232D01*
X144497555Y-180209873D01*
X144497557Y-180209873D01*
X144497558Y-180209874D01*
X144497561Y-180209876D01*
X144662293Y-180263401D01*
X144662297Y-180263402D01*
X144833386Y-180290500D01*
X144833389Y-180290500D01*
X145006614Y-180290500D01*
X145177702Y-180263402D01*
X145177706Y-180263401D01*
X145342438Y-180209876D01*
X145342440Y-180209874D01*
X145342445Y-180209873D01*
X145496788Y-180131232D01*
X145636928Y-180029414D01*
X145759414Y-179906928D01*
X145861232Y-179766788D01*
X145939873Y-179612445D01*
X145939874Y-179612440D01*
X145939876Y-179612438D01*
X145993401Y-179447706D01*
X145993402Y-179447702D01*
X146020500Y-179276614D01*
X146020500Y-179103385D01*
X146359500Y-179103385D01*
X146359500Y-179276614D01*
X146386597Y-179447702D01*
X146386598Y-179447706D01*
X146440123Y-179612438D01*
X146440125Y-179612441D01*
X146517254Y-179763818D01*
X146518768Y-179766788D01*
X146620586Y-179906928D01*
X146743072Y-180029414D01*
X146883212Y-180131232D01*
X147037555Y-180209873D01*
X147037557Y-180209873D01*
X147037558Y-180209874D01*
X147037561Y-180209876D01*
X147202293Y-180263401D01*
X147202297Y-180263402D01*
X147373386Y-180290500D01*
X147373389Y-180290500D01*
X147546614Y-180290500D01*
X147717702Y-180263402D01*
X147717706Y-180263401D01*
X147882438Y-180209876D01*
X147882440Y-180209874D01*
X147882445Y-180209873D01*
X148036788Y-180131232D01*
X148176928Y-180029414D01*
X148299414Y-179906928D01*
X148401232Y-179766788D01*
X148479873Y-179612445D01*
X148479874Y-179612440D01*
X148479876Y-179612438D01*
X148533401Y-179447706D01*
X148533402Y-179447702D01*
X148560500Y-179276614D01*
X148560500Y-179103385D01*
X148533402Y-178932297D01*
X148533401Y-178932293D01*
X148479876Y-178767561D01*
X148479874Y-178767558D01*
X148479873Y-178767557D01*
X148479873Y-178767555D01*
X148401232Y-178613212D01*
X148299414Y-178473072D01*
X148176928Y-178350586D01*
X148036788Y-178248768D01*
X148036787Y-178248767D01*
X148036785Y-178248766D01*
X147882441Y-178170125D01*
X147882438Y-178170123D01*
X147717706Y-178116598D01*
X147717702Y-178116597D01*
X147546614Y-178089500D01*
X147546611Y-178089500D01*
X147373389Y-178089500D01*
X147373386Y-178089500D01*
X147202297Y-178116597D01*
X147202293Y-178116598D01*
X147037561Y-178170123D01*
X147037558Y-178170125D01*
X146883214Y-178248766D01*
X146743073Y-178350585D01*
X146620585Y-178473073D01*
X146518766Y-178613214D01*
X146440125Y-178767558D01*
X146440123Y-178767561D01*
X146386598Y-178932293D01*
X146386597Y-178932297D01*
X146359500Y-179103385D01*
X146020500Y-179103385D01*
X145993402Y-178932297D01*
X145993401Y-178932293D01*
X145939876Y-178767561D01*
X145939874Y-178767558D01*
X145939873Y-178767557D01*
X145939873Y-178767555D01*
X145861232Y-178613212D01*
X145759414Y-178473072D01*
X145636928Y-178350586D01*
X145496788Y-178248768D01*
X145496787Y-178248767D01*
X145496785Y-178248766D01*
X145342441Y-178170125D01*
X145342438Y-178170123D01*
X145177706Y-178116598D01*
X145177702Y-178116597D01*
X145006614Y-178089500D01*
X145006611Y-178089500D01*
X144833389Y-178089500D01*
X144833385Y-178089500D01*
X144745542Y-178103412D01*
X144685110Y-178093840D01*
X144641846Y-178050575D01*
X144632275Y-177990143D01*
X144660050Y-177935629D01*
X146091185Y-176504496D01*
X146145702Y-176476719D01*
X146161189Y-176475500D01*
X146162599Y-176475500D01*
X146162601Y-176475500D01*
X146283536Y-176443095D01*
X146391964Y-176380495D01*
X146480495Y-176291964D01*
X146543095Y-176183536D01*
X146575500Y-176062601D01*
X146575500Y-175937399D01*
X146543095Y-175816464D01*
X146480495Y-175708036D01*
X146391964Y-175619505D01*
X146283536Y-175556905D01*
X146162601Y-175524500D01*
X146037399Y-175524500D01*
X145956775Y-175546103D01*
X145916463Y-175556905D01*
X145808036Y-175619505D01*
X145719505Y-175708036D01*
X145656905Y-175816463D01*
X145656905Y-175816464D01*
X145624500Y-175937399D01*
X145624500Y-175937401D01*
X145624500Y-175938810D01*
X145624187Y-175939771D01*
X145623653Y-175943832D01*
X145622900Y-175943732D01*
X145605593Y-175997001D01*
X145595504Y-176008814D01*
X143245333Y-178358984D01*
X143190816Y-178386761D01*
X143130384Y-178377190D01*
X143105328Y-178358986D01*
X143096928Y-178350586D01*
X142956788Y-178248768D01*
X142956787Y-178248767D01*
X142956785Y-178248766D01*
X142802441Y-178170125D01*
X142802438Y-178170123D01*
X142637706Y-178116598D01*
X142637702Y-178116597D01*
X142466614Y-178089500D01*
X142466611Y-178089500D01*
X142293389Y-178089500D01*
X142293386Y-178089500D01*
X142122297Y-178116597D01*
X142122293Y-178116598D01*
X141957561Y-178170123D01*
X141957558Y-178170125D01*
X141803214Y-178248766D01*
X141663073Y-178350585D01*
X141540585Y-178473073D01*
X141438766Y-178613214D01*
X141360125Y-178767558D01*
X141360123Y-178767561D01*
X141306598Y-178932293D01*
X141306597Y-178932297D01*
X141279500Y-179103385D01*
X140940500Y-179103385D01*
X140913402Y-178932297D01*
X140913401Y-178932293D01*
X140859876Y-178767561D01*
X140859874Y-178767558D01*
X140859873Y-178767557D01*
X140859873Y-178767555D01*
X140781232Y-178613212D01*
X140679414Y-178473072D01*
X140556928Y-178350586D01*
X140416788Y-178248768D01*
X140416787Y-178248767D01*
X140416785Y-178248766D01*
X140262441Y-178170125D01*
X140262438Y-178170123D01*
X140097706Y-178116598D01*
X140097702Y-178116597D01*
X139926614Y-178089500D01*
X139926611Y-178089500D01*
X139753389Y-178089500D01*
X139753386Y-178089500D01*
X139582297Y-178116597D01*
X139582293Y-178116598D01*
X139417561Y-178170123D01*
X139417558Y-178170125D01*
X139263214Y-178248766D01*
X139123073Y-178350585D01*
X139000585Y-178473073D01*
X138898766Y-178613214D01*
X138820125Y-178767558D01*
X138820123Y-178767561D01*
X138766598Y-178932293D01*
X138766597Y-178932297D01*
X138739500Y-179103385D01*
X138400500Y-179103385D01*
X138373402Y-178932297D01*
X138373401Y-178932293D01*
X138319876Y-178767561D01*
X138319874Y-178767558D01*
X138319873Y-178767557D01*
X138319873Y-178767555D01*
X138241232Y-178613212D01*
X138139414Y-178473072D01*
X138016928Y-178350586D01*
X137876788Y-178248768D01*
X137876787Y-178248767D01*
X137876785Y-178248766D01*
X137722441Y-178170125D01*
X137722438Y-178170123D01*
X137557706Y-178116598D01*
X137557702Y-178116597D01*
X137386614Y-178089500D01*
X137386611Y-178089500D01*
X137213389Y-178089500D01*
X137213386Y-178089500D01*
X137042297Y-178116597D01*
X137042293Y-178116598D01*
X136877561Y-178170123D01*
X136877558Y-178170125D01*
X136723214Y-178248766D01*
X136583073Y-178350585D01*
X136460585Y-178473073D01*
X136358766Y-178613214D01*
X136280125Y-178767558D01*
X136280123Y-178767561D01*
X136226598Y-178932293D01*
X136226597Y-178932297D01*
X136199500Y-179103385D01*
X98109366Y-179103385D01*
X97710995Y-178392043D01*
X97709799Y-178389840D01*
X96985704Y-177013562D01*
X96984530Y-177011256D01*
X96954568Y-176950500D01*
X96296744Y-175616564D01*
X96295630Y-175614228D01*
X95865173Y-174680494D01*
X95660903Y-174237399D01*
X144824500Y-174237399D01*
X144824500Y-174362601D01*
X144856905Y-174483536D01*
X144919505Y-174591964D01*
X145008036Y-174680495D01*
X145116464Y-174743095D01*
X145237399Y-174775500D01*
X145237401Y-174775500D01*
X145362599Y-174775500D01*
X145362601Y-174775500D01*
X145483536Y-174743095D01*
X145591964Y-174680495D01*
X145680495Y-174591964D01*
X145743095Y-174483536D01*
X145775500Y-174362601D01*
X145775500Y-174237399D01*
X145743095Y-174116464D01*
X145697447Y-174037399D01*
X157924500Y-174037399D01*
X157924500Y-174162601D01*
X157956905Y-174283536D01*
X158019505Y-174391964D01*
X158108036Y-174480495D01*
X158216464Y-174543095D01*
X158337399Y-174575500D01*
X158337401Y-174575500D01*
X158462599Y-174575500D01*
X158462601Y-174575500D01*
X158583536Y-174543095D01*
X158691964Y-174480495D01*
X158780495Y-174391964D01*
X158843095Y-174283536D01*
X158875500Y-174162601D01*
X158875500Y-174037399D01*
X158843095Y-173916464D01*
X158780495Y-173808036D01*
X158691964Y-173719505D01*
X158583536Y-173656905D01*
X158462601Y-173624500D01*
X158337399Y-173624500D01*
X158256775Y-173646103D01*
X158216463Y-173656905D01*
X158108036Y-173719505D01*
X158019505Y-173808036D01*
X157956905Y-173916463D01*
X157956905Y-173916464D01*
X157924500Y-174037399D01*
X145697447Y-174037399D01*
X145680495Y-174008036D01*
X145591964Y-173919505D01*
X145483536Y-173856905D01*
X145362601Y-173824500D01*
X145237399Y-173824500D01*
X145168003Y-173843095D01*
X145116463Y-173856905D01*
X145008036Y-173919505D01*
X144919505Y-174008036D01*
X144856905Y-174116463D01*
X144856905Y-174116464D01*
X144824500Y-174237399D01*
X95660903Y-174237399D01*
X95644576Y-174201982D01*
X95643535Y-174199644D01*
X95287088Y-173369990D01*
X95273086Y-173337399D01*
X165024500Y-173337399D01*
X165024500Y-173462601D01*
X165056905Y-173583536D01*
X165119505Y-173691964D01*
X165208036Y-173780495D01*
X165316464Y-173843095D01*
X165437399Y-173875500D01*
X165437401Y-173875500D01*
X165562599Y-173875500D01*
X165562601Y-173875500D01*
X165683536Y-173843095D01*
X165791964Y-173780495D01*
X165880495Y-173691964D01*
X165943095Y-173583536D01*
X165975500Y-173462601D01*
X165975500Y-173337399D01*
X165943095Y-173216464D01*
X165880495Y-173108036D01*
X165791964Y-173019505D01*
X165683536Y-172956905D01*
X165562601Y-172924500D01*
X165437399Y-172924500D01*
X165356775Y-172946103D01*
X165316463Y-172956905D01*
X165208036Y-173019505D01*
X165119505Y-173108036D01*
X165056905Y-173216463D01*
X165056905Y-173216464D01*
X165024500Y-173337399D01*
X95273086Y-173337399D01*
X95029678Y-172770853D01*
X95028686Y-172768458D01*
X94988446Y-172667595D01*
X94976399Y-172637399D01*
X157724500Y-172637399D01*
X157724500Y-172762601D01*
X157756905Y-172883536D01*
X157819505Y-172991964D01*
X157908036Y-173080495D01*
X158016464Y-173143095D01*
X158137399Y-173175500D01*
X158137401Y-173175500D01*
X158262599Y-173175500D01*
X158262601Y-173175500D01*
X158383536Y-173143095D01*
X158491964Y-173080495D01*
X158580495Y-172991964D01*
X158643095Y-172883536D01*
X158675500Y-172762601D01*
X158675500Y-172637399D01*
X158643095Y-172516464D01*
X158580495Y-172408036D01*
X158491964Y-172319505D01*
X158383536Y-172256905D01*
X158262601Y-172224500D01*
X158137399Y-172224500D01*
X158056775Y-172246103D01*
X158016463Y-172256905D01*
X157908036Y-172319505D01*
X157819505Y-172408036D01*
X157756905Y-172516463D01*
X157756905Y-172516464D01*
X157724500Y-172637399D01*
X94976399Y-172637399D01*
X94580470Y-171644995D01*
X94568423Y-171614799D01*
X96724500Y-171614799D01*
X96724500Y-171740001D01*
X96756905Y-171860936D01*
X96819505Y-171969364D01*
X96908036Y-172057895D01*
X97016464Y-172120495D01*
X97137399Y-172152900D01*
X97137401Y-172152900D01*
X97262599Y-172152900D01*
X97262601Y-172152900D01*
X97383536Y-172120495D01*
X97491964Y-172057895D01*
X97580495Y-171969364D01*
X97643095Y-171860936D01*
X97675500Y-171740001D01*
X97675500Y-171614799D01*
X97643095Y-171493864D01*
X97580495Y-171385436D01*
X97491964Y-171296905D01*
X97383536Y-171234305D01*
X97262601Y-171201900D01*
X97137399Y-171201900D01*
X97056775Y-171223503D01*
X97016463Y-171234305D01*
X96908036Y-171296905D01*
X96819505Y-171385436D01*
X96756905Y-171493863D01*
X96750849Y-171516464D01*
X96724500Y-171614799D01*
X94568423Y-171614799D01*
X94485933Y-171408036D01*
X94452435Y-171324073D01*
X94451534Y-171321726D01*
X94272856Y-170837399D01*
X150724500Y-170837399D01*
X150724500Y-170962601D01*
X150756905Y-171083536D01*
X150819505Y-171191964D01*
X150857539Y-171229998D01*
X150885315Y-171284513D01*
X150875744Y-171344945D01*
X150857540Y-171370000D01*
X150819505Y-171408036D01*
X150756905Y-171516463D01*
X150756905Y-171516464D01*
X150724500Y-171637399D01*
X150724500Y-171762601D01*
X150756905Y-171883536D01*
X150819505Y-171991964D01*
X150908036Y-172080495D01*
X151016464Y-172143095D01*
X151137399Y-172175500D01*
X151137401Y-172175500D01*
X151262599Y-172175500D01*
X151262601Y-172175500D01*
X151383536Y-172143095D01*
X151491964Y-172080495D01*
X151580495Y-171991964D01*
X151643095Y-171883536D01*
X151651954Y-171850472D01*
X151685276Y-171799159D01*
X151698068Y-171790367D01*
X151715212Y-171780470D01*
X156480470Y-167015212D01*
X156526614Y-166935288D01*
X156550500Y-166846143D01*
X156550500Y-166753856D01*
X156550500Y-163837399D01*
X158224500Y-163837399D01*
X158224500Y-163962601D01*
X158256905Y-164083536D01*
X158319505Y-164191964D01*
X158408036Y-164280495D01*
X158516464Y-164343095D01*
X158637399Y-164375500D01*
X158637401Y-164375500D01*
X158762599Y-164375500D01*
X158762601Y-164375500D01*
X158883536Y-164343095D01*
X158991964Y-164280495D01*
X159080495Y-164191964D01*
X159143095Y-164083536D01*
X159175500Y-163962601D01*
X159175500Y-163837399D01*
X159143095Y-163716464D01*
X159080495Y-163608036D01*
X158991964Y-163519505D01*
X158883536Y-163456905D01*
X158762601Y-163424500D01*
X158637399Y-163424500D01*
X158556775Y-163446103D01*
X158516463Y-163456905D01*
X158408036Y-163519505D01*
X158319505Y-163608036D01*
X158256905Y-163716463D01*
X158256905Y-163716464D01*
X158224500Y-163837399D01*
X156550500Y-163837399D01*
X156550500Y-162541681D01*
X156569407Y-162483490D01*
X156609218Y-162452108D01*
X156608979Y-162451639D01*
X156611340Y-162450435D01*
X156611623Y-162450213D01*
X156612430Y-162449877D01*
X156612445Y-162449873D01*
X156766788Y-162371232D01*
X156906928Y-162269414D01*
X157029414Y-162146928D01*
X157131232Y-162006788D01*
X157209873Y-161852445D01*
X157209874Y-161852440D01*
X157209876Y-161852438D01*
X157263401Y-161687706D01*
X157263402Y-161687702D01*
X157290500Y-161516614D01*
X157290500Y-161343385D01*
X157629500Y-161343385D01*
X157629500Y-161516614D01*
X157656597Y-161687702D01*
X157656598Y-161687706D01*
X157710123Y-161852438D01*
X157710125Y-161852441D01*
X157775675Y-161981093D01*
X157788768Y-162006788D01*
X157890586Y-162146928D01*
X158013072Y-162269414D01*
X158153212Y-162371232D01*
X158307555Y-162449873D01*
X158307557Y-162449873D01*
X158307558Y-162449874D01*
X158307561Y-162449876D01*
X158472293Y-162503401D01*
X158472297Y-162503402D01*
X158643386Y-162530500D01*
X158643389Y-162530500D01*
X158816614Y-162530500D01*
X158987702Y-162503402D01*
X158987706Y-162503401D01*
X159152438Y-162449876D01*
X159152440Y-162449874D01*
X159152445Y-162449873D01*
X159306788Y-162371232D01*
X159446928Y-162269414D01*
X159569414Y-162146928D01*
X159671232Y-162006788D01*
X159749873Y-161852445D01*
X159749874Y-161852440D01*
X159749876Y-161852438D01*
X159803401Y-161687706D01*
X159803402Y-161687702D01*
X159830500Y-161516614D01*
X159830500Y-161343385D01*
X160169500Y-161343385D01*
X160169500Y-161516614D01*
X160196597Y-161687702D01*
X160196598Y-161687706D01*
X160250123Y-161852438D01*
X160250125Y-161852441D01*
X160315675Y-161981093D01*
X160328768Y-162006788D01*
X160430586Y-162146928D01*
X160553072Y-162269414D01*
X160693212Y-162371232D01*
X160847555Y-162449873D01*
X160847557Y-162449873D01*
X160847558Y-162449874D01*
X160847561Y-162449876D01*
X161012293Y-162503401D01*
X161012297Y-162503402D01*
X161183386Y-162530500D01*
X161183389Y-162530500D01*
X161356614Y-162530500D01*
X161527702Y-162503402D01*
X161527706Y-162503401D01*
X161692438Y-162449876D01*
X161692440Y-162449874D01*
X161692445Y-162449873D01*
X161846788Y-162371232D01*
X161986928Y-162269414D01*
X162109414Y-162146928D01*
X162211232Y-162006788D01*
X162289873Y-161852445D01*
X162289874Y-161852440D01*
X162289876Y-161852438D01*
X162343401Y-161687706D01*
X162343402Y-161687702D01*
X162370500Y-161516614D01*
X162370500Y-161343385D01*
X162709500Y-161343385D01*
X162709500Y-161516614D01*
X162736597Y-161687702D01*
X162736598Y-161687706D01*
X162790123Y-161852438D01*
X162790125Y-161852441D01*
X162855675Y-161981093D01*
X162868768Y-162006788D01*
X162970586Y-162146928D01*
X163093072Y-162269414D01*
X163233212Y-162371232D01*
X163387555Y-162449873D01*
X163387557Y-162449873D01*
X163387558Y-162449874D01*
X163387561Y-162449876D01*
X163552293Y-162503401D01*
X163552297Y-162503402D01*
X163723386Y-162530500D01*
X163723389Y-162530500D01*
X163896614Y-162530500D01*
X164067702Y-162503402D01*
X164067706Y-162503401D01*
X164232438Y-162449876D01*
X164232445Y-162449873D01*
X164232451Y-162449870D01*
X164249005Y-162441434D01*
X164309437Y-162431861D01*
X164363955Y-162459637D01*
X164884788Y-162980470D01*
X164964712Y-163026614D01*
X165053856Y-163050500D01*
X165053857Y-163050500D01*
X165053858Y-163050500D01*
X169146142Y-163050500D01*
X169146144Y-163050500D01*
X169235288Y-163026614D01*
X169315212Y-162980470D01*
X169316187Y-162979494D01*
X169317069Y-162979045D01*
X169320362Y-162976519D01*
X169320830Y-162977129D01*
X169370702Y-162951719D01*
X169386189Y-162950500D01*
X169646142Y-162950500D01*
X169646144Y-162950500D01*
X169735288Y-162926614D01*
X169815212Y-162880470D01*
X169879997Y-162815684D01*
X169934511Y-162787908D01*
X169994943Y-162797479D01*
X170020003Y-162815685D01*
X170095504Y-162891186D01*
X170123281Y-162945703D01*
X170124500Y-162961190D01*
X170124500Y-162962601D01*
X170156905Y-163083536D01*
X170219505Y-163191964D01*
X170308036Y-163280495D01*
X170416464Y-163343095D01*
X170537399Y-163375500D01*
X170537401Y-163375500D01*
X170662599Y-163375500D01*
X170662601Y-163375500D01*
X170783536Y-163343095D01*
X170891964Y-163280495D01*
X170980495Y-163191964D01*
X171043095Y-163083536D01*
X171075500Y-162962601D01*
X171075500Y-162837399D01*
X171043095Y-162716464D01*
X170990796Y-162625879D01*
X170978075Y-162566033D01*
X171002962Y-162510137D01*
X171055950Y-162479544D01*
X171107126Y-162482226D01*
X171120086Y-162486436D01*
X171172299Y-162503402D01*
X171240735Y-162514241D01*
X171343386Y-162530500D01*
X171343389Y-162530500D01*
X171516614Y-162530500D01*
X171687702Y-162503402D01*
X171687706Y-162503401D01*
X171852438Y-162449876D01*
X171852440Y-162449874D01*
X171852445Y-162449873D01*
X172006788Y-162371232D01*
X172146928Y-162269414D01*
X172269414Y-162146928D01*
X172371232Y-162006788D01*
X172449873Y-161852445D01*
X172449874Y-161852440D01*
X172449876Y-161852438D01*
X172503401Y-161687706D01*
X172503402Y-161687702D01*
X172530500Y-161516614D01*
X172530500Y-161343385D01*
X172869500Y-161343385D01*
X172869500Y-161516614D01*
X172896597Y-161687702D01*
X172896598Y-161687706D01*
X172950123Y-161852438D01*
X172950125Y-161852441D01*
X173015675Y-161981093D01*
X173028768Y-162006788D01*
X173130586Y-162146928D01*
X173253072Y-162269414D01*
X173393212Y-162371232D01*
X173547555Y-162449873D01*
X173547557Y-162449873D01*
X173547558Y-162449874D01*
X173547561Y-162449876D01*
X173712293Y-162503401D01*
X173712297Y-162503402D01*
X173883386Y-162530500D01*
X173883389Y-162530500D01*
X174056614Y-162530500D01*
X174227702Y-162503402D01*
X174227706Y-162503401D01*
X174392438Y-162449876D01*
X174392440Y-162449874D01*
X174392445Y-162449873D01*
X174546788Y-162371232D01*
X174686928Y-162269414D01*
X174809414Y-162146928D01*
X174911232Y-162006788D01*
X174989873Y-161852445D01*
X174989874Y-161852440D01*
X174989876Y-161852438D01*
X175043401Y-161687706D01*
X175043402Y-161687702D01*
X175070500Y-161516614D01*
X175070500Y-161343385D01*
X175409500Y-161343385D01*
X175409500Y-161516614D01*
X175436597Y-161687702D01*
X175436598Y-161687706D01*
X175490123Y-161852438D01*
X175490125Y-161852441D01*
X175555675Y-161981093D01*
X175568768Y-162006788D01*
X175670586Y-162146928D01*
X175793072Y-162269414D01*
X175933212Y-162371232D01*
X176087555Y-162449873D01*
X176087557Y-162449873D01*
X176087558Y-162449874D01*
X176087561Y-162449876D01*
X176252293Y-162503401D01*
X176252297Y-162503402D01*
X176423386Y-162530500D01*
X176423389Y-162530500D01*
X176596614Y-162530500D01*
X176767702Y-162503402D01*
X176767706Y-162503401D01*
X176932438Y-162449876D01*
X176932440Y-162449874D01*
X176932445Y-162449873D01*
X177086788Y-162371232D01*
X177226928Y-162269414D01*
X177349414Y-162146928D01*
X177451232Y-162006788D01*
X177529873Y-161852445D01*
X177529874Y-161852440D01*
X177529876Y-161852438D01*
X177583401Y-161687706D01*
X177583402Y-161687702D01*
X177610500Y-161516614D01*
X177610500Y-161343385D01*
X177949500Y-161343385D01*
X177949500Y-161516614D01*
X177976597Y-161687702D01*
X177976598Y-161687706D01*
X178030123Y-161852438D01*
X178030125Y-161852441D01*
X178095675Y-161981093D01*
X178108768Y-162006788D01*
X178210586Y-162146928D01*
X178333072Y-162269414D01*
X178473212Y-162371232D01*
X178627555Y-162449873D01*
X178627557Y-162449873D01*
X178627558Y-162449874D01*
X178627561Y-162449876D01*
X178792293Y-162503401D01*
X178792297Y-162503402D01*
X178963386Y-162530500D01*
X178963389Y-162530500D01*
X179136614Y-162530500D01*
X179307702Y-162503402D01*
X179307706Y-162503401D01*
X179472438Y-162449876D01*
X179472440Y-162449874D01*
X179472445Y-162449873D01*
X179626788Y-162371232D01*
X179766928Y-162269414D01*
X179889414Y-162146928D01*
X179991232Y-162006788D01*
X180069873Y-161852445D01*
X180069874Y-161852440D01*
X180069876Y-161852438D01*
X180123401Y-161687706D01*
X180123402Y-161687702D01*
X180150500Y-161516614D01*
X180150500Y-161343385D01*
X180489500Y-161343385D01*
X180489500Y-161516614D01*
X180516597Y-161687702D01*
X180516598Y-161687706D01*
X180570123Y-161852438D01*
X180570125Y-161852441D01*
X180635675Y-161981093D01*
X180648768Y-162006788D01*
X180750586Y-162146928D01*
X180873072Y-162269414D01*
X181013212Y-162371232D01*
X181167555Y-162449873D01*
X181167557Y-162449873D01*
X181167558Y-162449874D01*
X181167561Y-162449876D01*
X181332293Y-162503401D01*
X181332297Y-162503402D01*
X181503386Y-162530500D01*
X181503389Y-162530500D01*
X181676614Y-162530500D01*
X181847702Y-162503402D01*
X181847706Y-162503401D01*
X182012438Y-162449876D01*
X182012440Y-162449874D01*
X182012445Y-162449873D01*
X182166788Y-162371232D01*
X182306928Y-162269414D01*
X182429414Y-162146928D01*
X182531232Y-162006788D01*
X182609873Y-161852445D01*
X182609874Y-161852440D01*
X182609876Y-161852438D01*
X182663401Y-161687706D01*
X182663402Y-161687702D01*
X182690500Y-161516614D01*
X182690500Y-161343385D01*
X183029500Y-161343385D01*
X183029500Y-161516614D01*
X183056597Y-161687702D01*
X183056598Y-161687706D01*
X183110123Y-161852438D01*
X183110125Y-161852441D01*
X183175675Y-161981093D01*
X183188768Y-162006788D01*
X183290586Y-162146928D01*
X183413072Y-162269414D01*
X183553212Y-162371232D01*
X183707555Y-162449873D01*
X183707557Y-162449873D01*
X183707558Y-162449874D01*
X183707561Y-162449876D01*
X183872293Y-162503401D01*
X183872297Y-162503402D01*
X184043386Y-162530500D01*
X184043389Y-162530500D01*
X184216614Y-162530500D01*
X184387702Y-162503402D01*
X184387706Y-162503401D01*
X184552438Y-162449876D01*
X184552440Y-162449874D01*
X184552445Y-162449873D01*
X184706788Y-162371232D01*
X184846928Y-162269414D01*
X184969414Y-162146928D01*
X185071232Y-162006788D01*
X185149873Y-161852445D01*
X185149874Y-161852440D01*
X185149876Y-161852438D01*
X185203401Y-161687706D01*
X185203402Y-161687702D01*
X185230500Y-161516614D01*
X185230500Y-161343385D01*
X185569500Y-161343385D01*
X185569500Y-161516614D01*
X185596597Y-161687702D01*
X185596598Y-161687706D01*
X185650123Y-161852438D01*
X185650125Y-161852441D01*
X185715675Y-161981093D01*
X185728768Y-162006788D01*
X185830586Y-162146928D01*
X185953072Y-162269414D01*
X186093212Y-162371232D01*
X186247555Y-162449873D01*
X186247557Y-162449873D01*
X186247558Y-162449874D01*
X186247561Y-162449876D01*
X186412293Y-162503401D01*
X186412297Y-162503402D01*
X186583386Y-162530500D01*
X186583389Y-162530500D01*
X186756614Y-162530500D01*
X186927702Y-162503402D01*
X186927706Y-162503401D01*
X187092438Y-162449876D01*
X187092440Y-162449874D01*
X187092445Y-162449873D01*
X187246788Y-162371232D01*
X187386928Y-162269414D01*
X187509414Y-162146928D01*
X187611232Y-162006788D01*
X187689873Y-161852445D01*
X187689874Y-161852440D01*
X187689876Y-161852438D01*
X187743401Y-161687706D01*
X187743402Y-161687702D01*
X187770500Y-161516614D01*
X187770500Y-161343385D01*
X187743402Y-161172297D01*
X187743401Y-161172293D01*
X187689876Y-161007561D01*
X187689874Y-161007558D01*
X187689873Y-161007557D01*
X187689873Y-161007555D01*
X187611232Y-160853212D01*
X187509414Y-160713072D01*
X187386928Y-160590586D01*
X187338398Y-160555327D01*
X188109500Y-160555327D01*
X188109500Y-162304672D01*
X188109501Y-162304684D01*
X188124033Y-162377736D01*
X188124035Y-162377742D01*
X188179397Y-162460599D01*
X188179400Y-162460602D01*
X188213655Y-162483490D01*
X188262260Y-162515966D01*
X188317808Y-162527015D01*
X188335315Y-162530498D01*
X188335320Y-162530498D01*
X188335326Y-162530500D01*
X188335327Y-162530500D01*
X190084673Y-162530500D01*
X190084674Y-162530500D01*
X190157740Y-162515966D01*
X190240601Y-162460601D01*
X190295966Y-162377740D01*
X190310500Y-162304674D01*
X190310500Y-160555326D01*
X190295966Y-160482260D01*
X190247768Y-160410125D01*
X190240602Y-160399400D01*
X190240599Y-160399397D01*
X190157742Y-160344035D01*
X190157740Y-160344034D01*
X190157737Y-160344033D01*
X190157736Y-160344033D01*
X190084684Y-160329501D01*
X190084674Y-160329500D01*
X188335326Y-160329500D01*
X188335325Y-160329500D01*
X188335315Y-160329501D01*
X188262263Y-160344033D01*
X188262257Y-160344035D01*
X188179400Y-160399397D01*
X188179397Y-160399400D01*
X188124035Y-160482257D01*
X188124033Y-160482263D01*
X188109501Y-160555315D01*
X188109500Y-160555327D01*
X187338398Y-160555327D01*
X187246788Y-160488768D01*
X187246787Y-160488767D01*
X187246785Y-160488766D01*
X187092441Y-160410125D01*
X187092438Y-160410123D01*
X186927706Y-160356598D01*
X186927702Y-160356597D01*
X186756614Y-160329500D01*
X186756611Y-160329500D01*
X186583389Y-160329500D01*
X186583386Y-160329500D01*
X186412297Y-160356597D01*
X186412293Y-160356598D01*
X186247561Y-160410123D01*
X186247558Y-160410125D01*
X186093214Y-160488766D01*
X185953073Y-160590585D01*
X185830585Y-160713073D01*
X185728766Y-160853214D01*
X185650125Y-161007558D01*
X185650123Y-161007561D01*
X185596598Y-161172293D01*
X185596597Y-161172297D01*
X185569500Y-161343385D01*
X185230500Y-161343385D01*
X185203402Y-161172297D01*
X185203401Y-161172293D01*
X185149876Y-161007561D01*
X185149874Y-161007558D01*
X185149873Y-161007557D01*
X185149873Y-161007555D01*
X185071232Y-160853212D01*
X184969414Y-160713072D01*
X184846928Y-160590586D01*
X184706788Y-160488768D01*
X184706787Y-160488767D01*
X184706785Y-160488766D01*
X184552441Y-160410125D01*
X184552438Y-160410123D01*
X184387706Y-160356598D01*
X184387702Y-160356597D01*
X184216614Y-160329500D01*
X184216611Y-160329500D01*
X184043389Y-160329500D01*
X184043386Y-160329500D01*
X183872297Y-160356597D01*
X183872293Y-160356598D01*
X183707561Y-160410123D01*
X183707558Y-160410125D01*
X183553214Y-160488766D01*
X183413073Y-160590585D01*
X183290585Y-160713073D01*
X183188766Y-160853214D01*
X183110125Y-161007558D01*
X183110123Y-161007561D01*
X183056598Y-161172293D01*
X183056597Y-161172297D01*
X183029500Y-161343385D01*
X182690500Y-161343385D01*
X182663402Y-161172297D01*
X182663401Y-161172293D01*
X182609876Y-161007561D01*
X182609874Y-161007558D01*
X182609873Y-161007557D01*
X182609873Y-161007555D01*
X182531232Y-160853212D01*
X182429414Y-160713072D01*
X182306928Y-160590586D01*
X182166788Y-160488768D01*
X182166787Y-160488767D01*
X182166785Y-160488766D01*
X182012441Y-160410125D01*
X182012438Y-160410123D01*
X181847706Y-160356598D01*
X181847702Y-160356597D01*
X181676614Y-160329500D01*
X181676611Y-160329500D01*
X181503389Y-160329500D01*
X181503386Y-160329500D01*
X181332297Y-160356597D01*
X181332293Y-160356598D01*
X181167561Y-160410123D01*
X181167558Y-160410125D01*
X181013214Y-160488766D01*
X180873073Y-160590585D01*
X180750585Y-160713073D01*
X180648766Y-160853214D01*
X180570125Y-161007558D01*
X180570123Y-161007561D01*
X180516598Y-161172293D01*
X180516597Y-161172297D01*
X180489500Y-161343385D01*
X180150500Y-161343385D01*
X180123402Y-161172297D01*
X180123401Y-161172293D01*
X180069876Y-161007561D01*
X180069874Y-161007558D01*
X180069873Y-161007557D01*
X180069873Y-161007555D01*
X179991232Y-160853212D01*
X179889414Y-160713072D01*
X179766928Y-160590586D01*
X179626788Y-160488768D01*
X179626787Y-160488767D01*
X179626785Y-160488766D01*
X179472441Y-160410125D01*
X179472438Y-160410123D01*
X179307706Y-160356598D01*
X179307702Y-160356597D01*
X179136614Y-160329500D01*
X179136611Y-160329500D01*
X178963389Y-160329500D01*
X178963386Y-160329500D01*
X178792297Y-160356597D01*
X178792293Y-160356598D01*
X178627561Y-160410123D01*
X178627558Y-160410125D01*
X178473214Y-160488766D01*
X178333073Y-160590585D01*
X178210585Y-160713073D01*
X178108766Y-160853214D01*
X178030125Y-161007558D01*
X178030123Y-161007561D01*
X177976598Y-161172293D01*
X177976597Y-161172297D01*
X177949500Y-161343385D01*
X177610500Y-161343385D01*
X177583402Y-161172297D01*
X177583401Y-161172293D01*
X177529876Y-161007561D01*
X177529874Y-161007558D01*
X177529873Y-161007557D01*
X177529873Y-161007555D01*
X177451232Y-160853212D01*
X177349414Y-160713072D01*
X177226928Y-160590586D01*
X177086788Y-160488768D01*
X177086787Y-160488767D01*
X177086785Y-160488766D01*
X176932441Y-160410125D01*
X176932438Y-160410123D01*
X176767706Y-160356598D01*
X176767702Y-160356597D01*
X176596614Y-160329500D01*
X176596611Y-160329500D01*
X176423389Y-160329500D01*
X176423386Y-160329500D01*
X176252297Y-160356597D01*
X176252293Y-160356598D01*
X176087561Y-160410123D01*
X176087558Y-160410125D01*
X175933214Y-160488766D01*
X175793073Y-160590585D01*
X175670585Y-160713073D01*
X175568766Y-160853214D01*
X175490125Y-161007558D01*
X175490123Y-161007561D01*
X175436598Y-161172293D01*
X175436597Y-161172297D01*
X175409500Y-161343385D01*
X175070500Y-161343385D01*
X175043402Y-161172297D01*
X175043401Y-161172293D01*
X174989876Y-161007561D01*
X174989874Y-161007558D01*
X174989873Y-161007557D01*
X174989873Y-161007555D01*
X174911232Y-160853212D01*
X174809414Y-160713072D01*
X174686928Y-160590586D01*
X174546788Y-160488768D01*
X174546787Y-160488767D01*
X174546785Y-160488766D01*
X174392441Y-160410125D01*
X174392438Y-160410123D01*
X174227706Y-160356598D01*
X174227702Y-160356597D01*
X174056614Y-160329500D01*
X174056611Y-160329500D01*
X173883389Y-160329500D01*
X173883386Y-160329500D01*
X173712297Y-160356597D01*
X173712293Y-160356598D01*
X173547561Y-160410123D01*
X173547558Y-160410125D01*
X173393214Y-160488766D01*
X173253073Y-160590585D01*
X173130585Y-160713073D01*
X173028766Y-160853214D01*
X172950125Y-161007558D01*
X172950123Y-161007561D01*
X172896598Y-161172293D01*
X172896597Y-161172297D01*
X172869500Y-161343385D01*
X172530500Y-161343385D01*
X172503402Y-161172297D01*
X172503401Y-161172293D01*
X172449876Y-161007561D01*
X172449874Y-161007558D01*
X172449873Y-161007557D01*
X172449873Y-161007555D01*
X172371232Y-160853212D01*
X172269414Y-160713072D01*
X172146928Y-160590586D01*
X172006788Y-160488768D01*
X172006787Y-160488767D01*
X172006785Y-160488766D01*
X171852441Y-160410125D01*
X171852438Y-160410123D01*
X171687706Y-160356598D01*
X171687702Y-160356597D01*
X171516614Y-160329500D01*
X171516611Y-160329500D01*
X171343389Y-160329500D01*
X171343386Y-160329500D01*
X171172297Y-160356597D01*
X171172293Y-160356598D01*
X171007561Y-160410123D01*
X171007558Y-160410125D01*
X170853214Y-160488766D01*
X170713073Y-160590585D01*
X170590585Y-160713073D01*
X170488766Y-160853214D01*
X170410125Y-161007558D01*
X170410123Y-161007561D01*
X170356598Y-161172293D01*
X170356597Y-161172297D01*
X170329500Y-161343385D01*
X170329500Y-161516614D01*
X170356597Y-161687702D01*
X170356598Y-161687706D01*
X170410123Y-161852438D01*
X170410125Y-161852441D01*
X170410126Y-161852444D01*
X170410127Y-161852445D01*
X170488768Y-162006788D01*
X170510042Y-162036069D01*
X170528950Y-162094259D01*
X170510043Y-162152450D01*
X170460544Y-162188414D01*
X170399359Y-162188415D01*
X170359947Y-162164264D01*
X170315214Y-162119532D01*
X170315212Y-162119530D01*
X170235288Y-162073386D01*
X170146144Y-162049500D01*
X170146142Y-162049500D01*
X169971022Y-162049500D01*
X169912831Y-162030593D01*
X169876867Y-161981093D01*
X169876867Y-161919907D01*
X169882812Y-161905555D01*
X169884366Y-161902505D01*
X169909873Y-161852445D01*
X169909874Y-161852440D01*
X169909876Y-161852438D01*
X169963401Y-161687706D01*
X169963402Y-161687702D01*
X169990500Y-161516614D01*
X169990500Y-161343385D01*
X169963402Y-161172297D01*
X169963401Y-161172293D01*
X169909876Y-161007561D01*
X169909874Y-161007558D01*
X169909873Y-161007557D01*
X169909873Y-161007555D01*
X169831232Y-160853212D01*
X169729414Y-160713072D01*
X169606928Y-160590586D01*
X169466788Y-160488768D01*
X169466787Y-160488767D01*
X169466785Y-160488766D01*
X169312441Y-160410125D01*
X169312438Y-160410123D01*
X169147706Y-160356598D01*
X169147702Y-160356597D01*
X168976614Y-160329500D01*
X168976611Y-160329500D01*
X168803389Y-160329500D01*
X168803386Y-160329500D01*
X168632297Y-160356597D01*
X168632293Y-160356598D01*
X168467561Y-160410123D01*
X168467558Y-160410125D01*
X168313214Y-160488766D01*
X168173073Y-160590585D01*
X168050585Y-160713073D01*
X167948766Y-160853214D01*
X167870125Y-161007558D01*
X167870123Y-161007561D01*
X167816598Y-161172293D01*
X167816597Y-161172297D01*
X167789500Y-161343385D01*
X167789500Y-161516614D01*
X167816597Y-161687702D01*
X167816598Y-161687706D01*
X167870123Y-161852438D01*
X167870125Y-161852441D01*
X167935675Y-161981093D01*
X167948768Y-162006788D01*
X168050586Y-162146928D01*
X168084156Y-162180498D01*
X168111932Y-162235013D01*
X168102361Y-162295445D01*
X168059096Y-162338710D01*
X168014151Y-162349500D01*
X167225849Y-162349500D01*
X167167658Y-162330593D01*
X167131694Y-162281093D01*
X167131694Y-162219907D01*
X167155843Y-162180498D01*
X167189414Y-162146928D01*
X167291232Y-162006788D01*
X167369873Y-161852445D01*
X167369874Y-161852440D01*
X167369876Y-161852438D01*
X167423401Y-161687706D01*
X167423402Y-161687702D01*
X167450500Y-161516614D01*
X167450500Y-161343385D01*
X167423402Y-161172297D01*
X167423401Y-161172293D01*
X167369876Y-161007561D01*
X167369874Y-161007558D01*
X167369873Y-161007557D01*
X167369873Y-161007555D01*
X167291232Y-160853212D01*
X167189414Y-160713072D01*
X167066928Y-160590586D01*
X166926788Y-160488768D01*
X166926787Y-160488767D01*
X166926785Y-160488766D01*
X166772441Y-160410125D01*
X166772438Y-160410123D01*
X166607706Y-160356598D01*
X166607702Y-160356597D01*
X166436614Y-160329500D01*
X166436611Y-160329500D01*
X166263389Y-160329500D01*
X166263386Y-160329500D01*
X166092297Y-160356597D01*
X166092293Y-160356598D01*
X165927561Y-160410123D01*
X165927558Y-160410125D01*
X165773214Y-160488766D01*
X165633073Y-160590585D01*
X165510585Y-160713073D01*
X165408766Y-160853214D01*
X165330125Y-161007558D01*
X165330123Y-161007561D01*
X165276598Y-161172293D01*
X165276597Y-161172297D01*
X165249500Y-161343385D01*
X165249500Y-161516614D01*
X165276597Y-161687702D01*
X165276598Y-161687706D01*
X165330123Y-161852438D01*
X165330125Y-161852441D01*
X165395675Y-161981093D01*
X165408768Y-162006788D01*
X165510586Y-162146928D01*
X165544156Y-162180498D01*
X165571932Y-162235013D01*
X165562361Y-162295445D01*
X165519096Y-162338710D01*
X165474151Y-162349500D01*
X165286190Y-162349500D01*
X165227999Y-162330593D01*
X165216186Y-162320504D01*
X164852704Y-161957022D01*
X164824927Y-161902505D01*
X164830390Y-161856701D01*
X164828671Y-161856143D01*
X164883402Y-161687702D01*
X164910500Y-161516614D01*
X164910500Y-161343385D01*
X164883402Y-161172297D01*
X164883401Y-161172293D01*
X164829876Y-161007561D01*
X164829874Y-161007558D01*
X164829873Y-161007557D01*
X164829873Y-161007555D01*
X164751232Y-160853212D01*
X164649414Y-160713072D01*
X164526928Y-160590586D01*
X164386788Y-160488768D01*
X164386787Y-160488767D01*
X164386785Y-160488766D01*
X164232441Y-160410125D01*
X164232438Y-160410123D01*
X164067706Y-160356598D01*
X164067702Y-160356597D01*
X163896614Y-160329500D01*
X163896611Y-160329500D01*
X163723389Y-160329500D01*
X163723386Y-160329500D01*
X163552297Y-160356597D01*
X163552293Y-160356598D01*
X163387561Y-160410123D01*
X163387558Y-160410125D01*
X163233214Y-160488766D01*
X163093073Y-160590585D01*
X162970585Y-160713073D01*
X162868766Y-160853214D01*
X162790125Y-161007558D01*
X162790123Y-161007561D01*
X162736598Y-161172293D01*
X162736597Y-161172297D01*
X162709500Y-161343385D01*
X162370500Y-161343385D01*
X162343402Y-161172297D01*
X162343401Y-161172293D01*
X162289876Y-161007561D01*
X162289874Y-161007558D01*
X162289873Y-161007557D01*
X162289873Y-161007555D01*
X162211232Y-160853212D01*
X162109414Y-160713072D01*
X161986928Y-160590586D01*
X161846788Y-160488768D01*
X161846787Y-160488767D01*
X161846785Y-160488766D01*
X161692441Y-160410125D01*
X161692438Y-160410123D01*
X161527706Y-160356598D01*
X161527702Y-160356597D01*
X161356614Y-160329500D01*
X161356611Y-160329500D01*
X161183389Y-160329500D01*
X161183386Y-160329500D01*
X161012297Y-160356597D01*
X161012293Y-160356598D01*
X160847561Y-160410123D01*
X160847558Y-160410125D01*
X160693214Y-160488766D01*
X160553073Y-160590585D01*
X160430585Y-160713073D01*
X160328766Y-160853214D01*
X160250125Y-161007558D01*
X160250123Y-161007561D01*
X160196598Y-161172293D01*
X160196597Y-161172297D01*
X160169500Y-161343385D01*
X159830500Y-161343385D01*
X159803402Y-161172297D01*
X159803401Y-161172293D01*
X159749876Y-161007561D01*
X159749874Y-161007558D01*
X159749873Y-161007557D01*
X159749873Y-161007555D01*
X159671232Y-160853212D01*
X159569414Y-160713072D01*
X159446928Y-160590586D01*
X159306788Y-160488768D01*
X159306787Y-160488767D01*
X159306785Y-160488766D01*
X159152441Y-160410125D01*
X159152438Y-160410123D01*
X158987706Y-160356598D01*
X158987702Y-160356597D01*
X158816614Y-160329500D01*
X158816611Y-160329500D01*
X158643389Y-160329500D01*
X158643386Y-160329500D01*
X158472297Y-160356597D01*
X158472293Y-160356598D01*
X158307561Y-160410123D01*
X158307558Y-160410125D01*
X158153214Y-160488766D01*
X158013073Y-160590585D01*
X157890585Y-160713073D01*
X157788766Y-160853214D01*
X157710125Y-161007558D01*
X157710123Y-161007561D01*
X157656598Y-161172293D01*
X157656597Y-161172297D01*
X157629500Y-161343385D01*
X157290500Y-161343385D01*
X157263402Y-161172297D01*
X157263401Y-161172293D01*
X157209876Y-161007561D01*
X157209874Y-161007558D01*
X157209873Y-161007557D01*
X157209873Y-161007555D01*
X157131232Y-160853212D01*
X157029414Y-160713072D01*
X156906928Y-160590586D01*
X156766788Y-160488768D01*
X156766787Y-160488767D01*
X156766785Y-160488766D01*
X156612441Y-160410125D01*
X156612438Y-160410123D01*
X156447706Y-160356598D01*
X156447702Y-160356597D01*
X156276614Y-160329500D01*
X156276611Y-160329500D01*
X156103389Y-160329500D01*
X156103386Y-160329500D01*
X155932297Y-160356597D01*
X155932293Y-160356598D01*
X155767561Y-160410123D01*
X155767558Y-160410125D01*
X155613214Y-160488766D01*
X155473073Y-160590585D01*
X155350585Y-160713073D01*
X155248766Y-160853214D01*
X155170125Y-161007558D01*
X155170123Y-161007561D01*
X155116598Y-161172293D01*
X155116597Y-161172297D01*
X155089500Y-161343385D01*
X155089500Y-161516614D01*
X155116597Y-161687702D01*
X155116598Y-161687706D01*
X155170123Y-161852438D01*
X155170125Y-161852441D01*
X155235675Y-161981093D01*
X155248768Y-162006788D01*
X155350586Y-162146928D01*
X155473072Y-162269414D01*
X155613212Y-162371232D01*
X155767555Y-162449873D01*
X155781091Y-162454271D01*
X155830591Y-162490233D01*
X155849500Y-162548423D01*
X155849500Y-166613809D01*
X155830593Y-166672000D01*
X155820504Y-166683813D01*
X151787310Y-170717006D01*
X151732793Y-170744783D01*
X151672361Y-170735212D01*
X151631570Y-170696502D01*
X151580495Y-170608036D01*
X151491964Y-170519505D01*
X151383536Y-170456905D01*
X151262601Y-170424500D01*
X151137399Y-170424500D01*
X151056775Y-170446103D01*
X151016463Y-170456905D01*
X150908036Y-170519505D01*
X150819505Y-170608036D01*
X150756905Y-170716463D01*
X150751881Y-170735212D01*
X150724500Y-170837399D01*
X94272856Y-170837399D01*
X94031213Y-170182399D01*
X97704500Y-170182399D01*
X97704500Y-170307601D01*
X97736905Y-170428536D01*
X97799505Y-170536964D01*
X97888036Y-170625495D01*
X97996464Y-170688095D01*
X98117399Y-170720500D01*
X98117401Y-170720500D01*
X98242599Y-170720500D01*
X98242601Y-170720500D01*
X98363536Y-170688095D01*
X98471964Y-170625495D01*
X98560495Y-170536964D01*
X98623095Y-170428536D01*
X98655500Y-170307601D01*
X98655500Y-170182399D01*
X98623095Y-170061464D01*
X98560495Y-169953036D01*
X98471964Y-169864505D01*
X98363536Y-169801905D01*
X98242601Y-169769500D01*
X98117399Y-169769500D01*
X98036775Y-169791103D01*
X97996463Y-169801905D01*
X97888036Y-169864505D01*
X97799505Y-169953036D01*
X97736905Y-170061463D01*
X97736905Y-170061464D01*
X97704500Y-170182399D01*
X94031213Y-170182399D01*
X93913274Y-169862711D01*
X93912413Y-169860276D01*
X93607738Y-168962732D01*
X93599139Y-168937399D01*
X149024500Y-168937399D01*
X149024500Y-169062601D01*
X149056905Y-169183536D01*
X149119505Y-169291964D01*
X149208036Y-169380495D01*
X149316464Y-169443095D01*
X149437399Y-169475500D01*
X149437401Y-169475500D01*
X149562599Y-169475500D01*
X149562601Y-169475500D01*
X149683536Y-169443095D01*
X149791964Y-169380495D01*
X149880495Y-169291964D01*
X149943095Y-169183536D01*
X149975500Y-169062601D01*
X149975500Y-168937399D01*
X149943095Y-168816464D01*
X149880495Y-168708036D01*
X149791964Y-168619505D01*
X149683536Y-168556905D01*
X149562601Y-168524500D01*
X149437399Y-168524500D01*
X149368003Y-168543095D01*
X149316463Y-168556905D01*
X149208036Y-168619505D01*
X149119505Y-168708036D01*
X149056905Y-168816463D01*
X149056905Y-168816464D01*
X149024500Y-168937399D01*
X93599139Y-168937399D01*
X93412554Y-168387740D01*
X93411753Y-168385275D01*
X93310836Y-168060268D01*
X93303735Y-168037399D01*
X151824500Y-168037399D01*
X151824500Y-168162601D01*
X151856905Y-168283536D01*
X151919505Y-168391964D01*
X152008036Y-168480495D01*
X152116464Y-168543095D01*
X152237399Y-168575500D01*
X152237401Y-168575500D01*
X152362599Y-168575500D01*
X152362601Y-168575500D01*
X152483536Y-168543095D01*
X152591964Y-168480495D01*
X152680495Y-168391964D01*
X152743095Y-168283536D01*
X152775500Y-168162601D01*
X152775500Y-168037399D01*
X152743095Y-167916464D01*
X152680495Y-167808036D01*
X152591964Y-167719505D01*
X152483536Y-167656905D01*
X152362601Y-167624500D01*
X152237399Y-167624500D01*
X152156775Y-167646103D01*
X152116463Y-167656905D01*
X152008036Y-167719505D01*
X151919505Y-167808036D01*
X151856905Y-167916463D01*
X151856905Y-167916464D01*
X151824500Y-168037399D01*
X93303735Y-168037399D01*
X93090752Y-167351484D01*
X92950604Y-166900135D01*
X92949872Y-166897662D01*
X92935342Y-166846141D01*
X92527760Y-165400963D01*
X92527094Y-165398478D01*
X92492585Y-165262598D01*
X92460788Y-165137399D01*
X151824500Y-165137399D01*
X151824500Y-165262601D01*
X151856905Y-165383536D01*
X151919505Y-165491964D01*
X152008036Y-165580495D01*
X152116464Y-165643095D01*
X152237399Y-165675500D01*
X152237401Y-165675500D01*
X152362599Y-165675500D01*
X152362601Y-165675500D01*
X152483536Y-165643095D01*
X152591964Y-165580495D01*
X152680495Y-165491964D01*
X152743095Y-165383536D01*
X152775500Y-165262601D01*
X152775500Y-165137399D01*
X152743095Y-165016464D01*
X152680495Y-164908036D01*
X152591964Y-164819505D01*
X152483536Y-164756905D01*
X152362601Y-164724500D01*
X152237399Y-164724500D01*
X152156775Y-164746103D01*
X152116463Y-164756905D01*
X152008036Y-164819505D01*
X151919505Y-164908036D01*
X151856905Y-165016463D01*
X151856905Y-165016464D01*
X151824500Y-165137399D01*
X92460788Y-165137399D01*
X92144308Y-163891255D01*
X92143703Y-163888735D01*
X92006072Y-163280494D01*
X91800498Y-162371987D01*
X91799965Y-162369480D01*
X91793844Y-162338710D01*
X91595862Y-161343385D01*
X129689500Y-161343385D01*
X129689500Y-161516614D01*
X129716597Y-161687702D01*
X129716598Y-161687706D01*
X129770123Y-161852438D01*
X129770125Y-161852441D01*
X129835675Y-161981093D01*
X129848768Y-162006788D01*
X129950586Y-162146928D01*
X130073072Y-162269414D01*
X130213212Y-162371232D01*
X130367555Y-162449873D01*
X130367557Y-162449873D01*
X130367558Y-162449874D01*
X130367561Y-162449876D01*
X130532293Y-162503401D01*
X130532297Y-162503402D01*
X130703386Y-162530500D01*
X130703389Y-162530500D01*
X130876614Y-162530500D01*
X131047702Y-162503402D01*
X131047706Y-162503401D01*
X131212438Y-162449876D01*
X131212440Y-162449874D01*
X131212445Y-162449873D01*
X131366788Y-162371232D01*
X131506928Y-162269414D01*
X131629414Y-162146928D01*
X131731232Y-162006788D01*
X131809873Y-161852445D01*
X131809874Y-161852440D01*
X131809876Y-161852438D01*
X131863401Y-161687706D01*
X131863402Y-161687702D01*
X131890500Y-161516614D01*
X131890500Y-161343385D01*
X134769500Y-161343385D01*
X134769500Y-161516614D01*
X134796597Y-161687702D01*
X134796598Y-161687706D01*
X134850123Y-161852438D01*
X134850125Y-161852441D01*
X134915675Y-161981093D01*
X134928768Y-162006788D01*
X135030586Y-162146928D01*
X135153072Y-162269414D01*
X135293212Y-162371232D01*
X135447555Y-162449873D01*
X135447557Y-162449873D01*
X135447558Y-162449874D01*
X135447561Y-162449876D01*
X135612293Y-162503401D01*
X135612297Y-162503402D01*
X135783386Y-162530500D01*
X135783389Y-162530500D01*
X135956614Y-162530500D01*
X136127702Y-162503402D01*
X136127706Y-162503401D01*
X136292438Y-162449876D01*
X136292440Y-162449874D01*
X136292445Y-162449873D01*
X136446788Y-162371232D01*
X136586928Y-162269414D01*
X136709414Y-162146928D01*
X136811232Y-162006788D01*
X136889873Y-161852445D01*
X136889874Y-161852440D01*
X136889876Y-161852438D01*
X136943401Y-161687706D01*
X136943402Y-161687702D01*
X136970500Y-161516614D01*
X136970500Y-161343385D01*
X137309500Y-161343385D01*
X137309500Y-161516614D01*
X137336597Y-161687702D01*
X137336598Y-161687706D01*
X137390123Y-161852438D01*
X137390125Y-161852441D01*
X137455675Y-161981093D01*
X137468768Y-162006788D01*
X137570586Y-162146928D01*
X137693072Y-162269414D01*
X137833212Y-162371232D01*
X137987555Y-162449873D01*
X137987557Y-162449873D01*
X137987558Y-162449874D01*
X137987561Y-162449876D01*
X138152293Y-162503401D01*
X138152297Y-162503402D01*
X138323386Y-162530500D01*
X138323389Y-162530500D01*
X138496614Y-162530500D01*
X138667702Y-162503402D01*
X138667706Y-162503401D01*
X138832438Y-162449876D01*
X138832440Y-162449874D01*
X138832445Y-162449873D01*
X138986788Y-162371232D01*
X139126928Y-162269414D01*
X139249414Y-162146928D01*
X139351232Y-162006788D01*
X139429873Y-161852445D01*
X139429874Y-161852440D01*
X139429876Y-161852438D01*
X139483401Y-161687706D01*
X139483402Y-161687702D01*
X139510500Y-161516614D01*
X139510500Y-161343385D01*
X139849500Y-161343385D01*
X139849500Y-161516614D01*
X139876597Y-161687702D01*
X139876598Y-161687706D01*
X139930123Y-161852438D01*
X139930125Y-161852441D01*
X139995675Y-161981093D01*
X140008768Y-162006788D01*
X140110586Y-162146928D01*
X140233072Y-162269414D01*
X140373212Y-162371232D01*
X140527555Y-162449873D01*
X140527557Y-162449873D01*
X140527558Y-162449874D01*
X140527561Y-162449876D01*
X140692293Y-162503401D01*
X140692297Y-162503402D01*
X140863386Y-162530500D01*
X140863389Y-162530500D01*
X141036614Y-162530500D01*
X141207702Y-162503402D01*
X141207706Y-162503401D01*
X141372438Y-162449876D01*
X141372440Y-162449874D01*
X141372445Y-162449873D01*
X141526788Y-162371232D01*
X141666928Y-162269414D01*
X141789414Y-162146928D01*
X141891232Y-162006788D01*
X141969873Y-161852445D01*
X141969874Y-161852440D01*
X141969876Y-161852438D01*
X142023401Y-161687706D01*
X142023402Y-161687702D01*
X142050500Y-161516614D01*
X142050500Y-161343385D01*
X142389500Y-161343385D01*
X142389500Y-161516614D01*
X142416597Y-161687702D01*
X142416598Y-161687706D01*
X142470123Y-161852438D01*
X142470125Y-161852441D01*
X142535675Y-161981093D01*
X142548768Y-162006788D01*
X142650586Y-162146928D01*
X142773072Y-162269414D01*
X142913212Y-162371232D01*
X143067555Y-162449873D01*
X143067557Y-162449873D01*
X143067558Y-162449874D01*
X143067561Y-162449876D01*
X143232293Y-162503401D01*
X143232297Y-162503402D01*
X143403386Y-162530500D01*
X143403389Y-162530500D01*
X143576614Y-162530500D01*
X143747702Y-162503402D01*
X143747706Y-162503401D01*
X143912438Y-162449876D01*
X143912440Y-162449874D01*
X143912445Y-162449873D01*
X144066788Y-162371232D01*
X144206928Y-162269414D01*
X144329414Y-162146928D01*
X144431232Y-162006788D01*
X144509873Y-161852445D01*
X144509874Y-161852440D01*
X144509876Y-161852438D01*
X144563401Y-161687706D01*
X144563402Y-161687702D01*
X144590500Y-161516614D01*
X144590500Y-161343385D01*
X144929500Y-161343385D01*
X144929500Y-161516614D01*
X144956597Y-161687702D01*
X144956598Y-161687706D01*
X145010123Y-161852438D01*
X145010125Y-161852441D01*
X145075675Y-161981093D01*
X145088768Y-162006788D01*
X145190586Y-162146928D01*
X145313072Y-162269414D01*
X145453212Y-162371232D01*
X145607555Y-162449873D01*
X145607557Y-162449873D01*
X145607558Y-162449874D01*
X145607561Y-162449876D01*
X145772293Y-162503401D01*
X145772297Y-162503402D01*
X145943386Y-162530500D01*
X145943389Y-162530500D01*
X146116614Y-162530500D01*
X146287702Y-162503402D01*
X146287706Y-162503401D01*
X146452438Y-162449876D01*
X146452440Y-162449874D01*
X146452445Y-162449873D01*
X146606788Y-162371232D01*
X146746928Y-162269414D01*
X146869414Y-162146928D01*
X146971232Y-162006788D01*
X147049873Y-161852445D01*
X147049874Y-161852440D01*
X147049876Y-161852438D01*
X147103401Y-161687706D01*
X147103402Y-161687702D01*
X147130500Y-161516614D01*
X147130500Y-161343385D01*
X147469500Y-161343385D01*
X147469500Y-161516614D01*
X147496597Y-161687702D01*
X147496598Y-161687706D01*
X147550123Y-161852438D01*
X147550125Y-161852441D01*
X147615675Y-161981093D01*
X147628768Y-162006788D01*
X147730586Y-162146928D01*
X147853072Y-162269414D01*
X147993212Y-162371232D01*
X148147555Y-162449873D01*
X148147557Y-162449873D01*
X148147558Y-162449874D01*
X148147561Y-162449876D01*
X148312293Y-162503401D01*
X148312297Y-162503402D01*
X148483386Y-162530500D01*
X148483389Y-162530500D01*
X148656614Y-162530500D01*
X148827702Y-162503402D01*
X148827706Y-162503401D01*
X148992438Y-162449876D01*
X148992440Y-162449874D01*
X148992445Y-162449873D01*
X149146788Y-162371232D01*
X149286928Y-162269414D01*
X149409414Y-162146928D01*
X149511232Y-162006788D01*
X149589873Y-161852445D01*
X149589874Y-161852440D01*
X149589876Y-161852438D01*
X149643401Y-161687706D01*
X149643402Y-161687702D01*
X149670500Y-161516614D01*
X149670500Y-161343385D01*
X150009500Y-161343385D01*
X150009500Y-161516614D01*
X150036597Y-161687702D01*
X150036598Y-161687706D01*
X150090123Y-161852438D01*
X150090125Y-161852441D01*
X150155675Y-161981093D01*
X150168768Y-162006788D01*
X150270586Y-162146928D01*
X150393072Y-162269414D01*
X150533212Y-162371232D01*
X150687555Y-162449873D01*
X150687557Y-162449873D01*
X150687558Y-162449874D01*
X150687561Y-162449876D01*
X150852293Y-162503401D01*
X150852297Y-162503402D01*
X151023386Y-162530500D01*
X151023389Y-162530500D01*
X151196614Y-162530500D01*
X151367702Y-162503402D01*
X151367706Y-162503401D01*
X151532438Y-162449876D01*
X151532440Y-162449874D01*
X151532445Y-162449873D01*
X151686788Y-162371232D01*
X151826928Y-162269414D01*
X151949414Y-162146928D01*
X152051232Y-162006788D01*
X152129873Y-161852445D01*
X152129874Y-161852440D01*
X152129876Y-161852438D01*
X152183401Y-161687706D01*
X152183402Y-161687702D01*
X152210500Y-161516614D01*
X152210500Y-161343385D01*
X152549500Y-161343385D01*
X152549500Y-161516614D01*
X152576597Y-161687702D01*
X152576598Y-161687706D01*
X152630123Y-161852438D01*
X152630125Y-161852441D01*
X152695675Y-161981093D01*
X152708768Y-162006788D01*
X152810586Y-162146928D01*
X152933072Y-162269414D01*
X153073212Y-162371232D01*
X153227555Y-162449873D01*
X153227557Y-162449873D01*
X153227558Y-162449874D01*
X153227561Y-162449876D01*
X153392293Y-162503401D01*
X153392297Y-162503402D01*
X153563386Y-162530500D01*
X153563389Y-162530500D01*
X153736614Y-162530500D01*
X153907702Y-162503402D01*
X153907706Y-162503401D01*
X154072438Y-162449876D01*
X154072440Y-162449874D01*
X154072445Y-162449873D01*
X154226788Y-162371232D01*
X154366928Y-162269414D01*
X154489414Y-162146928D01*
X154591232Y-162006788D01*
X154669873Y-161852445D01*
X154669874Y-161852440D01*
X154669876Y-161852438D01*
X154723401Y-161687706D01*
X154723402Y-161687702D01*
X154750500Y-161516614D01*
X154750500Y-161343385D01*
X154723402Y-161172297D01*
X154723401Y-161172293D01*
X154669876Y-161007561D01*
X154669874Y-161007558D01*
X154669873Y-161007557D01*
X154669873Y-161007555D01*
X154591232Y-160853212D01*
X154489414Y-160713072D01*
X154366928Y-160590586D01*
X154226788Y-160488768D01*
X154226787Y-160488767D01*
X154226785Y-160488766D01*
X154072441Y-160410125D01*
X154072438Y-160410123D01*
X153907706Y-160356598D01*
X153907702Y-160356597D01*
X153736614Y-160329500D01*
X153736611Y-160329500D01*
X153563389Y-160329500D01*
X153563386Y-160329500D01*
X153392297Y-160356597D01*
X153392293Y-160356598D01*
X153227561Y-160410123D01*
X153227558Y-160410125D01*
X153073214Y-160488766D01*
X152933073Y-160590585D01*
X152810585Y-160713073D01*
X152708766Y-160853214D01*
X152630125Y-161007558D01*
X152630123Y-161007561D01*
X152576598Y-161172293D01*
X152576597Y-161172297D01*
X152549500Y-161343385D01*
X152210500Y-161343385D01*
X152183402Y-161172297D01*
X152183401Y-161172293D01*
X152129876Y-161007561D01*
X152129874Y-161007558D01*
X152129873Y-161007557D01*
X152129873Y-161007555D01*
X152051232Y-160853212D01*
X151949414Y-160713072D01*
X151826928Y-160590586D01*
X151686788Y-160488768D01*
X151686787Y-160488767D01*
X151686785Y-160488766D01*
X151532441Y-160410125D01*
X151532438Y-160410123D01*
X151367706Y-160356598D01*
X151367702Y-160356597D01*
X151196614Y-160329500D01*
X151196611Y-160329500D01*
X151023389Y-160329500D01*
X151023386Y-160329500D01*
X150852297Y-160356597D01*
X150852293Y-160356598D01*
X150687561Y-160410123D01*
X150687558Y-160410125D01*
X150533214Y-160488766D01*
X150393073Y-160590585D01*
X150270585Y-160713073D01*
X150168766Y-160853214D01*
X150090125Y-161007558D01*
X150090123Y-161007561D01*
X150036598Y-161172293D01*
X150036597Y-161172297D01*
X150009500Y-161343385D01*
X149670500Y-161343385D01*
X149643402Y-161172297D01*
X149643401Y-161172293D01*
X149589876Y-161007561D01*
X149589874Y-161007558D01*
X149589873Y-161007557D01*
X149589873Y-161007555D01*
X149511232Y-160853212D01*
X149409414Y-160713072D01*
X149286928Y-160590586D01*
X149146788Y-160488768D01*
X149146787Y-160488767D01*
X149146785Y-160488766D01*
X148992441Y-160410125D01*
X148992438Y-160410123D01*
X148827706Y-160356598D01*
X148827702Y-160356597D01*
X148656614Y-160329500D01*
X148656611Y-160329500D01*
X148483389Y-160329500D01*
X148483386Y-160329500D01*
X148312297Y-160356597D01*
X148312293Y-160356598D01*
X148147561Y-160410123D01*
X148147558Y-160410125D01*
X147993214Y-160488766D01*
X147853073Y-160590585D01*
X147730585Y-160713073D01*
X147628766Y-160853214D01*
X147550125Y-161007558D01*
X147550123Y-161007561D01*
X147496598Y-161172293D01*
X147496597Y-161172297D01*
X147469500Y-161343385D01*
X147130500Y-161343385D01*
X147103402Y-161172297D01*
X147103401Y-161172293D01*
X147049876Y-161007561D01*
X147049874Y-161007558D01*
X147049873Y-161007557D01*
X147049873Y-161007555D01*
X146971232Y-160853212D01*
X146869414Y-160713072D01*
X146746928Y-160590586D01*
X146606788Y-160488768D01*
X146606787Y-160488767D01*
X146606785Y-160488766D01*
X146452441Y-160410125D01*
X146452438Y-160410123D01*
X146287706Y-160356598D01*
X146287702Y-160356597D01*
X146116614Y-160329500D01*
X146116611Y-160329500D01*
X145943389Y-160329500D01*
X145943386Y-160329500D01*
X145772297Y-160356597D01*
X145772293Y-160356598D01*
X145607561Y-160410123D01*
X145607558Y-160410125D01*
X145453214Y-160488766D01*
X145313073Y-160590585D01*
X145190585Y-160713073D01*
X145088766Y-160853214D01*
X145010125Y-161007558D01*
X145010123Y-161007561D01*
X144956598Y-161172293D01*
X144956597Y-161172297D01*
X144929500Y-161343385D01*
X144590500Y-161343385D01*
X144563402Y-161172297D01*
X144563401Y-161172293D01*
X144509876Y-161007561D01*
X144509874Y-161007558D01*
X144509873Y-161007557D01*
X144509873Y-161007555D01*
X144431232Y-160853212D01*
X144329414Y-160713072D01*
X144206928Y-160590586D01*
X144066788Y-160488768D01*
X144066787Y-160488767D01*
X144066785Y-160488766D01*
X143912441Y-160410125D01*
X143912438Y-160410123D01*
X143747706Y-160356598D01*
X143747702Y-160356597D01*
X143576614Y-160329500D01*
X143576611Y-160329500D01*
X143403389Y-160329500D01*
X143403386Y-160329500D01*
X143232297Y-160356597D01*
X143232293Y-160356598D01*
X143067561Y-160410123D01*
X143067558Y-160410125D01*
X142913214Y-160488766D01*
X142773073Y-160590585D01*
X142650585Y-160713073D01*
X142548766Y-160853214D01*
X142470125Y-161007558D01*
X142470123Y-161007561D01*
X142416598Y-161172293D01*
X142416597Y-161172297D01*
X142389500Y-161343385D01*
X142050500Y-161343385D01*
X142023402Y-161172297D01*
X142023401Y-161172293D01*
X141969876Y-161007561D01*
X141969874Y-161007558D01*
X141969873Y-161007557D01*
X141969873Y-161007555D01*
X141891232Y-160853212D01*
X141789414Y-160713072D01*
X141666928Y-160590586D01*
X141526788Y-160488768D01*
X141526787Y-160488767D01*
X141526785Y-160488766D01*
X141372441Y-160410125D01*
X141372438Y-160410123D01*
X141207706Y-160356598D01*
X141207702Y-160356597D01*
X141036614Y-160329500D01*
X141036611Y-160329500D01*
X140863389Y-160329500D01*
X140863386Y-160329500D01*
X140692297Y-160356597D01*
X140692293Y-160356598D01*
X140527561Y-160410123D01*
X140527558Y-160410125D01*
X140373214Y-160488766D01*
X140233073Y-160590585D01*
X140110585Y-160713073D01*
X140008766Y-160853214D01*
X139930125Y-161007558D01*
X139930123Y-161007561D01*
X139876598Y-161172293D01*
X139876597Y-161172297D01*
X139849500Y-161343385D01*
X139510500Y-161343385D01*
X139483402Y-161172297D01*
X139483401Y-161172293D01*
X139429876Y-161007561D01*
X139429874Y-161007558D01*
X139429873Y-161007557D01*
X139429873Y-161007555D01*
X139351232Y-160853212D01*
X139249414Y-160713072D01*
X139126928Y-160590586D01*
X138986788Y-160488768D01*
X138986787Y-160488767D01*
X138986785Y-160488766D01*
X138832441Y-160410125D01*
X138832438Y-160410123D01*
X138667706Y-160356598D01*
X138667702Y-160356597D01*
X138496614Y-160329500D01*
X138496611Y-160329500D01*
X138323389Y-160329500D01*
X138323386Y-160329500D01*
X138152297Y-160356597D01*
X138152293Y-160356598D01*
X137987561Y-160410123D01*
X137987558Y-160410125D01*
X137833214Y-160488766D01*
X137693073Y-160590585D01*
X137570585Y-160713073D01*
X137468766Y-160853214D01*
X137390125Y-161007558D01*
X137390123Y-161007561D01*
X137336598Y-161172293D01*
X137336597Y-161172297D01*
X137309500Y-161343385D01*
X136970500Y-161343385D01*
X136943402Y-161172297D01*
X136943401Y-161172293D01*
X136889876Y-161007561D01*
X136889874Y-161007558D01*
X136889873Y-161007557D01*
X136889873Y-161007555D01*
X136811232Y-160853212D01*
X136709414Y-160713072D01*
X136586928Y-160590586D01*
X136446788Y-160488768D01*
X136446787Y-160488767D01*
X136446785Y-160488766D01*
X136292441Y-160410125D01*
X136292438Y-160410123D01*
X136127706Y-160356598D01*
X136127702Y-160356597D01*
X135956614Y-160329500D01*
X135956611Y-160329500D01*
X135783389Y-160329500D01*
X135783386Y-160329500D01*
X135612297Y-160356597D01*
X135612293Y-160356598D01*
X135447561Y-160410123D01*
X135447558Y-160410125D01*
X135293214Y-160488766D01*
X135153073Y-160590585D01*
X135030585Y-160713073D01*
X134928766Y-160853214D01*
X134850125Y-161007558D01*
X134850123Y-161007561D01*
X134796598Y-161172293D01*
X134796597Y-161172297D01*
X134769500Y-161343385D01*
X131890500Y-161343385D01*
X131863402Y-161172297D01*
X131863401Y-161172293D01*
X131809876Y-161007561D01*
X131809874Y-161007558D01*
X131809873Y-161007557D01*
X131809873Y-161007555D01*
X131731232Y-160853212D01*
X131629414Y-160713072D01*
X131506928Y-160590586D01*
X131366788Y-160488768D01*
X131366787Y-160488767D01*
X131366785Y-160488766D01*
X131212441Y-160410125D01*
X131212438Y-160410123D01*
X131047706Y-160356598D01*
X131047702Y-160356597D01*
X130876614Y-160329500D01*
X130876611Y-160329500D01*
X130703389Y-160329500D01*
X130703386Y-160329500D01*
X130532297Y-160356597D01*
X130532293Y-160356598D01*
X130367561Y-160410123D01*
X130367558Y-160410125D01*
X130213214Y-160488766D01*
X130073073Y-160590585D01*
X129950585Y-160713073D01*
X129848766Y-160853214D01*
X129770125Y-161007558D01*
X129770123Y-161007561D01*
X129716598Y-161172293D01*
X129716597Y-161172297D01*
X129689500Y-161343385D01*
X91595862Y-161343385D01*
X91496583Y-160844274D01*
X91496111Y-160841726D01*
X91412751Y-160356598D01*
X91232753Y-159309072D01*
X91232360Y-159306588D01*
X91009213Y-157767576D01*
X91008885Y-157765082D01*
X90826091Y-156220665D01*
X90825835Y-156218227D01*
X90683533Y-154669573D01*
X90683332Y-154667008D01*
X90581624Y-153115244D01*
X90581493Y-153112758D01*
X90520439Y-151558822D01*
X90520372Y-151556237D01*
X90500016Y-150001222D01*
X90500016Y-149998777D01*
X90520372Y-148443752D01*
X90520440Y-148441170D01*
X90581493Y-146887236D01*
X90581624Y-146884758D01*
X90683334Y-145332964D01*
X90683535Y-145330406D01*
X90825836Y-143781763D01*
X90826090Y-143779341D01*
X91008886Y-142234906D01*
X91009212Y-142232432D01*
X91232361Y-140693398D01*
X91232751Y-140690937D01*
X91496111Y-139158270D01*
X91496583Y-139155724D01*
X91561830Y-138827706D01*
X91630319Y-138483385D01*
X129689500Y-138483385D01*
X129689500Y-138656614D01*
X129716597Y-138827702D01*
X129716598Y-138827706D01*
X129770123Y-138992438D01*
X129770125Y-138992441D01*
X129770126Y-138992444D01*
X129770127Y-138992445D01*
X129848768Y-139146788D01*
X129950586Y-139286928D01*
X130073072Y-139409414D01*
X130213212Y-139511232D01*
X130367555Y-139589873D01*
X130367557Y-139589873D01*
X130367558Y-139589874D01*
X130367561Y-139589876D01*
X130532293Y-139643401D01*
X130532297Y-139643402D01*
X130703386Y-139670500D01*
X130703389Y-139670500D01*
X130876614Y-139670500D01*
X131047702Y-139643402D01*
X131047706Y-139643401D01*
X131212438Y-139589876D01*
X131212440Y-139589874D01*
X131212445Y-139589873D01*
X131366788Y-139511232D01*
X131506928Y-139409414D01*
X131629414Y-139286928D01*
X131731232Y-139146788D01*
X131809873Y-138992445D01*
X131809874Y-138992440D01*
X131809876Y-138992438D01*
X131863401Y-138827706D01*
X131863402Y-138827702D01*
X131890500Y-138656614D01*
X131890500Y-138483385D01*
X132229500Y-138483385D01*
X132229500Y-138656614D01*
X132256597Y-138827702D01*
X132256598Y-138827706D01*
X132310123Y-138992438D01*
X132310125Y-138992441D01*
X132310126Y-138992444D01*
X132310127Y-138992445D01*
X132388768Y-139146788D01*
X132490586Y-139286928D01*
X132613072Y-139409414D01*
X132753212Y-139511232D01*
X132907555Y-139589873D01*
X132907557Y-139589873D01*
X132907558Y-139589874D01*
X132907561Y-139589876D01*
X133072293Y-139643401D01*
X133072297Y-139643402D01*
X133243386Y-139670500D01*
X133243389Y-139670500D01*
X133416614Y-139670500D01*
X133587702Y-139643402D01*
X133587706Y-139643401D01*
X133752438Y-139589876D01*
X133752440Y-139589874D01*
X133752445Y-139589873D01*
X133906788Y-139511232D01*
X134046928Y-139409414D01*
X134169414Y-139286928D01*
X134271232Y-139146788D01*
X134349873Y-138992445D01*
X134349874Y-138992440D01*
X134349876Y-138992438D01*
X134403401Y-138827706D01*
X134403402Y-138827702D01*
X134430500Y-138656614D01*
X134430500Y-138483385D01*
X134769500Y-138483385D01*
X134769500Y-138656614D01*
X134796597Y-138827702D01*
X134796598Y-138827706D01*
X134850123Y-138992438D01*
X134850125Y-138992441D01*
X134850126Y-138992444D01*
X134850127Y-138992445D01*
X134928768Y-139146788D01*
X135030586Y-139286928D01*
X135153072Y-139409414D01*
X135293212Y-139511232D01*
X135447555Y-139589873D01*
X135447557Y-139589873D01*
X135447558Y-139589874D01*
X135447561Y-139589876D01*
X135612293Y-139643401D01*
X135612297Y-139643402D01*
X135783386Y-139670500D01*
X135783389Y-139670500D01*
X135956614Y-139670500D01*
X136127702Y-139643402D01*
X136127706Y-139643401D01*
X136292438Y-139589876D01*
X136292440Y-139589874D01*
X136292445Y-139589873D01*
X136446788Y-139511232D01*
X136586928Y-139409414D01*
X136709414Y-139286928D01*
X136811232Y-139146788D01*
X136889873Y-138992445D01*
X136889874Y-138992440D01*
X136889876Y-138992438D01*
X136943401Y-138827706D01*
X136943402Y-138827702D01*
X136970500Y-138656614D01*
X136970500Y-138483385D01*
X137309500Y-138483385D01*
X137309500Y-138656614D01*
X137336597Y-138827702D01*
X137336598Y-138827706D01*
X137390123Y-138992438D01*
X137390125Y-138992441D01*
X137390126Y-138992444D01*
X137390127Y-138992445D01*
X137468768Y-139146788D01*
X137570586Y-139286928D01*
X137693072Y-139409414D01*
X137833212Y-139511232D01*
X137987555Y-139589873D01*
X137987557Y-139589873D01*
X137987558Y-139589874D01*
X137987561Y-139589876D01*
X138152293Y-139643401D01*
X138152297Y-139643402D01*
X138323386Y-139670500D01*
X138323389Y-139670500D01*
X138496614Y-139670500D01*
X138667702Y-139643402D01*
X138667706Y-139643401D01*
X138832438Y-139589876D01*
X138832440Y-139589874D01*
X138832445Y-139589873D01*
X138986788Y-139511232D01*
X139126928Y-139409414D01*
X139249414Y-139286928D01*
X139351232Y-139146788D01*
X139429873Y-138992445D01*
X139429874Y-138992440D01*
X139429876Y-138992438D01*
X139483401Y-138827706D01*
X139483402Y-138827702D01*
X139510500Y-138656614D01*
X139510500Y-138483385D01*
X139849500Y-138483385D01*
X139849500Y-138656614D01*
X139876597Y-138827702D01*
X139876598Y-138827706D01*
X139930123Y-138992438D01*
X139930125Y-138992441D01*
X139930126Y-138992444D01*
X139930127Y-138992445D01*
X140008768Y-139146788D01*
X140110586Y-139286928D01*
X140233072Y-139409414D01*
X140373212Y-139511232D01*
X140527555Y-139589873D01*
X140527557Y-139589873D01*
X140527558Y-139589874D01*
X140527561Y-139589876D01*
X140692293Y-139643401D01*
X140692297Y-139643402D01*
X140863386Y-139670500D01*
X140863389Y-139670500D01*
X141036614Y-139670500D01*
X141207702Y-139643402D01*
X141207706Y-139643401D01*
X141372438Y-139589876D01*
X141372440Y-139589874D01*
X141372445Y-139589873D01*
X141526788Y-139511232D01*
X141666928Y-139409414D01*
X141789414Y-139286928D01*
X141891232Y-139146788D01*
X141969873Y-138992445D01*
X141969874Y-138992440D01*
X141969876Y-138992438D01*
X142023401Y-138827706D01*
X142023402Y-138827702D01*
X142050500Y-138656614D01*
X142050500Y-138483385D01*
X142389500Y-138483385D01*
X142389500Y-138656614D01*
X142416597Y-138827702D01*
X142416598Y-138827706D01*
X142470123Y-138992438D01*
X142470125Y-138992441D01*
X142470126Y-138992444D01*
X142470127Y-138992445D01*
X142548768Y-139146788D01*
X142650586Y-139286928D01*
X142773072Y-139409414D01*
X142913212Y-139511232D01*
X143067555Y-139589873D01*
X143067557Y-139589873D01*
X143067558Y-139589874D01*
X143067561Y-139589876D01*
X143232293Y-139643401D01*
X143232297Y-139643402D01*
X143403386Y-139670500D01*
X143403389Y-139670500D01*
X143576614Y-139670500D01*
X143747702Y-139643402D01*
X143747706Y-139643401D01*
X143912438Y-139589876D01*
X143912440Y-139589874D01*
X143912445Y-139589873D01*
X144066788Y-139511232D01*
X144206928Y-139409414D01*
X144329414Y-139286928D01*
X144431232Y-139146788D01*
X144509873Y-138992445D01*
X144509874Y-138992440D01*
X144509876Y-138992438D01*
X144563401Y-138827706D01*
X144563402Y-138827702D01*
X144590500Y-138656614D01*
X144590500Y-138483385D01*
X144929500Y-138483385D01*
X144929500Y-138656614D01*
X144956597Y-138827702D01*
X144956598Y-138827706D01*
X145010123Y-138992438D01*
X145010125Y-138992441D01*
X145010126Y-138992444D01*
X145010127Y-138992445D01*
X145088768Y-139146788D01*
X145190586Y-139286928D01*
X145313072Y-139409414D01*
X145453212Y-139511232D01*
X145607555Y-139589873D01*
X145607557Y-139589873D01*
X145607558Y-139589874D01*
X145607561Y-139589876D01*
X145772293Y-139643401D01*
X145772297Y-139643402D01*
X145943386Y-139670500D01*
X145943389Y-139670500D01*
X146116614Y-139670500D01*
X146287702Y-139643402D01*
X146287706Y-139643401D01*
X146452438Y-139589876D01*
X146452440Y-139589874D01*
X146452445Y-139589873D01*
X146606788Y-139511232D01*
X146746928Y-139409414D01*
X146869414Y-139286928D01*
X146971232Y-139146788D01*
X147049873Y-138992445D01*
X147049874Y-138992440D01*
X147049876Y-138992438D01*
X147103401Y-138827706D01*
X147103402Y-138827702D01*
X147130500Y-138656614D01*
X147130500Y-138483385D01*
X147469500Y-138483385D01*
X147469500Y-138656614D01*
X147496597Y-138827702D01*
X147496598Y-138827706D01*
X147550123Y-138992438D01*
X147550125Y-138992441D01*
X147550126Y-138992444D01*
X147550127Y-138992445D01*
X147628768Y-139146788D01*
X147730586Y-139286928D01*
X147853072Y-139409414D01*
X147993212Y-139511232D01*
X148147555Y-139589873D01*
X148147557Y-139589873D01*
X148147558Y-139589874D01*
X148147561Y-139589876D01*
X148312293Y-139643401D01*
X148312297Y-139643402D01*
X148483386Y-139670500D01*
X148483389Y-139670500D01*
X148656614Y-139670500D01*
X148827702Y-139643402D01*
X148827706Y-139643401D01*
X148992438Y-139589876D01*
X148992440Y-139589874D01*
X148992445Y-139589873D01*
X149146788Y-139511232D01*
X149286928Y-139409414D01*
X149409414Y-139286928D01*
X149511232Y-139146788D01*
X149589873Y-138992445D01*
X149589874Y-138992440D01*
X149589876Y-138992438D01*
X149643401Y-138827706D01*
X149643402Y-138827702D01*
X149670500Y-138656614D01*
X149670500Y-138483385D01*
X150009500Y-138483385D01*
X150009500Y-138656614D01*
X150036597Y-138827702D01*
X150036598Y-138827706D01*
X150090123Y-138992438D01*
X150090125Y-138992441D01*
X150090126Y-138992444D01*
X150090127Y-138992445D01*
X150168768Y-139146788D01*
X150270586Y-139286928D01*
X150393072Y-139409414D01*
X150533212Y-139511232D01*
X150687555Y-139589873D01*
X150687557Y-139589873D01*
X150687558Y-139589874D01*
X150687561Y-139589876D01*
X150852293Y-139643401D01*
X150852297Y-139643402D01*
X151023386Y-139670500D01*
X151023389Y-139670500D01*
X151196614Y-139670500D01*
X151367702Y-139643402D01*
X151367706Y-139643401D01*
X151532438Y-139589876D01*
X151532440Y-139589874D01*
X151532445Y-139589873D01*
X151686788Y-139511232D01*
X151826928Y-139409414D01*
X151949414Y-139286928D01*
X152051232Y-139146788D01*
X152129873Y-138992445D01*
X152129874Y-138992440D01*
X152129876Y-138992438D01*
X152183401Y-138827706D01*
X152183402Y-138827702D01*
X152210500Y-138656614D01*
X152210500Y-138483385D01*
X152549500Y-138483385D01*
X152549500Y-138656614D01*
X152576597Y-138827702D01*
X152576598Y-138827706D01*
X152630123Y-138992438D01*
X152630125Y-138992441D01*
X152630126Y-138992444D01*
X152630127Y-138992445D01*
X152708768Y-139146788D01*
X152810586Y-139286928D01*
X152933072Y-139409414D01*
X153073212Y-139511232D01*
X153227555Y-139589873D01*
X153227557Y-139589873D01*
X153227558Y-139589874D01*
X153227561Y-139589876D01*
X153392293Y-139643401D01*
X153392297Y-139643402D01*
X153563386Y-139670500D01*
X153563389Y-139670500D01*
X153736614Y-139670500D01*
X153907702Y-139643402D01*
X153907706Y-139643401D01*
X154072438Y-139589876D01*
X154072440Y-139589874D01*
X154072445Y-139589873D01*
X154226788Y-139511232D01*
X154366928Y-139409414D01*
X154489414Y-139286928D01*
X154591232Y-139146788D01*
X154669873Y-138992445D01*
X154669874Y-138992440D01*
X154669876Y-138992438D01*
X154723401Y-138827706D01*
X154723402Y-138827702D01*
X154750500Y-138656614D01*
X154750500Y-138483385D01*
X155089500Y-138483385D01*
X155089500Y-138656614D01*
X155116597Y-138827702D01*
X155116598Y-138827706D01*
X155170123Y-138992438D01*
X155170125Y-138992441D01*
X155170126Y-138992444D01*
X155170127Y-138992445D01*
X155248768Y-139146788D01*
X155350586Y-139286928D01*
X155473072Y-139409414D01*
X155613212Y-139511232D01*
X155767555Y-139589873D01*
X155767557Y-139589873D01*
X155767558Y-139589874D01*
X155767561Y-139589876D01*
X155932293Y-139643401D01*
X155932297Y-139643402D01*
X156103386Y-139670500D01*
X156103389Y-139670500D01*
X156276614Y-139670500D01*
X156447702Y-139643402D01*
X156447706Y-139643401D01*
X156612438Y-139589876D01*
X156612440Y-139589874D01*
X156612445Y-139589873D01*
X156766788Y-139511232D01*
X156906928Y-139409414D01*
X157029414Y-139286928D01*
X157131232Y-139146788D01*
X157209873Y-138992445D01*
X157209874Y-138992440D01*
X157209876Y-138992438D01*
X157263401Y-138827706D01*
X157263402Y-138827702D01*
X157290500Y-138656614D01*
X157290500Y-138483385D01*
X157629500Y-138483385D01*
X157629500Y-138656614D01*
X157656597Y-138827702D01*
X157656598Y-138827706D01*
X157710123Y-138992438D01*
X157710125Y-138992441D01*
X157710126Y-138992444D01*
X157710127Y-138992445D01*
X157788768Y-139146788D01*
X157890586Y-139286928D01*
X158013072Y-139409414D01*
X158153212Y-139511232D01*
X158307555Y-139589873D01*
X158307557Y-139589873D01*
X158307558Y-139589874D01*
X158307561Y-139589876D01*
X158472293Y-139643401D01*
X158472297Y-139643402D01*
X158643386Y-139670500D01*
X158643389Y-139670500D01*
X158816614Y-139670500D01*
X158987702Y-139643402D01*
X158987706Y-139643401D01*
X159152438Y-139589876D01*
X159152440Y-139589874D01*
X159152445Y-139589873D01*
X159306788Y-139511232D01*
X159446928Y-139409414D01*
X159569414Y-139286928D01*
X159671232Y-139146788D01*
X159749873Y-138992445D01*
X159749874Y-138992440D01*
X159749876Y-138992438D01*
X159803401Y-138827706D01*
X159803402Y-138827702D01*
X159830500Y-138656614D01*
X159830500Y-138483385D01*
X160169500Y-138483385D01*
X160169500Y-138656614D01*
X160196597Y-138827702D01*
X160196598Y-138827706D01*
X160250123Y-138992438D01*
X160250125Y-138992441D01*
X160250126Y-138992444D01*
X160250127Y-138992445D01*
X160328768Y-139146788D01*
X160430586Y-139286928D01*
X160553072Y-139409414D01*
X160693212Y-139511232D01*
X160847555Y-139589873D01*
X160847557Y-139589873D01*
X160847558Y-139589874D01*
X160847561Y-139589876D01*
X161012293Y-139643401D01*
X161012297Y-139643402D01*
X161183386Y-139670500D01*
X161183389Y-139670500D01*
X161356614Y-139670500D01*
X161527702Y-139643402D01*
X161527706Y-139643401D01*
X161692438Y-139589876D01*
X161692440Y-139589874D01*
X161692445Y-139589873D01*
X161846788Y-139511232D01*
X161986928Y-139409414D01*
X162109414Y-139286928D01*
X162211232Y-139146788D01*
X162289873Y-138992445D01*
X162289874Y-138992440D01*
X162289876Y-138992438D01*
X162343401Y-138827706D01*
X162343402Y-138827702D01*
X162370500Y-138656614D01*
X162370500Y-138483385D01*
X162709500Y-138483385D01*
X162709500Y-138656614D01*
X162736597Y-138827702D01*
X162736598Y-138827706D01*
X162790123Y-138992438D01*
X162790125Y-138992441D01*
X162790126Y-138992444D01*
X162790127Y-138992445D01*
X162868768Y-139146788D01*
X162970586Y-139286928D01*
X163093072Y-139409414D01*
X163233212Y-139511232D01*
X163387555Y-139589873D01*
X163387557Y-139589873D01*
X163387558Y-139589874D01*
X163387561Y-139589876D01*
X163552293Y-139643401D01*
X163552297Y-139643402D01*
X163723386Y-139670500D01*
X163723389Y-139670500D01*
X163896614Y-139670500D01*
X164067702Y-139643402D01*
X164067706Y-139643401D01*
X164232438Y-139589876D01*
X164232440Y-139589874D01*
X164232445Y-139589873D01*
X164386788Y-139511232D01*
X164526928Y-139409414D01*
X164649414Y-139286928D01*
X164751232Y-139146788D01*
X164829873Y-138992445D01*
X164829874Y-138992440D01*
X164829876Y-138992438D01*
X164883401Y-138827706D01*
X164883402Y-138827702D01*
X164910500Y-138656614D01*
X164910500Y-138483385D01*
X165249500Y-138483385D01*
X165249500Y-138656614D01*
X165276597Y-138827702D01*
X165276598Y-138827706D01*
X165330123Y-138992438D01*
X165330125Y-138992441D01*
X165330126Y-138992444D01*
X165330127Y-138992445D01*
X165408768Y-139146788D01*
X165510586Y-139286928D01*
X165633072Y-139409414D01*
X165773212Y-139511232D01*
X165927555Y-139589873D01*
X165927557Y-139589873D01*
X165927558Y-139589874D01*
X165927561Y-139589876D01*
X166092293Y-139643401D01*
X166092297Y-139643402D01*
X166263386Y-139670500D01*
X166263389Y-139670500D01*
X166436614Y-139670500D01*
X166607702Y-139643402D01*
X166607706Y-139643401D01*
X166772438Y-139589876D01*
X166772440Y-139589874D01*
X166772445Y-139589873D01*
X166926788Y-139511232D01*
X167066928Y-139409414D01*
X167189414Y-139286928D01*
X167291232Y-139146788D01*
X167369873Y-138992445D01*
X167369874Y-138992440D01*
X167369876Y-138992438D01*
X167423401Y-138827706D01*
X167423402Y-138827702D01*
X167450500Y-138656614D01*
X167450500Y-138483385D01*
X167789500Y-138483385D01*
X167789500Y-138656614D01*
X167816597Y-138827702D01*
X167816598Y-138827706D01*
X167870123Y-138992438D01*
X167870125Y-138992441D01*
X167870126Y-138992444D01*
X167870127Y-138992445D01*
X167948768Y-139146788D01*
X168050586Y-139286928D01*
X168173072Y-139409414D01*
X168313212Y-139511232D01*
X168467555Y-139589873D01*
X168467557Y-139589873D01*
X168467558Y-139589874D01*
X168467561Y-139589876D01*
X168632293Y-139643401D01*
X168632297Y-139643402D01*
X168803386Y-139670500D01*
X168803389Y-139670500D01*
X168976614Y-139670500D01*
X169147702Y-139643402D01*
X169147706Y-139643401D01*
X169312438Y-139589876D01*
X169312440Y-139589874D01*
X169312445Y-139589873D01*
X169466788Y-139511232D01*
X169606928Y-139409414D01*
X169729414Y-139286928D01*
X169831232Y-139146788D01*
X169909873Y-138992445D01*
X169909874Y-138992440D01*
X169909876Y-138992438D01*
X169963401Y-138827706D01*
X169963402Y-138827702D01*
X169990500Y-138656614D01*
X169990500Y-138483385D01*
X170329500Y-138483385D01*
X170329500Y-138656614D01*
X170356597Y-138827702D01*
X170356598Y-138827706D01*
X170410123Y-138992438D01*
X170410125Y-138992441D01*
X170410126Y-138992444D01*
X170410127Y-138992445D01*
X170488768Y-139146788D01*
X170590586Y-139286928D01*
X170713072Y-139409414D01*
X170853212Y-139511232D01*
X171007555Y-139589873D01*
X171007557Y-139589873D01*
X171007558Y-139589874D01*
X171007561Y-139589876D01*
X171172293Y-139643401D01*
X171172297Y-139643402D01*
X171343386Y-139670500D01*
X171343389Y-139670500D01*
X171516614Y-139670500D01*
X171687702Y-139643402D01*
X171687706Y-139643401D01*
X171852438Y-139589876D01*
X171852440Y-139589874D01*
X171852445Y-139589873D01*
X172006788Y-139511232D01*
X172146928Y-139409414D01*
X172269414Y-139286928D01*
X172371232Y-139146788D01*
X172449873Y-138992445D01*
X172449874Y-138992440D01*
X172449876Y-138992438D01*
X172503401Y-138827706D01*
X172503402Y-138827702D01*
X172530500Y-138656614D01*
X172530500Y-138483385D01*
X172869500Y-138483385D01*
X172869500Y-138656614D01*
X172896597Y-138827702D01*
X172896598Y-138827706D01*
X172950123Y-138992438D01*
X172950125Y-138992441D01*
X172950126Y-138992444D01*
X172950127Y-138992445D01*
X173028768Y-139146788D01*
X173130586Y-139286928D01*
X173253072Y-139409414D01*
X173393212Y-139511232D01*
X173547555Y-139589873D01*
X173547557Y-139589873D01*
X173547558Y-139589874D01*
X173547561Y-139589876D01*
X173712293Y-139643401D01*
X173712297Y-139643402D01*
X173883386Y-139670500D01*
X173883389Y-139670500D01*
X174056614Y-139670500D01*
X174227702Y-139643402D01*
X174227706Y-139643401D01*
X174392438Y-139589876D01*
X174392440Y-139589874D01*
X174392445Y-139589873D01*
X174546788Y-139511232D01*
X174686928Y-139409414D01*
X174809414Y-139286928D01*
X174911232Y-139146788D01*
X174989873Y-138992445D01*
X174989874Y-138992440D01*
X174989876Y-138992438D01*
X175043401Y-138827706D01*
X175043402Y-138827702D01*
X175070500Y-138656614D01*
X175070500Y-138483385D01*
X175409500Y-138483385D01*
X175409500Y-138656614D01*
X175436597Y-138827702D01*
X175436598Y-138827706D01*
X175490123Y-138992438D01*
X175490125Y-138992441D01*
X175490126Y-138992444D01*
X175490127Y-138992445D01*
X175568768Y-139146788D01*
X175670586Y-139286928D01*
X175793072Y-139409414D01*
X175933212Y-139511232D01*
X176087555Y-139589873D01*
X176087557Y-139589873D01*
X176087558Y-139589874D01*
X176087561Y-139589876D01*
X176252293Y-139643401D01*
X176252297Y-139643402D01*
X176423386Y-139670500D01*
X176423389Y-139670500D01*
X176596614Y-139670500D01*
X176767702Y-139643402D01*
X176767706Y-139643401D01*
X176932438Y-139589876D01*
X176932440Y-139589874D01*
X176932445Y-139589873D01*
X177086788Y-139511232D01*
X177226928Y-139409414D01*
X177349414Y-139286928D01*
X177451232Y-139146788D01*
X177529873Y-138992445D01*
X177529874Y-138992440D01*
X177529876Y-138992438D01*
X177583401Y-138827706D01*
X177583402Y-138827702D01*
X177610500Y-138656614D01*
X177610500Y-138483385D01*
X177949500Y-138483385D01*
X177949500Y-138656614D01*
X177976597Y-138827702D01*
X177976598Y-138827706D01*
X178030123Y-138992438D01*
X178030125Y-138992441D01*
X178030126Y-138992444D01*
X178030127Y-138992445D01*
X178108768Y-139146788D01*
X178210586Y-139286928D01*
X178333072Y-139409414D01*
X178473212Y-139511232D01*
X178627555Y-139589873D01*
X178627557Y-139589873D01*
X178627558Y-139589874D01*
X178627561Y-139589876D01*
X178792293Y-139643401D01*
X178792297Y-139643402D01*
X178963386Y-139670500D01*
X178963389Y-139670500D01*
X179136614Y-139670500D01*
X179307702Y-139643402D01*
X179307706Y-139643401D01*
X179472438Y-139589876D01*
X179472440Y-139589874D01*
X179472445Y-139589873D01*
X179626788Y-139511232D01*
X179766928Y-139409414D01*
X179889414Y-139286928D01*
X179991232Y-139146788D01*
X180069873Y-138992445D01*
X180069874Y-138992440D01*
X180069876Y-138992438D01*
X180123401Y-138827706D01*
X180123402Y-138827702D01*
X180150500Y-138656614D01*
X180150500Y-138483385D01*
X180489500Y-138483385D01*
X180489500Y-138656614D01*
X180516597Y-138827702D01*
X180516598Y-138827706D01*
X180570123Y-138992438D01*
X180570125Y-138992441D01*
X180570126Y-138992444D01*
X180570127Y-138992445D01*
X180648768Y-139146788D01*
X180750586Y-139286928D01*
X180873072Y-139409414D01*
X181013212Y-139511232D01*
X181167555Y-139589873D01*
X181167557Y-139589873D01*
X181167558Y-139589874D01*
X181167561Y-139589876D01*
X181332293Y-139643401D01*
X181332297Y-139643402D01*
X181503386Y-139670500D01*
X181503389Y-139670500D01*
X181676614Y-139670500D01*
X181847702Y-139643402D01*
X181847706Y-139643401D01*
X182012438Y-139589876D01*
X182012440Y-139589874D01*
X182012445Y-139589873D01*
X182166788Y-139511232D01*
X182306928Y-139409414D01*
X182429414Y-139286928D01*
X182531232Y-139146788D01*
X182609873Y-138992445D01*
X182609874Y-138992440D01*
X182609876Y-138992438D01*
X182663401Y-138827706D01*
X182663402Y-138827702D01*
X182690500Y-138656614D01*
X182690500Y-138483385D01*
X183029500Y-138483385D01*
X183029500Y-138656614D01*
X183056597Y-138827702D01*
X183056598Y-138827706D01*
X183110123Y-138992438D01*
X183110125Y-138992441D01*
X183110126Y-138992444D01*
X183110127Y-138992445D01*
X183188768Y-139146788D01*
X183290586Y-139286928D01*
X183413072Y-139409414D01*
X183553212Y-139511232D01*
X183707555Y-139589873D01*
X183707557Y-139589873D01*
X183707558Y-139589874D01*
X183707561Y-139589876D01*
X183872293Y-139643401D01*
X183872297Y-139643402D01*
X184043386Y-139670500D01*
X184043389Y-139670500D01*
X184216614Y-139670500D01*
X184387702Y-139643402D01*
X184387706Y-139643401D01*
X184552438Y-139589876D01*
X184552440Y-139589874D01*
X184552445Y-139589873D01*
X184706788Y-139511232D01*
X184846928Y-139409414D01*
X184969414Y-139286928D01*
X185071232Y-139146788D01*
X185149873Y-138992445D01*
X185149874Y-138992440D01*
X185149876Y-138992438D01*
X185203401Y-138827706D01*
X185203402Y-138827702D01*
X185230500Y-138656614D01*
X185230500Y-138483385D01*
X185569500Y-138483385D01*
X185569500Y-138656614D01*
X185596597Y-138827702D01*
X185596598Y-138827706D01*
X185650123Y-138992438D01*
X185650125Y-138992441D01*
X185650126Y-138992444D01*
X185650127Y-138992445D01*
X185728768Y-139146788D01*
X185830586Y-139286928D01*
X185953072Y-139409414D01*
X186093212Y-139511232D01*
X186247555Y-139589873D01*
X186247557Y-139589873D01*
X186247558Y-139589874D01*
X186247561Y-139589876D01*
X186412293Y-139643401D01*
X186412297Y-139643402D01*
X186583386Y-139670500D01*
X186583389Y-139670500D01*
X186756614Y-139670500D01*
X186927702Y-139643402D01*
X186927706Y-139643401D01*
X187092438Y-139589876D01*
X187092440Y-139589874D01*
X187092445Y-139589873D01*
X187246788Y-139511232D01*
X187386928Y-139409414D01*
X187509414Y-139286928D01*
X187611232Y-139146788D01*
X187689873Y-138992445D01*
X187689874Y-138992440D01*
X187689876Y-138992438D01*
X187743401Y-138827706D01*
X187743402Y-138827702D01*
X187770500Y-138656614D01*
X187770500Y-138483385D01*
X187743402Y-138312297D01*
X187743401Y-138312293D01*
X187689876Y-138147561D01*
X187689874Y-138147558D01*
X187689873Y-138147557D01*
X187689873Y-138147555D01*
X187611232Y-137993212D01*
X187509414Y-137853072D01*
X187386928Y-137730586D01*
X187338398Y-137695327D01*
X188109500Y-137695327D01*
X188109500Y-139444672D01*
X188109501Y-139444684D01*
X188124033Y-139517736D01*
X188124035Y-139517742D01*
X188179397Y-139600599D01*
X188179399Y-139600601D01*
X188262260Y-139655966D01*
X188317808Y-139667015D01*
X188335315Y-139670498D01*
X188335320Y-139670498D01*
X188335326Y-139670500D01*
X188335327Y-139670500D01*
X190084673Y-139670500D01*
X190084674Y-139670500D01*
X190157740Y-139655966D01*
X190240601Y-139600601D01*
X190295966Y-139517740D01*
X190310500Y-139444674D01*
X190310500Y-137695326D01*
X190295966Y-137622260D01*
X190247768Y-137550125D01*
X190240602Y-137539400D01*
X190240599Y-137539397D01*
X190157742Y-137484035D01*
X190157740Y-137484034D01*
X190157737Y-137484033D01*
X190157736Y-137484033D01*
X190084684Y-137469501D01*
X190084674Y-137469500D01*
X188335326Y-137469500D01*
X188335325Y-137469500D01*
X188335315Y-137469501D01*
X188262263Y-137484033D01*
X188262257Y-137484035D01*
X188179400Y-137539397D01*
X188179397Y-137539400D01*
X188124035Y-137622257D01*
X188124033Y-137622263D01*
X188109501Y-137695315D01*
X188109500Y-137695327D01*
X187338398Y-137695327D01*
X187246788Y-137628768D01*
X187246787Y-137628767D01*
X187246785Y-137628766D01*
X187092441Y-137550125D01*
X187092438Y-137550123D01*
X186927706Y-137496598D01*
X186927702Y-137496597D01*
X186756614Y-137469500D01*
X186756611Y-137469500D01*
X186583389Y-137469500D01*
X186583386Y-137469500D01*
X186412297Y-137496597D01*
X186412293Y-137496598D01*
X186247561Y-137550123D01*
X186247558Y-137550125D01*
X186093214Y-137628766D01*
X185953073Y-137730585D01*
X185830585Y-137853073D01*
X185728766Y-137993214D01*
X185650125Y-138147558D01*
X185650123Y-138147561D01*
X185596598Y-138312293D01*
X185596597Y-138312297D01*
X185569500Y-138483385D01*
X185230500Y-138483385D01*
X185203402Y-138312297D01*
X185203401Y-138312293D01*
X185149876Y-138147561D01*
X185149874Y-138147558D01*
X185149873Y-138147557D01*
X185149873Y-138147555D01*
X185071232Y-137993212D01*
X184969414Y-137853072D01*
X184846928Y-137730586D01*
X184706788Y-137628768D01*
X184706787Y-137628767D01*
X184706785Y-137628766D01*
X184552441Y-137550125D01*
X184552438Y-137550123D01*
X184387706Y-137496598D01*
X184387702Y-137496597D01*
X184216614Y-137469500D01*
X184216611Y-137469500D01*
X184043389Y-137469500D01*
X184043386Y-137469500D01*
X183872297Y-137496597D01*
X183872293Y-137496598D01*
X183707561Y-137550123D01*
X183707558Y-137550125D01*
X183553214Y-137628766D01*
X183413073Y-137730585D01*
X183290585Y-137853073D01*
X183188766Y-137993214D01*
X183110125Y-138147558D01*
X183110123Y-138147561D01*
X183056598Y-138312293D01*
X183056597Y-138312297D01*
X183029500Y-138483385D01*
X182690500Y-138483385D01*
X182663402Y-138312297D01*
X182663401Y-138312293D01*
X182609876Y-138147561D01*
X182609874Y-138147558D01*
X182609873Y-138147557D01*
X182609873Y-138147555D01*
X182531232Y-137993212D01*
X182429414Y-137853072D01*
X182306928Y-137730586D01*
X182166788Y-137628768D01*
X182166787Y-137628767D01*
X182166785Y-137628766D01*
X182012441Y-137550125D01*
X182012438Y-137550123D01*
X181847706Y-137496598D01*
X181847702Y-137496597D01*
X181676614Y-137469500D01*
X181676611Y-137469500D01*
X181503389Y-137469500D01*
X181503386Y-137469500D01*
X181332297Y-137496597D01*
X181332293Y-137496598D01*
X181167561Y-137550123D01*
X181167558Y-137550125D01*
X181013214Y-137628766D01*
X180873073Y-137730585D01*
X180750585Y-137853073D01*
X180648766Y-137993214D01*
X180570125Y-138147558D01*
X180570123Y-138147561D01*
X180516598Y-138312293D01*
X180516597Y-138312297D01*
X180489500Y-138483385D01*
X180150500Y-138483385D01*
X180123402Y-138312297D01*
X180123401Y-138312293D01*
X180069876Y-138147561D01*
X180069874Y-138147558D01*
X180069873Y-138147557D01*
X180069873Y-138147555D01*
X179991232Y-137993212D01*
X179889414Y-137853072D01*
X179766928Y-137730586D01*
X179626788Y-137628768D01*
X179626787Y-137628767D01*
X179626785Y-137628766D01*
X179472441Y-137550125D01*
X179472438Y-137550123D01*
X179307706Y-137496598D01*
X179307702Y-137496597D01*
X179136614Y-137469500D01*
X179136611Y-137469500D01*
X178963389Y-137469500D01*
X178963386Y-137469500D01*
X178792297Y-137496597D01*
X178792293Y-137496598D01*
X178627561Y-137550123D01*
X178627558Y-137550125D01*
X178473214Y-137628766D01*
X178333073Y-137730585D01*
X178210585Y-137853073D01*
X178108766Y-137993214D01*
X178030125Y-138147558D01*
X178030123Y-138147561D01*
X177976598Y-138312293D01*
X177976597Y-138312297D01*
X177949500Y-138483385D01*
X177610500Y-138483385D01*
X177583402Y-138312297D01*
X177583401Y-138312293D01*
X177529876Y-138147561D01*
X177529874Y-138147558D01*
X177529873Y-138147557D01*
X177529873Y-138147555D01*
X177451232Y-137993212D01*
X177349414Y-137853072D01*
X177226928Y-137730586D01*
X177086788Y-137628768D01*
X177086787Y-137628767D01*
X177086785Y-137628766D01*
X176932441Y-137550125D01*
X176932438Y-137550123D01*
X176767706Y-137496598D01*
X176767702Y-137496597D01*
X176596614Y-137469500D01*
X176596611Y-137469500D01*
X176423389Y-137469500D01*
X176423386Y-137469500D01*
X176252297Y-137496597D01*
X176252293Y-137496598D01*
X176087561Y-137550123D01*
X176087558Y-137550125D01*
X175933214Y-137628766D01*
X175793073Y-137730585D01*
X175670585Y-137853073D01*
X175568766Y-137993214D01*
X175490125Y-138147558D01*
X175490123Y-138147561D01*
X175436598Y-138312293D01*
X175436597Y-138312297D01*
X175409500Y-138483385D01*
X175070500Y-138483385D01*
X175043402Y-138312297D01*
X175043401Y-138312293D01*
X174989876Y-138147561D01*
X174989874Y-138147558D01*
X174989873Y-138147557D01*
X174989873Y-138147555D01*
X174911232Y-137993212D01*
X174809414Y-137853072D01*
X174686928Y-137730586D01*
X174546788Y-137628768D01*
X174546787Y-137628767D01*
X174546785Y-137628766D01*
X174392441Y-137550125D01*
X174392438Y-137550123D01*
X174227706Y-137496598D01*
X174227702Y-137496597D01*
X174056614Y-137469500D01*
X174056611Y-137469500D01*
X173883389Y-137469500D01*
X173883386Y-137469500D01*
X173712297Y-137496597D01*
X173712293Y-137496598D01*
X173547561Y-137550123D01*
X173547558Y-137550125D01*
X173393214Y-137628766D01*
X173253073Y-137730585D01*
X173130585Y-137853073D01*
X173028766Y-137993214D01*
X172950125Y-138147558D01*
X172950123Y-138147561D01*
X172896598Y-138312293D01*
X172896597Y-138312297D01*
X172869500Y-138483385D01*
X172530500Y-138483385D01*
X172503402Y-138312297D01*
X172503401Y-138312293D01*
X172449876Y-138147561D01*
X172449874Y-138147558D01*
X172449873Y-138147557D01*
X172449873Y-138147555D01*
X172371232Y-137993212D01*
X172269414Y-137853072D01*
X172146928Y-137730586D01*
X172006788Y-137628768D01*
X172006787Y-137628767D01*
X172006785Y-137628766D01*
X171852441Y-137550125D01*
X171852438Y-137550123D01*
X171687706Y-137496598D01*
X171687702Y-137496597D01*
X171516614Y-137469500D01*
X171516611Y-137469500D01*
X171343389Y-137469500D01*
X171343386Y-137469500D01*
X171172297Y-137496597D01*
X171172293Y-137496598D01*
X171007561Y-137550123D01*
X171007558Y-137550125D01*
X170853214Y-137628766D01*
X170713073Y-137730585D01*
X170590585Y-137853073D01*
X170488766Y-137993214D01*
X170410125Y-138147558D01*
X170410123Y-138147561D01*
X170356598Y-138312293D01*
X170356597Y-138312297D01*
X170329500Y-138483385D01*
X169990500Y-138483385D01*
X169963402Y-138312297D01*
X169963401Y-138312293D01*
X169909876Y-138147561D01*
X169909874Y-138147558D01*
X169909873Y-138147557D01*
X169909873Y-138147555D01*
X169831232Y-137993212D01*
X169729414Y-137853072D01*
X169606928Y-137730586D01*
X169466788Y-137628768D01*
X169466787Y-137628767D01*
X169466785Y-137628766D01*
X169312441Y-137550125D01*
X169312438Y-137550123D01*
X169147706Y-137496598D01*
X169147702Y-137496597D01*
X168976614Y-137469500D01*
X168976611Y-137469500D01*
X168803389Y-137469500D01*
X168803386Y-137469500D01*
X168632297Y-137496597D01*
X168632293Y-137496598D01*
X168467561Y-137550123D01*
X168467558Y-137550125D01*
X168313214Y-137628766D01*
X168173073Y-137730585D01*
X168050585Y-137853073D01*
X167948766Y-137993214D01*
X167870125Y-138147558D01*
X167870123Y-138147561D01*
X167816598Y-138312293D01*
X167816597Y-138312297D01*
X167789500Y-138483385D01*
X167450500Y-138483385D01*
X167423402Y-138312297D01*
X167423401Y-138312293D01*
X167369876Y-138147561D01*
X167369874Y-138147558D01*
X167369873Y-138147557D01*
X167369873Y-138147555D01*
X167291232Y-137993212D01*
X167189414Y-137853072D01*
X167066928Y-137730586D01*
X166926788Y-137628768D01*
X166926787Y-137628767D01*
X166926785Y-137628766D01*
X166772441Y-137550125D01*
X166772438Y-137550123D01*
X166607706Y-137496598D01*
X166607702Y-137496597D01*
X166436614Y-137469500D01*
X166436611Y-137469500D01*
X166263389Y-137469500D01*
X166263386Y-137469500D01*
X166092297Y-137496597D01*
X166092293Y-137496598D01*
X165927561Y-137550123D01*
X165927558Y-137550125D01*
X165773214Y-137628766D01*
X165633073Y-137730585D01*
X165510585Y-137853073D01*
X165408766Y-137993214D01*
X165330125Y-138147558D01*
X165330123Y-138147561D01*
X165276598Y-138312293D01*
X165276597Y-138312297D01*
X165249500Y-138483385D01*
X164910500Y-138483385D01*
X164883402Y-138312297D01*
X164883401Y-138312293D01*
X164829876Y-138147561D01*
X164829874Y-138147558D01*
X164829873Y-138147557D01*
X164829873Y-138147555D01*
X164751232Y-137993212D01*
X164649414Y-137853072D01*
X164526928Y-137730586D01*
X164386788Y-137628768D01*
X164386787Y-137628767D01*
X164386785Y-137628766D01*
X164232441Y-137550125D01*
X164232438Y-137550123D01*
X164067706Y-137496598D01*
X164067702Y-137496597D01*
X163896614Y-137469500D01*
X163896611Y-137469500D01*
X163723389Y-137469500D01*
X163723386Y-137469500D01*
X163552297Y-137496597D01*
X163552293Y-137496598D01*
X163387561Y-137550123D01*
X163387558Y-137550125D01*
X163233214Y-137628766D01*
X163093073Y-137730585D01*
X162970585Y-137853073D01*
X162868766Y-137993214D01*
X162790125Y-138147558D01*
X162790123Y-138147561D01*
X162736598Y-138312293D01*
X162736597Y-138312297D01*
X162709500Y-138483385D01*
X162370500Y-138483385D01*
X162343402Y-138312297D01*
X162343401Y-138312293D01*
X162289876Y-138147561D01*
X162289874Y-138147558D01*
X162289873Y-138147557D01*
X162289873Y-138147555D01*
X162211232Y-137993212D01*
X162109414Y-137853072D01*
X161986928Y-137730586D01*
X161846788Y-137628768D01*
X161846787Y-137628767D01*
X161846785Y-137628766D01*
X161692441Y-137550125D01*
X161692438Y-137550123D01*
X161527706Y-137496598D01*
X161527702Y-137496597D01*
X161356614Y-137469500D01*
X161356611Y-137469500D01*
X161183389Y-137469500D01*
X161183386Y-137469500D01*
X161012297Y-137496597D01*
X161012293Y-137496598D01*
X160847561Y-137550123D01*
X160847558Y-137550125D01*
X160693214Y-137628766D01*
X160553073Y-137730585D01*
X160430585Y-137853073D01*
X160328766Y-137993214D01*
X160250125Y-138147558D01*
X160250123Y-138147561D01*
X160196598Y-138312293D01*
X160196597Y-138312297D01*
X160169500Y-138483385D01*
X159830500Y-138483385D01*
X159803402Y-138312297D01*
X159803401Y-138312293D01*
X159749876Y-138147561D01*
X159749874Y-138147558D01*
X159749873Y-138147557D01*
X159749873Y-138147555D01*
X159671232Y-137993212D01*
X159569414Y-137853072D01*
X159446928Y-137730586D01*
X159306788Y-137628768D01*
X159306787Y-137628767D01*
X159306785Y-137628766D01*
X159152441Y-137550125D01*
X159152438Y-137550123D01*
X158987706Y-137496598D01*
X158987702Y-137496597D01*
X158816614Y-137469500D01*
X158816611Y-137469500D01*
X158643389Y-137469500D01*
X158643386Y-137469500D01*
X158472297Y-137496597D01*
X158472293Y-137496598D01*
X158307561Y-137550123D01*
X158307558Y-137550125D01*
X158153214Y-137628766D01*
X158013073Y-137730585D01*
X157890585Y-137853073D01*
X157788766Y-137993214D01*
X157710125Y-138147558D01*
X157710123Y-138147561D01*
X157656598Y-138312293D01*
X157656597Y-138312297D01*
X157629500Y-138483385D01*
X157290500Y-138483385D01*
X157263402Y-138312297D01*
X157263401Y-138312293D01*
X157209876Y-138147561D01*
X157209874Y-138147558D01*
X157209873Y-138147557D01*
X157209873Y-138147555D01*
X157131232Y-137993212D01*
X157029414Y-137853072D01*
X156906928Y-137730586D01*
X156766788Y-137628768D01*
X156766787Y-137628767D01*
X156766785Y-137628766D01*
X156612441Y-137550125D01*
X156612438Y-137550123D01*
X156447706Y-137496598D01*
X156447702Y-137496597D01*
X156276614Y-137469500D01*
X156276611Y-137469500D01*
X156103389Y-137469500D01*
X156103386Y-137469500D01*
X155932297Y-137496597D01*
X155932293Y-137496598D01*
X155767561Y-137550123D01*
X155767558Y-137550125D01*
X155613214Y-137628766D01*
X155473073Y-137730585D01*
X155350585Y-137853073D01*
X155248766Y-137993214D01*
X155170125Y-138147558D01*
X155170123Y-138147561D01*
X155116598Y-138312293D01*
X155116597Y-138312297D01*
X155089500Y-138483385D01*
X154750500Y-138483385D01*
X154723402Y-138312297D01*
X154723401Y-138312293D01*
X154669876Y-138147561D01*
X154669874Y-138147558D01*
X154669873Y-138147557D01*
X154669873Y-138147555D01*
X154591232Y-137993212D01*
X154489414Y-137853072D01*
X154366928Y-137730586D01*
X154226788Y-137628768D01*
X154226787Y-137628767D01*
X154226785Y-137628766D01*
X154072441Y-137550125D01*
X154072438Y-137550123D01*
X153907706Y-137496598D01*
X153907702Y-137496597D01*
X153736614Y-137469500D01*
X153736611Y-137469500D01*
X153563389Y-137469500D01*
X153563386Y-137469500D01*
X153392297Y-137496597D01*
X153392293Y-137496598D01*
X153227561Y-137550123D01*
X153227558Y-137550125D01*
X153073214Y-137628766D01*
X152933073Y-137730585D01*
X152810585Y-137853073D01*
X152708766Y-137993214D01*
X152630125Y-138147558D01*
X152630123Y-138147561D01*
X152576598Y-138312293D01*
X152576597Y-138312297D01*
X152549500Y-138483385D01*
X152210500Y-138483385D01*
X152183402Y-138312297D01*
X152183401Y-138312293D01*
X152129876Y-138147561D01*
X152129874Y-138147558D01*
X152129873Y-138147557D01*
X152129873Y-138147555D01*
X152051232Y-137993212D01*
X151949414Y-137853072D01*
X151826928Y-137730586D01*
X151686788Y-137628768D01*
X151686787Y-137628767D01*
X151686785Y-137628766D01*
X151532441Y-137550125D01*
X151532438Y-137550123D01*
X151367706Y-137496598D01*
X151367702Y-137496597D01*
X151196614Y-137469500D01*
X151196611Y-137469500D01*
X151023389Y-137469500D01*
X151023386Y-137469500D01*
X150852297Y-137496597D01*
X150852293Y-137496598D01*
X150687561Y-137550123D01*
X150687558Y-137550125D01*
X150533214Y-137628766D01*
X150393073Y-137730585D01*
X150270585Y-137853073D01*
X150168766Y-137993214D01*
X150090125Y-138147558D01*
X150090123Y-138147561D01*
X150036598Y-138312293D01*
X150036597Y-138312297D01*
X150009500Y-138483385D01*
X149670500Y-138483385D01*
X149643402Y-138312297D01*
X149643401Y-138312293D01*
X149589876Y-138147561D01*
X149589874Y-138147558D01*
X149589873Y-138147557D01*
X149589873Y-138147555D01*
X149511232Y-137993212D01*
X149409414Y-137853072D01*
X149286928Y-137730586D01*
X149146788Y-137628768D01*
X149146787Y-137628767D01*
X149146785Y-137628766D01*
X148992441Y-137550125D01*
X148992438Y-137550123D01*
X148827706Y-137496598D01*
X148827702Y-137496597D01*
X148656614Y-137469500D01*
X148656611Y-137469500D01*
X148483389Y-137469500D01*
X148483386Y-137469500D01*
X148312297Y-137496597D01*
X148312293Y-137496598D01*
X148147561Y-137550123D01*
X148147558Y-137550125D01*
X147993214Y-137628766D01*
X147853073Y-137730585D01*
X147730585Y-137853073D01*
X147628766Y-137993214D01*
X147550125Y-138147558D01*
X147550123Y-138147561D01*
X147496598Y-138312293D01*
X147496597Y-138312297D01*
X147469500Y-138483385D01*
X147130500Y-138483385D01*
X147103402Y-138312297D01*
X147103401Y-138312293D01*
X147049876Y-138147561D01*
X147049874Y-138147558D01*
X147049873Y-138147557D01*
X147049873Y-138147555D01*
X146971232Y-137993212D01*
X146869414Y-137853072D01*
X146746928Y-137730586D01*
X146606788Y-137628768D01*
X146606787Y-137628767D01*
X146606785Y-137628766D01*
X146452441Y-137550125D01*
X146452438Y-137550123D01*
X146287706Y-137496598D01*
X146287702Y-137496597D01*
X146116614Y-137469500D01*
X146116611Y-137469500D01*
X145943389Y-137469500D01*
X145943386Y-137469500D01*
X145772297Y-137496597D01*
X145772293Y-137496598D01*
X145607561Y-137550123D01*
X145607558Y-137550125D01*
X145453214Y-137628766D01*
X145313073Y-137730585D01*
X145190585Y-137853073D01*
X145088766Y-137993214D01*
X145010125Y-138147558D01*
X145010123Y-138147561D01*
X144956598Y-138312293D01*
X144956597Y-138312297D01*
X144929500Y-138483385D01*
X144590500Y-138483385D01*
X144563402Y-138312297D01*
X144563401Y-138312293D01*
X144509876Y-138147561D01*
X144509874Y-138147558D01*
X144509873Y-138147557D01*
X144509873Y-138147555D01*
X144431232Y-137993212D01*
X144329414Y-137853072D01*
X144206928Y-137730586D01*
X144066788Y-137628768D01*
X144066787Y-137628767D01*
X144066785Y-137628766D01*
X143912441Y-137550125D01*
X143912438Y-137550123D01*
X143747706Y-137496598D01*
X143747702Y-137496597D01*
X143576614Y-137469500D01*
X143576611Y-137469500D01*
X143403389Y-137469500D01*
X143403386Y-137469500D01*
X143232297Y-137496597D01*
X143232293Y-137496598D01*
X143067561Y-137550123D01*
X143067558Y-137550125D01*
X142913214Y-137628766D01*
X142773073Y-137730585D01*
X142650585Y-137853073D01*
X142548766Y-137993214D01*
X142470125Y-138147558D01*
X142470123Y-138147561D01*
X142416598Y-138312293D01*
X142416597Y-138312297D01*
X142389500Y-138483385D01*
X142050500Y-138483385D01*
X142023402Y-138312297D01*
X142023401Y-138312293D01*
X141969876Y-138147561D01*
X141969874Y-138147558D01*
X141969873Y-138147557D01*
X141969873Y-138147555D01*
X141891232Y-137993212D01*
X141789414Y-137853072D01*
X141666928Y-137730586D01*
X141526788Y-137628768D01*
X141526787Y-137628767D01*
X141526785Y-137628766D01*
X141372441Y-137550125D01*
X141372438Y-137550123D01*
X141207706Y-137496598D01*
X141207702Y-137496597D01*
X141036614Y-137469500D01*
X141036611Y-137469500D01*
X140863389Y-137469500D01*
X140863386Y-137469500D01*
X140692297Y-137496597D01*
X140692293Y-137496598D01*
X140527561Y-137550123D01*
X140527558Y-137550125D01*
X140373214Y-137628766D01*
X140233073Y-137730585D01*
X140110585Y-137853073D01*
X140008766Y-137993214D01*
X139930125Y-138147558D01*
X139930123Y-138147561D01*
X139876598Y-138312293D01*
X139876597Y-138312297D01*
X139849500Y-138483385D01*
X139510500Y-138483385D01*
X139483402Y-138312297D01*
X139483401Y-138312293D01*
X139429876Y-138147561D01*
X139429874Y-138147558D01*
X139429873Y-138147557D01*
X139429873Y-138147555D01*
X139351232Y-137993212D01*
X139249414Y-137853072D01*
X139126928Y-137730586D01*
X138986788Y-137628768D01*
X138986787Y-137628767D01*
X138986785Y-137628766D01*
X138832441Y-137550125D01*
X138832438Y-137550123D01*
X138667706Y-137496598D01*
X138667702Y-137496597D01*
X138496614Y-137469500D01*
X138496611Y-137469500D01*
X138323389Y-137469500D01*
X138323386Y-137469500D01*
X138152297Y-137496597D01*
X138152293Y-137496598D01*
X137987561Y-137550123D01*
X137987558Y-137550125D01*
X137833214Y-137628766D01*
X137693073Y-137730585D01*
X137570585Y-137853073D01*
X137468766Y-137993214D01*
X137390125Y-138147558D01*
X137390123Y-138147561D01*
X137336598Y-138312293D01*
X137336597Y-138312297D01*
X137309500Y-138483385D01*
X136970500Y-138483385D01*
X136943402Y-138312297D01*
X136943401Y-138312293D01*
X136889876Y-138147561D01*
X136889874Y-138147558D01*
X136889873Y-138147557D01*
X136889873Y-138147555D01*
X136811232Y-137993212D01*
X136709414Y-137853072D01*
X136586928Y-137730586D01*
X136446788Y-137628768D01*
X136446787Y-137628767D01*
X136446785Y-137628766D01*
X136292441Y-137550125D01*
X136292438Y-137550123D01*
X136127706Y-137496598D01*
X136127702Y-137496597D01*
X135956614Y-137469500D01*
X135956611Y-137469500D01*
X135783389Y-137469500D01*
X135783386Y-137469500D01*
X135612297Y-137496597D01*
X135612293Y-137496598D01*
X135447561Y-137550123D01*
X135447558Y-137550125D01*
X135293214Y-137628766D01*
X135153073Y-137730585D01*
X135030585Y-137853073D01*
X134928766Y-137993214D01*
X134850125Y-138147558D01*
X134850123Y-138147561D01*
X134796598Y-138312293D01*
X134796597Y-138312297D01*
X134769500Y-138483385D01*
X134430500Y-138483385D01*
X134403402Y-138312297D01*
X134403401Y-138312293D01*
X134349876Y-138147561D01*
X134349874Y-138147558D01*
X134349873Y-138147557D01*
X134349873Y-138147555D01*
X134271232Y-137993212D01*
X134169414Y-137853072D01*
X134046928Y-137730586D01*
X133906788Y-137628768D01*
X133906787Y-137628767D01*
X133906785Y-137628766D01*
X133752441Y-137550125D01*
X133752438Y-137550123D01*
X133587706Y-137496598D01*
X133587702Y-137496597D01*
X133416614Y-137469500D01*
X133416611Y-137469500D01*
X133243389Y-137469500D01*
X133243386Y-137469500D01*
X133072297Y-137496597D01*
X133072293Y-137496598D01*
X132907561Y-137550123D01*
X132907558Y-137550125D01*
X132753214Y-137628766D01*
X132613073Y-137730585D01*
X132490585Y-137853073D01*
X132388766Y-137993214D01*
X132310125Y-138147558D01*
X132310123Y-138147561D01*
X132256598Y-138312293D01*
X132256597Y-138312297D01*
X132229500Y-138483385D01*
X131890500Y-138483385D01*
X131863402Y-138312297D01*
X131863401Y-138312293D01*
X131809876Y-138147561D01*
X131809874Y-138147558D01*
X131809873Y-138147557D01*
X131809873Y-138147555D01*
X131731232Y-137993212D01*
X131629414Y-137853072D01*
X131506928Y-137730586D01*
X131366788Y-137628768D01*
X131366787Y-137628767D01*
X131366785Y-137628766D01*
X131212441Y-137550125D01*
X131212438Y-137550123D01*
X131047706Y-137496598D01*
X131047702Y-137496597D01*
X130876614Y-137469500D01*
X130876611Y-137469500D01*
X130703389Y-137469500D01*
X130703386Y-137469500D01*
X130532297Y-137496597D01*
X130532293Y-137496598D01*
X130367561Y-137550123D01*
X130367558Y-137550125D01*
X130213214Y-137628766D01*
X130073073Y-137730585D01*
X129950585Y-137853073D01*
X129848766Y-137993214D01*
X129770125Y-138147558D01*
X129770123Y-138147561D01*
X129716598Y-138312293D01*
X129716597Y-138312297D01*
X129689500Y-138483385D01*
X91630319Y-138483385D01*
X91799973Y-137630476D01*
X91800494Y-137628026D01*
X92143706Y-136111247D01*
X92144308Y-136108743D01*
X92527104Y-134601482D01*
X92527754Y-134599054D01*
X92949881Y-133102303D01*
X92950608Y-133099851D01*
X93411764Y-131614686D01*
X93412542Y-131612294D01*
X93912424Y-130139688D01*
X93913278Y-130137278D01*
X94451543Y-128678246D01*
X94452424Y-128675951D01*
X95028692Y-127231523D01*
X95029678Y-127229145D01*
X95643560Y-125800297D01*
X95644563Y-125798044D01*
X96295646Y-124385735D01*
X96296729Y-124383464D01*
X96984547Y-122988706D01*
X96985688Y-122986467D01*
X97709816Y-121610126D01*
X97710977Y-121607987D01*
X98470890Y-120251067D01*
X98472127Y-120248925D01*
X99267279Y-118912395D01*
X99268558Y-118910306D01*
X100098439Y-117595025D01*
X100099784Y-117592954D01*
X100963795Y-116299869D01*
X100965212Y-116297807D01*
X101862785Y-115027771D01*
X101864231Y-115025780D01*
X102794729Y-113779693D01*
X102796262Y-113777696D01*
X103759045Y-112556411D01*
X103760613Y-112554476D01*
X104755052Y-111358794D01*
X104756648Y-111356925D01*
X105782036Y-110187692D01*
X105783758Y-110185780D01*
X106839380Y-109043814D01*
X106841088Y-109042014D01*
X107926278Y-107928036D01*
X107928036Y-107926278D01*
X109042014Y-106841088D01*
X109043814Y-106839380D01*
X110185793Y-105783745D01*
X110187706Y-105782024D01*
X111356925Y-104756648D01*
X111358794Y-104755052D01*
X112554476Y-103760613D01*
X112556411Y-103759045D01*
X113566952Y-102962399D01*
X128599500Y-102962399D01*
X128599500Y-103087601D01*
X128631905Y-103208536D01*
X128694505Y-103316964D01*
X128783036Y-103405495D01*
X128891464Y-103468095D01*
X129012399Y-103500500D01*
X129012401Y-103500500D01*
X129137599Y-103500500D01*
X129137601Y-103500500D01*
X129258536Y-103468095D01*
X129366964Y-103405495D01*
X129455495Y-103316964D01*
X129518095Y-103208536D01*
X129550500Y-103087601D01*
X129550500Y-102962399D01*
X129518095Y-102841464D01*
X129455495Y-102733036D01*
X129366964Y-102644505D01*
X129258536Y-102581905D01*
X129137601Y-102549500D01*
X129012399Y-102549500D01*
X128931775Y-102571103D01*
X128891463Y-102581905D01*
X128783036Y-102644505D01*
X128694505Y-102733036D01*
X128631905Y-102841463D01*
X128631905Y-102841464D01*
X128599500Y-102962399D01*
X113566952Y-102962399D01*
X113777696Y-102796262D01*
X113779693Y-102794729D01*
X115025780Y-101864231D01*
X115027771Y-101862785D01*
X116297807Y-100965212D01*
X116299869Y-100963795D01*
X117592954Y-100099784D01*
X117595025Y-100098439D01*
X118910306Y-99268558D01*
X118912395Y-99267279D01*
X120248924Y-98472127D01*
X120251066Y-98470890D01*
X121607987Y-97710977D01*
X121610126Y-97709816D01*
X122127906Y-97437399D01*
X127524500Y-97437399D01*
X127524500Y-97562601D01*
X127556905Y-97683536D01*
X127619505Y-97791964D01*
X127708036Y-97880495D01*
X127816464Y-97943095D01*
X127937399Y-97975500D01*
X127937401Y-97975500D01*
X128062599Y-97975500D01*
X128062601Y-97975500D01*
X128183536Y-97943095D01*
X128291964Y-97880495D01*
X128380495Y-97791964D01*
X128443095Y-97683536D01*
X128475500Y-97562601D01*
X128475500Y-97437399D01*
X128443095Y-97316464D01*
X128380495Y-97208036D01*
X128291964Y-97119505D01*
X128183536Y-97056905D01*
X128062601Y-97024500D01*
X127937399Y-97024500D01*
X127856775Y-97046103D01*
X127816463Y-97056905D01*
X127708036Y-97119505D01*
X127619505Y-97208036D01*
X127556905Y-97316463D01*
X127556905Y-97316464D01*
X127524500Y-97437399D01*
X122127906Y-97437399D01*
X122986467Y-96985688D01*
X122988706Y-96984547D01*
X124383464Y-96296729D01*
X124385735Y-96295646D01*
X125798044Y-95644563D01*
X125800297Y-95643560D01*
X127229162Y-95029670D01*
X127231523Y-95028692D01*
X128675951Y-94452424D01*
X128678246Y-94451543D01*
X130137311Y-93913266D01*
X130139688Y-93912424D01*
X131612294Y-93412542D01*
X131614686Y-93411764D01*
X133099884Y-92950598D01*
X133102303Y-92949881D01*
X134599054Y-92527754D01*
X134601482Y-92527104D01*
X136108760Y-92144303D01*
X136111247Y-92143706D01*
X137628026Y-91800494D01*
X137630476Y-91799973D01*
X139155726Y-91496582D01*
X139158272Y-91496111D01*
X140690937Y-91232751D01*
X140693398Y-91232361D01*
X142232432Y-91009212D01*
X142234906Y-91008886D01*
X143779341Y-90826090D01*
X143781763Y-90825836D01*
X145330431Y-90683532D01*
X145332964Y-90683334D01*
X146884758Y-90581624D01*
X146887236Y-90581493D01*
X148441178Y-90520439D01*
X148443752Y-90520372D01*
X149998778Y-90500016D01*
X150001222Y-90500016D01*
X151556244Y-90520372D01*
G37*
G04 #@! TD.AperFunction*
M02*
