G04 #@! TF.GenerationSoftware,KiCad,Pcbnew,10.0.5*
G04 #@! TF.CreationDate,2026-08-28T06:19:02-06:00*
G04 #@! TF.ProjectId,candidate_routed,63616e64-6964-4617-9465-5f726f757465,rev?*
G04 #@! TF.SameCoordinates,Original*
G04 #@! TF.FileFunction,Soldermask,Top*
G04 #@! TF.FilePolarity,Negative*
%FSLAX46Y46*%
G04 Gerber Fmt 4.6, Leading zero omitted, Abs format (unit mm)*
G04 Created by KiCad (PCBNEW 10.0.5) date 2026-08-28 06:19:02*
%MOMM*%
%LPD*%
G01*
G04 APERTURE LIST*
G04 Aperture macros list*
%AMRoundRect*
0 Rectangle with rounded corners*
0 $1 Rounding radius*
0 $2 $3 $4 $5 $6 $7 $8 $9 X,Y pos of 4 corners*
0 Add a 4 corners polygon primitive as box body*
4,1,4,$2,$3,$4,$5,$6,$7,$8,$9,$2,$3,0*
0 Add four circle primitives for the rounded corners*
1,1,$1+$1,$2,$3*
1,1,$1+$1,$4,$5*
1,1,$1+$1,$6,$7*
1,1,$1+$1,$8,$9*
0 Add four rect primitives between the rounded corners*
20,1,$1+$1,$2,$3,$4,$5,0*
20,1,$1+$1,$4,$5,$6,$7,0*
20,1,$1+$1,$6,$7,$8,$9,0*
20,1,$1+$1,$8,$9,$2,$3,0*%
%AMRotRect*
0 Rectangle, with rotation*
0 The origin of the aperture is its center*
0 $1 length*
0 $2 width*
0 $3 Rotation angle, in degrees counterclockwise*
0 Add horizontal line*
21,1,$1,$2,0,0,$3*%
G04 Aperture macros list end*
%ADD10RoundRect,0.140000X-0.170000X0.140000X-0.170000X-0.140000X0.170000X-0.140000X0.170000X0.140000X0*%
%ADD11RotRect,0.400000X0.950000X315.000000*%
%ADD12RotRect,1.300000X0.350000X315.000000*%
%ADD13RotRect,0.350000X2.300000X315.000000*%
%ADD14RotRect,0.400000X0.950000X22.500000*%
%ADD15RotRect,1.300000X0.350000X22.500000*%
%ADD16RotRect,0.350000X2.300000X22.500000*%
%ADD17C,1.000000*%
%ADD18RoundRect,0.150000X0.150000X-0.512500X0.150000X0.512500X-0.150000X0.512500X-0.150000X-0.512500X0*%
%ADD19C,1.500000*%
%ADD20RoundRect,0.135000X0.135000X0.185000X-0.135000X0.185000X-0.135000X-0.185000X0.135000X-0.185000X0*%
%ADD21RotRect,0.400000X0.950000X225.000000*%
%ADD22RotRect,1.300000X0.350000X225.000000*%
%ADD23RotRect,0.350000X2.300000X225.000000*%
%ADD24RoundRect,0.140000X-0.140000X-0.170000X0.140000X-0.170000X0.140000X0.170000X-0.140000X0.170000X0*%
%ADD25RoundRect,0.140000X0.140000X0.170000X-0.140000X0.170000X-0.140000X-0.170000X0.140000X-0.170000X0*%
%ADD26RoundRect,0.135000X0.185000X-0.135000X0.185000X0.135000X-0.185000X0.135000X-0.185000X-0.135000X0*%
%ADD27RoundRect,0.250000X-0.475000X0.250000X-0.475000X-0.250000X0.475000X-0.250000X0.475000X0.250000X0*%
%ADD28RoundRect,0.135000X-0.135000X-0.185000X0.135000X-0.185000X0.135000X0.185000X-0.135000X0.185000X0*%
%ADD29RoundRect,0.135000X-0.185000X0.135000X-0.185000X-0.135000X0.185000X-0.135000X0.185000X0.135000X0*%
%ADD30RotRect,0.400000X0.950000X247.500000*%
%ADD31RotRect,1.300000X0.350000X247.500000*%
%ADD32RotRect,0.350000X2.300000X247.500000*%
%ADD33RotRect,0.400000X0.950000X157.500000*%
%ADD34RotRect,1.300000X0.350000X157.500000*%
%ADD35RotRect,0.350000X2.300000X157.500000*%
%ADD36RoundRect,0.100000X0.100000X-0.637500X0.100000X0.637500X-0.100000X0.637500X-0.100000X-0.637500X0*%
%ADD37RoundRect,0.250000X0.250000X0.475000X-0.250000X0.475000X-0.250000X-0.475000X0.250000X-0.475000X0*%
%ADD38RoundRect,0.250000X1.450000X-0.312500X1.450000X0.312500X-1.450000X0.312500X-1.450000X-0.312500X0*%
%ADD39RoundRect,0.250000X0.475000X-0.250000X0.475000X0.250000X-0.475000X0.250000X-0.475000X-0.250000X0*%
%ADD40RoundRect,0.250000X0.650000X-1.000000X0.650000X1.000000X-0.650000X1.000000X-0.650000X-1.000000X0*%
%ADD41RoundRect,0.140000X0.170000X-0.140000X0.170000X0.140000X-0.170000X0.140000X-0.170000X-0.140000X0*%
%ADD42R,0.400000X0.950000*%
%ADD43R,1.300000X0.350000*%
%ADD44R,0.350000X2.300000*%
%ADD45RoundRect,0.225000X0.225000X0.250000X-0.225000X0.250000X-0.225000X-0.250000X0.225000X-0.250000X0*%
%ADD46RoundRect,0.225000X-0.225000X-0.250000X0.225000X-0.250000X0.225000X0.250000X-0.225000X0.250000X0*%
%ADD47R,0.950000X0.400000*%
%ADD48R,0.350000X1.300000*%
%ADD49R,2.300000X0.350000*%
%ADD50RotRect,0.400000X0.950000X112.500000*%
%ADD51RotRect,1.300000X0.350000X112.500000*%
%ADD52RotRect,0.350000X2.300000X112.500000*%
%ADD53RotRect,0.400000X0.950000X337.500000*%
%ADD54RotRect,1.300000X0.350000X337.500000*%
%ADD55RotRect,0.350000X2.300000X337.500000*%
%ADD56RoundRect,0.225000X-0.250000X0.225000X-0.250000X-0.225000X0.250000X-0.225000X0.250000X0.225000X0*%
%ADD57RoundRect,0.218750X-0.218750X-0.381250X0.218750X-0.381250X0.218750X0.381250X-0.218750X0.381250X0*%
%ADD58RotRect,0.400000X0.950000X202.500000*%
%ADD59RotRect,1.300000X0.350000X202.500000*%
%ADD60RotRect,0.350000X2.300000X202.500000*%
%ADD61RotRect,0.400000X0.950000X292.500000*%
%ADD62RotRect,1.300000X0.350000X292.500000*%
%ADD63RotRect,0.350000X2.300000X292.500000*%
%ADD64RotRect,0.400000X0.950000X67.500000*%
%ADD65RotRect,1.300000X0.350000X67.500000*%
%ADD66RotRect,0.350000X2.300000X67.500000*%
%ADD67RoundRect,0.150000X0.512500X0.150000X-0.512500X0.150000X-0.512500X-0.150000X0.512500X-0.150000X0*%
%ADD68RotRect,0.400000X0.950000X45.000000*%
%ADD69RotRect,1.300000X0.350000X45.000000*%
%ADD70RotRect,0.350000X2.300000X45.000000*%
%ADD71RotRect,0.400000X0.950000X135.000000*%
%ADD72RotRect,1.300000X0.350000X135.000000*%
%ADD73RotRect,0.350000X2.300000X135.000000*%
%ADD74R,1.200000X1.300000*%
%ADD75RoundRect,0.250000X-0.250000X-0.475000X0.250000X-0.475000X0.250000X0.475000X-0.250000X0.475000X0*%
%ADD76R,1.700000X1.700000*%
%ADD77C,1.700000*%
G04 APERTURE END LIST*
D10*
X206268616Y-150492591D03*
X206268616Y-151452591D03*
D11*
X187473123Y-113163272D03*
X188427717Y-112208678D03*
X187791321Y-111572282D03*
X186836727Y-112526876D03*
D12*
X186412463Y-113587536D03*
D13*
X188498428Y-113233983D03*
D12*
X188851981Y-111148018D03*
D13*
X186766016Y-111501571D03*
D14*
X130307644Y-101282542D03*
X129791021Y-100035305D03*
X128959530Y-100379720D03*
X129476153Y-101626957D03*
D15*
X130293716Y-102424823D03*
D16*
X130765339Y-100362344D03*
D15*
X128973458Y-99237439D03*
D16*
X128501835Y-101299918D03*
D17*
X156100000Y-170400000D03*
D18*
X164450000Y-156637500D03*
X165400000Y-156637500D03*
X166350000Y-156637500D03*
X166350000Y-154362500D03*
X164450000Y-154362500D03*
D19*
X193400000Y-132400000D03*
D20*
X163080344Y-172738947D03*
X162060344Y-172738947D03*
D21*
X186836727Y-187473123D03*
X187791321Y-188427717D03*
X188427717Y-187791321D03*
X187473123Y-186836727D03*
D22*
X186412463Y-186412463D03*
D23*
X186766016Y-188498428D03*
D22*
X188851981Y-188851981D03*
D23*
X188498428Y-186766016D03*
D24*
X170850512Y-104506795D03*
X171810512Y-104506795D03*
D25*
X188297007Y-183836717D03*
X187337007Y-183836717D03*
D26*
X144400000Y-175110000D03*
X144400000Y-174090000D03*
D27*
X179600000Y-187850000D03*
X179600000Y-189750000D03*
D28*
X158890000Y-131200000D03*
X159910000Y-131200000D03*
D29*
X183867405Y-186606319D03*
X183867405Y-187626317D03*
D28*
X180490000Y-155500000D03*
X181510000Y-155500000D03*
D19*
X111500000Y-124300000D03*
D30*
X198373042Y-170523846D03*
X199620279Y-171040469D03*
X199964694Y-170208978D03*
X198717457Y-169692355D03*
D31*
X197575176Y-169706283D03*
D32*
X198700081Y-171498164D03*
D31*
X200762560Y-171026541D03*
D32*
X199637655Y-169234660D03*
D25*
X113363680Y-183867405D03*
X112403680Y-183867405D03*
D33*
X129476153Y-198373042D03*
X128959530Y-199620279D03*
X129791021Y-199964694D03*
X130307644Y-198717457D03*
D34*
X130293716Y-197575176D03*
D35*
X128501835Y-198700081D03*
D34*
X128973458Y-200762560D03*
D35*
X130765339Y-199637655D03*
D20*
X159948895Y-167763736D03*
X158928895Y-167763736D03*
D36*
X161504450Y-170319050D03*
X162154450Y-170319050D03*
X162804450Y-170319050D03*
X163454450Y-170319050D03*
X164104450Y-170319050D03*
X164754450Y-170319050D03*
X165404450Y-170319050D03*
X166054450Y-170319050D03*
X166704450Y-170319050D03*
X167354450Y-170319050D03*
X167354450Y-164594050D03*
X166704450Y-164594050D03*
X166054450Y-164594050D03*
X165404450Y-164594050D03*
X164754450Y-164594050D03*
X164104450Y-164594050D03*
X163454450Y-164594050D03*
X162804450Y-164594050D03*
X162154450Y-164594050D03*
X161504450Y-164594050D03*
D37*
X162273121Y-154445195D03*
X160373121Y-154445195D03*
D26*
X162000000Y-186210000D03*
X162000000Y-185190000D03*
D20*
X184110001Y-176100000D03*
X183089999Y-176100000D03*
D28*
X165596468Y-172166922D03*
X166616468Y-172166922D03*
D19*
X140700000Y-103500000D03*
D28*
X128159485Y-195493203D03*
X129179487Y-195493203D03*
D38*
X157700000Y-150637500D03*
X157700000Y-146362500D03*
D20*
X138110001Y-135400000D03*
X137089999Y-135400000D03*
D28*
X197187560Y-173870018D03*
X198207562Y-173870018D03*
X187489999Y-170500000D03*
X188510001Y-170500000D03*
D20*
X198876519Y-125919258D03*
X197856517Y-125919258D03*
D39*
X116600000Y-154350000D03*
X116600000Y-152450000D03*
D40*
X152800000Y-150100000D03*
X152800000Y-146100000D03*
D26*
X152597224Y-203850097D03*
X152597224Y-202830097D03*
D41*
X133151381Y-99874077D03*
X133151381Y-98914077D03*
X152446490Y-174090520D03*
X152446490Y-173130520D03*
D26*
X164314854Y-172965236D03*
X164314854Y-171945236D03*
D42*
X150450000Y-97455000D03*
X150450000Y-96105000D03*
X149550000Y-96105000D03*
X149550000Y-97455000D03*
D43*
X150000000Y-98505000D03*
D44*
X151225000Y-96780000D03*
D43*
X150000000Y-95055000D03*
D44*
X148775000Y-96780000D03*
D45*
X141775000Y-156000000D03*
X140225000Y-156000000D03*
D26*
X150400000Y-170110000D03*
X150400000Y-169090000D03*
D46*
X158825000Y-152600000D03*
X160375000Y-152600000D03*
D10*
X158500000Y-169020000D03*
X158500000Y-169980000D03*
D29*
X147402775Y-96149902D03*
X147402775Y-97169902D03*
D26*
X157537001Y-175178879D03*
X157537001Y-174158879D03*
D47*
X202545000Y-150450000D03*
X203895000Y-150450000D03*
X203895000Y-149550000D03*
X202545000Y-149550000D03*
D48*
X201495000Y-150000000D03*
D49*
X203220000Y-151225000D03*
D48*
X204945000Y-150000000D03*
D49*
X203220000Y-148775000D03*
D29*
X113100000Y-155889999D03*
X113100000Y-156910001D03*
D50*
X101282542Y-169692355D03*
X100035305Y-170208978D03*
X100379720Y-171040469D03*
X101626957Y-170523846D03*
D51*
X102424823Y-169706283D03*
D52*
X100362344Y-169234660D03*
D51*
X99237439Y-171026541D03*
D52*
X101299918Y-171498164D03*
D26*
X168614815Y-169324018D03*
X168614815Y-168304018D03*
X173870018Y-102812438D03*
X173870018Y-101792436D03*
D53*
X170523846Y-101626957D03*
X171040469Y-100379720D03*
X170208978Y-100035305D03*
X169692355Y-101282542D03*
D54*
X169706283Y-102424823D03*
D55*
X171498164Y-101299918D03*
D54*
X171026541Y-99237439D03*
D55*
X169234660Y-100362344D03*
D41*
X126129980Y-198177561D03*
X126129980Y-197217561D03*
D19*
X201000000Y-121000000D03*
D56*
X167998847Y-154802412D03*
X167998847Y-156352412D03*
D19*
X125800000Y-190100000D03*
D20*
X155574831Y-176699191D03*
X154554831Y-176699191D03*
D28*
X161090001Y-133400000D03*
X162109999Y-133400000D03*
D19*
X117200000Y-105100000D03*
X184500000Y-170500000D03*
D28*
X188990001Y-181200000D03*
X190009999Y-181200000D03*
X168824564Y-166487089D03*
X169844564Y-166487089D03*
D42*
X149550000Y-202545000D03*
X149550000Y-203895000D03*
X150450000Y-203895000D03*
X150450000Y-202545000D03*
D43*
X150000000Y-201495000D03*
D44*
X148775000Y-203220000D03*
D43*
X150000000Y-204945000D03*
D44*
X151225000Y-203220000D03*
D26*
X97043725Y-130452716D03*
X97043725Y-129432714D03*
D45*
X170043272Y-172234184D03*
X168493272Y-172234184D03*
D19*
X187400000Y-175300000D03*
D57*
X139037500Y-151500000D03*
X141162500Y-151500000D03*
D29*
X120700000Y-157689999D03*
X120700000Y-158710001D03*
D26*
X140400000Y-167310000D03*
X140400000Y-166290000D03*
D19*
X140700000Y-174600000D03*
D58*
X169692355Y-198717457D03*
X170208978Y-199964694D03*
X171040469Y-199620279D03*
X170523846Y-198373042D03*
D59*
X169706283Y-197575176D03*
D60*
X169234660Y-199637655D03*
D59*
X171026541Y-200762560D03*
D60*
X171498164Y-198700081D03*
D19*
X103100000Y-154800000D03*
D29*
X97322003Y-152643764D03*
X97322003Y-153663764D03*
D28*
X166837913Y-148933524D03*
X167857915Y-148933524D03*
D47*
X97455000Y-149550000D03*
X96105000Y-149550000D03*
X96105000Y-150450000D03*
X97455000Y-150450000D03*
D48*
X98505000Y-150000000D03*
D49*
X96780000Y-148775000D03*
D48*
X95055000Y-150000000D03*
D49*
X96780000Y-151225000D03*
D24*
X200125921Y-133151381D03*
X201085921Y-133151381D03*
D10*
X104506795Y-128189486D03*
X104506795Y-129149486D03*
D61*
X198717457Y-130307644D03*
X199964694Y-129791021D03*
X199620279Y-128959530D03*
X198373042Y-129476153D03*
D62*
X197575176Y-130293716D03*
D63*
X199637655Y-130765339D03*
D62*
X200762560Y-128973458D03*
D63*
X198700081Y-128501835D03*
D20*
X136709999Y-132700000D03*
X135690001Y-132700000D03*
X177810000Y-187500000D03*
X176790000Y-187500000D03*
D37*
X164550000Y-152000000D03*
X162650000Y-152000000D03*
D41*
X147421558Y-204034127D03*
X147421558Y-203074127D03*
D19*
X180300000Y-112800000D03*
D28*
X127999580Y-97201170D03*
X129019582Y-97201170D03*
D41*
X93731383Y-149507408D03*
X93731383Y-148547408D03*
D26*
X97201170Y-172000418D03*
X97201170Y-170980416D03*
D64*
X101626957Y-129476153D03*
X100379720Y-128959530D03*
X100035305Y-129791021D03*
X101282542Y-130307644D03*
D65*
X102424823Y-130293716D03*
D66*
X101299918Y-128501835D03*
D65*
X99237439Y-128973458D03*
D66*
X100362344Y-130765339D03*
D29*
X119200000Y-157690001D03*
X119200000Y-158709999D03*
D10*
X152578441Y-95965872D03*
X152578441Y-96925872D03*
D26*
X202677996Y-147356235D03*
X202677996Y-146336235D03*
D20*
X112692990Y-116163281D03*
X111672992Y-116163281D03*
X153410000Y-167000000D03*
X152390000Y-167000000D03*
D10*
X116132593Y-112403680D03*
X116132593Y-113363680D03*
D27*
X170092538Y-152823708D03*
X170092538Y-154723708D03*
D10*
X195493203Y-170850512D03*
X195493203Y-171810512D03*
D67*
X170772232Y-180355227D03*
X170772232Y-179405227D03*
X170772232Y-178455227D03*
X168497232Y-178455227D03*
X168497232Y-179405227D03*
X168497232Y-180355227D03*
D26*
X150500000Y-175810000D03*
X150500000Y-174790000D03*
D25*
X187596319Y-116132593D03*
X186636319Y-116132593D03*
D26*
X162800000Y-132310001D03*
X162800000Y-131289999D03*
D28*
X112968913Y-191889612D03*
X113988911Y-191889612D03*
D24*
X171010417Y-202798828D03*
X171970417Y-202798828D03*
D26*
X175500000Y-168810000D03*
X175500000Y-167790000D03*
D68*
X113163272Y-112526876D03*
X112208678Y-111572282D03*
X111572282Y-112208678D03*
X112526876Y-113163272D03*
D69*
X113587536Y-113587536D03*
D70*
X113233983Y-111501571D03*
D69*
X111148018Y-111148018D03*
D70*
X111501571Y-113233983D03*
D71*
X112526876Y-186836727D03*
X111572282Y-187791321D03*
X112208678Y-188427717D03*
X113163272Y-187473123D03*
D72*
X113587536Y-186412463D03*
D73*
X111501571Y-186766016D03*
D72*
X111148018Y-188851981D03*
D73*
X113233983Y-188498428D03*
D74*
X155950000Y-175150000D03*
X155950000Y-173050000D03*
X154050000Y-173050000D03*
X154050000Y-175150000D03*
D25*
X99874077Y-166848617D03*
X98914077Y-166848617D03*
D29*
X160197863Y-165740866D03*
X160197863Y-166760866D03*
D26*
X153500000Y-189910000D03*
X153500000Y-188890000D03*
D67*
X167690775Y-176574147D03*
X167690775Y-175624147D03*
X167690775Y-174674147D03*
X165415775Y-174674147D03*
X165415775Y-175624147D03*
X165415775Y-176574147D03*
D17*
X162000000Y-149400000D03*
D28*
X112594002Y-148440002D03*
X113614004Y-148440002D03*
D10*
X162700000Y-156020000D03*
X162700000Y-156980000D03*
D26*
X183836717Y-112692990D03*
X183836717Y-111672992D03*
D75*
X114650000Y-150000000D03*
X116550000Y-150000000D03*
D28*
X169381861Y-195398615D03*
X170401863Y-195398615D03*
D19*
X183500000Y-180400000D03*
D29*
X168780290Y-164482775D03*
X168780290Y-165502775D03*
D20*
X107810000Y-154100000D03*
X106790000Y-154100000D03*
D76*
X165240000Y-179190000D03*
D77*
X165240000Y-181730000D03*
X162700000Y-179190000D03*
X162700000Y-181730000D03*
X160160000Y-179190000D03*
X160160000Y-181730000D03*
X157620000Y-179190000D03*
X157620000Y-181730000D03*
X155080000Y-179190000D03*
X155080000Y-181730000D03*
X152540000Y-179190000D03*
X152540000Y-181730000D03*
X150000000Y-179190000D03*
X150000000Y-181730000D03*
X147460000Y-179190000D03*
X147460000Y-181730000D03*
X144920000Y-179190000D03*
X144920000Y-181730000D03*
X142380000Y-179190000D03*
X142380000Y-181730000D03*
X139840000Y-179190000D03*
X139840000Y-181730000D03*
X137300000Y-179190000D03*
X137300000Y-181730000D03*
X134760000Y-179190000D03*
X134760000Y-181730000D03*
D76*
X189210000Y-138570000D03*
D77*
X186670000Y-138570000D03*
X184130000Y-138570000D03*
X181590000Y-138570000D03*
X179050000Y-138570000D03*
X176510000Y-138570000D03*
X173970000Y-138570000D03*
X171430000Y-138570000D03*
X168890000Y-138570000D03*
X166350000Y-138570000D03*
X163810000Y-138570000D03*
X161270000Y-138570000D03*
X158730000Y-138570000D03*
X156190000Y-138570000D03*
X153650000Y-138570000D03*
X151110000Y-138570000D03*
X148570000Y-138570000D03*
X146030000Y-138570000D03*
X143490000Y-138570000D03*
X140950000Y-138570000D03*
X138410000Y-138570000D03*
X135870000Y-138570000D03*
X133330000Y-138570000D03*
X130790000Y-138570000D03*
D76*
X189210000Y-161430000D03*
D77*
X186670000Y-161430000D03*
X184130000Y-161430000D03*
X181590000Y-161430000D03*
X179050000Y-161430000D03*
X176510000Y-161430000D03*
X173970000Y-161430000D03*
X171430000Y-161430000D03*
X168890000Y-161430000D03*
X166350000Y-161430000D03*
X163810000Y-161430000D03*
X161270000Y-161430000D03*
X158730000Y-161430000D03*
X156190000Y-161430000D03*
X153650000Y-161430000D03*
X151110000Y-161430000D03*
X148570000Y-161430000D03*
X146030000Y-161430000D03*
X143490000Y-161430000D03*
X140950000Y-161430000D03*
X138410000Y-161430000D03*
X135870000Y-161430000D03*
X133330000Y-161430000D03*
X130790000Y-161430000D03*
M02*
