G04 #@! TF.GenerationSoftware,KiCad,Pcbnew,10.0.5*
G04 #@! TF.CreationDate,2026-08-28T20:12:47-06:00*
G04 #@! TF.ProjectId,candidate_routed,63616e64-6964-4617-9465-5f726f757465,rev?*
G04 #@! TF.SameCoordinates,Original*
G04 #@! TF.FileFunction,Paste,Top*
G04 #@! TF.FilePolarity,Positive*
%FSLAX46Y46*%
G04 Gerber Fmt 4.6, Leading zero omitted, Abs format (unit mm)*
G04 Created by KiCad (PCBNEW 10.0.5) date 2026-08-28 20:12:47*
%MOMM*%
%LPD*%
G01*
G04 APERTURE LIST*
G04 Aperture macros list*
%AMRoundRect*
0 Rectangle with rounded corners*
0 $1 Rounding radius*
0 $2 $3 $4 $5 $6 $7 $8 $9 X,Y pos of 4 corners*
0 Add a 4 corners polygon primitive as box body*
4,1,4,$2,$3,$4,$5,$6,$7,$8,$9,$2,$3,0*
0 Add four circle primitives for the rounded corners*
1,1,$1+$1,$2,$3*
1,1,$1+$1,$4,$5*
1,1,$1+$1,$6,$7*
1,1,$1+$1,$8,$9*
0 Add four rect primitives between the rounded corners*
20,1,$1+$1,$2,$3,$4,$5,0*
20,1,$1+$1,$4,$5,$6,$7,0*
20,1,$1+$1,$6,$7,$8,$9,0*
20,1,$1+$1,$8,$9,$2,$3,0*%
%AMRotRect*
0 Rectangle, with rotation*
0 The origin of the aperture is its center*
0 $1 length*
0 $2 width*
0 $3 Rotation angle, in degrees counterclockwise*
0 Add horizontal line*
21,1,$1,$2,0,0,$3*%
G04 Aperture macros list end*
%ADD10RoundRect,0.140000X0.170000X-0.140000X0.170000X0.140000X-0.170000X0.140000X-0.170000X-0.140000X0*%
%ADD11RotRect,0.400000X0.950000X315.000000*%
%ADD12RotRect,1.300000X0.350000X315.000000*%
%ADD13RotRect,0.350000X2.300000X315.000000*%
%ADD14RotRect,0.400000X0.950000X22.500000*%
%ADD15RotRect,1.300000X0.350000X22.500000*%
%ADD16RotRect,0.350000X2.300000X22.500000*%
%ADD17RoundRect,0.150000X0.150000X-0.512500X0.150000X0.512500X-0.150000X0.512500X-0.150000X-0.512500X0*%
%ADD18RoundRect,0.135000X-0.185000X0.135000X-0.185000X-0.135000X0.185000X-0.135000X0.185000X0.135000X0*%
%ADD19RotRect,0.400000X0.950000X225.000000*%
%ADD20RotRect,1.300000X0.350000X225.000000*%
%ADD21RotRect,0.350000X2.300000X225.000000*%
%ADD22RoundRect,0.140000X-0.140000X-0.170000X0.140000X-0.170000X0.140000X0.170000X-0.140000X0.170000X0*%
%ADD23RoundRect,0.140000X-0.170000X0.140000X-0.170000X-0.140000X0.170000X-0.140000X0.170000X0.140000X0*%
%ADD24RoundRect,0.135000X0.185000X-0.135000X0.185000X0.135000X-0.185000X0.135000X-0.185000X-0.135000X0*%
%ADD25RoundRect,0.250000X0.250000X0.475000X-0.250000X0.475000X-0.250000X-0.475000X0.250000X-0.475000X0*%
%ADD26RoundRect,0.135000X0.135000X0.185000X-0.135000X0.185000X-0.135000X-0.185000X0.135000X-0.185000X0*%
%ADD27RoundRect,0.135000X-0.135000X-0.185000X0.135000X-0.185000X0.135000X0.185000X-0.135000X0.185000X0*%
%ADD28RotRect,0.400000X0.950000X247.500000*%
%ADD29RotRect,1.300000X0.350000X247.500000*%
%ADD30RotRect,0.350000X2.300000X247.500000*%
%ADD31RotRect,0.400000X0.950000X157.500000*%
%ADD32RotRect,1.300000X0.350000X157.500000*%
%ADD33RotRect,0.350000X2.300000X157.500000*%
%ADD34RoundRect,0.100000X0.637500X0.100000X-0.637500X0.100000X-0.637500X-0.100000X0.637500X-0.100000X0*%
%ADD35RoundRect,0.250000X-0.475000X0.250000X-0.475000X-0.250000X0.475000X-0.250000X0.475000X0.250000X0*%
%ADD36RoundRect,0.250000X0.312500X1.450000X-0.312500X1.450000X-0.312500X-1.450000X0.312500X-1.450000X0*%
%ADD37RoundRect,0.250000X1.000000X0.650000X-1.000000X0.650000X-1.000000X-0.650000X1.000000X-0.650000X0*%
%ADD38RoundRect,0.140000X0.140000X0.170000X-0.140000X0.170000X-0.140000X-0.170000X0.140000X-0.170000X0*%
%ADD39R,0.400000X0.950000*%
%ADD40R,1.300000X0.350000*%
%ADD41R,0.350000X2.300000*%
%ADD42RoundRect,0.225000X-0.225000X-0.250000X0.225000X-0.250000X0.225000X0.250000X-0.225000X0.250000X0*%
%ADD43RoundRect,0.225000X0.225000X0.250000X-0.225000X0.250000X-0.225000X-0.250000X0.225000X-0.250000X0*%
%ADD44R,0.950000X0.400000*%
%ADD45R,0.350000X1.300000*%
%ADD46R,2.300000X0.350000*%
%ADD47RotRect,0.400000X0.950000X112.500000*%
%ADD48RotRect,1.300000X0.350000X112.500000*%
%ADD49RotRect,0.350000X2.300000X112.500000*%
%ADD50RotRect,0.400000X0.950000X337.500000*%
%ADD51RotRect,1.300000X0.350000X337.500000*%
%ADD52RotRect,0.350000X2.300000X337.500000*%
%ADD53RoundRect,0.225000X0.250000X-0.225000X0.250000X0.225000X-0.250000X0.225000X-0.250000X-0.225000X0*%
%ADD54RoundRect,0.218750X-0.218750X-0.381250X0.218750X-0.381250X0.218750X0.381250X-0.218750X0.381250X0*%
%ADD55RotRect,0.400000X0.950000X202.500000*%
%ADD56RotRect,1.300000X0.350000X202.500000*%
%ADD57RotRect,0.350000X2.300000X202.500000*%
%ADD58RotRect,0.400000X0.950000X292.500000*%
%ADD59RotRect,1.300000X0.350000X292.500000*%
%ADD60RotRect,0.350000X2.300000X292.500000*%
%ADD61RotRect,0.400000X0.950000X67.500000*%
%ADD62RotRect,1.300000X0.350000X67.500000*%
%ADD63RotRect,0.350000X2.300000X67.500000*%
%ADD64RoundRect,0.150000X0.512500X0.150000X-0.512500X0.150000X-0.512500X-0.150000X0.512500X-0.150000X0*%
%ADD65RotRect,0.400000X0.950000X45.000000*%
%ADD66RotRect,1.300000X0.350000X45.000000*%
%ADD67RotRect,0.350000X2.300000X45.000000*%
%ADD68RotRect,0.400000X0.950000X135.000000*%
%ADD69RotRect,1.300000X0.350000X135.000000*%
%ADD70RotRect,0.350000X2.300000X135.000000*%
%ADD71R,1.200000X1.300000*%
%ADD72RoundRect,0.250000X0.475000X-0.250000X0.475000X0.250000X-0.475000X0.250000X-0.475000X-0.250000X0*%
G04 APERTURE END LIST*
D10*
X206268616Y-151452591D03*
X206268616Y-150492591D03*
D11*
X187473123Y-113163272D03*
X188427717Y-112208678D03*
X187791321Y-111572282D03*
X186836727Y-112526876D03*
D12*
X186412463Y-113587536D03*
D13*
X188498428Y-113233983D03*
D12*
X188851981Y-111148018D03*
D13*
X186766016Y-111501571D03*
D14*
X130307644Y-101282542D03*
X129791021Y-100035305D03*
X128959530Y-100379720D03*
X129476153Y-101626957D03*
D15*
X130293716Y-102424823D03*
D16*
X130765339Y-100362344D03*
D15*
X128973458Y-99237439D03*
D16*
X128501835Y-101299918D03*
D17*
X158218854Y-143674673D03*
X159168854Y-143674673D03*
X160118854Y-143674673D03*
X160118854Y-141399673D03*
X158218854Y-141399673D03*
D18*
X172190798Y-148044184D03*
X172190798Y-149064184D03*
D19*
X186836727Y-187473123D03*
X187791321Y-188427717D03*
X188427717Y-187791321D03*
X187473123Y-186836727D03*
D20*
X186412463Y-186412463D03*
D21*
X186766016Y-188498428D03*
D20*
X188851981Y-188851981D03*
D21*
X188498428Y-186766016D03*
D22*
X170850512Y-104506795D03*
X171810512Y-104506795D03*
D23*
X183867405Y-186636318D03*
X183867405Y-187596318D03*
D24*
X138900000Y-171510000D03*
X138900000Y-170490000D03*
D25*
X165650000Y-155600000D03*
X163750000Y-155600000D03*
D24*
X149700000Y-129210000D03*
X149700000Y-128190000D03*
D26*
X188327006Y-183836717D03*
X187307008Y-183836717D03*
D27*
X173590000Y-154000000D03*
X174610000Y-154000000D03*
D28*
X198373042Y-170523846D03*
X199620279Y-171040469D03*
X199964694Y-170208978D03*
X198717457Y-169692355D03*
D29*
X197575176Y-169706283D03*
D30*
X198700081Y-171498164D03*
D29*
X200762560Y-171026541D03*
D30*
X199637655Y-169234660D03*
D23*
X116163281Y-187337007D03*
X116163281Y-188297007D03*
D31*
X129476153Y-198373042D03*
X128959530Y-199620279D03*
X129791021Y-199964694D03*
X130307644Y-198717457D03*
D32*
X130293716Y-197575176D03*
D33*
X128501835Y-198700081D03*
D32*
X128973458Y-200762560D03*
D33*
X130765339Y-199637655D03*
D24*
X164715989Y-150549791D03*
X164715989Y-149529791D03*
D34*
X170362500Y-147425000D03*
X170362500Y-146775000D03*
X170362500Y-146125000D03*
X170362500Y-145475000D03*
X170362500Y-144825000D03*
X170362500Y-144175000D03*
X170362500Y-143525000D03*
X170362500Y-142875000D03*
X170362500Y-142225000D03*
X170362500Y-141575000D03*
X164637500Y-141575000D03*
X164637500Y-142225000D03*
X164637500Y-142875000D03*
X164637500Y-143525000D03*
X164637500Y-144175000D03*
X164637500Y-144825000D03*
X164637500Y-145475000D03*
X164637500Y-146125000D03*
X164637500Y-146775000D03*
X164637500Y-147425000D03*
D35*
X136400000Y-145950000D03*
X136400000Y-147850000D03*
D24*
X163400000Y-170810000D03*
X163400000Y-169790000D03*
D18*
X170000000Y-170789999D03*
X170000000Y-171810001D03*
D24*
X172435373Y-145811306D03*
X172435373Y-144791306D03*
D18*
X126129980Y-197187560D03*
X126129980Y-198207562D03*
D36*
X136937500Y-186600000D03*
X132662500Y-186600000D03*
D27*
X140089999Y-132400000D03*
X141110001Y-132400000D03*
D18*
X202956273Y-169547282D03*
X202956273Y-170567284D03*
X171500000Y-154089999D03*
X171500000Y-155110001D03*
D27*
X200095920Y-133151381D03*
X201115922Y-133151381D03*
D25*
X155250000Y-156500000D03*
X153350000Y-156500000D03*
D37*
X136100000Y-173700000D03*
X132100000Y-173700000D03*
D18*
X152597224Y-202830097D03*
X152597224Y-203850097D03*
D23*
X133151381Y-98914077D03*
X133151381Y-99874077D03*
D38*
X157374474Y-173672069D03*
X156414474Y-173672069D03*
D27*
X164790000Y-152000000D03*
X165810000Y-152000000D03*
D39*
X150450000Y-97455000D03*
X150450000Y-96105000D03*
X149550000Y-96105000D03*
X149550000Y-97455000D03*
D40*
X150000000Y-98505000D03*
D41*
X151225000Y-96780000D03*
D40*
X150000000Y-95055000D03*
D41*
X148775000Y-96780000D03*
D42*
X155225000Y-153000000D03*
X156775000Y-153000000D03*
D27*
X137890000Y-168600000D03*
X138910000Y-168600000D03*
D43*
X155861873Y-145424635D03*
X154311873Y-145424635D03*
D22*
X162601040Y-148848884D03*
X163561040Y-148848884D03*
D24*
X152578441Y-96955872D03*
X152578441Y-95935872D03*
D18*
X156731575Y-167640056D03*
X156731575Y-168660056D03*
D44*
X202545000Y-150450000D03*
X203895000Y-150450000D03*
X203895000Y-149550000D03*
X202545000Y-149550000D03*
D45*
X201495000Y-150000000D03*
D46*
X203220000Y-151225000D03*
D45*
X204945000Y-150000000D03*
D46*
X203220000Y-148775000D03*
D18*
X132200000Y-144389999D03*
X132200000Y-145410001D03*
D47*
X101282542Y-169692355D03*
X100035305Y-170208978D03*
X100379720Y-171040469D03*
X101626957Y-170523846D03*
D48*
X102424823Y-169706283D03*
D49*
X100362344Y-169234660D03*
D48*
X99237439Y-171026541D03*
D49*
X101299918Y-171498164D03*
D18*
X162137624Y-145603980D03*
X162137624Y-146623980D03*
D27*
X169547282Y-97043725D03*
X170567284Y-97043725D03*
D50*
X170523846Y-101626957D03*
X171040469Y-100379720D03*
X170208978Y-100035305D03*
X169692355Y-101282542D03*
D51*
X169706283Y-102424823D03*
D52*
X171498164Y-101299918D03*
D51*
X171026541Y-99237439D03*
D52*
X169234660Y-100362344D03*
D38*
X129149486Y-195493203D03*
X128189486Y-195493203D03*
D53*
X156571315Y-143199063D03*
X156571315Y-141649063D03*
D24*
X155198707Y-171000395D03*
X155198707Y-169980395D03*
D26*
X179409999Y-141600000D03*
X178390001Y-141600000D03*
D27*
X170190001Y-174900000D03*
X171209999Y-174900000D03*
X166026289Y-150016453D03*
X167046289Y-150016453D03*
D39*
X149550000Y-202545000D03*
X149550000Y-203895000D03*
X150450000Y-203895000D03*
X150450000Y-202545000D03*
D40*
X150000000Y-201495000D03*
D41*
X148775000Y-203220000D03*
D40*
X150000000Y-204945000D03*
D41*
X151225000Y-203220000D03*
D27*
X101792436Y-126129980D03*
X102812438Y-126129980D03*
D53*
X174298381Y-145126660D03*
X174298381Y-143576660D03*
D54*
X158199139Y-149152928D03*
X160324139Y-149152928D03*
D18*
X129600000Y-146789999D03*
X129600000Y-147810001D03*
D26*
X140310000Y-167000000D03*
X139290000Y-167000000D03*
D55*
X169692355Y-198717457D03*
X170208978Y-199964694D03*
X171040469Y-199620279D03*
X170523846Y-198373042D03*
D56*
X169706283Y-197575176D03*
D57*
X169234660Y-199637655D03*
D56*
X171026541Y-200762560D03*
D57*
X171498164Y-198700081D03*
D18*
X97322003Y-152643764D03*
X97322003Y-153663764D03*
D24*
X194400000Y-135010001D03*
X194400000Y-133989999D03*
D44*
X97455000Y-149550000D03*
X96105000Y-149550000D03*
X96105000Y-150450000D03*
X97455000Y-150450000D03*
D45*
X98505000Y-150000000D03*
D46*
X96780000Y-148775000D03*
D45*
X95055000Y-150000000D03*
D46*
X96780000Y-151225000D03*
D10*
X202798828Y-128989581D03*
X202798828Y-128029581D03*
X104506795Y-129149486D03*
X104506795Y-128189486D03*
D58*
X198717457Y-130307644D03*
X199964694Y-129791021D03*
X199620279Y-128959530D03*
X198373042Y-129476153D03*
D59*
X197575176Y-130293716D03*
D60*
X199637655Y-130765339D03*
D59*
X200762560Y-128973458D03*
D60*
X198700081Y-128501835D03*
D26*
X123909999Y-122800000D03*
X122890001Y-122800000D03*
X169510000Y-188400000D03*
X168490000Y-188400000D03*
D35*
X158610087Y-145520010D03*
X158610087Y-147420010D03*
D23*
X147421558Y-203074127D03*
X147421558Y-204034127D03*
D27*
X127999580Y-97201170D03*
X129019582Y-97201170D03*
D10*
X93731383Y-149507408D03*
X93731383Y-148547408D03*
D27*
X98884076Y-166848617D03*
X99904078Y-166848617D03*
D61*
X101626957Y-129476153D03*
X100379720Y-128959530D03*
X100035305Y-129791021D03*
X101282542Y-130307644D03*
D62*
X102424823Y-130293716D03*
D63*
X101299918Y-128501835D03*
D62*
X99237439Y-128973458D03*
D63*
X100362344Y-130765339D03*
D18*
X125800000Y-150090001D03*
X125800000Y-151109999D03*
D38*
X151452591Y-93731383D03*
X150492591Y-93731383D03*
D24*
X202677996Y-147356235D03*
X202677996Y-146336235D03*
D27*
X112700847Y-108662478D03*
X113720845Y-108662478D03*
D24*
X139800000Y-187110000D03*
X139800000Y-186090000D03*
D22*
X111702991Y-116163281D03*
X112662991Y-116163281D03*
D35*
X162366474Y-141463797D03*
X162366474Y-143363797D03*
D10*
X195493203Y-171810512D03*
X195493203Y-170850512D03*
D64*
X165571690Y-176426420D03*
X165571690Y-175476420D03*
X165571690Y-174526420D03*
X163296690Y-174526420D03*
X163296690Y-175476420D03*
X163296690Y-176426420D03*
D26*
X166010000Y-172300000D03*
X164990000Y-172300000D03*
D22*
X186636319Y-116132593D03*
X187596319Y-116132593D03*
D24*
X152400000Y-120610001D03*
X152400000Y-119589999D03*
D18*
X108662478Y-186279153D03*
X108662478Y-187299151D03*
D10*
X166848617Y-201085921D03*
X166848617Y-200125921D03*
D26*
X159110000Y-167300000D03*
X158090000Y-167300000D03*
D65*
X113163272Y-112526876D03*
X112208678Y-111572282D03*
X111572282Y-112208678D03*
X112526876Y-113163272D03*
D66*
X113587536Y-113587536D03*
D67*
X113233983Y-111501571D03*
D66*
X111148018Y-111148018D03*
D67*
X111501571Y-113233983D03*
D68*
X112526876Y-186836727D03*
X111572282Y-187791321D03*
X112208678Y-188427717D03*
X113163272Y-187473123D03*
D69*
X113587536Y-186412463D03*
D70*
X111501571Y-186766016D03*
D69*
X111148018Y-188851981D03*
D70*
X113233983Y-188498428D03*
D71*
X156750000Y-170150000D03*
X156750000Y-172250000D03*
X158650000Y-172250000D03*
X158650000Y-170150000D03*
D23*
X97201170Y-171010417D03*
X97201170Y-171970417D03*
D24*
X172637904Y-142782458D03*
X172637904Y-141762458D03*
X147900000Y-169010000D03*
X147900000Y-167990000D03*
D17*
X167918911Y-179200113D03*
X168868911Y-179200113D03*
X169818911Y-179200113D03*
X169818911Y-176925113D03*
X168868911Y-176925113D03*
X167918911Y-176925113D03*
D26*
X109310001Y-128500000D03*
X108289999Y-128500000D03*
D10*
X153800000Y-143080000D03*
X153800000Y-142120000D03*
D26*
X187031085Y-108110386D03*
X186011087Y-108110386D03*
D72*
X159400000Y-153850000D03*
X159400000Y-151950000D03*
D27*
X170980416Y-202798828D03*
X172000418Y-202798828D03*
D26*
X173656175Y-147061386D03*
X172636175Y-147061386D03*
D24*
X108600000Y-147510000D03*
X108600000Y-146490000D03*
M02*
