G04 #@! TF.GenerationSoftware,KiCad,Pcbnew,10.0.5*
G04 #@! TF.CreationDate,2026-08-28T20:12:47-06:00*
G04 #@! TF.ProjectId,candidate_routed,63616e64-6964-4617-9465-5f726f757465,rev?*
G04 #@! TF.SameCoordinates,Original*
G04 #@! TF.FileFunction,Paste,Top*
G04 #@! TF.FilePolarity,Positive*
%FSLAX46Y46*%
G04 Gerber Fmt 4.6, Leading zero omitted, Abs format (unit mm)*
G04 Created by KiCad (PCBNEW 10.0.5) date 2026-08-28 20:12:47*
%MOMM*%
%LPD*%
G01*
G04 APERTURE LIST*
G04 Aperture macros list*
%AMRoundRect*
0 Rectangle with rounded corners*
0 $1 Rounding radius*
0 $2 $3 $4 $5 $6 $7 $8 $9 X,Y pos of 4 corners*
0 Add a 4 corners polygon primitive as box body*
4,1,4,$2,$3,$4,$5,$6,$7,$8,$9,$2,$3,0*
0 Add four circle primitives for the rounded corners*
1,1,$1+$1,$2,$3*
1,1,$1+$1,$4,$5*
1,1,$1+$1,$6,$7*
1,1,$1+$1,$8,$9*
0 Add four rect primitives between the rounded corners*
20,1,$1+$1,$2,$3,$4,$5,0*
20,1,$1+$1,$4,$5,$6,$7,0*
20,1,$1+$1,$6,$7,$8,$9,0*
20,1,$1+$1,$8,$9,$2,$3,0*%
%AMRotRect*
0 Rectangle, with rotation*
0 The origin of the aperture is its center*
0 $1 length*
0 $2 width*
0 $3 Rotation angle, in degrees counterclockwise*
0 Add horizontal line*
21,1,$1,$2,0,0,$3*%
G04 Aperture macros list end*
%ADD10RoundRect,0.140000X0.140000X0.170000X-0.140000X0.170000X-0.140000X-0.170000X0.140000X-0.170000X0*%
%ADD11RotRect,0.400000X0.950000X315.000000*%
%ADD12RotRect,1.300000X0.350000X315.000000*%
%ADD13RotRect,0.350000X2.300000X315.000000*%
%ADD14RotRect,0.400000X0.950000X22.500000*%
%ADD15RotRect,1.300000X0.350000X22.500000*%
%ADD16RotRect,0.350000X2.300000X22.500000*%
%ADD17RoundRect,0.150000X-0.512500X-0.150000X0.512500X-0.150000X0.512500X0.150000X-0.512500X0.150000X0*%
%ADD18RoundRect,0.135000X0.185000X-0.135000X0.185000X0.135000X-0.185000X0.135000X-0.185000X-0.135000X0*%
%ADD19RotRect,0.400000X0.950000X225.000000*%
%ADD20RotRect,1.300000X0.350000X225.000000*%
%ADD21RotRect,0.350000X2.300000X225.000000*%
%ADD22RoundRect,0.140000X-0.170000X0.140000X-0.170000X-0.140000X0.170000X-0.140000X0.170000X0.140000X0*%
%ADD23RoundRect,0.250000X0.475000X-0.250000X0.475000X0.250000X-0.475000X0.250000X-0.475000X-0.250000X0*%
%ADD24RoundRect,0.135000X-0.135000X-0.185000X0.135000X-0.185000X0.135000X0.185000X-0.135000X0.185000X0*%
%ADD25RotRect,0.400000X0.950000X247.500000*%
%ADD26RotRect,1.300000X0.350000X247.500000*%
%ADD27RotRect,0.350000X2.300000X247.500000*%
%ADD28RoundRect,0.140000X-0.140000X-0.170000X0.140000X-0.170000X0.140000X0.170000X-0.140000X0.170000X0*%
%ADD29RotRect,0.400000X0.950000X157.500000*%
%ADD30RotRect,1.300000X0.350000X157.500000*%
%ADD31RotRect,0.350000X2.300000X157.500000*%
%ADD32RoundRect,0.100000X-0.100000X0.637500X-0.100000X-0.637500X0.100000X-0.637500X0.100000X0.637500X0*%
%ADD33RoundRect,0.250000X-0.475000X0.250000X-0.475000X-0.250000X0.475000X-0.250000X0.475000X0.250000X0*%
%ADD34RoundRect,0.135000X-0.185000X0.135000X-0.185000X-0.135000X0.185000X-0.135000X0.185000X0.135000X0*%
%ADD35RoundRect,0.250000X1.450000X-0.312500X1.450000X0.312500X-1.450000X0.312500X-1.450000X-0.312500X0*%
%ADD36RoundRect,0.135000X0.135000X0.185000X-0.135000X0.185000X-0.135000X-0.185000X0.135000X-0.185000X0*%
%ADD37RoundRect,0.250000X0.250000X0.475000X-0.250000X0.475000X-0.250000X-0.475000X0.250000X-0.475000X0*%
%ADD38RoundRect,0.250000X-0.650000X1.000000X-0.650000X-1.000000X0.650000X-1.000000X0.650000X1.000000X0*%
%ADD39RoundRect,0.140000X0.170000X-0.140000X0.170000X0.140000X-0.170000X0.140000X-0.170000X-0.140000X0*%
%ADD40R,0.400000X0.950000*%
%ADD41R,1.300000X0.350000*%
%ADD42R,0.350000X2.300000*%
%ADD43RoundRect,0.225000X0.250000X-0.225000X0.250000X0.225000X-0.250000X0.225000X-0.250000X-0.225000X0*%
%ADD44RoundRect,0.225000X0.225000X0.250000X-0.225000X0.250000X-0.225000X-0.250000X0.225000X-0.250000X0*%
%ADD45R,0.950000X0.400000*%
%ADD46R,0.350000X1.300000*%
%ADD47R,2.300000X0.350000*%
%ADD48RotRect,0.400000X0.950000X112.500000*%
%ADD49RotRect,1.300000X0.350000X112.500000*%
%ADD50RotRect,0.350000X2.300000X112.500000*%
%ADD51RotRect,0.400000X0.950000X337.500000*%
%ADD52RotRect,1.300000X0.350000X337.500000*%
%ADD53RotRect,0.350000X2.300000X337.500000*%
%ADD54RoundRect,0.225000X-0.250000X0.225000X-0.250000X-0.225000X0.250000X-0.225000X0.250000X0.225000X0*%
%ADD55RoundRect,0.218750X0.218750X0.381250X-0.218750X0.381250X-0.218750X-0.381250X0.218750X-0.381250X0*%
%ADD56RotRect,0.400000X0.950000X202.500000*%
%ADD57RotRect,1.300000X0.350000X202.500000*%
%ADD58RotRect,0.350000X2.300000X202.500000*%
%ADD59RotRect,0.400000X0.950000X292.500000*%
%ADD60RotRect,1.300000X0.350000X292.500000*%
%ADD61RotRect,0.350000X2.300000X292.500000*%
%ADD62RoundRect,0.250000X-0.250000X-0.475000X0.250000X-0.475000X0.250000X0.475000X-0.250000X0.475000X0*%
%ADD63RotRect,0.400000X0.950000X67.500000*%
%ADD64RotRect,1.300000X0.350000X67.500000*%
%ADD65RotRect,0.350000X2.300000X67.500000*%
%ADD66RoundRect,0.150000X-0.150000X0.512500X-0.150000X-0.512500X0.150000X-0.512500X0.150000X0.512500X0*%
%ADD67RotRect,0.400000X0.950000X45.000000*%
%ADD68RotRect,1.300000X0.350000X45.000000*%
%ADD69RotRect,0.350000X2.300000X45.000000*%
%ADD70RotRect,0.400000X0.950000X135.000000*%
%ADD71RotRect,1.300000X0.350000X135.000000*%
%ADD72RotRect,0.350000X2.300000X135.000000*%
%ADD73R,1.200000X1.300000*%
G04 APERTURE END LIST*
D10*
X204034127Y-152578441D03*
X203074127Y-152578441D03*
D11*
X187473123Y-113163272D03*
X188427717Y-112208678D03*
X187791321Y-111572282D03*
X186836727Y-112526876D03*
D12*
X186412463Y-113587536D03*
D13*
X188498428Y-113233983D03*
D12*
X188851981Y-111148018D03*
D13*
X186766016Y-111501571D03*
D14*
X130307644Y-101282542D03*
X129791021Y-100035305D03*
X128959530Y-100379720D03*
X129476153Y-101626957D03*
D15*
X130293716Y-102424823D03*
D16*
X130765339Y-100362344D03*
D15*
X128973458Y-99237439D03*
D16*
X128501835Y-101299918D03*
D17*
X139962500Y-168950000D03*
X139962500Y-169900000D03*
X139962500Y-170850000D03*
X142237500Y-170850000D03*
X142237500Y-168950000D03*
D18*
X158896449Y-123387196D03*
X158896449Y-122367196D03*
D19*
X186836727Y-187473123D03*
X187791321Y-188427717D03*
X188427717Y-187791321D03*
X187473123Y-186836727D03*
D20*
X186412463Y-186412463D03*
D21*
X186766016Y-188498428D03*
D20*
X188851981Y-188851981D03*
D21*
X188498428Y-186766016D03*
D22*
X173870018Y-101822437D03*
X173870018Y-102782437D03*
D10*
X188297007Y-183836717D03*
X187337007Y-183836717D03*
D18*
X147000000Y-174610000D03*
X147000000Y-173590000D03*
D23*
X141400000Y-135850000D03*
X141400000Y-133950000D03*
D18*
X141000000Y-131210000D03*
X141000000Y-130190000D03*
D24*
X186279153Y-191337520D03*
X187299151Y-191337520D03*
X193190000Y-146200000D03*
X194210000Y-146200000D03*
D25*
X198373042Y-170523846D03*
X199620279Y-171040469D03*
X199964694Y-170208978D03*
X198717457Y-169692355D03*
D26*
X197575176Y-169706283D03*
D27*
X198700081Y-171498164D03*
D26*
X200762560Y-171026541D03*
D27*
X199637655Y-169234660D03*
D28*
X112403680Y-183867405D03*
X113363680Y-183867405D03*
D29*
X129476153Y-198373042D03*
X128959530Y-199620279D03*
X129791021Y-199964694D03*
X130307644Y-198717457D03*
D30*
X130293716Y-197575176D03*
D31*
X128501835Y-198700081D03*
D30*
X128973458Y-200762560D03*
D31*
X130765339Y-199637655D03*
D24*
X152907211Y-129032644D03*
X153927211Y-129032644D03*
D32*
X157625000Y-121337500D03*
X156975000Y-121337500D03*
X156325000Y-121337500D03*
X155675000Y-121337500D03*
X155025000Y-121337500D03*
X154375000Y-121337500D03*
X153725000Y-121337500D03*
X153075000Y-121337500D03*
X152425000Y-121337500D03*
X151775000Y-121337500D03*
X151775000Y-127062500D03*
X152425000Y-127062500D03*
X153075000Y-127062500D03*
X153725000Y-127062500D03*
X154375000Y-127062500D03*
X155025000Y-127062500D03*
X155675000Y-127062500D03*
X156325000Y-127062500D03*
X156975000Y-127062500D03*
X157625000Y-127062500D03*
D33*
X135300000Y-166750000D03*
X135300000Y-168650000D03*
D18*
X170400000Y-171310000D03*
X170400000Y-170290000D03*
D34*
X171600000Y-151589999D03*
X171600000Y-152610001D03*
D24*
X153190000Y-116800000D03*
X154210000Y-116800000D03*
X129432714Y-202956273D03*
X130452716Y-202956273D03*
D35*
X152200000Y-174837500D03*
X152200000Y-170562500D03*
D36*
X138010001Y-135300000D03*
X136989999Y-135300000D03*
D18*
X202956273Y-170567284D03*
X202956273Y-169547282D03*
D34*
X182300000Y-154689999D03*
X182300000Y-155710001D03*
D24*
X200095920Y-133151381D03*
X201115922Y-133151381D03*
D37*
X162650000Y-152600000D03*
X160750000Y-152600000D03*
D38*
X160200000Y-169900000D03*
X160200000Y-173900000D03*
D34*
X152597224Y-202830097D03*
X152597224Y-203850097D03*
D39*
X133151381Y-99874077D03*
X133151381Y-98914077D03*
D22*
X164600000Y-148720000D03*
X164600000Y-149680000D03*
D36*
X153995419Y-119349763D03*
X152975419Y-119349763D03*
D40*
X150450000Y-97455000D03*
X150450000Y-96105000D03*
X149550000Y-96105000D03*
X149550000Y-97455000D03*
D41*
X150000000Y-98505000D03*
D42*
X151225000Y-96780000D03*
D41*
X150000000Y-95055000D03*
D42*
X148775000Y-96780000D03*
D43*
X171000000Y-156775000D03*
X171000000Y-155225000D03*
D18*
X144400000Y-173110000D03*
X144400000Y-172090000D03*
D44*
X135775000Y-173300000D03*
X134225000Y-173300000D03*
D22*
X155706821Y-118822417D03*
X155706821Y-119782417D03*
D18*
X152578441Y-96955872D03*
X152578441Y-95935872D03*
D34*
X165462062Y-150725309D03*
X165462062Y-151745309D03*
D45*
X202545000Y-150450000D03*
X203895000Y-150450000D03*
X203895000Y-149550000D03*
X202545000Y-149550000D03*
D46*
X201495000Y-150000000D03*
D47*
X203220000Y-151225000D03*
D46*
X204945000Y-150000000D03*
D47*
X203220000Y-148775000D03*
D34*
X130500000Y-149289999D03*
X130500000Y-150310001D03*
D48*
X101282542Y-169692355D03*
X100035305Y-170208978D03*
X100379720Y-171040469D03*
X101626957Y-170523846D03*
D49*
X102424823Y-169706283D03*
D50*
X100362344Y-169234660D03*
D49*
X99237439Y-171026541D03*
D50*
X101299918Y-171498164D03*
D34*
X159033900Y-124449804D03*
X159033900Y-125469804D03*
D18*
X166789108Y-102622888D03*
X166789108Y-101602886D03*
D51*
X170523846Y-101626957D03*
X171040469Y-100379720D03*
X170208978Y-100035305D03*
X169692355Y-101282542D03*
D52*
X169706283Y-102424823D03*
D53*
X171498164Y-101299918D03*
D52*
X171026541Y-99237439D03*
D53*
X169234660Y-100362344D03*
D10*
X129149486Y-195493203D03*
X128189486Y-195493203D03*
D54*
X137941301Y-169637469D03*
X137941301Y-171187469D03*
D36*
X171610000Y-148700000D03*
X170590000Y-148700000D03*
D18*
X188900000Y-118709999D03*
X188900000Y-117690001D03*
D34*
X181100000Y-154590001D03*
X181100000Y-155609999D03*
D18*
X150452603Y-123561252D03*
X150452603Y-122541252D03*
D40*
X149550000Y-202545000D03*
X149550000Y-203895000D03*
X150450000Y-203895000D03*
X150450000Y-202545000D03*
D41*
X150000000Y-201495000D03*
D42*
X148775000Y-203220000D03*
D41*
X150000000Y-204945000D03*
D42*
X151225000Y-203220000D03*
D36*
X102622888Y-133210890D03*
X101602886Y-133210890D03*
D43*
X162500000Y-123675000D03*
X162500000Y-122125000D03*
D55*
X168262500Y-155600000D03*
X166137500Y-155600000D03*
D34*
X131100000Y-176689999D03*
X131100000Y-177710001D03*
D24*
X139290000Y-165800000D03*
X140310000Y-165800000D03*
D56*
X169692355Y-198717457D03*
X170208978Y-199964694D03*
X171040469Y-199620279D03*
X170523846Y-198373042D03*
D57*
X169706283Y-197575176D03*
D58*
X169234660Y-199637655D03*
D57*
X171026541Y-200762560D03*
D58*
X171498164Y-198700081D03*
D36*
X97169902Y-152597224D03*
X96149902Y-152597224D03*
D24*
X193289999Y-128900000D03*
X194310001Y-128900000D03*
D45*
X97455000Y-149550000D03*
X96105000Y-149550000D03*
X96105000Y-150450000D03*
X97455000Y-150450000D03*
D46*
X98505000Y-150000000D03*
D47*
X96780000Y-148775000D03*
D46*
X95055000Y-150000000D03*
D47*
X96780000Y-151225000D03*
D39*
X202798828Y-128989581D03*
X202798828Y-128029581D03*
D28*
X101822437Y-126129980D03*
X102782437Y-126129980D03*
D59*
X198717457Y-130307644D03*
X199964694Y-129791021D03*
X199620279Y-128959530D03*
X198373042Y-129476153D03*
D60*
X197575176Y-130293716D03*
D61*
X199637655Y-130765339D03*
D60*
X200762560Y-128973458D03*
D61*
X198700081Y-128501835D03*
D36*
X134409999Y-132400000D03*
X133390001Y-132400000D03*
X130010000Y-174400000D03*
X128990000Y-174400000D03*
D62*
X142022869Y-165264014D03*
X143922869Y-165264014D03*
D22*
X147421558Y-203074127D03*
X147421558Y-204034127D03*
D36*
X129019582Y-97201170D03*
X127999580Y-97201170D03*
D28*
X95965872Y-147421558D03*
X96925872Y-147421558D03*
D34*
X97201170Y-170980416D03*
X97201170Y-172000418D03*
D63*
X101626957Y-129476153D03*
X100379720Y-128959530D03*
X100035305Y-129791021D03*
X101282542Y-130307644D03*
D64*
X102424823Y-130293716D03*
D65*
X101299918Y-128501835D03*
D64*
X99237439Y-128973458D03*
D65*
X100362344Y-130765339D03*
D36*
X131209999Y-152800000D03*
X130190001Y-152800000D03*
D28*
X150492591Y-93731383D03*
X151452591Y-93731383D03*
D24*
X202830097Y-147402775D03*
X203850097Y-147402775D03*
D36*
X112692990Y-116163281D03*
X111672992Y-116163281D03*
X144910000Y-174600000D03*
X143890000Y-174600000D03*
D22*
X116132593Y-112403680D03*
X116132593Y-113363680D03*
D23*
X140395116Y-174584051D03*
X140395116Y-172684051D03*
D39*
X195493203Y-171810512D03*
X195493203Y-170850512D03*
D66*
X170244234Y-179762231D03*
X169294234Y-179762231D03*
X168344234Y-179762231D03*
X168344234Y-182037231D03*
X169294234Y-182037231D03*
X170244234Y-182037231D03*
D36*
X165810000Y-167200000D03*
X164790000Y-167200000D03*
D10*
X187596319Y-116132593D03*
X186636319Y-116132593D03*
D18*
X189500000Y-107410001D03*
X189500000Y-106389999D03*
D34*
X116163281Y-187307008D03*
X116163281Y-188327006D03*
D22*
X166848617Y-200125921D03*
X166848617Y-201085921D03*
D18*
X180100000Y-182910000D03*
X180100000Y-181890000D03*
D67*
X113163272Y-112526876D03*
X112208678Y-111572282D03*
X111572282Y-112208678D03*
X112526876Y-113163272D03*
D68*
X113587536Y-113587536D03*
D69*
X113233983Y-111501571D03*
D68*
X111148018Y-111148018D03*
D69*
X111501571Y-113233983D03*
D70*
X112526876Y-186836727D03*
X111572282Y-187791321D03*
X112208678Y-188427717D03*
X113163272Y-187473123D03*
D71*
X113587536Y-186412463D03*
D72*
X111501571Y-186766016D03*
D71*
X111148018Y-188851981D03*
D72*
X113233983Y-188498428D03*
D73*
X167050000Y-150750000D03*
X167050000Y-152850000D03*
X168950000Y-152850000D03*
X168950000Y-150750000D03*
D28*
X98914077Y-166848617D03*
X99874077Y-166848617D03*
D36*
X156158852Y-129109142D03*
X155138852Y-129109142D03*
D18*
X157000000Y-176310000D03*
X157000000Y-175290000D03*
D17*
X165415775Y-174674147D03*
X165415775Y-175624147D03*
X165415775Y-176574147D03*
X167690775Y-176574147D03*
X167690775Y-175624147D03*
X167690775Y-174674147D03*
D36*
X114710001Y-147400000D03*
X113689999Y-147400000D03*
D10*
X135780000Y-170000000D03*
X134820000Y-170000000D03*
D36*
X187031085Y-108110386D03*
X186011087Y-108110386D03*
D23*
X158600000Y-156750000D03*
X158600000Y-154850000D03*
D36*
X172000418Y-202798828D03*
X170980416Y-202798828D03*
D34*
X150541574Y-125127880D03*
X150541574Y-126147880D03*
X108100000Y-147590000D03*
X108100000Y-148610000D03*
M02*
