M48
; DRILL file KiCad 10.0.5 date 2026-08-28T14:03:49
; FORMAT={-:-/ absolute / metric / decimal}
; #@! TF.CreationDate,2026-08-28T14:03:49-06:00
; #@! TF.GenerationSoftware,Kicad,Pcbnew,10.0.5
; #@! TF.FileFunction,Plated,1,4,PTH
FMAT,2
METRIC
; #@! TA.AperFunction,Plated,PTH,ComponentDrill
T1C1.000
%
G90
G05
T1
X130.79Y-138.57
X130.79Y-161.43
X133.33Y-138.57
X133.33Y-161.43
X134.76Y-179.19
X134.76Y-181.73
X135.87Y-138.57
X135.87Y-161.43
X137.3Y-179.19
X137.3Y-181.73
X138.41Y-138.57
X138.41Y-161.43
X139.84Y-179.19
X139.84Y-181.73
X140.95Y-138.57
X140.95Y-161.43
X142.38Y-179.19
X142.38Y-181.73
X143.49Y-138.57
X143.49Y-161.43
X144.92Y-179.19
X144.92Y-181.73
X146.03Y-138.57
X146.03Y-161.43
X147.46Y-179.19
X147.46Y-181.73
X148.57Y-138.57
X148.57Y-161.43
X150.0Y-179.19
X150.0Y-181.73
X151.11Y-138.57
X151.11Y-161.43
X152.54Y-179.19
X152.54Y-181.73
X153.65Y-138.57
X153.65Y-161.43
X155.08Y-179.19
X155.08Y-181.73
X156.19Y-138.57
X156.19Y-161.43
X157.62Y-179.19
X157.62Y-181.73
X158.73Y-138.57
X158.73Y-161.43
X160.16Y-179.19
X160.16Y-181.73
X161.27Y-138.57
X161.27Y-161.43
X162.7Y-179.19
X162.7Y-181.73
X163.81Y-138.57
X163.81Y-161.43
X165.24Y-179.19
X165.24Y-181.73
X166.35Y-138.57
X166.35Y-161.43
X168.89Y-138.57
X168.89Y-161.43
X171.43Y-138.57
X171.43Y-161.43
X173.97Y-138.57
X173.97Y-161.43
X176.51Y-138.57
X176.51Y-161.43
X179.05Y-138.57
X179.05Y-161.43
X181.59Y-138.57
X181.59Y-161.43
X184.13Y-138.57
X184.13Y-161.43
X186.67Y-138.57
X186.67Y-161.43
X189.21Y-138.57
X189.21Y-161.43
M30
