G04 #@! TF.GenerationSoftware,KiCad,Pcbnew,10.0.5*
G04 #@! TF.CreationDate,2026-08-28T19:26:30-06:00*
G04 #@! TF.ProjectId,candidate_placed,63616e64-6964-4617-9465-5f706c616365,rev?*
G04 #@! TF.SameCoordinates,Original*
G04 #@! TF.FileFunction,Legend,Top*
G04 #@! TF.FilePolarity,Positive*
%FSLAX46Y46*%
G04 Gerber Fmt 4.6, Leading zero omitted, Abs format (unit mm)*
G04 Created by KiCad (PCBNEW 10.0.5) date 2026-08-28 19:26:30*
%MOMM*%
%LPD*%
G01*
G04 APERTURE LIST*
G04 Aperture macros list*
%AMRoundRect*
0 Rectangle with rounded corners*
0 $1 Rounding radius*
0 $2 $3 $4 $5 $6 $7 $8 $9 X,Y pos of 4 corners*
0 Add a 4 corners polygon primitive as box body*
4,1,4,$2,$3,$4,$5,$6,$7,$8,$9,$2,$3,0*
0 Add four circle primitives for the rounded corners*
1,1,$1+$1,$2,$3*
1,1,$1+$1,$4,$5*
1,1,$1+$1,$6,$7*
1,1,$1+$1,$8,$9*
0 Add four rect primitives between the rounded corners*
20,1,$1+$1,$2,$3,$4,$5,0*
20,1,$1+$1,$4,$5,$6,$7,0*
20,1,$1+$1,$6,$7,$8,$9,0*
20,1,$1+$1,$8,$9,$2,$3,0*%
%AMRotRect*
0 Rectangle, with rotation*
0 The origin of the aperture is its center*
0 $1 length*
0 $2 width*
0 $3 Rotation angle, in degrees counterclockwise*
0 Add horizontal line*
21,1,$1,$2,0,0,$3*%
G04 Aperture macros list end*
%ADD10C,0.150000*%
%ADD11C,0.160000*%
%ADD12C,0.120000*%
%ADD13C,0.225000*%
%ADD14C,0.224999*%
%ADD15RoundRect,0.140000X0.140000X0.170000X-0.140000X0.170000X-0.140000X-0.170000X0.140000X-0.170000X0*%
%ADD16RotRect,0.400000X0.950000X315.000000*%
%ADD17RotRect,1.300000X0.350000X315.000000*%
%ADD18RotRect,0.350000X2.300000X315.000000*%
%ADD19RotRect,0.400000X0.950000X22.500000*%
%ADD20RotRect,1.300000X0.350000X22.500000*%
%ADD21RotRect,0.350000X2.300000X22.500000*%
%ADD22C,1.000000*%
%ADD23RoundRect,0.150000X0.150000X-0.512500X0.150000X0.512500X-0.150000X0.512500X-0.150000X-0.512500X0*%
%ADD24C,1.500000*%
%ADD25RoundRect,0.135000X-0.185000X0.135000X-0.185000X-0.135000X0.185000X-0.135000X0.185000X0.135000X0*%
%ADD26RotRect,0.400000X0.950000X225.000000*%
%ADD27RotRect,1.300000X0.350000X225.000000*%
%ADD28RotRect,0.350000X2.300000X225.000000*%
%ADD29RoundRect,0.140000X0.170000X-0.140000X0.170000X0.140000X-0.170000X0.140000X-0.170000X-0.140000X0*%
%ADD30RoundRect,0.140000X-0.170000X0.140000X-0.170000X-0.140000X0.170000X-0.140000X0.170000X0.140000X0*%
%ADD31RoundRect,0.135000X-0.135000X-0.185000X0.135000X-0.185000X0.135000X0.185000X-0.135000X0.185000X0*%
%ADD32RoundRect,0.250000X0.475000X-0.250000X0.475000X0.250000X-0.475000X0.250000X-0.475000X-0.250000X0*%
%ADD33RoundRect,0.135000X0.185000X-0.135000X0.185000X0.135000X-0.185000X0.135000X-0.185000X-0.135000X0*%
%ADD34RotRect,0.400000X0.950000X247.500000*%
%ADD35RotRect,1.300000X0.350000X247.500000*%
%ADD36RotRect,0.350000X2.300000X247.500000*%
%ADD37RotRect,0.400000X0.950000X157.500000*%
%ADD38RotRect,1.300000X0.350000X157.500000*%
%ADD39RotRect,0.350000X2.300000X157.500000*%
%ADD40RoundRect,0.100000X-0.637500X-0.100000X0.637500X-0.100000X0.637500X0.100000X-0.637500X0.100000X0*%
%ADD41RoundRect,0.250000X-0.475000X0.250000X-0.475000X-0.250000X0.475000X-0.250000X0.475000X0.250000X0*%
%ADD42RoundRect,0.250000X1.450000X-0.312500X1.450000X0.312500X-1.450000X0.312500X-1.450000X-0.312500X0*%
%ADD43RoundRect,0.135000X0.135000X0.185000X-0.135000X0.185000X-0.135000X-0.185000X0.135000X-0.185000X0*%
%ADD44RoundRect,0.250000X0.250000X0.475000X-0.250000X0.475000X-0.250000X-0.475000X0.250000X-0.475000X0*%
%ADD45RoundRect,0.250000X-0.650000X1.000000X-0.650000X-1.000000X0.650000X-1.000000X0.650000X1.000000X0*%
%ADD46RoundRect,0.140000X-0.140000X-0.170000X0.140000X-0.170000X0.140000X0.170000X-0.140000X0.170000X0*%
%ADD47R,0.400000X0.950000*%
%ADD48R,1.300000X0.350000*%
%ADD49R,0.350000X2.300000*%
%ADD50RoundRect,0.225000X-0.250000X0.225000X-0.250000X-0.225000X0.250000X-0.225000X0.250000X0.225000X0*%
%ADD51RoundRect,0.225000X-0.225000X-0.250000X0.225000X-0.250000X0.225000X0.250000X-0.225000X0.250000X0*%
%ADD52R,0.950000X0.400000*%
%ADD53R,0.350000X1.300000*%
%ADD54R,2.300000X0.350000*%
%ADD55RotRect,0.400000X0.950000X112.500000*%
%ADD56RotRect,1.300000X0.350000X112.500000*%
%ADD57RotRect,0.350000X2.300000X112.500000*%
%ADD58RotRect,0.400000X0.950000X337.500000*%
%ADD59RotRect,1.300000X0.350000X337.500000*%
%ADD60RotRect,0.350000X2.300000X337.500000*%
%ADD61RoundRect,0.225000X0.250000X-0.225000X0.250000X0.225000X-0.250000X0.225000X-0.250000X-0.225000X0*%
%ADD62RoundRect,0.218750X-0.218750X-0.381250X0.218750X-0.381250X0.218750X0.381250X-0.218750X0.381250X0*%
%ADD63RotRect,0.400000X0.950000X202.500000*%
%ADD64RotRect,1.300000X0.350000X202.500000*%
%ADD65RotRect,0.350000X2.300000X202.500000*%
%ADD66RotRect,0.400000X0.950000X292.500000*%
%ADD67RotRect,1.300000X0.350000X292.500000*%
%ADD68RotRect,0.350000X2.300000X292.500000*%
%ADD69RotRect,0.400000X0.950000X67.500000*%
%ADD70RotRect,1.300000X0.350000X67.500000*%
%ADD71RotRect,0.350000X2.300000X67.500000*%
%ADD72RoundRect,0.150000X0.512500X0.150000X-0.512500X0.150000X-0.512500X-0.150000X0.512500X-0.150000X0*%
%ADD73RotRect,0.400000X0.950000X45.000000*%
%ADD74RotRect,1.300000X0.350000X45.000000*%
%ADD75RotRect,0.350000X2.300000X45.000000*%
%ADD76RotRect,0.400000X0.950000X135.000000*%
%ADD77RotRect,1.300000X0.350000X135.000000*%
%ADD78RotRect,0.350000X2.300000X135.000000*%
%ADD79R,1.200000X1.300000*%
%ADD80RoundRect,0.150000X-0.512500X-0.150000X0.512500X-0.150000X0.512500X0.150000X-0.512500X0.150000X0*%
%ADD81RoundRect,0.250000X-0.250000X-0.475000X0.250000X-0.475000X0.250000X0.475000X-0.250000X0.475000X0*%
%ADD82R,1.700000X1.700000*%
%ADD83C,1.700000*%
G04 APERTURE END LIST*
D10*
X106824944Y-169764781D02*
X106824944Y-168764781D01*
X106824944Y-168764781D02*
X107205896Y-168764781D01*
X107205896Y-168764781D02*
X107301134Y-168812400D01*
X107301134Y-168812400D02*
X107348753Y-168860019D01*
X107348753Y-168860019D02*
X107396372Y-168955257D01*
X107396372Y-168955257D02*
X107396372Y-169098114D01*
X107396372Y-169098114D02*
X107348753Y-169193352D01*
X107348753Y-169193352D02*
X107301134Y-169240971D01*
X107301134Y-169240971D02*
X107205896Y-169288590D01*
X107205896Y-169288590D02*
X106824944Y-169288590D01*
X107824944Y-169764781D02*
X107824944Y-168764781D01*
X107824944Y-168764781D02*
X108063039Y-168764781D01*
X108063039Y-168764781D02*
X108205896Y-168812400D01*
X108205896Y-168812400D02*
X108301134Y-168907638D01*
X108301134Y-168907638D02*
X108348753Y-169002876D01*
X108348753Y-169002876D02*
X108396372Y-169193352D01*
X108396372Y-169193352D02*
X108396372Y-169336209D01*
X108396372Y-169336209D02*
X108348753Y-169526685D01*
X108348753Y-169526685D02*
X108301134Y-169621923D01*
X108301134Y-169621923D02*
X108205896Y-169717162D01*
X108205896Y-169717162D02*
X108063039Y-169764781D01*
X108063039Y-169764781D02*
X107824944Y-169764781D01*
X108824944Y-169764781D02*
X108824944Y-168764781D01*
X108824944Y-168764781D02*
X109158277Y-169479066D01*
X109158277Y-169479066D02*
X109491610Y-168764781D01*
X109491610Y-168764781D02*
X109491610Y-169764781D01*
X109729706Y-169860019D02*
X110491610Y-169860019D01*
X110729706Y-169764781D02*
X110729706Y-168764781D01*
X110729706Y-168764781D02*
X110967801Y-168764781D01*
X110967801Y-168764781D02*
X111110658Y-168812400D01*
X111110658Y-168812400D02*
X111205896Y-168907638D01*
X111205896Y-168907638D02*
X111253515Y-169002876D01*
X111253515Y-169002876D02*
X111301134Y-169193352D01*
X111301134Y-169193352D02*
X111301134Y-169336209D01*
X111301134Y-169336209D02*
X111253515Y-169526685D01*
X111253515Y-169526685D02*
X111205896Y-169621923D01*
X111205896Y-169621923D02*
X111110658Y-169717162D01*
X111110658Y-169717162D02*
X110967801Y-169764781D01*
X110967801Y-169764781D02*
X110729706Y-169764781D01*
X112158277Y-169098114D02*
X112158277Y-169764781D01*
X111920182Y-168717162D02*
X111682087Y-169431447D01*
X111682087Y-169431447D02*
X112301134Y-169431447D01*
X112451199Y-122227104D02*
X112451199Y-121227104D01*
X112451199Y-121227104D02*
X112832151Y-121227104D01*
X112832151Y-121227104D02*
X112927389Y-121274723D01*
X112927389Y-121274723D02*
X112975008Y-121322342D01*
X112975008Y-121322342D02*
X113022627Y-121417580D01*
X113022627Y-121417580D02*
X113022627Y-121560437D01*
X113022627Y-121560437D02*
X112975008Y-121655675D01*
X112975008Y-121655675D02*
X112927389Y-121703294D01*
X112927389Y-121703294D02*
X112832151Y-121750913D01*
X112832151Y-121750913D02*
X112451199Y-121750913D01*
X113451199Y-122227104D02*
X113451199Y-121227104D01*
X113451199Y-121227104D02*
X113689294Y-121227104D01*
X113689294Y-121227104D02*
X113832151Y-121274723D01*
X113832151Y-121274723D02*
X113927389Y-121369961D01*
X113927389Y-121369961D02*
X113975008Y-121465199D01*
X113975008Y-121465199D02*
X114022627Y-121655675D01*
X114022627Y-121655675D02*
X114022627Y-121798532D01*
X114022627Y-121798532D02*
X113975008Y-121989008D01*
X113975008Y-121989008D02*
X113927389Y-122084246D01*
X113927389Y-122084246D02*
X113832151Y-122179485D01*
X113832151Y-122179485D02*
X113689294Y-122227104D01*
X113689294Y-122227104D02*
X113451199Y-122227104D01*
X114451199Y-122227104D02*
X114451199Y-121227104D01*
X114451199Y-121227104D02*
X114784532Y-121941389D01*
X114784532Y-121941389D02*
X115117865Y-121227104D01*
X115117865Y-121227104D02*
X115117865Y-122227104D01*
X115355961Y-122322342D02*
X116117865Y-122322342D01*
X116355961Y-122227104D02*
X116355961Y-121227104D01*
X116355961Y-121227104D02*
X116594056Y-121227104D01*
X116594056Y-121227104D02*
X116736913Y-121274723D01*
X116736913Y-121274723D02*
X116832151Y-121369961D01*
X116832151Y-121369961D02*
X116879770Y-121465199D01*
X116879770Y-121465199D02*
X116927389Y-121655675D01*
X116927389Y-121655675D02*
X116927389Y-121798532D01*
X116927389Y-121798532D02*
X116879770Y-121989008D01*
X116879770Y-121989008D02*
X116832151Y-122084246D01*
X116832151Y-122084246D02*
X116736913Y-122179485D01*
X116736913Y-122179485D02*
X116594056Y-122227104D01*
X116594056Y-122227104D02*
X116355961Y-122227104D01*
X117260723Y-121227104D02*
X117879770Y-121227104D01*
X117879770Y-121227104D02*
X117546437Y-121608056D01*
X117546437Y-121608056D02*
X117689294Y-121608056D01*
X117689294Y-121608056D02*
X117784532Y-121655675D01*
X117784532Y-121655675D02*
X117832151Y-121703294D01*
X117832151Y-121703294D02*
X117879770Y-121798532D01*
X117879770Y-121798532D02*
X117879770Y-122036627D01*
X117879770Y-122036627D02*
X117832151Y-122131865D01*
X117832151Y-122131865D02*
X117784532Y-122179485D01*
X117784532Y-122179485D02*
X117689294Y-122227104D01*
X117689294Y-122227104D02*
X117403580Y-122227104D01*
X117403580Y-122227104D02*
X117308342Y-122179485D01*
X117308342Y-122179485D02*
X117260723Y-122131865D01*
X119081809Y-185313143D02*
X119081809Y-184313143D01*
X119081809Y-184313143D02*
X119462761Y-184313143D01*
X119462761Y-184313143D02*
X119557999Y-184360762D01*
X119557999Y-184360762D02*
X119605618Y-184408381D01*
X119605618Y-184408381D02*
X119653237Y-184503619D01*
X119653237Y-184503619D02*
X119653237Y-184646476D01*
X119653237Y-184646476D02*
X119605618Y-184741714D01*
X119605618Y-184741714D02*
X119557999Y-184789333D01*
X119557999Y-184789333D02*
X119462761Y-184836952D01*
X119462761Y-184836952D02*
X119081809Y-184836952D01*
X120081809Y-185313143D02*
X120081809Y-184313143D01*
X120081809Y-184313143D02*
X120319904Y-184313143D01*
X120319904Y-184313143D02*
X120462761Y-184360762D01*
X120462761Y-184360762D02*
X120557999Y-184456000D01*
X120557999Y-184456000D02*
X120605618Y-184551238D01*
X120605618Y-184551238D02*
X120653237Y-184741714D01*
X120653237Y-184741714D02*
X120653237Y-184884571D01*
X120653237Y-184884571D02*
X120605618Y-185075047D01*
X120605618Y-185075047D02*
X120557999Y-185170285D01*
X120557999Y-185170285D02*
X120462761Y-185265524D01*
X120462761Y-185265524D02*
X120319904Y-185313143D01*
X120319904Y-185313143D02*
X120081809Y-185313143D01*
X121081809Y-185313143D02*
X121081809Y-184313143D01*
X121081809Y-184313143D02*
X121415142Y-185027428D01*
X121415142Y-185027428D02*
X121748475Y-184313143D01*
X121748475Y-184313143D02*
X121748475Y-185313143D01*
X121986571Y-185408381D02*
X122748475Y-185408381D01*
X122986571Y-185313143D02*
X122986571Y-184313143D01*
X122986571Y-184313143D02*
X123224666Y-184313143D01*
X123224666Y-184313143D02*
X123367523Y-184360762D01*
X123367523Y-184360762D02*
X123462761Y-184456000D01*
X123462761Y-184456000D02*
X123510380Y-184551238D01*
X123510380Y-184551238D02*
X123557999Y-184741714D01*
X123557999Y-184741714D02*
X123557999Y-184884571D01*
X123557999Y-184884571D02*
X123510380Y-185075047D01*
X123510380Y-185075047D02*
X123462761Y-185170285D01*
X123462761Y-185170285D02*
X123367523Y-185265524D01*
X123367523Y-185265524D02*
X123224666Y-185313143D01*
X123224666Y-185313143D02*
X122986571Y-185313143D01*
X124462761Y-184313143D02*
X123986571Y-184313143D01*
X123986571Y-184313143D02*
X123938952Y-184789333D01*
X123938952Y-184789333D02*
X123986571Y-184741714D01*
X123986571Y-184741714D02*
X124081809Y-184694095D01*
X124081809Y-184694095D02*
X124319904Y-184694095D01*
X124319904Y-184694095D02*
X124415142Y-184741714D01*
X124415142Y-184741714D02*
X124462761Y-184789333D01*
X124462761Y-184789333D02*
X124510380Y-184884571D01*
X124510380Y-184884571D02*
X124510380Y-185122666D01*
X124510380Y-185122666D02*
X124462761Y-185217904D01*
X124462761Y-185217904D02*
X124415142Y-185265524D01*
X124415142Y-185265524D02*
X124319904Y-185313143D01*
X124319904Y-185313143D02*
X124081809Y-185313143D01*
X124081809Y-185313143D02*
X123986571Y-185265524D01*
X123986571Y-185265524D02*
X123938952Y-185217904D01*
X142621004Y-105846533D02*
X142621004Y-104846533D01*
X142621004Y-104846533D02*
X143001956Y-104846533D01*
X143001956Y-104846533D02*
X143097194Y-104894152D01*
X143097194Y-104894152D02*
X143144813Y-104941771D01*
X143144813Y-104941771D02*
X143192432Y-105037009D01*
X143192432Y-105037009D02*
X143192432Y-105179866D01*
X143192432Y-105179866D02*
X143144813Y-105275104D01*
X143144813Y-105275104D02*
X143097194Y-105322723D01*
X143097194Y-105322723D02*
X143001956Y-105370342D01*
X143001956Y-105370342D02*
X142621004Y-105370342D01*
X143621004Y-105846533D02*
X143621004Y-104846533D01*
X143621004Y-104846533D02*
X143859099Y-104846533D01*
X143859099Y-104846533D02*
X144001956Y-104894152D01*
X144001956Y-104894152D02*
X144097194Y-104989390D01*
X144097194Y-104989390D02*
X144144813Y-105084628D01*
X144144813Y-105084628D02*
X144192432Y-105275104D01*
X144192432Y-105275104D02*
X144192432Y-105417961D01*
X144192432Y-105417961D02*
X144144813Y-105608437D01*
X144144813Y-105608437D02*
X144097194Y-105703675D01*
X144097194Y-105703675D02*
X144001956Y-105798914D01*
X144001956Y-105798914D02*
X143859099Y-105846533D01*
X143859099Y-105846533D02*
X143621004Y-105846533D01*
X144621004Y-105846533D02*
X144621004Y-104846533D01*
X144621004Y-104846533D02*
X144954337Y-105560818D01*
X144954337Y-105560818D02*
X145287670Y-104846533D01*
X145287670Y-104846533D02*
X145287670Y-105846533D01*
X145525766Y-105941771D02*
X146287670Y-105941771D01*
X146525766Y-105846533D02*
X146525766Y-104846533D01*
X146525766Y-104846533D02*
X146763861Y-104846533D01*
X146763861Y-104846533D02*
X146906718Y-104894152D01*
X146906718Y-104894152D02*
X147001956Y-104989390D01*
X147001956Y-104989390D02*
X147049575Y-105084628D01*
X147049575Y-105084628D02*
X147097194Y-105275104D01*
X147097194Y-105275104D02*
X147097194Y-105417961D01*
X147097194Y-105417961D02*
X147049575Y-105608437D01*
X147049575Y-105608437D02*
X147001956Y-105703675D01*
X147001956Y-105703675D02*
X146906718Y-105798914D01*
X146906718Y-105798914D02*
X146763861Y-105846533D01*
X146763861Y-105846533D02*
X146525766Y-105846533D01*
X147478147Y-104941771D02*
X147525766Y-104894152D01*
X147525766Y-104894152D02*
X147621004Y-104846533D01*
X147621004Y-104846533D02*
X147859099Y-104846533D01*
X147859099Y-104846533D02*
X147954337Y-104894152D01*
X147954337Y-104894152D02*
X148001956Y-104941771D01*
X148001956Y-104941771D02*
X148049575Y-105037009D01*
X148049575Y-105037009D02*
X148049575Y-105132247D01*
X148049575Y-105132247D02*
X148001956Y-105275104D01*
X148001956Y-105275104D02*
X147430528Y-105846533D01*
X147430528Y-105846533D02*
X148049575Y-105846533D01*
X145675928Y-168966908D02*
X146437833Y-168966908D01*
X146056880Y-169347861D02*
X146056880Y-168585956D01*
X147390213Y-168347861D02*
X146914023Y-168347861D01*
X146914023Y-168347861D02*
X146866404Y-168824051D01*
X146866404Y-168824051D02*
X146914023Y-168776432D01*
X146914023Y-168776432D02*
X147009261Y-168728813D01*
X147009261Y-168728813D02*
X147247356Y-168728813D01*
X147247356Y-168728813D02*
X147342594Y-168776432D01*
X147342594Y-168776432D02*
X147390213Y-168824051D01*
X147390213Y-168824051D02*
X147437832Y-168919289D01*
X147437832Y-168919289D02*
X147437832Y-169157384D01*
X147437832Y-169157384D02*
X147390213Y-169252622D01*
X147390213Y-169252622D02*
X147342594Y-169300242D01*
X147342594Y-169300242D02*
X147247356Y-169347861D01*
X147247356Y-169347861D02*
X147009261Y-169347861D01*
X147009261Y-169347861D02*
X146914023Y-169300242D01*
X146914023Y-169300242D02*
X146866404Y-169252622D01*
X147723547Y-168347861D02*
X148056880Y-169347861D01*
X148056880Y-169347861D02*
X148390213Y-168347861D01*
X153649092Y-123036453D02*
X153553854Y-122988834D01*
X153553854Y-122988834D02*
X153410997Y-122988834D01*
X153410997Y-122988834D02*
X153268140Y-123036453D01*
X153268140Y-123036453D02*
X153172902Y-123131691D01*
X153172902Y-123131691D02*
X153125283Y-123226929D01*
X153125283Y-123226929D02*
X153077664Y-123417405D01*
X153077664Y-123417405D02*
X153077664Y-123560262D01*
X153077664Y-123560262D02*
X153125283Y-123750738D01*
X153125283Y-123750738D02*
X153172902Y-123845976D01*
X153172902Y-123845976D02*
X153268140Y-123941215D01*
X153268140Y-123941215D02*
X153410997Y-123988834D01*
X153410997Y-123988834D02*
X153506235Y-123988834D01*
X153506235Y-123988834D02*
X153649092Y-123941215D01*
X153649092Y-123941215D02*
X153696711Y-123893595D01*
X153696711Y-123893595D02*
X153696711Y-123560262D01*
X153696711Y-123560262D02*
X153506235Y-123560262D01*
X154125283Y-123988834D02*
X154125283Y-122988834D01*
X154125283Y-122988834D02*
X154696711Y-123988834D01*
X154696711Y-123988834D02*
X154696711Y-122988834D01*
X155172902Y-123988834D02*
X155172902Y-122988834D01*
X155172902Y-122988834D02*
X155410997Y-122988834D01*
X155410997Y-122988834D02*
X155553854Y-123036453D01*
X155553854Y-123036453D02*
X155649092Y-123131691D01*
X155649092Y-123131691D02*
X155696711Y-123226929D01*
X155696711Y-123226929D02*
X155744330Y-123417405D01*
X155744330Y-123417405D02*
X155744330Y-123560262D01*
X155744330Y-123560262D02*
X155696711Y-123750738D01*
X155696711Y-123750738D02*
X155649092Y-123845976D01*
X155649092Y-123845976D02*
X155553854Y-123941215D01*
X155553854Y-123941215D02*
X155410997Y-123988834D01*
X155410997Y-123988834D02*
X155172902Y-123988834D01*
X152495345Y-174882218D02*
X152495345Y-173882218D01*
X152495345Y-174358408D02*
X153066773Y-174358408D01*
X153066773Y-174882218D02*
X153066773Y-173882218D01*
X153733440Y-173882218D02*
X153923916Y-173882218D01*
X153923916Y-173882218D02*
X154019154Y-173929837D01*
X154019154Y-173929837D02*
X154114392Y-174025075D01*
X154114392Y-174025075D02*
X154162011Y-174215551D01*
X154162011Y-174215551D02*
X154162011Y-174548884D01*
X154162011Y-174548884D02*
X154114392Y-174739360D01*
X154114392Y-174739360D02*
X154019154Y-174834599D01*
X154019154Y-174834599D02*
X153923916Y-174882218D01*
X153923916Y-174882218D02*
X153733440Y-174882218D01*
X153733440Y-174882218D02*
X153638202Y-174834599D01*
X153638202Y-174834599D02*
X153542964Y-174739360D01*
X153542964Y-174739360D02*
X153495345Y-174548884D01*
X153495345Y-174548884D02*
X153495345Y-174215551D01*
X153495345Y-174215551D02*
X153542964Y-174025075D01*
X153542964Y-174025075D02*
X153638202Y-173929837D01*
X153638202Y-173929837D02*
X153733440Y-173882218D01*
X154542964Y-174834599D02*
X154685821Y-174882218D01*
X154685821Y-174882218D02*
X154923916Y-174882218D01*
X154923916Y-174882218D02*
X155019154Y-174834599D01*
X155019154Y-174834599D02*
X155066773Y-174786979D01*
X155066773Y-174786979D02*
X155114392Y-174691741D01*
X155114392Y-174691741D02*
X155114392Y-174596503D01*
X155114392Y-174596503D02*
X155066773Y-174501265D01*
X155066773Y-174501265D02*
X155019154Y-174453646D01*
X155019154Y-174453646D02*
X154923916Y-174406027D01*
X154923916Y-174406027D02*
X154733440Y-174358408D01*
X154733440Y-174358408D02*
X154638202Y-174310789D01*
X154638202Y-174310789D02*
X154590583Y-174263170D01*
X154590583Y-174263170D02*
X154542964Y-174167932D01*
X154542964Y-174167932D02*
X154542964Y-174072694D01*
X154542964Y-174072694D02*
X154590583Y-173977456D01*
X154590583Y-173977456D02*
X154638202Y-173929837D01*
X154638202Y-173929837D02*
X154733440Y-173882218D01*
X154733440Y-173882218D02*
X154971535Y-173882218D01*
X154971535Y-173882218D02*
X155114392Y-173929837D01*
X155400107Y-173882218D02*
X155971535Y-173882218D01*
X155685821Y-174882218D02*
X155685821Y-173882218D01*
X156066774Y-174977456D02*
X156828678Y-174977456D01*
X157019155Y-174834599D02*
X157162012Y-174882218D01*
X157162012Y-174882218D02*
X157400107Y-174882218D01*
X157400107Y-174882218D02*
X157495345Y-174834599D01*
X157495345Y-174834599D02*
X157542964Y-174786979D01*
X157542964Y-174786979D02*
X157590583Y-174691741D01*
X157590583Y-174691741D02*
X157590583Y-174596503D01*
X157590583Y-174596503D02*
X157542964Y-174501265D01*
X157542964Y-174501265D02*
X157495345Y-174453646D01*
X157495345Y-174453646D02*
X157400107Y-174406027D01*
X157400107Y-174406027D02*
X157209631Y-174358408D01*
X157209631Y-174358408D02*
X157114393Y-174310789D01*
X157114393Y-174310789D02*
X157066774Y-174263170D01*
X157066774Y-174263170D02*
X157019155Y-174167932D01*
X157019155Y-174167932D02*
X157019155Y-174072694D01*
X157019155Y-174072694D02*
X157066774Y-173977456D01*
X157066774Y-173977456D02*
X157114393Y-173929837D01*
X157114393Y-173929837D02*
X157209631Y-173882218D01*
X157209631Y-173882218D02*
X157447726Y-173882218D01*
X157447726Y-173882218D02*
X157590583Y-173929837D01*
X157876298Y-173882218D02*
X158447726Y-173882218D01*
X158162012Y-174882218D02*
X158162012Y-173882218D01*
X158733441Y-174596503D02*
X159209631Y-174596503D01*
X158638203Y-174882218D02*
X158971536Y-173882218D01*
X158971536Y-173882218D02*
X159304869Y-174882218D01*
X159495346Y-173882218D02*
X160066774Y-173882218D01*
X159781060Y-174882218D02*
X159781060Y-173882218D01*
X160400108Y-173882218D02*
X160400108Y-174691741D01*
X160400108Y-174691741D02*
X160447727Y-174786979D01*
X160447727Y-174786979D02*
X160495346Y-174834599D01*
X160495346Y-174834599D02*
X160590584Y-174882218D01*
X160590584Y-174882218D02*
X160781060Y-174882218D01*
X160781060Y-174882218D02*
X160876298Y-174834599D01*
X160876298Y-174834599D02*
X160923917Y-174786979D01*
X160923917Y-174786979D02*
X160971536Y-174691741D01*
X160971536Y-174691741D02*
X160971536Y-173882218D01*
X161400108Y-174834599D02*
X161542965Y-174882218D01*
X161542965Y-174882218D02*
X161781060Y-174882218D01*
X161781060Y-174882218D02*
X161876298Y-174834599D01*
X161876298Y-174834599D02*
X161923917Y-174786979D01*
X161923917Y-174786979D02*
X161971536Y-174691741D01*
X161971536Y-174691741D02*
X161971536Y-174596503D01*
X161971536Y-174596503D02*
X161923917Y-174501265D01*
X161923917Y-174501265D02*
X161876298Y-174453646D01*
X161876298Y-174453646D02*
X161781060Y-174406027D01*
X161781060Y-174406027D02*
X161590584Y-174358408D01*
X161590584Y-174358408D02*
X161495346Y-174310789D01*
X161495346Y-174310789D02*
X161447727Y-174263170D01*
X161447727Y-174263170D02*
X161400108Y-174167932D01*
X161400108Y-174167932D02*
X161400108Y-174072694D01*
X161400108Y-174072694D02*
X161447727Y-173977456D01*
X161447727Y-173977456D02*
X161495346Y-173929837D01*
X161495346Y-173929837D02*
X161590584Y-173882218D01*
X161590584Y-173882218D02*
X161828679Y-173882218D01*
X161828679Y-173882218D02*
X161971536Y-173929837D01*
X156996104Y-125120123D02*
X156900866Y-125072504D01*
X156900866Y-125072504D02*
X156758009Y-125072504D01*
X156758009Y-125072504D02*
X156615152Y-125120123D01*
X156615152Y-125120123D02*
X156519914Y-125215361D01*
X156519914Y-125215361D02*
X156472295Y-125310599D01*
X156472295Y-125310599D02*
X156424676Y-125501075D01*
X156424676Y-125501075D02*
X156424676Y-125643932D01*
X156424676Y-125643932D02*
X156472295Y-125834408D01*
X156472295Y-125834408D02*
X156519914Y-125929646D01*
X156519914Y-125929646D02*
X156615152Y-126024885D01*
X156615152Y-126024885D02*
X156758009Y-126072504D01*
X156758009Y-126072504D02*
X156853247Y-126072504D01*
X156853247Y-126072504D02*
X156996104Y-126024885D01*
X156996104Y-126024885D02*
X157043723Y-125977265D01*
X157043723Y-125977265D02*
X157043723Y-125643932D01*
X157043723Y-125643932D02*
X156853247Y-125643932D01*
X157472295Y-126072504D02*
X157472295Y-125072504D01*
X157472295Y-125072504D02*
X158043723Y-126072504D01*
X158043723Y-126072504D02*
X158043723Y-125072504D01*
X158519914Y-126072504D02*
X158519914Y-125072504D01*
X158519914Y-125072504D02*
X158758009Y-125072504D01*
X158758009Y-125072504D02*
X158900866Y-125120123D01*
X158900866Y-125120123D02*
X158996104Y-125215361D01*
X158996104Y-125215361D02*
X159043723Y-125310599D01*
X159043723Y-125310599D02*
X159091342Y-125501075D01*
X159091342Y-125501075D02*
X159091342Y-125643932D01*
X159091342Y-125643932D02*
X159043723Y-125834408D01*
X159043723Y-125834408D02*
X158996104Y-125929646D01*
X158996104Y-125929646D02*
X158900866Y-126024885D01*
X158900866Y-126024885D02*
X158758009Y-126072504D01*
X158758009Y-126072504D02*
X158519914Y-126072504D01*
X162422020Y-169173672D02*
X163183925Y-169173672D01*
X162802972Y-169554625D02*
X162802972Y-168792720D01*
X163564877Y-168554625D02*
X164183924Y-168554625D01*
X164183924Y-168554625D02*
X163850591Y-168935577D01*
X163850591Y-168935577D02*
X163993448Y-168935577D01*
X163993448Y-168935577D02*
X164088686Y-168983196D01*
X164088686Y-168983196D02*
X164136305Y-169030815D01*
X164136305Y-169030815D02*
X164183924Y-169126053D01*
X164183924Y-169126053D02*
X164183924Y-169364148D01*
X164183924Y-169364148D02*
X164136305Y-169459386D01*
X164136305Y-169459386D02*
X164088686Y-169507006D01*
X164088686Y-169507006D02*
X163993448Y-169554625D01*
X163993448Y-169554625D02*
X163707734Y-169554625D01*
X163707734Y-169554625D02*
X163612496Y-169507006D01*
X163612496Y-169507006D02*
X163564877Y-169459386D01*
X164469639Y-168554625D02*
X164802972Y-169554625D01*
X164802972Y-169554625D02*
X165136305Y-168554625D01*
X165374401Y-168554625D02*
X165993448Y-168554625D01*
X165993448Y-168554625D02*
X165660115Y-168935577D01*
X165660115Y-168935577D02*
X165802972Y-168935577D01*
X165802972Y-168935577D02*
X165898210Y-168983196D01*
X165898210Y-168983196D02*
X165945829Y-169030815D01*
X165945829Y-169030815D02*
X165993448Y-169126053D01*
X165993448Y-169126053D02*
X165993448Y-169364148D01*
X165993448Y-169364148D02*
X165945829Y-169459386D01*
X165945829Y-169459386D02*
X165898210Y-169507006D01*
X165898210Y-169507006D02*
X165802972Y-169554625D01*
X165802972Y-169554625D02*
X165517258Y-169554625D01*
X165517258Y-169554625D02*
X165422020Y-169507006D01*
X165422020Y-169507006D02*
X165374401Y-169459386D01*
X166183925Y-169649863D02*
X166945829Y-169649863D01*
X167755353Y-169459386D02*
X167707734Y-169507006D01*
X167707734Y-169507006D02*
X167564877Y-169554625D01*
X167564877Y-169554625D02*
X167469639Y-169554625D01*
X167469639Y-169554625D02*
X167326782Y-169507006D01*
X167326782Y-169507006D02*
X167231544Y-169411767D01*
X167231544Y-169411767D02*
X167183925Y-169316529D01*
X167183925Y-169316529D02*
X167136306Y-169126053D01*
X167136306Y-169126053D02*
X167136306Y-168983196D01*
X167136306Y-168983196D02*
X167183925Y-168792720D01*
X167183925Y-168792720D02*
X167231544Y-168697482D01*
X167231544Y-168697482D02*
X167326782Y-168602244D01*
X167326782Y-168602244D02*
X167469639Y-168554625D01*
X167469639Y-168554625D02*
X167564877Y-168554625D01*
X167564877Y-168554625D02*
X167707734Y-168602244D01*
X167707734Y-168602244D02*
X167755353Y-168649863D01*
X168660115Y-169554625D02*
X168183925Y-169554625D01*
X168183925Y-169554625D02*
X168183925Y-168554625D01*
X168993449Y-169554625D02*
X168993449Y-168554625D01*
X169564877Y-169554625D02*
X169136306Y-168983196D01*
X169564877Y-168554625D02*
X168993449Y-169126053D01*
X168711822Y-189873310D02*
X168711822Y-188873310D01*
X168711822Y-188873310D02*
X169092774Y-188873310D01*
X169092774Y-188873310D02*
X169188012Y-188920929D01*
X169188012Y-188920929D02*
X169235631Y-188968548D01*
X169235631Y-188968548D02*
X169283250Y-189063786D01*
X169283250Y-189063786D02*
X169283250Y-189206643D01*
X169283250Y-189206643D02*
X169235631Y-189301881D01*
X169235631Y-189301881D02*
X169188012Y-189349500D01*
X169188012Y-189349500D02*
X169092774Y-189397119D01*
X169092774Y-189397119D02*
X168711822Y-189397119D01*
X169711822Y-189873310D02*
X169711822Y-188873310D01*
X169711822Y-188873310D02*
X169949917Y-188873310D01*
X169949917Y-188873310D02*
X170092774Y-188920929D01*
X170092774Y-188920929D02*
X170188012Y-189016167D01*
X170188012Y-189016167D02*
X170235631Y-189111405D01*
X170235631Y-189111405D02*
X170283250Y-189301881D01*
X170283250Y-189301881D02*
X170283250Y-189444738D01*
X170283250Y-189444738D02*
X170235631Y-189635214D01*
X170235631Y-189635214D02*
X170188012Y-189730452D01*
X170188012Y-189730452D02*
X170092774Y-189825691D01*
X170092774Y-189825691D02*
X169949917Y-189873310D01*
X169949917Y-189873310D02*
X169711822Y-189873310D01*
X170711822Y-189873310D02*
X170711822Y-188873310D01*
X170711822Y-188873310D02*
X171045155Y-189587595D01*
X171045155Y-189587595D02*
X171378488Y-188873310D01*
X171378488Y-188873310D02*
X171378488Y-189873310D01*
X171616584Y-189968548D02*
X172378488Y-189968548D01*
X172616584Y-189873310D02*
X172616584Y-188873310D01*
X172616584Y-188873310D02*
X172854679Y-188873310D01*
X172854679Y-188873310D02*
X172997536Y-188920929D01*
X172997536Y-188920929D02*
X173092774Y-189016167D01*
X173092774Y-189016167D02*
X173140393Y-189111405D01*
X173140393Y-189111405D02*
X173188012Y-189301881D01*
X173188012Y-189301881D02*
X173188012Y-189444738D01*
X173188012Y-189444738D02*
X173140393Y-189635214D01*
X173140393Y-189635214D02*
X173092774Y-189730452D01*
X173092774Y-189730452D02*
X172997536Y-189825691D01*
X172997536Y-189825691D02*
X172854679Y-189873310D01*
X172854679Y-189873310D02*
X172616584Y-189873310D01*
X174045155Y-188873310D02*
X173854679Y-188873310D01*
X173854679Y-188873310D02*
X173759441Y-188920929D01*
X173759441Y-188920929D02*
X173711822Y-188968548D01*
X173711822Y-188968548D02*
X173616584Y-189111405D01*
X173616584Y-189111405D02*
X173568965Y-189301881D01*
X173568965Y-189301881D02*
X173568965Y-189682833D01*
X173568965Y-189682833D02*
X173616584Y-189778071D01*
X173616584Y-189778071D02*
X173664203Y-189825691D01*
X173664203Y-189825691D02*
X173759441Y-189873310D01*
X173759441Y-189873310D02*
X173949917Y-189873310D01*
X173949917Y-189873310D02*
X174045155Y-189825691D01*
X174045155Y-189825691D02*
X174092774Y-189778071D01*
X174092774Y-189778071D02*
X174140393Y-189682833D01*
X174140393Y-189682833D02*
X174140393Y-189444738D01*
X174140393Y-189444738D02*
X174092774Y-189349500D01*
X174092774Y-189349500D02*
X174045155Y-189301881D01*
X174045155Y-189301881D02*
X173949917Y-189254262D01*
X173949917Y-189254262D02*
X173759441Y-189254262D01*
X173759441Y-189254262D02*
X173664203Y-189301881D01*
X173664203Y-189301881D02*
X173616584Y-189349500D01*
X173616584Y-189349500D02*
X173568965Y-189444738D01*
X172792142Y-128012684D02*
X173554047Y-128012684D01*
X173173094Y-128393637D02*
X173173094Y-127631732D01*
X173934999Y-127393637D02*
X174554046Y-127393637D01*
X174554046Y-127393637D02*
X174220713Y-127774589D01*
X174220713Y-127774589D02*
X174363570Y-127774589D01*
X174363570Y-127774589D02*
X174458808Y-127822208D01*
X174458808Y-127822208D02*
X174506427Y-127869827D01*
X174506427Y-127869827D02*
X174554046Y-127965065D01*
X174554046Y-127965065D02*
X174554046Y-128203160D01*
X174554046Y-128203160D02*
X174506427Y-128298398D01*
X174506427Y-128298398D02*
X174458808Y-128346018D01*
X174458808Y-128346018D02*
X174363570Y-128393637D01*
X174363570Y-128393637D02*
X174077856Y-128393637D01*
X174077856Y-128393637D02*
X173982618Y-128346018D01*
X173982618Y-128346018D02*
X173934999Y-128298398D01*
X174839761Y-127393637D02*
X175173094Y-128393637D01*
X175173094Y-128393637D02*
X175506427Y-127393637D01*
X175744523Y-127393637D02*
X176363570Y-127393637D01*
X176363570Y-127393637D02*
X176030237Y-127774589D01*
X176030237Y-127774589D02*
X176173094Y-127774589D01*
X176173094Y-127774589D02*
X176268332Y-127822208D01*
X176268332Y-127822208D02*
X176315951Y-127869827D01*
X176315951Y-127869827D02*
X176363570Y-127965065D01*
X176363570Y-127965065D02*
X176363570Y-128203160D01*
X176363570Y-128203160D02*
X176315951Y-128298398D01*
X176315951Y-128298398D02*
X176268332Y-128346018D01*
X176268332Y-128346018D02*
X176173094Y-128393637D01*
X176173094Y-128393637D02*
X175887380Y-128393637D01*
X175887380Y-128393637D02*
X175792142Y-128346018D01*
X175792142Y-128346018D02*
X175744523Y-128298398D01*
X176744523Y-128107922D02*
X177220713Y-128107922D01*
X176649285Y-128393637D02*
X176982618Y-127393637D01*
X176982618Y-127393637D02*
X177315951Y-128393637D01*
X175537238Y-115596494D02*
X175537238Y-114596494D01*
X175537238Y-114596494D02*
X175918190Y-114596494D01*
X175918190Y-114596494D02*
X176013428Y-114644113D01*
X176013428Y-114644113D02*
X176061047Y-114691732D01*
X176061047Y-114691732D02*
X176108666Y-114786970D01*
X176108666Y-114786970D02*
X176108666Y-114929827D01*
X176108666Y-114929827D02*
X176061047Y-115025065D01*
X176061047Y-115025065D02*
X176013428Y-115072684D01*
X176013428Y-115072684D02*
X175918190Y-115120303D01*
X175918190Y-115120303D02*
X175537238Y-115120303D01*
X176537238Y-115596494D02*
X176537238Y-114596494D01*
X176537238Y-114596494D02*
X176775333Y-114596494D01*
X176775333Y-114596494D02*
X176918190Y-114644113D01*
X176918190Y-114644113D02*
X177013428Y-114739351D01*
X177013428Y-114739351D02*
X177061047Y-114834589D01*
X177061047Y-114834589D02*
X177108666Y-115025065D01*
X177108666Y-115025065D02*
X177108666Y-115167922D01*
X177108666Y-115167922D02*
X177061047Y-115358398D01*
X177061047Y-115358398D02*
X177013428Y-115453636D01*
X177013428Y-115453636D02*
X176918190Y-115548875D01*
X176918190Y-115548875D02*
X176775333Y-115596494D01*
X176775333Y-115596494D02*
X176537238Y-115596494D01*
X177537238Y-115596494D02*
X177537238Y-114596494D01*
X177537238Y-114596494D02*
X177870571Y-115310779D01*
X177870571Y-115310779D02*
X178203904Y-114596494D01*
X178203904Y-114596494D02*
X178203904Y-115596494D01*
X178442000Y-115691732D02*
X179203904Y-115691732D01*
X179442000Y-115596494D02*
X179442000Y-114596494D01*
X179442000Y-114596494D02*
X179680095Y-114596494D01*
X179680095Y-114596494D02*
X179822952Y-114644113D01*
X179822952Y-114644113D02*
X179918190Y-114739351D01*
X179918190Y-114739351D02*
X179965809Y-114834589D01*
X179965809Y-114834589D02*
X180013428Y-115025065D01*
X180013428Y-115025065D02*
X180013428Y-115167922D01*
X180013428Y-115167922D02*
X179965809Y-115358398D01*
X179965809Y-115358398D02*
X179918190Y-115453636D01*
X179918190Y-115453636D02*
X179822952Y-115548875D01*
X179822952Y-115548875D02*
X179680095Y-115596494D01*
X179680095Y-115596494D02*
X179442000Y-115596494D01*
X180965809Y-115596494D02*
X180394381Y-115596494D01*
X180680095Y-115596494D02*
X180680095Y-114596494D01*
X180680095Y-114596494D02*
X180584857Y-114739351D01*
X180584857Y-114739351D02*
X180489619Y-114834589D01*
X180489619Y-114834589D02*
X180394381Y-114882208D01*
X182167848Y-178682533D02*
X182167848Y-177682533D01*
X182167848Y-177682533D02*
X182548800Y-177682533D01*
X182548800Y-177682533D02*
X182644038Y-177730152D01*
X182644038Y-177730152D02*
X182691657Y-177777771D01*
X182691657Y-177777771D02*
X182739276Y-177873009D01*
X182739276Y-177873009D02*
X182739276Y-178015866D01*
X182739276Y-178015866D02*
X182691657Y-178111104D01*
X182691657Y-178111104D02*
X182644038Y-178158723D01*
X182644038Y-178158723D02*
X182548800Y-178206342D01*
X182548800Y-178206342D02*
X182167848Y-178206342D01*
X183167848Y-178682533D02*
X183167848Y-177682533D01*
X183167848Y-177682533D02*
X183405943Y-177682533D01*
X183405943Y-177682533D02*
X183548800Y-177730152D01*
X183548800Y-177730152D02*
X183644038Y-177825390D01*
X183644038Y-177825390D02*
X183691657Y-177920628D01*
X183691657Y-177920628D02*
X183739276Y-178111104D01*
X183739276Y-178111104D02*
X183739276Y-178253961D01*
X183739276Y-178253961D02*
X183691657Y-178444437D01*
X183691657Y-178444437D02*
X183644038Y-178539675D01*
X183644038Y-178539675D02*
X183548800Y-178634914D01*
X183548800Y-178634914D02*
X183405943Y-178682533D01*
X183405943Y-178682533D02*
X183167848Y-178682533D01*
X184167848Y-178682533D02*
X184167848Y-177682533D01*
X184167848Y-177682533D02*
X184501181Y-178396818D01*
X184501181Y-178396818D02*
X184834514Y-177682533D01*
X184834514Y-177682533D02*
X184834514Y-178682533D01*
X185072610Y-178777771D02*
X185834514Y-178777771D01*
X186072610Y-178682533D02*
X186072610Y-177682533D01*
X186072610Y-177682533D02*
X186310705Y-177682533D01*
X186310705Y-177682533D02*
X186453562Y-177730152D01*
X186453562Y-177730152D02*
X186548800Y-177825390D01*
X186548800Y-177825390D02*
X186596419Y-177920628D01*
X186596419Y-177920628D02*
X186644038Y-178111104D01*
X186644038Y-178111104D02*
X186644038Y-178253961D01*
X186644038Y-178253961D02*
X186596419Y-178444437D01*
X186596419Y-178444437D02*
X186548800Y-178539675D01*
X186548800Y-178539675D02*
X186453562Y-178634914D01*
X186453562Y-178634914D02*
X186310705Y-178682533D01*
X186310705Y-178682533D02*
X186072610Y-178682533D01*
X186977372Y-177682533D02*
X187644038Y-177682533D01*
X187644038Y-177682533D02*
X187215467Y-178682533D01*
X187794103Y-131144856D02*
X187794103Y-130144856D01*
X187794103Y-130144856D02*
X188175055Y-130144856D01*
X188175055Y-130144856D02*
X188270293Y-130192475D01*
X188270293Y-130192475D02*
X188317912Y-130240094D01*
X188317912Y-130240094D02*
X188365531Y-130335332D01*
X188365531Y-130335332D02*
X188365531Y-130478189D01*
X188365531Y-130478189D02*
X188317912Y-130573427D01*
X188317912Y-130573427D02*
X188270293Y-130621046D01*
X188270293Y-130621046D02*
X188175055Y-130668665D01*
X188175055Y-130668665D02*
X187794103Y-130668665D01*
X188794103Y-131144856D02*
X188794103Y-130144856D01*
X188794103Y-130144856D02*
X189032198Y-130144856D01*
X189032198Y-130144856D02*
X189175055Y-130192475D01*
X189175055Y-130192475D02*
X189270293Y-130287713D01*
X189270293Y-130287713D02*
X189317912Y-130382951D01*
X189317912Y-130382951D02*
X189365531Y-130573427D01*
X189365531Y-130573427D02*
X189365531Y-130716284D01*
X189365531Y-130716284D02*
X189317912Y-130906760D01*
X189317912Y-130906760D02*
X189270293Y-131001998D01*
X189270293Y-131001998D02*
X189175055Y-131097237D01*
X189175055Y-131097237D02*
X189032198Y-131144856D01*
X189032198Y-131144856D02*
X188794103Y-131144856D01*
X189794103Y-131144856D02*
X189794103Y-130144856D01*
X189794103Y-130144856D02*
X190127436Y-130859141D01*
X190127436Y-130859141D02*
X190460769Y-130144856D01*
X190460769Y-130144856D02*
X190460769Y-131144856D01*
X190698865Y-131240094D02*
X191460769Y-131240094D01*
X191698865Y-131144856D02*
X191698865Y-130144856D01*
X191698865Y-130144856D02*
X191936960Y-130144856D01*
X191936960Y-130144856D02*
X192079817Y-130192475D01*
X192079817Y-130192475D02*
X192175055Y-130287713D01*
X192175055Y-130287713D02*
X192222674Y-130382951D01*
X192222674Y-130382951D02*
X192270293Y-130573427D01*
X192270293Y-130573427D02*
X192270293Y-130716284D01*
X192270293Y-130716284D02*
X192222674Y-130906760D01*
X192222674Y-130906760D02*
X192175055Y-131001998D01*
X192175055Y-131001998D02*
X192079817Y-131097237D01*
X192079817Y-131097237D02*
X191936960Y-131144856D01*
X191936960Y-131144856D02*
X191698865Y-131144856D01*
X192889341Y-130144856D02*
X192984579Y-130144856D01*
X192984579Y-130144856D02*
X193079817Y-130192475D01*
X193079817Y-130192475D02*
X193127436Y-130240094D01*
X193127436Y-130240094D02*
X193175055Y-130335332D01*
X193175055Y-130335332D02*
X193222674Y-130525808D01*
X193222674Y-130525808D02*
X193222674Y-130763903D01*
X193222674Y-130763903D02*
X193175055Y-130954379D01*
X193175055Y-130954379D02*
X193127436Y-131049617D01*
X193127436Y-131049617D02*
X193079817Y-131097237D01*
X193079817Y-131097237D02*
X192984579Y-131144856D01*
X192984579Y-131144856D02*
X192889341Y-131144856D01*
X192889341Y-131144856D02*
X192794103Y-131097237D01*
X192794103Y-131097237D02*
X192746484Y-131049617D01*
X192746484Y-131049617D02*
X192698865Y-130954379D01*
X192698865Y-130954379D02*
X192651246Y-130763903D01*
X192651246Y-130763903D02*
X192651246Y-130525808D01*
X192651246Y-130525808D02*
X192698865Y-130335332D01*
X192698865Y-130335332D02*
X192746484Y-130240094D01*
X192746484Y-130240094D02*
X192794103Y-130192475D01*
X192794103Y-130192475D02*
X192889341Y-130144856D01*
X91440476Y-150396319D02*
X91388095Y-150448700D01*
X91388095Y-150448700D02*
X91230952Y-150501080D01*
X91230952Y-150501080D02*
X91126190Y-150501080D01*
X91126190Y-150501080D02*
X90969047Y-150448700D01*
X90969047Y-150448700D02*
X90864285Y-150343938D01*
X90864285Y-150343938D02*
X90811904Y-150239176D01*
X90811904Y-150239176D02*
X90759523Y-150029652D01*
X90759523Y-150029652D02*
X90759523Y-149872509D01*
X90759523Y-149872509D02*
X90811904Y-149662985D01*
X90811904Y-149662985D02*
X90864285Y-149558223D01*
X90864285Y-149558223D02*
X90969047Y-149453461D01*
X90969047Y-149453461D02*
X91126190Y-149401080D01*
X91126190Y-149401080D02*
X91230952Y-149401080D01*
X91230952Y-149401080D02*
X91388095Y-149453461D01*
X91388095Y-149453461D02*
X91440476Y-149505842D01*
X91911904Y-150501080D02*
X91911904Y-149401080D01*
X91911904Y-149924890D02*
X92540476Y-149924890D01*
X92540476Y-150501080D02*
X92540476Y-149401080D01*
X93221428Y-149872509D02*
X93116666Y-149820128D01*
X93116666Y-149820128D02*
X93064285Y-149767747D01*
X93064285Y-149767747D02*
X93011904Y-149662985D01*
X93011904Y-149662985D02*
X93011904Y-149610604D01*
X93011904Y-149610604D02*
X93064285Y-149505842D01*
X93064285Y-149505842D02*
X93116666Y-149453461D01*
X93116666Y-149453461D02*
X93221428Y-149401080D01*
X93221428Y-149401080D02*
X93430952Y-149401080D01*
X93430952Y-149401080D02*
X93535714Y-149453461D01*
X93535714Y-149453461D02*
X93588095Y-149505842D01*
X93588095Y-149505842D02*
X93640476Y-149610604D01*
X93640476Y-149610604D02*
X93640476Y-149662985D01*
X93640476Y-149662985D02*
X93588095Y-149767747D01*
X93588095Y-149767747D02*
X93535714Y-149820128D01*
X93535714Y-149820128D02*
X93430952Y-149872509D01*
X93430952Y-149872509D02*
X93221428Y-149872509D01*
X93221428Y-149872509D02*
X93116666Y-149924890D01*
X93116666Y-149924890D02*
X93064285Y-149977271D01*
X93064285Y-149977271D02*
X93011904Y-150082033D01*
X93011904Y-150082033D02*
X93011904Y-150291557D01*
X93011904Y-150291557D02*
X93064285Y-150396319D01*
X93064285Y-150396319D02*
X93116666Y-150448700D01*
X93116666Y-150448700D02*
X93221428Y-150501080D01*
X93221428Y-150501080D02*
X93430952Y-150501080D01*
X93430952Y-150501080D02*
X93535714Y-150448700D01*
X93535714Y-150448700D02*
X93588095Y-150396319D01*
X93588095Y-150396319D02*
X93640476Y-150291557D01*
X93640476Y-150291557D02*
X93640476Y-150082033D01*
X93640476Y-150082033D02*
X93588095Y-149977271D01*
X93588095Y-149977271D02*
X93535714Y-149924890D01*
X93535714Y-149924890D02*
X93430952Y-149872509D01*
X95840239Y-128277216D02*
X95787858Y-128329597D01*
X95787858Y-128329597D02*
X95630715Y-128381977D01*
X95630715Y-128381977D02*
X95525953Y-128381977D01*
X95525953Y-128381977D02*
X95368810Y-128329597D01*
X95368810Y-128329597D02*
X95264048Y-128224835D01*
X95264048Y-128224835D02*
X95211667Y-128120073D01*
X95211667Y-128120073D02*
X95159286Y-127910549D01*
X95159286Y-127910549D02*
X95159286Y-127753406D01*
X95159286Y-127753406D02*
X95211667Y-127543882D01*
X95211667Y-127543882D02*
X95264048Y-127439120D01*
X95264048Y-127439120D02*
X95368810Y-127334358D01*
X95368810Y-127334358D02*
X95525953Y-127281977D01*
X95525953Y-127281977D02*
X95630715Y-127281977D01*
X95630715Y-127281977D02*
X95787858Y-127334358D01*
X95787858Y-127334358D02*
X95840239Y-127386739D01*
X96311667Y-128381977D02*
X96311667Y-127281977D01*
X96311667Y-127805787D02*
X96940239Y-127805787D01*
X96940239Y-128381977D02*
X96940239Y-127281977D01*
X97359286Y-127281977D02*
X98092620Y-127281977D01*
X98092620Y-127281977D02*
X97621191Y-128381977D01*
X95840239Y-172515421D02*
X95787858Y-172567802D01*
X95787858Y-172567802D02*
X95630715Y-172620182D01*
X95630715Y-172620182D02*
X95525953Y-172620182D01*
X95525953Y-172620182D02*
X95368810Y-172567802D01*
X95368810Y-172567802D02*
X95264048Y-172463040D01*
X95264048Y-172463040D02*
X95211667Y-172358278D01*
X95211667Y-172358278D02*
X95159286Y-172148754D01*
X95159286Y-172148754D02*
X95159286Y-171991611D01*
X95159286Y-171991611D02*
X95211667Y-171782087D01*
X95211667Y-171782087D02*
X95264048Y-171677325D01*
X95264048Y-171677325D02*
X95368810Y-171572563D01*
X95368810Y-171572563D02*
X95525953Y-171520182D01*
X95525953Y-171520182D02*
X95630715Y-171520182D01*
X95630715Y-171520182D02*
X95787858Y-171572563D01*
X95787858Y-171572563D02*
X95840239Y-171624944D01*
X96311667Y-172620182D02*
X96311667Y-171520182D01*
X96311667Y-172043992D02*
X96940239Y-172043992D01*
X96940239Y-172620182D02*
X96940239Y-171520182D01*
X97516429Y-172620182D02*
X97725953Y-172620182D01*
X97725953Y-172620182D02*
X97830715Y-172567802D01*
X97830715Y-172567802D02*
X97883096Y-172515421D01*
X97883096Y-172515421D02*
X97987858Y-172358278D01*
X97987858Y-172358278D02*
X98040239Y-172148754D01*
X98040239Y-172148754D02*
X98040239Y-171729706D01*
X98040239Y-171729706D02*
X97987858Y-171624944D01*
X97987858Y-171624944D02*
X97935477Y-171572563D01*
X97935477Y-171572563D02*
X97830715Y-171520182D01*
X97830715Y-171520182D02*
X97621191Y-171520182D01*
X97621191Y-171520182D02*
X97516429Y-171572563D01*
X97516429Y-171572563D02*
X97464048Y-171624944D01*
X97464048Y-171624944D02*
X97411667Y-171729706D01*
X97411667Y-171729706D02*
X97411667Y-171991611D01*
X97411667Y-171991611D02*
X97464048Y-172096373D01*
X97464048Y-172096373D02*
X97516429Y-172148754D01*
X97516429Y-172148754D02*
X97621191Y-172201135D01*
X97621191Y-172201135D02*
X97830715Y-172201135D01*
X97830715Y-172201135D02*
X97935477Y-172148754D01*
X97935477Y-172148754D02*
X97987858Y-172096373D01*
X97987858Y-172096373D02*
X98040239Y-171991611D01*
X108369704Y-109525547D02*
X108317323Y-109577928D01*
X108317323Y-109577928D02*
X108160180Y-109630308D01*
X108160180Y-109630308D02*
X108055418Y-109630308D01*
X108055418Y-109630308D02*
X107898275Y-109577928D01*
X107898275Y-109577928D02*
X107793513Y-109473166D01*
X107793513Y-109473166D02*
X107741132Y-109368404D01*
X107741132Y-109368404D02*
X107688751Y-109158880D01*
X107688751Y-109158880D02*
X107688751Y-109001737D01*
X107688751Y-109001737D02*
X107741132Y-108792213D01*
X107741132Y-108792213D02*
X107793513Y-108687451D01*
X107793513Y-108687451D02*
X107898275Y-108582689D01*
X107898275Y-108582689D02*
X108055418Y-108530308D01*
X108055418Y-108530308D02*
X108160180Y-108530308D01*
X108160180Y-108530308D02*
X108317323Y-108582689D01*
X108317323Y-108582689D02*
X108369704Y-108635070D01*
X108841132Y-109630308D02*
X108841132Y-108530308D01*
X108841132Y-109054118D02*
X109469704Y-109054118D01*
X109469704Y-109630308D02*
X109469704Y-108530308D01*
X110464942Y-108530308D02*
X110255418Y-108530308D01*
X110255418Y-108530308D02*
X110150656Y-108582689D01*
X110150656Y-108582689D02*
X110098275Y-108635070D01*
X110098275Y-108635070D02*
X109993513Y-108792213D01*
X109993513Y-108792213D02*
X109941132Y-109001737D01*
X109941132Y-109001737D02*
X109941132Y-109420785D01*
X109941132Y-109420785D02*
X109993513Y-109525547D01*
X109993513Y-109525547D02*
X110045894Y-109577928D01*
X110045894Y-109577928D02*
X110150656Y-109630308D01*
X110150656Y-109630308D02*
X110360180Y-109630308D01*
X110360180Y-109630308D02*
X110464942Y-109577928D01*
X110464942Y-109577928D02*
X110517323Y-109525547D01*
X110517323Y-109525547D02*
X110569704Y-109420785D01*
X110569704Y-109420785D02*
X110569704Y-109158880D01*
X110569704Y-109158880D02*
X110517323Y-109054118D01*
X110517323Y-109054118D02*
X110464942Y-109001737D01*
X110464942Y-109001737D02*
X110360180Y-108949356D01*
X110360180Y-108949356D02*
X110150656Y-108949356D01*
X110150656Y-108949356D02*
X110045894Y-109001737D01*
X110045894Y-109001737D02*
X109993513Y-109054118D01*
X109993513Y-109054118D02*
X109941132Y-109158880D01*
X107845895Y-191267090D02*
X107793514Y-191319471D01*
X107793514Y-191319471D02*
X107636371Y-191371851D01*
X107636371Y-191371851D02*
X107531609Y-191371851D01*
X107531609Y-191371851D02*
X107374466Y-191319471D01*
X107374466Y-191319471D02*
X107269704Y-191214709D01*
X107269704Y-191214709D02*
X107217323Y-191109947D01*
X107217323Y-191109947D02*
X107164942Y-190900423D01*
X107164942Y-190900423D02*
X107164942Y-190743280D01*
X107164942Y-190743280D02*
X107217323Y-190533756D01*
X107217323Y-190533756D02*
X107269704Y-190428994D01*
X107269704Y-190428994D02*
X107374466Y-190324232D01*
X107374466Y-190324232D02*
X107531609Y-190271851D01*
X107531609Y-190271851D02*
X107636371Y-190271851D01*
X107636371Y-190271851D02*
X107793514Y-190324232D01*
X107793514Y-190324232D02*
X107845895Y-190376613D01*
X108317323Y-191371851D02*
X108317323Y-190271851D01*
X108317323Y-190795661D02*
X108945895Y-190795661D01*
X108945895Y-191371851D02*
X108945895Y-190271851D01*
X110045895Y-191371851D02*
X109417323Y-191371851D01*
X109731609Y-191371851D02*
X109731609Y-190271851D01*
X109731609Y-190271851D02*
X109626847Y-190428994D01*
X109626847Y-190428994D02*
X109522085Y-190533756D01*
X109522085Y-190533756D02*
X109417323Y-190586137D01*
X110726847Y-190271851D02*
X110831609Y-190271851D01*
X110831609Y-190271851D02*
X110936371Y-190324232D01*
X110936371Y-190324232D02*
X110988752Y-190376613D01*
X110988752Y-190376613D02*
X111041133Y-190481375D01*
X111041133Y-190481375D02*
X111093514Y-190690899D01*
X111093514Y-190690899D02*
X111093514Y-190952804D01*
X111093514Y-190952804D02*
X111041133Y-191162328D01*
X111041133Y-191162328D02*
X110988752Y-191267090D01*
X110988752Y-191267090D02*
X110936371Y-191319471D01*
X110936371Y-191319471D02*
X110831609Y-191371851D01*
X110831609Y-191371851D02*
X110726847Y-191371851D01*
X110726847Y-191371851D02*
X110622085Y-191319471D01*
X110622085Y-191319471D02*
X110569704Y-191267090D01*
X110569704Y-191267090D02*
X110517323Y-191162328D01*
X110517323Y-191162328D02*
X110464942Y-190952804D01*
X110464942Y-190952804D02*
X110464942Y-190690899D01*
X110464942Y-190690899D02*
X110517323Y-190481375D01*
X110517323Y-190481375D02*
X110569704Y-190376613D01*
X110569704Y-190376613D02*
X110622085Y-190324232D01*
X110622085Y-190324232D02*
X110726847Y-190271851D01*
X127121373Y-96996082D02*
X127068992Y-97048463D01*
X127068992Y-97048463D02*
X126911849Y-97100843D01*
X126911849Y-97100843D02*
X126807087Y-97100843D01*
X126807087Y-97100843D02*
X126649944Y-97048463D01*
X126649944Y-97048463D02*
X126545182Y-96943701D01*
X126545182Y-96943701D02*
X126492801Y-96838939D01*
X126492801Y-96838939D02*
X126440420Y-96629415D01*
X126440420Y-96629415D02*
X126440420Y-96472272D01*
X126440420Y-96472272D02*
X126492801Y-96262748D01*
X126492801Y-96262748D02*
X126545182Y-96157986D01*
X126545182Y-96157986D02*
X126649944Y-96053224D01*
X126649944Y-96053224D02*
X126807087Y-96000843D01*
X126807087Y-96000843D02*
X126911849Y-96000843D01*
X126911849Y-96000843D02*
X127068992Y-96053224D01*
X127068992Y-96053224D02*
X127121373Y-96105605D01*
X127592801Y-97100843D02*
X127592801Y-96000843D01*
X127592801Y-96524653D02*
X128221373Y-96524653D01*
X128221373Y-97100843D02*
X128221373Y-96000843D01*
X129268992Y-96000843D02*
X128745182Y-96000843D01*
X128745182Y-96000843D02*
X128692801Y-96524653D01*
X128692801Y-96524653D02*
X128745182Y-96472272D01*
X128745182Y-96472272D02*
X128849944Y-96419891D01*
X128849944Y-96419891D02*
X129111849Y-96419891D01*
X129111849Y-96419891D02*
X129216611Y-96472272D01*
X129216611Y-96472272D02*
X129268992Y-96524653D01*
X129268992Y-96524653D02*
X129321373Y-96629415D01*
X129321373Y-96629415D02*
X129321373Y-96891320D01*
X129321373Y-96891320D02*
X129268992Y-96996082D01*
X129268992Y-96996082D02*
X129216611Y-97048463D01*
X129216611Y-97048463D02*
X129111849Y-97100843D01*
X129111849Y-97100843D02*
X128849944Y-97100843D01*
X128849944Y-97100843D02*
X128745182Y-97048463D01*
X128745182Y-97048463D02*
X128692801Y-96996082D01*
X126597564Y-203796555D02*
X126545183Y-203848936D01*
X126545183Y-203848936D02*
X126388040Y-203901316D01*
X126388040Y-203901316D02*
X126283278Y-203901316D01*
X126283278Y-203901316D02*
X126126135Y-203848936D01*
X126126135Y-203848936D02*
X126021373Y-203744174D01*
X126021373Y-203744174D02*
X125968992Y-203639412D01*
X125968992Y-203639412D02*
X125916611Y-203429888D01*
X125916611Y-203429888D02*
X125916611Y-203272745D01*
X125916611Y-203272745D02*
X125968992Y-203063221D01*
X125968992Y-203063221D02*
X126021373Y-202958459D01*
X126021373Y-202958459D02*
X126126135Y-202853697D01*
X126126135Y-202853697D02*
X126283278Y-202801316D01*
X126283278Y-202801316D02*
X126388040Y-202801316D01*
X126388040Y-202801316D02*
X126545183Y-202853697D01*
X126545183Y-202853697D02*
X126597564Y-202906078D01*
X127068992Y-203901316D02*
X127068992Y-202801316D01*
X127068992Y-203325126D02*
X127697564Y-203325126D01*
X127697564Y-203901316D02*
X127697564Y-202801316D01*
X128797564Y-203901316D02*
X128168992Y-203901316D01*
X128483278Y-203901316D02*
X128483278Y-202801316D01*
X128483278Y-202801316D02*
X128378516Y-202958459D01*
X128378516Y-202958459D02*
X128273754Y-203063221D01*
X128273754Y-203063221D02*
X128168992Y-203115602D01*
X129845183Y-203901316D02*
X129216611Y-203901316D01*
X129530897Y-203901316D02*
X129530897Y-202801316D01*
X129530897Y-202801316D02*
X129426135Y-202958459D01*
X129426135Y-202958459D02*
X129321373Y-203063221D01*
X129321373Y-203063221D02*
X129216611Y-203115602D01*
X149240476Y-92596319D02*
X149188095Y-92648700D01*
X149188095Y-92648700D02*
X149030952Y-92701080D01*
X149030952Y-92701080D02*
X148926190Y-92701080D01*
X148926190Y-92701080D02*
X148769047Y-92648700D01*
X148769047Y-92648700D02*
X148664285Y-92543938D01*
X148664285Y-92543938D02*
X148611904Y-92439176D01*
X148611904Y-92439176D02*
X148559523Y-92229652D01*
X148559523Y-92229652D02*
X148559523Y-92072509D01*
X148559523Y-92072509D02*
X148611904Y-91862985D01*
X148611904Y-91862985D02*
X148664285Y-91758223D01*
X148664285Y-91758223D02*
X148769047Y-91653461D01*
X148769047Y-91653461D02*
X148926190Y-91601080D01*
X148926190Y-91601080D02*
X149030952Y-91601080D01*
X149030952Y-91601080D02*
X149188095Y-91653461D01*
X149188095Y-91653461D02*
X149240476Y-91705842D01*
X149711904Y-92701080D02*
X149711904Y-91601080D01*
X149711904Y-92124890D02*
X150340476Y-92124890D01*
X150340476Y-92701080D02*
X150340476Y-91601080D01*
X151335714Y-91967747D02*
X151335714Y-92701080D01*
X151073809Y-91548700D02*
X150811904Y-92334414D01*
X150811904Y-92334414D02*
X151492857Y-92334414D01*
X148716667Y-208196319D02*
X148664286Y-208248700D01*
X148664286Y-208248700D02*
X148507143Y-208301080D01*
X148507143Y-208301080D02*
X148402381Y-208301080D01*
X148402381Y-208301080D02*
X148245238Y-208248700D01*
X148245238Y-208248700D02*
X148140476Y-208143938D01*
X148140476Y-208143938D02*
X148088095Y-208039176D01*
X148088095Y-208039176D02*
X148035714Y-207829652D01*
X148035714Y-207829652D02*
X148035714Y-207672509D01*
X148035714Y-207672509D02*
X148088095Y-207462985D01*
X148088095Y-207462985D02*
X148140476Y-207358223D01*
X148140476Y-207358223D02*
X148245238Y-207253461D01*
X148245238Y-207253461D02*
X148402381Y-207201080D01*
X148402381Y-207201080D02*
X148507143Y-207201080D01*
X148507143Y-207201080D02*
X148664286Y-207253461D01*
X148664286Y-207253461D02*
X148716667Y-207305842D01*
X149188095Y-208301080D02*
X149188095Y-207201080D01*
X149188095Y-207724890D02*
X149816667Y-207724890D01*
X149816667Y-208301080D02*
X149816667Y-207201080D01*
X150916667Y-208301080D02*
X150288095Y-208301080D01*
X150602381Y-208301080D02*
X150602381Y-207201080D01*
X150602381Y-207201080D02*
X150497619Y-207358223D01*
X150497619Y-207358223D02*
X150392857Y-207462985D01*
X150392857Y-207462985D02*
X150288095Y-207515366D01*
X151335714Y-207305842D02*
X151388095Y-207253461D01*
X151388095Y-207253461D02*
X151492857Y-207201080D01*
X151492857Y-207201080D02*
X151754762Y-207201080D01*
X151754762Y-207201080D02*
X151859524Y-207253461D01*
X151859524Y-207253461D02*
X151911905Y-207305842D01*
X151911905Y-207305842D02*
X151964286Y-207410604D01*
X151964286Y-207410604D02*
X151964286Y-207515366D01*
X151964286Y-207515366D02*
X151911905Y-207672509D01*
X151911905Y-207672509D02*
X151283333Y-208301080D01*
X151283333Y-208301080D02*
X151964286Y-208301080D01*
X171359578Y-96996082D02*
X171307197Y-97048463D01*
X171307197Y-97048463D02*
X171150054Y-97100843D01*
X171150054Y-97100843D02*
X171045292Y-97100843D01*
X171045292Y-97100843D02*
X170888149Y-97048463D01*
X170888149Y-97048463D02*
X170783387Y-96943701D01*
X170783387Y-96943701D02*
X170731006Y-96838939D01*
X170731006Y-96838939D02*
X170678625Y-96629415D01*
X170678625Y-96629415D02*
X170678625Y-96472272D01*
X170678625Y-96472272D02*
X170731006Y-96262748D01*
X170731006Y-96262748D02*
X170783387Y-96157986D01*
X170783387Y-96157986D02*
X170888149Y-96053224D01*
X170888149Y-96053224D02*
X171045292Y-96000843D01*
X171045292Y-96000843D02*
X171150054Y-96000843D01*
X171150054Y-96000843D02*
X171307197Y-96053224D01*
X171307197Y-96053224D02*
X171359578Y-96105605D01*
X171831006Y-97100843D02*
X171831006Y-96000843D01*
X171831006Y-96524653D02*
X172459578Y-96524653D01*
X172459578Y-97100843D02*
X172459578Y-96000843D01*
X172878625Y-96000843D02*
X173559578Y-96000843D01*
X173559578Y-96000843D02*
X173192911Y-96419891D01*
X173192911Y-96419891D02*
X173350054Y-96419891D01*
X173350054Y-96419891D02*
X173454816Y-96472272D01*
X173454816Y-96472272D02*
X173507197Y-96524653D01*
X173507197Y-96524653D02*
X173559578Y-96629415D01*
X173559578Y-96629415D02*
X173559578Y-96891320D01*
X173559578Y-96891320D02*
X173507197Y-96996082D01*
X173507197Y-96996082D02*
X173454816Y-97048463D01*
X173454816Y-97048463D02*
X173350054Y-97100843D01*
X173350054Y-97100843D02*
X173035768Y-97100843D01*
X173035768Y-97100843D02*
X172931006Y-97048463D01*
X172931006Y-97048463D02*
X172878625Y-96996082D01*
X170835769Y-203796555D02*
X170783388Y-203848936D01*
X170783388Y-203848936D02*
X170626245Y-203901316D01*
X170626245Y-203901316D02*
X170521483Y-203901316D01*
X170521483Y-203901316D02*
X170364340Y-203848936D01*
X170364340Y-203848936D02*
X170259578Y-203744174D01*
X170259578Y-203744174D02*
X170207197Y-203639412D01*
X170207197Y-203639412D02*
X170154816Y-203429888D01*
X170154816Y-203429888D02*
X170154816Y-203272745D01*
X170154816Y-203272745D02*
X170207197Y-203063221D01*
X170207197Y-203063221D02*
X170259578Y-202958459D01*
X170259578Y-202958459D02*
X170364340Y-202853697D01*
X170364340Y-202853697D02*
X170521483Y-202801316D01*
X170521483Y-202801316D02*
X170626245Y-202801316D01*
X170626245Y-202801316D02*
X170783388Y-202853697D01*
X170783388Y-202853697D02*
X170835769Y-202906078D01*
X171307197Y-203901316D02*
X171307197Y-202801316D01*
X171307197Y-203325126D02*
X171935769Y-203325126D01*
X171935769Y-203901316D02*
X171935769Y-202801316D01*
X173035769Y-203901316D02*
X172407197Y-203901316D01*
X172721483Y-203901316D02*
X172721483Y-202801316D01*
X172721483Y-202801316D02*
X172616721Y-202958459D01*
X172616721Y-202958459D02*
X172511959Y-203063221D01*
X172511959Y-203063221D02*
X172407197Y-203115602D01*
X173402435Y-202801316D02*
X174083388Y-202801316D01*
X174083388Y-202801316D02*
X173716721Y-203220364D01*
X173716721Y-203220364D02*
X173873864Y-203220364D01*
X173873864Y-203220364D02*
X173978626Y-203272745D01*
X173978626Y-203272745D02*
X174031007Y-203325126D01*
X174031007Y-203325126D02*
X174083388Y-203429888D01*
X174083388Y-203429888D02*
X174083388Y-203691793D01*
X174083388Y-203691793D02*
X174031007Y-203796555D01*
X174031007Y-203796555D02*
X173978626Y-203848936D01*
X173978626Y-203848936D02*
X173873864Y-203901316D01*
X173873864Y-203901316D02*
X173559578Y-203901316D01*
X173559578Y-203901316D02*
X173454816Y-203848936D01*
X173454816Y-203848936D02*
X173402435Y-203796555D01*
X190111247Y-109525547D02*
X190058866Y-109577928D01*
X190058866Y-109577928D02*
X189901723Y-109630308D01*
X189901723Y-109630308D02*
X189796961Y-109630308D01*
X189796961Y-109630308D02*
X189639818Y-109577928D01*
X189639818Y-109577928D02*
X189535056Y-109473166D01*
X189535056Y-109473166D02*
X189482675Y-109368404D01*
X189482675Y-109368404D02*
X189430294Y-109158880D01*
X189430294Y-109158880D02*
X189430294Y-109001737D01*
X189430294Y-109001737D02*
X189482675Y-108792213D01*
X189482675Y-108792213D02*
X189535056Y-108687451D01*
X189535056Y-108687451D02*
X189639818Y-108582689D01*
X189639818Y-108582689D02*
X189796961Y-108530308D01*
X189796961Y-108530308D02*
X189901723Y-108530308D01*
X189901723Y-108530308D02*
X190058866Y-108582689D01*
X190058866Y-108582689D02*
X190111247Y-108635070D01*
X190582675Y-109630308D02*
X190582675Y-108530308D01*
X190582675Y-109054118D02*
X191211247Y-109054118D01*
X191211247Y-109630308D02*
X191211247Y-108530308D01*
X191682675Y-108635070D02*
X191735056Y-108582689D01*
X191735056Y-108582689D02*
X191839818Y-108530308D01*
X191839818Y-108530308D02*
X192101723Y-108530308D01*
X192101723Y-108530308D02*
X192206485Y-108582689D01*
X192206485Y-108582689D02*
X192258866Y-108635070D01*
X192258866Y-108635070D02*
X192311247Y-108739832D01*
X192311247Y-108739832D02*
X192311247Y-108844594D01*
X192311247Y-108844594D02*
X192258866Y-109001737D01*
X192258866Y-109001737D02*
X191630294Y-109630308D01*
X191630294Y-109630308D02*
X192311247Y-109630308D01*
X189587438Y-191267090D02*
X189535057Y-191319471D01*
X189535057Y-191319471D02*
X189377914Y-191371851D01*
X189377914Y-191371851D02*
X189273152Y-191371851D01*
X189273152Y-191371851D02*
X189116009Y-191319471D01*
X189116009Y-191319471D02*
X189011247Y-191214709D01*
X189011247Y-191214709D02*
X188958866Y-191109947D01*
X188958866Y-191109947D02*
X188906485Y-190900423D01*
X188906485Y-190900423D02*
X188906485Y-190743280D01*
X188906485Y-190743280D02*
X188958866Y-190533756D01*
X188958866Y-190533756D02*
X189011247Y-190428994D01*
X189011247Y-190428994D02*
X189116009Y-190324232D01*
X189116009Y-190324232D02*
X189273152Y-190271851D01*
X189273152Y-190271851D02*
X189377914Y-190271851D01*
X189377914Y-190271851D02*
X189535057Y-190324232D01*
X189535057Y-190324232D02*
X189587438Y-190376613D01*
X190058866Y-191371851D02*
X190058866Y-190271851D01*
X190058866Y-190795661D02*
X190687438Y-190795661D01*
X190687438Y-191371851D02*
X190687438Y-190271851D01*
X191787438Y-191371851D02*
X191158866Y-191371851D01*
X191473152Y-191371851D02*
X191473152Y-190271851D01*
X191473152Y-190271851D02*
X191368390Y-190428994D01*
X191368390Y-190428994D02*
X191263628Y-190533756D01*
X191263628Y-190533756D02*
X191158866Y-190586137D01*
X192730295Y-190638518D02*
X192730295Y-191371851D01*
X192468390Y-190219471D02*
X192206485Y-191005185D01*
X192206485Y-191005185D02*
X192887438Y-191005185D01*
X202640712Y-128277216D02*
X202588331Y-128329597D01*
X202588331Y-128329597D02*
X202431188Y-128381977D01*
X202431188Y-128381977D02*
X202326426Y-128381977D01*
X202326426Y-128381977D02*
X202169283Y-128329597D01*
X202169283Y-128329597D02*
X202064521Y-128224835D01*
X202064521Y-128224835D02*
X202012140Y-128120073D01*
X202012140Y-128120073D02*
X201959759Y-127910549D01*
X201959759Y-127910549D02*
X201959759Y-127753406D01*
X201959759Y-127753406D02*
X202012140Y-127543882D01*
X202012140Y-127543882D02*
X202064521Y-127439120D01*
X202064521Y-127439120D02*
X202169283Y-127334358D01*
X202169283Y-127334358D02*
X202326426Y-127281977D01*
X202326426Y-127281977D02*
X202431188Y-127281977D01*
X202431188Y-127281977D02*
X202588331Y-127334358D01*
X202588331Y-127334358D02*
X202640712Y-127386739D01*
X203112140Y-128381977D02*
X203112140Y-127281977D01*
X203112140Y-127805787D02*
X203740712Y-127805787D01*
X203740712Y-128381977D02*
X203740712Y-127281977D01*
X204840712Y-128381977D02*
X204212140Y-128381977D01*
X204526426Y-128381977D02*
X204526426Y-127281977D01*
X204526426Y-127281977D02*
X204421664Y-127439120D01*
X204421664Y-127439120D02*
X204316902Y-127543882D01*
X204316902Y-127543882D02*
X204212140Y-127596263D01*
X202116903Y-172515421D02*
X202064522Y-172567802D01*
X202064522Y-172567802D02*
X201907379Y-172620182D01*
X201907379Y-172620182D02*
X201802617Y-172620182D01*
X201802617Y-172620182D02*
X201645474Y-172567802D01*
X201645474Y-172567802D02*
X201540712Y-172463040D01*
X201540712Y-172463040D02*
X201488331Y-172358278D01*
X201488331Y-172358278D02*
X201435950Y-172148754D01*
X201435950Y-172148754D02*
X201435950Y-171991611D01*
X201435950Y-171991611D02*
X201488331Y-171782087D01*
X201488331Y-171782087D02*
X201540712Y-171677325D01*
X201540712Y-171677325D02*
X201645474Y-171572563D01*
X201645474Y-171572563D02*
X201802617Y-171520182D01*
X201802617Y-171520182D02*
X201907379Y-171520182D01*
X201907379Y-171520182D02*
X202064522Y-171572563D01*
X202064522Y-171572563D02*
X202116903Y-171624944D01*
X202588331Y-172620182D02*
X202588331Y-171520182D01*
X202588331Y-172043992D02*
X203216903Y-172043992D01*
X203216903Y-172620182D02*
X203216903Y-171520182D01*
X204316903Y-172620182D02*
X203688331Y-172620182D01*
X204002617Y-172620182D02*
X204002617Y-171520182D01*
X204002617Y-171520182D02*
X203897855Y-171677325D01*
X203897855Y-171677325D02*
X203793093Y-171782087D01*
X203793093Y-171782087D02*
X203688331Y-171834468D01*
X205312141Y-171520182D02*
X204788331Y-171520182D01*
X204788331Y-171520182D02*
X204735950Y-172043992D01*
X204735950Y-172043992D02*
X204788331Y-171991611D01*
X204788331Y-171991611D02*
X204893093Y-171939230D01*
X204893093Y-171939230D02*
X205154998Y-171939230D01*
X205154998Y-171939230D02*
X205259760Y-171991611D01*
X205259760Y-171991611D02*
X205312141Y-172043992D01*
X205312141Y-172043992D02*
X205364522Y-172148754D01*
X205364522Y-172148754D02*
X205364522Y-172410659D01*
X205364522Y-172410659D02*
X205312141Y-172515421D01*
X205312141Y-172515421D02*
X205259760Y-172567802D01*
X205259760Y-172567802D02*
X205154998Y-172620182D01*
X205154998Y-172620182D02*
X204893093Y-172620182D01*
X204893093Y-172620182D02*
X204788331Y-172567802D01*
X204788331Y-172567802D02*
X204735950Y-172515421D01*
X207040476Y-150396319D02*
X206988095Y-150448700D01*
X206988095Y-150448700D02*
X206830952Y-150501080D01*
X206830952Y-150501080D02*
X206726190Y-150501080D01*
X206726190Y-150501080D02*
X206569047Y-150448700D01*
X206569047Y-150448700D02*
X206464285Y-150343938D01*
X206464285Y-150343938D02*
X206411904Y-150239176D01*
X206411904Y-150239176D02*
X206359523Y-150029652D01*
X206359523Y-150029652D02*
X206359523Y-149872509D01*
X206359523Y-149872509D02*
X206411904Y-149662985D01*
X206411904Y-149662985D02*
X206464285Y-149558223D01*
X206464285Y-149558223D02*
X206569047Y-149453461D01*
X206569047Y-149453461D02*
X206726190Y-149401080D01*
X206726190Y-149401080D02*
X206830952Y-149401080D01*
X206830952Y-149401080D02*
X206988095Y-149453461D01*
X206988095Y-149453461D02*
X207040476Y-149505842D01*
X207511904Y-150501080D02*
X207511904Y-149401080D01*
X207511904Y-149924890D02*
X208140476Y-149924890D01*
X208140476Y-150501080D02*
X208140476Y-149401080D01*
X208873809Y-149401080D02*
X208978571Y-149401080D01*
X208978571Y-149401080D02*
X209083333Y-149453461D01*
X209083333Y-149453461D02*
X209135714Y-149505842D01*
X209135714Y-149505842D02*
X209188095Y-149610604D01*
X209188095Y-149610604D02*
X209240476Y-149820128D01*
X209240476Y-149820128D02*
X209240476Y-150082033D01*
X209240476Y-150082033D02*
X209188095Y-150291557D01*
X209188095Y-150291557D02*
X209135714Y-150396319D01*
X209135714Y-150396319D02*
X209083333Y-150448700D01*
X209083333Y-150448700D02*
X208978571Y-150501080D01*
X208978571Y-150501080D02*
X208873809Y-150501080D01*
X208873809Y-150501080D02*
X208769047Y-150448700D01*
X208769047Y-150448700D02*
X208716666Y-150396319D01*
X208716666Y-150396319D02*
X208664285Y-150291557D01*
X208664285Y-150291557D02*
X208611904Y-150082033D01*
X208611904Y-150082033D02*
X208611904Y-149820128D01*
X208611904Y-149820128D02*
X208664285Y-149610604D01*
X208664285Y-149610604D02*
X208716666Y-149505842D01*
X208716666Y-149505842D02*
X208769047Y-149453461D01*
X208769047Y-149453461D02*
X208873809Y-149401080D01*
D11*
X139228570Y-129932537D02*
X139171427Y-129989680D01*
X139171427Y-129989680D02*
X138999999Y-130046822D01*
X138999999Y-130046822D02*
X138885713Y-130046822D01*
X138885713Y-130046822D02*
X138714284Y-129989680D01*
X138714284Y-129989680D02*
X138599999Y-129875394D01*
X138599999Y-129875394D02*
X138542856Y-129761108D01*
X138542856Y-129761108D02*
X138485713Y-129532537D01*
X138485713Y-129532537D02*
X138485713Y-129361108D01*
X138485713Y-129361108D02*
X138542856Y-129132537D01*
X138542856Y-129132537D02*
X138599999Y-129018251D01*
X138599999Y-129018251D02*
X138714284Y-128903965D01*
X138714284Y-128903965D02*
X138885713Y-128846822D01*
X138885713Y-128846822D02*
X138999999Y-128846822D01*
X138999999Y-128846822D02*
X139171427Y-128903965D01*
X139171427Y-128903965D02*
X139228570Y-128961108D01*
X139742856Y-130046822D02*
X139742856Y-128846822D01*
X139742856Y-129418251D02*
X140428570Y-129418251D01*
X140428570Y-130046822D02*
X140428570Y-128846822D01*
X141228570Y-128846822D02*
X141342856Y-128846822D01*
X141342856Y-128846822D02*
X141457142Y-128903965D01*
X141457142Y-128903965D02*
X141514285Y-128961108D01*
X141514285Y-128961108D02*
X141571427Y-129075394D01*
X141571427Y-129075394D02*
X141628570Y-129303965D01*
X141628570Y-129303965D02*
X141628570Y-129589680D01*
X141628570Y-129589680D02*
X141571427Y-129818251D01*
X141571427Y-129818251D02*
X141514285Y-129932537D01*
X141514285Y-129932537D02*
X141457142Y-129989680D01*
X141457142Y-129989680D02*
X141342856Y-130046822D01*
X141342856Y-130046822D02*
X141228570Y-130046822D01*
X141228570Y-130046822D02*
X141114285Y-129989680D01*
X141114285Y-129989680D02*
X141057142Y-129932537D01*
X141057142Y-129932537D02*
X140999999Y-129818251D01*
X140999999Y-129818251D02*
X140942856Y-129589680D01*
X140942856Y-129589680D02*
X140942856Y-129303965D01*
X140942856Y-129303965D02*
X140999999Y-129075394D01*
X140999999Y-129075394D02*
X141057142Y-128961108D01*
X141057142Y-128961108D02*
X141114285Y-128903965D01*
X141114285Y-128903965D02*
X141228570Y-128846822D01*
X142142856Y-129932537D02*
X142199999Y-129989680D01*
X142199999Y-129989680D02*
X142142856Y-130046822D01*
X142142856Y-130046822D02*
X142085713Y-129989680D01*
X142085713Y-129989680D02*
X142142856Y-129932537D01*
X142142856Y-129932537D02*
X142142856Y-130046822D01*
X142714285Y-129932537D02*
X142771428Y-129989680D01*
X142771428Y-129989680D02*
X142714285Y-130046822D01*
X142714285Y-130046822D02*
X142657142Y-129989680D01*
X142657142Y-129989680D02*
X142714285Y-129932537D01*
X142714285Y-129932537D02*
X142714285Y-130046822D01*
X143971428Y-129932537D02*
X143914285Y-129989680D01*
X143914285Y-129989680D02*
X143742857Y-130046822D01*
X143742857Y-130046822D02*
X143628571Y-130046822D01*
X143628571Y-130046822D02*
X143457142Y-129989680D01*
X143457142Y-129989680D02*
X143342857Y-129875394D01*
X143342857Y-129875394D02*
X143285714Y-129761108D01*
X143285714Y-129761108D02*
X143228571Y-129532537D01*
X143228571Y-129532537D02*
X143228571Y-129361108D01*
X143228571Y-129361108D02*
X143285714Y-129132537D01*
X143285714Y-129132537D02*
X143342857Y-129018251D01*
X143342857Y-129018251D02*
X143457142Y-128903965D01*
X143457142Y-128903965D02*
X143628571Y-128846822D01*
X143628571Y-128846822D02*
X143742857Y-128846822D01*
X143742857Y-128846822D02*
X143914285Y-128903965D01*
X143914285Y-128903965D02*
X143971428Y-128961108D01*
X144485714Y-130046822D02*
X144485714Y-128846822D01*
X144485714Y-129418251D02*
X145171428Y-129418251D01*
X145171428Y-130046822D02*
X145171428Y-128846822D01*
X146371428Y-130046822D02*
X145685714Y-130046822D01*
X146028571Y-130046822D02*
X146028571Y-128846822D01*
X146028571Y-128846822D02*
X145914285Y-129018251D01*
X145914285Y-129018251D02*
X145800000Y-129132537D01*
X145800000Y-129132537D02*
X145685714Y-129189680D01*
X147457142Y-128846822D02*
X146885714Y-128846822D01*
X146885714Y-128846822D02*
X146828571Y-129418251D01*
X146828571Y-129418251D02*
X146885714Y-129361108D01*
X146885714Y-129361108D02*
X147000000Y-129303965D01*
X147000000Y-129303965D02*
X147285714Y-129303965D01*
X147285714Y-129303965D02*
X147400000Y-129361108D01*
X147400000Y-129361108D02*
X147457142Y-129418251D01*
X147457142Y-129418251D02*
X147514285Y-129532537D01*
X147514285Y-129532537D02*
X147514285Y-129818251D01*
X147514285Y-129818251D02*
X147457142Y-129932537D01*
X147457142Y-129932537D02*
X147400000Y-129989680D01*
X147400000Y-129989680D02*
X147285714Y-130046822D01*
X147285714Y-130046822D02*
X147000000Y-130046822D01*
X147000000Y-130046822D02*
X146885714Y-129989680D01*
X146885714Y-129989680D02*
X146828571Y-129932537D01*
X149628571Y-129932537D02*
X149571428Y-129989680D01*
X149571428Y-129989680D02*
X149400000Y-130046822D01*
X149400000Y-130046822D02*
X149285714Y-130046822D01*
X149285714Y-130046822D02*
X149114285Y-129989680D01*
X149114285Y-129989680D02*
X149000000Y-129875394D01*
X149000000Y-129875394D02*
X148942857Y-129761108D01*
X148942857Y-129761108D02*
X148885714Y-129532537D01*
X148885714Y-129532537D02*
X148885714Y-129361108D01*
X148885714Y-129361108D02*
X148942857Y-129132537D01*
X148942857Y-129132537D02*
X149000000Y-129018251D01*
X149000000Y-129018251D02*
X149114285Y-128903965D01*
X149114285Y-128903965D02*
X149285714Y-128846822D01*
X149285714Y-128846822D02*
X149400000Y-128846822D01*
X149400000Y-128846822D02*
X149571428Y-128903965D01*
X149571428Y-128903965D02*
X149628571Y-128961108D01*
X150828571Y-129932537D02*
X150771428Y-129989680D01*
X150771428Y-129989680D02*
X150600000Y-130046822D01*
X150600000Y-130046822D02*
X150485714Y-130046822D01*
X150485714Y-130046822D02*
X150314285Y-129989680D01*
X150314285Y-129989680D02*
X150200000Y-129875394D01*
X150200000Y-129875394D02*
X150142857Y-129761108D01*
X150142857Y-129761108D02*
X150085714Y-129532537D01*
X150085714Y-129532537D02*
X150085714Y-129361108D01*
X150085714Y-129361108D02*
X150142857Y-129132537D01*
X150142857Y-129132537D02*
X150200000Y-129018251D01*
X150200000Y-129018251D02*
X150314285Y-128903965D01*
X150314285Y-128903965D02*
X150485714Y-128846822D01*
X150485714Y-128846822D02*
X150600000Y-128846822D01*
X150600000Y-128846822D02*
X150771428Y-128903965D01*
X150771428Y-128903965D02*
X150828571Y-128961108D01*
X151228571Y-128846822D02*
X151514285Y-130046822D01*
X151514285Y-130046822D02*
X151742857Y-129189680D01*
X151742857Y-129189680D02*
X151971428Y-130046822D01*
X151971428Y-130046822D02*
X152257143Y-128846822D01*
X154028572Y-129418251D02*
X153628572Y-129418251D01*
X153628572Y-130046822D02*
X153628572Y-128846822D01*
X153628572Y-128846822D02*
X154200000Y-128846822D01*
X155342857Y-130046822D02*
X154942857Y-129475394D01*
X154657143Y-130046822D02*
X154657143Y-128846822D01*
X154657143Y-128846822D02*
X155114286Y-128846822D01*
X155114286Y-128846822D02*
X155228571Y-128903965D01*
X155228571Y-128903965D02*
X155285714Y-128961108D01*
X155285714Y-128961108D02*
X155342857Y-129075394D01*
X155342857Y-129075394D02*
X155342857Y-129246822D01*
X155342857Y-129246822D02*
X155285714Y-129361108D01*
X155285714Y-129361108D02*
X155228571Y-129418251D01*
X155228571Y-129418251D02*
X155114286Y-129475394D01*
X155114286Y-129475394D02*
X154657143Y-129475394D01*
X156085714Y-128846822D02*
X156314286Y-128846822D01*
X156314286Y-128846822D02*
X156428571Y-128903965D01*
X156428571Y-128903965D02*
X156542857Y-129018251D01*
X156542857Y-129018251D02*
X156600000Y-129246822D01*
X156600000Y-129246822D02*
X156600000Y-129646822D01*
X156600000Y-129646822D02*
X156542857Y-129875394D01*
X156542857Y-129875394D02*
X156428571Y-129989680D01*
X156428571Y-129989680D02*
X156314286Y-130046822D01*
X156314286Y-130046822D02*
X156085714Y-130046822D01*
X156085714Y-130046822D02*
X155971429Y-129989680D01*
X155971429Y-129989680D02*
X155857143Y-129875394D01*
X155857143Y-129875394D02*
X155800000Y-129646822D01*
X155800000Y-129646822D02*
X155800000Y-129246822D01*
X155800000Y-129246822D02*
X155857143Y-129018251D01*
X155857143Y-129018251D02*
X155971429Y-128903965D01*
X155971429Y-128903965D02*
X156085714Y-128846822D01*
X157114286Y-130046822D02*
X157114286Y-128846822D01*
X157114286Y-128846822D02*
X157514286Y-129703965D01*
X157514286Y-129703965D02*
X157914286Y-128846822D01*
X157914286Y-128846822D02*
X157914286Y-130046822D01*
X159400001Y-129589680D02*
X160314287Y-129589680D01*
X159857144Y-130046822D02*
X159857144Y-129132537D01*
X160771429Y-128846822D02*
X161571429Y-130046822D01*
X161571429Y-128846822D02*
X160771429Y-130046822D01*
X135199999Y-135046822D02*
X135199999Y-133846822D01*
X135199999Y-133846822D02*
X135657142Y-133846822D01*
X135657142Y-133846822D02*
X135771427Y-133903965D01*
X135771427Y-133903965D02*
X135828570Y-133961108D01*
X135828570Y-133961108D02*
X135885713Y-134075394D01*
X135885713Y-134075394D02*
X135885713Y-134246822D01*
X135885713Y-134246822D02*
X135828570Y-134361108D01*
X135828570Y-134361108D02*
X135771427Y-134418251D01*
X135771427Y-134418251D02*
X135657142Y-134475394D01*
X135657142Y-134475394D02*
X135199999Y-134475394D01*
X136628570Y-133846822D02*
X136857142Y-133846822D01*
X136857142Y-133846822D02*
X136971427Y-133903965D01*
X136971427Y-133903965D02*
X137085713Y-134018251D01*
X137085713Y-134018251D02*
X137142856Y-134246822D01*
X137142856Y-134246822D02*
X137142856Y-134646822D01*
X137142856Y-134646822D02*
X137085713Y-134875394D01*
X137085713Y-134875394D02*
X136971427Y-134989680D01*
X136971427Y-134989680D02*
X136857142Y-135046822D01*
X136857142Y-135046822D02*
X136628570Y-135046822D01*
X136628570Y-135046822D02*
X136514285Y-134989680D01*
X136514285Y-134989680D02*
X136399999Y-134875394D01*
X136399999Y-134875394D02*
X136342856Y-134646822D01*
X136342856Y-134646822D02*
X136342856Y-134246822D01*
X136342856Y-134246822D02*
X136399999Y-134018251D01*
X136399999Y-134018251D02*
X136514285Y-133903965D01*
X136514285Y-133903965D02*
X136628570Y-133846822D01*
X138342856Y-135046822D02*
X137942856Y-134475394D01*
X137657142Y-135046822D02*
X137657142Y-133846822D01*
X137657142Y-133846822D02*
X138114285Y-133846822D01*
X138114285Y-133846822D02*
X138228570Y-133903965D01*
X138228570Y-133903965D02*
X138285713Y-133961108D01*
X138285713Y-133961108D02*
X138342856Y-134075394D01*
X138342856Y-134075394D02*
X138342856Y-134246822D01*
X138342856Y-134246822D02*
X138285713Y-134361108D01*
X138285713Y-134361108D02*
X138228570Y-134418251D01*
X138228570Y-134418251D02*
X138114285Y-134475394D01*
X138114285Y-134475394D02*
X137657142Y-134475394D01*
X138685713Y-133846822D02*
X139371428Y-133846822D01*
X139028570Y-135046822D02*
X139028570Y-133846822D01*
X139714285Y-134989680D02*
X139885714Y-135046822D01*
X139885714Y-135046822D02*
X140171428Y-135046822D01*
X140171428Y-135046822D02*
X140285714Y-134989680D01*
X140285714Y-134989680D02*
X140342856Y-134932537D01*
X140342856Y-134932537D02*
X140399999Y-134818251D01*
X140399999Y-134818251D02*
X140399999Y-134703965D01*
X140399999Y-134703965D02*
X140342856Y-134589680D01*
X140342856Y-134589680D02*
X140285714Y-134532537D01*
X140285714Y-134532537D02*
X140171428Y-134475394D01*
X140171428Y-134475394D02*
X139942856Y-134418251D01*
X139942856Y-134418251D02*
X139828571Y-134361108D01*
X139828571Y-134361108D02*
X139771428Y-134303965D01*
X139771428Y-134303965D02*
X139714285Y-134189680D01*
X139714285Y-134189680D02*
X139714285Y-134075394D01*
X139714285Y-134075394D02*
X139771428Y-133961108D01*
X139771428Y-133961108D02*
X139828571Y-133903965D01*
X139828571Y-133903965D02*
X139942856Y-133846822D01*
X139942856Y-133846822D02*
X140228571Y-133846822D01*
X140228571Y-133846822D02*
X140399999Y-133903965D01*
X142228571Y-134418251D02*
X141828571Y-134418251D01*
X141828571Y-135046822D02*
X141828571Y-133846822D01*
X141828571Y-133846822D02*
X142399999Y-133846822D01*
X142799999Y-134703965D02*
X143371428Y-134703965D01*
X142685713Y-135046822D02*
X143085713Y-133846822D01*
X143085713Y-133846822D02*
X143485713Y-135046822D01*
X144571427Y-134932537D02*
X144514284Y-134989680D01*
X144514284Y-134989680D02*
X144342856Y-135046822D01*
X144342856Y-135046822D02*
X144228570Y-135046822D01*
X144228570Y-135046822D02*
X144057141Y-134989680D01*
X144057141Y-134989680D02*
X143942856Y-134875394D01*
X143942856Y-134875394D02*
X143885713Y-134761108D01*
X143885713Y-134761108D02*
X143828570Y-134532537D01*
X143828570Y-134532537D02*
X143828570Y-134361108D01*
X143828570Y-134361108D02*
X143885713Y-134132537D01*
X143885713Y-134132537D02*
X143942856Y-134018251D01*
X143942856Y-134018251D02*
X144057141Y-133903965D01*
X144057141Y-133903965D02*
X144228570Y-133846822D01*
X144228570Y-133846822D02*
X144342856Y-133846822D01*
X144342856Y-133846822D02*
X144514284Y-133903965D01*
X144514284Y-133903965D02*
X144571427Y-133961108D01*
X145085713Y-134418251D02*
X145485713Y-134418251D01*
X145657141Y-135046822D02*
X145085713Y-135046822D01*
X145085713Y-135046822D02*
X145085713Y-133846822D01*
X145085713Y-133846822D02*
X145657141Y-133846822D01*
X147085713Y-133846822D02*
X147085713Y-134818251D01*
X147085713Y-134818251D02*
X147142856Y-134932537D01*
X147142856Y-134932537D02*
X147199999Y-134989680D01*
X147199999Y-134989680D02*
X147314284Y-135046822D01*
X147314284Y-135046822D02*
X147542856Y-135046822D01*
X147542856Y-135046822D02*
X147657141Y-134989680D01*
X147657141Y-134989680D02*
X147714284Y-134932537D01*
X147714284Y-134932537D02*
X147771427Y-134818251D01*
X147771427Y-134818251D02*
X147771427Y-133846822D01*
X148342856Y-135046822D02*
X148342856Y-133846822D01*
X148342856Y-133846822D02*
X148799999Y-133846822D01*
X148799999Y-133846822D02*
X148914284Y-133903965D01*
X148914284Y-133903965D02*
X148971427Y-133961108D01*
X148971427Y-133961108D02*
X149028570Y-134075394D01*
X149028570Y-134075394D02*
X149028570Y-134246822D01*
X149028570Y-134246822D02*
X148971427Y-134361108D01*
X148971427Y-134361108D02*
X148914284Y-134418251D01*
X148914284Y-134418251D02*
X148799999Y-134475394D01*
X148799999Y-134475394D02*
X148342856Y-134475394D01*
X150457142Y-134589680D02*
X151371428Y-134589680D01*
X152857142Y-135046822D02*
X152857142Y-133846822D01*
X152857142Y-133846822D02*
X153142856Y-133846822D01*
X153142856Y-133846822D02*
X153314285Y-133903965D01*
X153314285Y-133903965D02*
X153428570Y-134018251D01*
X153428570Y-134018251D02*
X153485713Y-134132537D01*
X153485713Y-134132537D02*
X153542856Y-134361108D01*
X153542856Y-134361108D02*
X153542856Y-134532537D01*
X153542856Y-134532537D02*
X153485713Y-134761108D01*
X153485713Y-134761108D02*
X153428570Y-134875394D01*
X153428570Y-134875394D02*
X153314285Y-134989680D01*
X153314285Y-134989680D02*
X153142856Y-135046822D01*
X153142856Y-135046822D02*
X152857142Y-135046822D01*
X154285713Y-133846822D02*
X154514285Y-133846822D01*
X154514285Y-133846822D02*
X154628570Y-133903965D01*
X154628570Y-133903965D02*
X154742856Y-134018251D01*
X154742856Y-134018251D02*
X154799999Y-134246822D01*
X154799999Y-134246822D02*
X154799999Y-134646822D01*
X154799999Y-134646822D02*
X154742856Y-134875394D01*
X154742856Y-134875394D02*
X154628570Y-134989680D01*
X154628570Y-134989680D02*
X154514285Y-135046822D01*
X154514285Y-135046822D02*
X154285713Y-135046822D01*
X154285713Y-135046822D02*
X154171428Y-134989680D01*
X154171428Y-134989680D02*
X154057142Y-134875394D01*
X154057142Y-134875394D02*
X153999999Y-134646822D01*
X153999999Y-134646822D02*
X153999999Y-134246822D01*
X153999999Y-134246822D02*
X154057142Y-134018251D01*
X154057142Y-134018251D02*
X154171428Y-133903965D01*
X154171428Y-133903965D02*
X154285713Y-133846822D01*
X156228571Y-135046822D02*
X156228571Y-133846822D01*
X156228571Y-133846822D02*
X156914285Y-135046822D01*
X156914285Y-135046822D02*
X156914285Y-133846822D01*
X157714285Y-133846822D02*
X157942857Y-133846822D01*
X157942857Y-133846822D02*
X158057142Y-133903965D01*
X158057142Y-133903965D02*
X158171428Y-134018251D01*
X158171428Y-134018251D02*
X158228571Y-134246822D01*
X158228571Y-134246822D02*
X158228571Y-134646822D01*
X158228571Y-134646822D02*
X158171428Y-134875394D01*
X158171428Y-134875394D02*
X158057142Y-134989680D01*
X158057142Y-134989680D02*
X157942857Y-135046822D01*
X157942857Y-135046822D02*
X157714285Y-135046822D01*
X157714285Y-135046822D02*
X157600000Y-134989680D01*
X157600000Y-134989680D02*
X157485714Y-134875394D01*
X157485714Y-134875394D02*
X157428571Y-134646822D01*
X157428571Y-134646822D02*
X157428571Y-134246822D01*
X157428571Y-134246822D02*
X157485714Y-134018251D01*
X157485714Y-134018251D02*
X157600000Y-133903965D01*
X157600000Y-133903965D02*
X157714285Y-133846822D01*
X158571428Y-133846822D02*
X159257143Y-133846822D01*
X158914285Y-135046822D02*
X158914285Y-133846822D01*
X160457143Y-133846822D02*
X160742857Y-135046822D01*
X160742857Y-135046822D02*
X160971429Y-134189680D01*
X160971429Y-134189680D02*
X161200000Y-135046822D01*
X161200000Y-135046822D02*
X161485715Y-133846822D01*
X161885715Y-134703965D02*
X162457144Y-134703965D01*
X161771429Y-135046822D02*
X162171429Y-133846822D01*
X162171429Y-133846822D02*
X162571429Y-135046822D01*
X162914286Y-134989680D02*
X163085715Y-135046822D01*
X163085715Y-135046822D02*
X163371429Y-135046822D01*
X163371429Y-135046822D02*
X163485715Y-134989680D01*
X163485715Y-134989680D02*
X163542857Y-134932537D01*
X163542857Y-134932537D02*
X163600000Y-134818251D01*
X163600000Y-134818251D02*
X163600000Y-134703965D01*
X163600000Y-134703965D02*
X163542857Y-134589680D01*
X163542857Y-134589680D02*
X163485715Y-134532537D01*
X163485715Y-134532537D02*
X163371429Y-134475394D01*
X163371429Y-134475394D02*
X163142857Y-134418251D01*
X163142857Y-134418251D02*
X163028572Y-134361108D01*
X163028572Y-134361108D02*
X162971429Y-134303965D01*
X162971429Y-134303965D02*
X162914286Y-134189680D01*
X162914286Y-134189680D02*
X162914286Y-134075394D01*
X162914286Y-134075394D02*
X162971429Y-133961108D01*
X162971429Y-133961108D02*
X163028572Y-133903965D01*
X163028572Y-133903965D02*
X163142857Y-133846822D01*
X163142857Y-133846822D02*
X163428572Y-133846822D01*
X163428572Y-133846822D02*
X163600000Y-133903965D01*
X164114286Y-135046822D02*
X164114286Y-133846822D01*
X164114286Y-134418251D02*
X164800000Y-134418251D01*
X164800000Y-135046822D02*
X164800000Y-133846822D01*
X132800000Y-150106013D02*
X133866667Y-150106013D01*
X134400000Y-149239346D02*
X135333333Y-150639346D01*
X135333333Y-149239346D02*
X134400000Y-150639346D01*
X134833332Y-132639346D02*
X134033332Y-132639346D01*
X134433332Y-132639346D02*
X134433332Y-131239346D01*
X134433332Y-131239346D02*
X134299999Y-131439346D01*
X134299999Y-131439346D02*
X134166666Y-131572680D01*
X134166666Y-131572680D02*
X134033332Y-131639346D01*
X136033332Y-131239346D02*
X135766665Y-131239346D01*
X135766665Y-131239346D02*
X135633332Y-131306013D01*
X135633332Y-131306013D02*
X135566665Y-131372680D01*
X135566665Y-131372680D02*
X135433332Y-131572680D01*
X135433332Y-131572680D02*
X135366665Y-131839346D01*
X135366665Y-131839346D02*
X135366665Y-132372680D01*
X135366665Y-132372680D02*
X135433332Y-132506013D01*
X135433332Y-132506013D02*
X135499999Y-132572680D01*
X135499999Y-132572680D02*
X135633332Y-132639346D01*
X135633332Y-132639346D02*
X135899999Y-132639346D01*
X135899999Y-132639346D02*
X136033332Y-132572680D01*
X136033332Y-132572680D02*
X136099999Y-132506013D01*
X136099999Y-132506013D02*
X136166665Y-132372680D01*
X136166665Y-132372680D02*
X136166665Y-132039346D01*
X136166665Y-132039346D02*
X136099999Y-131906013D01*
X136099999Y-131906013D02*
X136033332Y-131839346D01*
X136033332Y-131839346D02*
X135899999Y-131772680D01*
X135899999Y-131772680D02*
X135633332Y-131772680D01*
X135633332Y-131772680D02*
X135499999Y-131839346D01*
X135499999Y-131839346D02*
X135433332Y-131906013D01*
X135433332Y-131906013D02*
X135366665Y-132039346D01*
X136766665Y-132106013D02*
X137833332Y-132106013D01*
X139299998Y-132506013D02*
X139233331Y-132572680D01*
X139233331Y-132572680D02*
X139033331Y-132639346D01*
X139033331Y-132639346D02*
X138899998Y-132639346D01*
X138899998Y-132639346D02*
X138699998Y-132572680D01*
X138699998Y-132572680D02*
X138566665Y-132439346D01*
X138566665Y-132439346D02*
X138499998Y-132306013D01*
X138499998Y-132306013D02*
X138433331Y-132039346D01*
X138433331Y-132039346D02*
X138433331Y-131839346D01*
X138433331Y-131839346D02*
X138499998Y-131572680D01*
X138499998Y-131572680D02*
X138566665Y-131439346D01*
X138566665Y-131439346D02*
X138699998Y-131306013D01*
X138699998Y-131306013D02*
X138899998Y-131239346D01*
X138899998Y-131239346D02*
X139033331Y-131239346D01*
X139033331Y-131239346D02*
X139233331Y-131306013D01*
X139233331Y-131306013D02*
X139299998Y-131372680D01*
X139899998Y-132639346D02*
X139899998Y-131239346D01*
X139899998Y-131906013D02*
X140699998Y-131906013D01*
X140699998Y-132639346D02*
X140699998Y-131239346D01*
X142433332Y-132639346D02*
X142433332Y-131239346D01*
X142433332Y-131239346D02*
X142966665Y-131239346D01*
X142966665Y-131239346D02*
X143099999Y-131306013D01*
X143099999Y-131306013D02*
X143166665Y-131372680D01*
X143166665Y-131372680D02*
X143233332Y-131506013D01*
X143233332Y-131506013D02*
X143233332Y-131706013D01*
X143233332Y-131706013D02*
X143166665Y-131839346D01*
X143166665Y-131839346D02*
X143099999Y-131906013D01*
X143099999Y-131906013D02*
X142966665Y-131972680D01*
X142966665Y-131972680D02*
X142433332Y-131972680D01*
X143833332Y-132639346D02*
X143833332Y-131239346D01*
X143833332Y-131239346D02*
X144166665Y-131239346D01*
X144166665Y-131239346D02*
X144366665Y-131306013D01*
X144366665Y-131306013D02*
X144499999Y-131439346D01*
X144499999Y-131439346D02*
X144566665Y-131572680D01*
X144566665Y-131572680D02*
X144633332Y-131839346D01*
X144633332Y-131839346D02*
X144633332Y-132039346D01*
X144633332Y-132039346D02*
X144566665Y-132306013D01*
X144566665Y-132306013D02*
X144499999Y-132439346D01*
X144499999Y-132439346D02*
X144366665Y-132572680D01*
X144366665Y-132572680D02*
X144166665Y-132639346D01*
X144166665Y-132639346D02*
X143833332Y-132639346D01*
X145233332Y-132639346D02*
X145233332Y-131239346D01*
X145233332Y-131239346D02*
X145699999Y-132239346D01*
X145699999Y-132239346D02*
X146166665Y-131239346D01*
X146166665Y-131239346D02*
X146166665Y-132639346D01*
X147899999Y-132639346D02*
X147899999Y-131239346D01*
X147899999Y-131239346D02*
X148366666Y-132239346D01*
X148366666Y-132239346D02*
X148833332Y-131239346D01*
X148833332Y-131239346D02*
X148833332Y-132639346D01*
X149499999Y-132639346D02*
X149499999Y-131239346D01*
X150966666Y-132506013D02*
X150899999Y-132572680D01*
X150899999Y-132572680D02*
X150699999Y-132639346D01*
X150699999Y-132639346D02*
X150566666Y-132639346D01*
X150566666Y-132639346D02*
X150366666Y-132572680D01*
X150366666Y-132572680D02*
X150233333Y-132439346D01*
X150233333Y-132439346D02*
X150166666Y-132306013D01*
X150166666Y-132306013D02*
X150099999Y-132039346D01*
X150099999Y-132039346D02*
X150099999Y-131839346D01*
X150099999Y-131839346D02*
X150166666Y-131572680D01*
X150166666Y-131572680D02*
X150233333Y-131439346D01*
X150233333Y-131439346D02*
X150366666Y-131306013D01*
X150366666Y-131306013D02*
X150566666Y-131239346D01*
X150566666Y-131239346D02*
X150699999Y-131239346D01*
X150699999Y-131239346D02*
X150899999Y-131306013D01*
X150899999Y-131306013D02*
X150966666Y-131372680D01*
X152566666Y-132239346D02*
X153233333Y-132239346D01*
X152433333Y-132639346D02*
X152900000Y-131239346D01*
X152900000Y-131239346D02*
X153366666Y-132639346D01*
X154633333Y-132639346D02*
X154166666Y-131972680D01*
X153833333Y-132639346D02*
X153833333Y-131239346D01*
X153833333Y-131239346D02*
X154366666Y-131239346D01*
X154366666Y-131239346D02*
X154500000Y-131306013D01*
X154500000Y-131306013D02*
X154566666Y-131372680D01*
X154566666Y-131372680D02*
X154633333Y-131506013D01*
X154633333Y-131506013D02*
X154633333Y-131706013D01*
X154633333Y-131706013D02*
X154566666Y-131839346D01*
X154566666Y-131839346D02*
X154500000Y-131906013D01*
X154500000Y-131906013D02*
X154366666Y-131972680D01*
X154366666Y-131972680D02*
X153833333Y-131972680D01*
X156033333Y-132639346D02*
X155566666Y-131972680D01*
X155233333Y-132639346D02*
X155233333Y-131239346D01*
X155233333Y-131239346D02*
X155766666Y-131239346D01*
X155766666Y-131239346D02*
X155900000Y-131306013D01*
X155900000Y-131306013D02*
X155966666Y-131372680D01*
X155966666Y-131372680D02*
X156033333Y-131506013D01*
X156033333Y-131506013D02*
X156033333Y-131706013D01*
X156033333Y-131706013D02*
X155966666Y-131839346D01*
X155966666Y-131839346D02*
X155900000Y-131906013D01*
X155900000Y-131906013D02*
X155766666Y-131972680D01*
X155766666Y-131972680D02*
X155233333Y-131972680D01*
X156566666Y-132239346D02*
X157233333Y-132239346D01*
X156433333Y-132639346D02*
X156900000Y-131239346D01*
X156900000Y-131239346D02*
X157366666Y-132639346D01*
X158100000Y-131972680D02*
X158100000Y-132639346D01*
X157633333Y-131239346D02*
X158100000Y-131972680D01*
X158100000Y-131972680D02*
X158566666Y-131239346D01*
X161166667Y-132639346D02*
X161166667Y-131706013D01*
X161166667Y-131972680D02*
X161233334Y-131839346D01*
X161233334Y-131839346D02*
X161300000Y-131772680D01*
X161300000Y-131772680D02*
X161433334Y-131706013D01*
X161433334Y-131706013D02*
X161566667Y-131706013D01*
X162566667Y-132572680D02*
X162433334Y-132639346D01*
X162433334Y-132639346D02*
X162166667Y-132639346D01*
X162166667Y-132639346D02*
X162033334Y-132572680D01*
X162033334Y-132572680D02*
X161966667Y-132439346D01*
X161966667Y-132439346D02*
X161966667Y-131906013D01*
X161966667Y-131906013D02*
X162033334Y-131772680D01*
X162033334Y-131772680D02*
X162166667Y-131706013D01*
X162166667Y-131706013D02*
X162433334Y-131706013D01*
X162433334Y-131706013D02*
X162566667Y-131772680D01*
X162566667Y-131772680D02*
X162633334Y-131906013D01*
X162633334Y-131906013D02*
X162633334Y-132039346D01*
X162633334Y-132039346D02*
X161966667Y-132172680D01*
X163100001Y-131706013D02*
X163433334Y-132639346D01*
X163433334Y-132639346D02*
X163766667Y-131706013D01*
X165300001Y-132239346D02*
X165966668Y-132239346D01*
X165166668Y-132639346D02*
X165633335Y-131239346D01*
X165633335Y-131239346D02*
X166100001Y-132639346D01*
X178800000Y-150106013D02*
X179866667Y-150106013D01*
X179333333Y-150639346D02*
X179333333Y-149572680D01*
X180400000Y-149239346D02*
X181333333Y-150639346D01*
X181333333Y-149239346D02*
X180400000Y-150639346D01*
D12*
X203661963Y-152218441D02*
X203446291Y-152218441D01*
X203661963Y-152938441D02*
X203446291Y-152938441D01*
D13*
X187461879Y-115125493D02*
G75*
G02*
X187236879Y-115125493I-112500J0D01*
G01*
X187236879Y-115125493D02*
G75*
G02*
X187461879Y-115125493I112500J0D01*
G01*
D14*
X132185645Y-102147776D02*
G75*
G02*
X131960647Y-102147776I-112499J0D01*
G01*
X131960647Y-102147776D02*
G75*
G02*
X132185645Y-102147776I112499J0D01*
G01*
D12*
X129940000Y-166290000D02*
X129990000Y-166290000D01*
X129940000Y-168110000D02*
X129940000Y-166290000D01*
X129990000Y-168110000D02*
X129940000Y-168110000D01*
X131110000Y-166290000D02*
X131890000Y-166290000D01*
X133010000Y-166290000D02*
X133060000Y-166290000D01*
X133060000Y-166290000D02*
X133060000Y-168110000D01*
X133060000Y-168110000D02*
X133010000Y-168110000D01*
X129990000Y-168650000D02*
X129660000Y-168890000D01*
X129660000Y-168410000D01*
X129990000Y-168650000D01*
G36*
X129990000Y-168650000D02*
G01*
X129660000Y-168890000D01*
X129660000Y-168410000D01*
X129990000Y-168650000D01*
G37*
X171662940Y-165490751D02*
X171662940Y-165798033D01*
X172422940Y-165490751D02*
X172422940Y-165798033D01*
D13*
X184987006Y-187349379D02*
G75*
G02*
X184762006Y-187349379I-112500J0D01*
G01*
X184762006Y-187349379D02*
G75*
G02*
X184987006Y-187349379I112500J0D01*
G01*
D12*
X173510018Y-102410273D02*
X173510017Y-102194601D01*
X174230019Y-102410273D02*
X174230018Y-102194601D01*
X183507405Y-187008482D02*
X183507405Y-187224154D01*
X184227405Y-187008482D02*
X184227405Y-187224154D01*
X151246359Y-167320000D02*
X151553641Y-167320000D01*
X151246359Y-168080000D02*
X151553641Y-168080000D01*
X162865000Y-153661252D02*
X162865000Y-153138748D01*
X164335000Y-153661252D02*
X164335000Y-153138748D01*
X150020000Y-104353641D02*
X150020000Y-104046359D01*
X150780000Y-104353641D02*
X150780000Y-104046359D01*
X191509612Y-186674727D02*
X191509612Y-186367445D01*
X192269612Y-186674727D02*
X192269612Y-186367445D01*
X169546359Y-142820000D02*
X169853641Y-142820000D01*
X169546359Y-143580000D02*
X169853641Y-143580000D01*
D13*
X196625331Y-171160432D02*
G75*
G02*
X196400331Y-171160432I-112500J0D01*
G01*
X196400331Y-171160432D02*
G75*
G02*
X196625331Y-171160432I112500J0D01*
G01*
D12*
X115803281Y-187709171D02*
X115803281Y-187924843D01*
X116523281Y-187709171D02*
X116523281Y-187924843D01*
D13*
X128952067Y-196512831D02*
G75*
G02*
X128727067Y-196512831I-112500J0D01*
G01*
X128727067Y-196512831D02*
G75*
G02*
X128952067Y-196512831I112500J0D01*
G01*
D12*
X179390998Y-172049493D02*
X179390998Y-171742211D01*
X180150998Y-172049493D02*
X180150998Y-171742211D01*
X172690000Y-167015000D02*
X177310000Y-167015000D01*
X177310000Y-173785000D02*
X172690000Y-173785000D01*
X171140000Y-167470000D02*
X170810000Y-167710000D01*
X170810000Y-167230000D01*
X171140000Y-167470000D01*
G36*
X171140000Y-167470000D02*
G01*
X170810000Y-167710000D01*
X170810000Y-167230000D01*
X171140000Y-167470000D01*
G37*
X129050071Y-157379033D02*
X129050071Y-157901537D01*
X130520071Y-157379033D02*
X130520071Y-157901537D01*
X164720000Y-166253641D02*
X164720000Y-165946359D01*
X165480000Y-166253641D02*
X165480000Y-165946359D01*
X171446359Y-175720001D02*
X171753641Y-175720000D01*
X171446359Y-176480000D02*
X171753641Y-176479999D01*
X174700323Y-165622424D02*
X175007605Y-165622424D01*
X174700323Y-166382424D02*
X175007605Y-166382424D01*
X125749980Y-197851202D02*
X125749981Y-197543920D01*
X126509979Y-197851202D02*
X126509980Y-197543920D01*
X125890000Y-182086252D02*
X125890000Y-179313748D01*
X129310000Y-182086252D02*
X129310000Y-179313748D01*
X147353641Y-106820000D02*
X147046359Y-106820001D01*
X147353641Y-107579999D02*
X147046359Y-107580000D01*
X197733470Y-166409108D02*
X198040752Y-166409109D01*
X197733470Y-167169107D02*
X198040752Y-167169108D01*
X180346359Y-177820000D02*
X180653641Y-177820001D01*
X180346359Y-178579999D02*
X180653641Y-178580000D01*
X195018615Y-129954495D02*
X195018616Y-130261777D01*
X195778614Y-129954495D02*
X195778615Y-130261777D01*
X165861252Y-168565000D02*
X165338748Y-168565000D01*
X165861252Y-170035000D02*
X165338748Y-170035000D01*
X121850000Y-158390000D02*
X121850000Y-163900000D01*
X125150000Y-158390000D02*
X121850000Y-158390000D01*
X125150000Y-158390000D02*
X125150000Y-163900000D01*
X149181049Y-205888616D02*
X148873767Y-205888616D01*
X149181049Y-206648616D02*
X148873767Y-206648616D01*
X128401745Y-96841169D02*
X128617417Y-96841170D01*
X128401745Y-97561170D02*
X128617417Y-97561171D01*
X144394645Y-128708646D02*
X144394645Y-128924318D01*
X145114645Y-128708646D02*
X145114645Y-128924318D01*
X179457292Y-167732187D02*
X179457292Y-167424905D01*
X180217292Y-167732187D02*
X180217292Y-167424905D01*
D13*
X151862500Y-98930000D02*
G75*
G02*
X151637500Y-98930000I-112500J0D01*
G01*
X151637500Y-98930000D02*
G75*
G02*
X151862500Y-98930000I112500J0D01*
G01*
D12*
X167490000Y-152859420D02*
X167490000Y-153140580D01*
X168510000Y-152859420D02*
X168510000Y-153140580D01*
X143520000Y-172953641D02*
X143520000Y-172646359D01*
X144280000Y-172953641D02*
X144280000Y-172646359D01*
X130884675Y-169854588D02*
X131165835Y-169854588D01*
X130884675Y-170874588D02*
X131165835Y-170874588D01*
X176803141Y-175015697D02*
X176803141Y-174800025D01*
X177523141Y-175015697D02*
X177523141Y-174800025D01*
X147022775Y-96813543D02*
X147022775Y-96506261D01*
X147782775Y-96813543D02*
X147782775Y-96506261D01*
X139376350Y-128565623D02*
X139376350Y-128258341D01*
X140136350Y-128565623D02*
X140136350Y-128258341D01*
D13*
X201182500Y-151750000D02*
G75*
G02*
X200957500Y-151750000I-112500J0D01*
G01*
X200957500Y-151750000D02*
G75*
G02*
X201182500Y-151750000I112500J0D01*
G01*
D12*
X124753641Y-165820000D02*
X124446359Y-165820001D01*
X124753641Y-166579999D02*
X124446359Y-166580000D01*
D14*
X102260275Y-167926853D02*
G75*
G02*
X102035277Y-167926853I-112499J0D01*
G01*
X102035277Y-167926853D02*
G75*
G02*
X102260275Y-167926853I112499J0D01*
G01*
D12*
X177288602Y-165657036D02*
X177595884Y-165657036D01*
X177288602Y-166417036D02*
X177595884Y-166417036D01*
X171484153Y-104126796D02*
X171176871Y-104126795D01*
X171484153Y-104886795D02*
X171176871Y-104886794D01*
D13*
X171272932Y-103487168D02*
G75*
G02*
X171047932Y-103487168I-112500J0D01*
G01*
X171047932Y-103487168D02*
G75*
G02*
X171272932Y-103487168I112500J0D01*
G01*
D12*
X128777322Y-195133202D02*
X128561650Y-195133203D01*
X128777322Y-195853203D02*
X128561650Y-195853204D01*
X133564548Y-166977674D02*
X133564548Y-166696514D01*
X134584548Y-166977674D02*
X134584548Y-166696514D01*
X144820000Y-131046359D02*
X144820000Y-131353641D01*
X145580000Y-131046359D02*
X145580000Y-131353641D01*
X157746359Y-114220000D02*
X158053641Y-114220000D01*
X157746359Y-114980000D02*
X158053641Y-114980000D01*
X178320000Y-175653641D02*
X178320000Y-175346359D01*
X179080000Y-175653641D02*
X179080000Y-175346359D01*
X173798566Y-175178422D02*
X173798566Y-175485704D01*
X174558566Y-175178422D02*
X174558566Y-175485704D01*
D13*
X148362500Y-201070000D02*
G75*
G02*
X148137500Y-201070000I-112500J0D01*
G01*
X148137500Y-201070000D02*
G75*
G02*
X148362500Y-201070000I112500J0D01*
G01*
D12*
X102266528Y-132830891D02*
X101959246Y-132830890D01*
X102266528Y-133590890D02*
X101959246Y-133590889D01*
X168458509Y-169104919D02*
X168458509Y-168823759D01*
X169478509Y-169104919D02*
X169478509Y-168823759D01*
X171400378Y-146940000D02*
X172199622Y-146940000D01*
X171400378Y-148060000D02*
X172199622Y-148060000D01*
X131320001Y-172646359D02*
X131320000Y-172953641D01*
X132080000Y-172646359D02*
X132079999Y-172953641D01*
X138720000Y-169853641D02*
X138720000Y-169546359D01*
X139480000Y-169853641D02*
X139480000Y-169546359D01*
D14*
X168039352Y-197852223D02*
G75*
G02*
X167814354Y-197852223I-112499J0D01*
G01*
X167814354Y-197852223D02*
G75*
G02*
X168039352Y-197852223I112499J0D01*
G01*
D12*
X93351383Y-148873767D02*
X93351383Y-149181049D01*
X94111383Y-148873767D02*
X94111383Y-149181049D01*
X195539786Y-134485983D02*
X195847068Y-134485982D01*
X195539786Y-135245982D02*
X195847068Y-135245981D01*
D13*
X99042500Y-148250000D02*
G75*
G02*
X98817500Y-148250000I-112500J0D01*
G01*
X98817500Y-148250000D02*
G75*
G02*
X99042500Y-148250000I112500J0D01*
G01*
D12*
X202438828Y-128401745D02*
X202438827Y-128617417D01*
X203158829Y-128401745D02*
X203158828Y-128617417D01*
X102410273Y-125769979D02*
X102194601Y-125769980D01*
X102410273Y-126489980D02*
X102194601Y-126489981D01*
D14*
X197964722Y-132073146D02*
G75*
G02*
X197739724Y-132073146I-112499J0D01*
G01*
X197739724Y-132073146D02*
G75*
G02*
X197964722Y-132073146I112499J0D01*
G01*
D12*
X138653641Y-121720000D02*
X138346359Y-121720000D01*
X138653641Y-122480000D02*
X138346359Y-122480000D01*
X136346359Y-186320000D02*
X136653641Y-186320000D01*
X136346359Y-187080000D02*
X136653641Y-187080000D01*
X135413226Y-168919197D02*
X134890722Y-168919197D01*
X135413226Y-170389197D02*
X134890722Y-170389197D01*
X147061558Y-203446291D02*
X147061558Y-203661963D01*
X147781558Y-203446291D02*
X147781558Y-203661963D01*
X130261777Y-104221383D02*
X129954495Y-104221384D01*
X130261777Y-104981382D02*
X129954495Y-104981383D01*
X96553708Y-147061558D02*
X96338036Y-147061558D01*
X96553708Y-147781558D02*
X96338036Y-147781558D01*
X99547718Y-166468617D02*
X99240436Y-166468618D01*
X99547718Y-167228616D02*
X99240436Y-167228617D01*
D13*
X103599668Y-128839567D02*
G75*
G02*
X103374668Y-128839567I-112500J0D01*
G01*
X103374668Y-128839567D02*
G75*
G02*
X103599668Y-128839567I112500J0D01*
G01*
D12*
X126157091Y-185428959D02*
X125849809Y-185428959D01*
X126157091Y-186188959D02*
X125849809Y-186188959D01*
X152218441Y-96553708D02*
X152218441Y-96338036D01*
X152938441Y-96553708D02*
X152938441Y-96338036D01*
X205888616Y-151126232D02*
X205888616Y-150818950D01*
X206648616Y-151126232D02*
X206648616Y-150818950D01*
X113364487Y-108282478D02*
X113057205Y-108282478D01*
X113364487Y-109042478D02*
X113057205Y-109042478D01*
X149620000Y-174253641D02*
X149620000Y-173946359D01*
X150380000Y-174253641D02*
X150380000Y-173946359D01*
X112290827Y-115803281D02*
X112075155Y-115803281D01*
X112290827Y-116523281D02*
X112075155Y-116523281D01*
X127597800Y-167395745D02*
X127597800Y-167918249D01*
X129067800Y-167395745D02*
X129067800Y-167918249D01*
X197589725Y-173510018D02*
X197805397Y-173510017D01*
X197589725Y-174230019D02*
X197805397Y-174230018D01*
X168724732Y-177845227D02*
X170544732Y-177845227D01*
X168724732Y-177895227D02*
X168724732Y-177845227D01*
X168724732Y-180965227D02*
X168724732Y-180915227D01*
X170544732Y-177845227D02*
X170544732Y-177895227D01*
X170544732Y-180915227D02*
X170544732Y-180965227D01*
X170544732Y-180965227D02*
X168724732Y-180965227D01*
X171084732Y-180915227D02*
X171324732Y-181245227D01*
X170844732Y-181245227D01*
X171084732Y-180915227D01*
G36*
X171324732Y-181245227D02*
G01*
X170844732Y-181245227D01*
X171084732Y-180915227D01*
X171324732Y-181245227D01*
G37*
X161679714Y-168261287D02*
X161679714Y-168568569D01*
X162439714Y-168261287D02*
X162439714Y-168568569D01*
X187224155Y-115772593D02*
X187008483Y-115772593D01*
X187224155Y-116492593D02*
X187008483Y-116492593D01*
X174220000Y-107253641D02*
X174220001Y-106946359D01*
X174979999Y-107253641D02*
X174980000Y-106946359D01*
X112730039Y-183487405D02*
X113037321Y-183487405D01*
X112730039Y-184247405D02*
X113037321Y-184247405D01*
X166488616Y-200713757D02*
X166488617Y-200498085D01*
X167208617Y-200713757D02*
X167208618Y-200498085D01*
X165253641Y-164020000D02*
X164946359Y-164020000D01*
X165253641Y-164780000D02*
X164946359Y-164780000D01*
D13*
X115237993Y-112650620D02*
G75*
G02*
X115012993Y-112650620I-112500J0D01*
G01*
X115012993Y-112650620D02*
G75*
G02*
X115237993Y-112650620I112500J0D01*
G01*
X112763120Y-184874506D02*
G75*
G02*
X112538120Y-184874506I-112500J0D01*
G01*
X112538120Y-184874506D02*
G75*
G02*
X112763120Y-184874506I112500J0D01*
G01*
D10*
X140550000Y-127550000D02*
X140550000Y-131050000D01*
X143850000Y-127550000D02*
X143850000Y-131050000D01*
D13*
X140662500Y-127350000D02*
G75*
G02*
X140437500Y-127350000I-112500J0D01*
G01*
X140437500Y-127350000D02*
G75*
G02*
X140662500Y-127350000I112500J0D01*
G01*
D12*
X96841170Y-171382581D02*
X96841169Y-171598253D01*
X97561171Y-171382581D02*
X97561170Y-171598253D01*
X180153086Y-169945542D02*
X179845804Y-169945542D01*
X180153086Y-170705542D02*
X179845804Y-170705542D01*
X164853641Y-170820000D02*
X164546359Y-170820000D01*
X164853641Y-171580000D02*
X164546359Y-171580000D01*
X165643275Y-174064147D02*
X167463275Y-174064147D01*
X165643275Y-174114147D02*
X165643275Y-174064147D01*
X165643275Y-177184147D02*
X165643275Y-177134147D01*
X167463275Y-174064147D02*
X167463275Y-174114147D01*
X167463275Y-177134147D02*
X167463275Y-177184147D01*
X167463275Y-177184147D02*
X165643275Y-177184147D01*
X165103275Y-174114147D02*
X164863275Y-173784147D01*
X165343275Y-173784147D01*
X165103275Y-174114147D01*
G36*
X165103275Y-174114147D02*
G01*
X164863275Y-173784147D01*
X165343275Y-173784147D01*
X165103275Y-174114147D01*
G37*
X108953641Y-125120001D02*
X108646359Y-125120000D01*
X108953641Y-125880000D02*
X108646359Y-125879999D01*
X128293654Y-164574562D02*
X128293654Y-164790234D01*
X129013654Y-164574562D02*
X129013654Y-164790234D01*
X183456717Y-112029350D02*
X183456717Y-112336632D01*
X184216717Y-112029350D02*
X184216717Y-112336632D01*
X158438748Y-148865000D02*
X158961252Y-148865000D01*
X158438748Y-150335000D02*
X158961252Y-150335000D01*
X171336776Y-202418829D02*
X171644058Y-202418828D01*
X171336776Y-203178828D02*
X171644058Y-203178827D01*
X169932027Y-168507706D02*
X169932027Y-168814988D01*
X170692027Y-168507706D02*
X170692027Y-168814988D01*
X115320000Y-134946359D02*
X115320000Y-135253641D01*
X116080000Y-134946359D02*
X116080000Y-135253641D01*
%LPC*%
D15*
X204034127Y-152578441D03*
X203074127Y-152578441D03*
D16*
X187473123Y-113163272D03*
X188427717Y-112208678D03*
X187791321Y-111572282D03*
X186836727Y-112526876D03*
D17*
X186412463Y-113587536D03*
D18*
X188498428Y-113233983D03*
D17*
X188851981Y-111148018D03*
D18*
X186766016Y-111501571D03*
D19*
X130307644Y-101282542D03*
X129791021Y-100035305D03*
X128959530Y-100379720D03*
X129476153Y-101626957D03*
D20*
X130293716Y-102424823D03*
D21*
X130765339Y-100362344D03*
D20*
X128973458Y-99237439D03*
D21*
X128501835Y-101299918D03*
D22*
X158100000Y-157300000D03*
D23*
X130550000Y-168337500D03*
X131500000Y-168337500D03*
X132450000Y-168337500D03*
X132450000Y-166062500D03*
X130550000Y-166062500D03*
D24*
X200000000Y-139200000D03*
D25*
X172042940Y-165134392D03*
X172042940Y-166154392D03*
D26*
X186836727Y-187473123D03*
X187791321Y-188427717D03*
X188427717Y-187791321D03*
X187473123Y-186836727D03*
D27*
X186412463Y-186412463D03*
D28*
X186766016Y-188498428D03*
D27*
X188851981Y-188851981D03*
D28*
X188498428Y-186766016D03*
D29*
X173870018Y-102782437D03*
X173870018Y-101822437D03*
D30*
X183867405Y-186636318D03*
X183867405Y-187596318D03*
D31*
X150890000Y-167700000D03*
X151910000Y-167700000D03*
D32*
X163600000Y-154350000D03*
X163600000Y-152450000D03*
D33*
X150400000Y-104710000D03*
X150400000Y-103690000D03*
X191889612Y-187031085D03*
X191889612Y-186011087D03*
D31*
X169190000Y-143200000D03*
X170210000Y-143200000D03*
D24*
X96000000Y-124900000D03*
D34*
X198373042Y-170523846D03*
X199620279Y-171040469D03*
X199964694Y-170208978D03*
X198717457Y-169692355D03*
D35*
X197575176Y-169706283D03*
D36*
X198700081Y-171498164D03*
D35*
X200762560Y-171026541D03*
D36*
X199637655Y-169234660D03*
D30*
X116163281Y-187337007D03*
X116163281Y-188297007D03*
D37*
X129476153Y-198373042D03*
X128959530Y-199620279D03*
X129791021Y-199964694D03*
X130307644Y-198717457D03*
D38*
X130293716Y-197575176D03*
D39*
X128501835Y-198700081D03*
D38*
X128973458Y-200762560D03*
D39*
X130765339Y-199637655D03*
D33*
X179770998Y-172405852D03*
X179770998Y-171385852D03*
D40*
X172137500Y-167475000D03*
X172137500Y-168125000D03*
X172137500Y-168775000D03*
X172137500Y-169425000D03*
X172137500Y-170075000D03*
X172137500Y-170725000D03*
X172137500Y-171375000D03*
X172137500Y-172025000D03*
X172137500Y-172675000D03*
X172137500Y-173325000D03*
X177862500Y-173325000D03*
X177862500Y-172675000D03*
X177862500Y-172025000D03*
X177862500Y-171375000D03*
X177862500Y-170725000D03*
X177862500Y-170075000D03*
X177862500Y-169425000D03*
X177862500Y-168775000D03*
X177862500Y-168125000D03*
X177862500Y-167475000D03*
D41*
X129785071Y-156690285D03*
X129785071Y-158590285D03*
D33*
X165100000Y-166610000D03*
X165100000Y-165590000D03*
D31*
X171089999Y-176100000D03*
X172110001Y-176100000D03*
X174343964Y-166002424D03*
X175363964Y-166002424D03*
D24*
X137600000Y-105400000D03*
D33*
X126129980Y-198207562D03*
X126129980Y-197187560D03*
D42*
X127600000Y-182837500D03*
X127600000Y-178562500D03*
D43*
X147710001Y-107200000D03*
X146689999Y-107200000D03*
D31*
X197377110Y-166789108D03*
X198397112Y-166789108D03*
X179989999Y-178200000D03*
X181010001Y-178200000D03*
D25*
X195398615Y-129598135D03*
X195398615Y-130618137D03*
D44*
X166550000Y-169300000D03*
X164650000Y-169300000D03*
D45*
X123500000Y-159900000D03*
X123500000Y-163900000D03*
D43*
X149537408Y-206268616D03*
X148517408Y-206268616D03*
D46*
X128029581Y-97201170D03*
X128989581Y-97201170D03*
D30*
X144754645Y-128336482D03*
X144754645Y-129296482D03*
D33*
X179837292Y-168088546D03*
X179837292Y-167068546D03*
D47*
X150450000Y-97455000D03*
X150450000Y-96105000D03*
X149550000Y-96105000D03*
X149550000Y-97455000D03*
D48*
X150000000Y-98505000D03*
D49*
X151225000Y-96780000D03*
D48*
X150000000Y-95055000D03*
D49*
X148775000Y-96780000D03*
D50*
X168000000Y-152225000D03*
X168000000Y-153775000D03*
D33*
X143900000Y-173310000D03*
X143900000Y-172290000D03*
D51*
X130250255Y-170364588D03*
X131800255Y-170364588D03*
D29*
X177163141Y-175387861D03*
X177163141Y-174427861D03*
D33*
X147402775Y-97169902D03*
X147402775Y-96149902D03*
X139756350Y-128921982D03*
X139756350Y-127901982D03*
D52*
X202545000Y-150450000D03*
X203895000Y-150450000D03*
X203895000Y-149550000D03*
X202545000Y-149550000D03*
D53*
X201495000Y-150000000D03*
D54*
X203220000Y-151225000D03*
D53*
X204945000Y-150000000D03*
D54*
X203220000Y-148775000D03*
D43*
X125110001Y-166200000D03*
X124089999Y-166200000D03*
D55*
X101282542Y-169692355D03*
X100035305Y-170208978D03*
X100379720Y-171040469D03*
X101626957Y-170523846D03*
D56*
X102424823Y-169706283D03*
D57*
X100362344Y-169234660D03*
D56*
X99237439Y-171026541D03*
D57*
X101299918Y-171498164D03*
D31*
X176932243Y-166037036D03*
X177952243Y-166037036D03*
D43*
X171840513Y-104506795D03*
X170820511Y-104506795D03*
D58*
X170523846Y-101626957D03*
X171040469Y-100379720D03*
X170208978Y-100035305D03*
X169692355Y-101282542D03*
D59*
X169706283Y-102424823D03*
D60*
X171498164Y-101299918D03*
D59*
X171026541Y-99237439D03*
D60*
X169234660Y-100362344D03*
D15*
X129149486Y-195493203D03*
X128189486Y-195493203D03*
D24*
X194921286Y-185644430D03*
D61*
X134074548Y-167612094D03*
X134074548Y-166062094D03*
D24*
X119800000Y-183800000D03*
D25*
X145200000Y-130690000D03*
X145200000Y-131710000D03*
D31*
X157390001Y-114600000D03*
X158409999Y-114600000D03*
D24*
X159700000Y-175600000D03*
X177900000Y-179000000D03*
D33*
X178700000Y-176009999D03*
X178700000Y-174990001D03*
D25*
X174178566Y-174822063D03*
X174178566Y-175842063D03*
D47*
X149550000Y-202545000D03*
X149550000Y-203895000D03*
X150450000Y-203895000D03*
X150450000Y-202545000D03*
D48*
X150000000Y-201495000D03*
D49*
X148775000Y-203220000D03*
D48*
X150000000Y-204945000D03*
D49*
X151225000Y-203220000D03*
D43*
X102622888Y-133210890D03*
X101602886Y-133210890D03*
D61*
X168968509Y-169739339D03*
X168968509Y-168189339D03*
D24*
X193400000Y-166100000D03*
D62*
X170737500Y-147500000D03*
X172862500Y-147500000D03*
D25*
X131700000Y-172289999D03*
X131700000Y-173310001D03*
D33*
X139100000Y-170210000D03*
X139100000Y-169190000D03*
D24*
X159500000Y-146700000D03*
D63*
X169692355Y-198717457D03*
X170208978Y-199964694D03*
X171040469Y-199620279D03*
X170523846Y-198373042D03*
D64*
X169706283Y-197575176D03*
D65*
X169234660Y-199637655D03*
D64*
X171026541Y-200762560D03*
D65*
X171498164Y-198700081D03*
D24*
X117100000Y-160900000D03*
D25*
X93731383Y-148517408D03*
X93731383Y-149537408D03*
D31*
X195183426Y-134865982D03*
X196203428Y-134865982D03*
D52*
X97455000Y-149550000D03*
X96105000Y-149550000D03*
X96105000Y-150450000D03*
X97455000Y-150450000D03*
D53*
X98505000Y-150000000D03*
D54*
X96780000Y-148775000D03*
D53*
X95055000Y-150000000D03*
D54*
X96780000Y-151225000D03*
D30*
X202798828Y-128029581D03*
X202798828Y-128989581D03*
D15*
X102782437Y-126129980D03*
X101822437Y-126129980D03*
D66*
X198717457Y-130307644D03*
X199964694Y-129791021D03*
X199620279Y-128959530D03*
X198373042Y-129476153D03*
D67*
X197575176Y-130293716D03*
D68*
X199637655Y-130765339D03*
D67*
X200762560Y-128973458D03*
D68*
X198700081Y-128501835D03*
D43*
X139009999Y-122100000D03*
X137990001Y-122100000D03*
D31*
X135990000Y-186700000D03*
X137010000Y-186700000D03*
D44*
X136101974Y-169654197D03*
X134201974Y-169654197D03*
D30*
X147421558Y-203074127D03*
X147421558Y-204034127D03*
D24*
X180100000Y-119000000D03*
D43*
X130618137Y-104601383D03*
X129598135Y-104601383D03*
D15*
X96925872Y-147421558D03*
X95965872Y-147421558D03*
D43*
X99904078Y-166848617D03*
X98884076Y-166848617D03*
D69*
X101626957Y-129476153D03*
X100379720Y-128959530D03*
X100035305Y-129791021D03*
X101282542Y-130307644D03*
D70*
X102424823Y-130293716D03*
D71*
X101299918Y-128501835D03*
D70*
X99237439Y-128973458D03*
D71*
X100362344Y-130765339D03*
D43*
X126513449Y-185808959D03*
X125493451Y-185808959D03*
D29*
X152578441Y-96925872D03*
X152578441Y-95965872D03*
D33*
X206268616Y-151482591D03*
X206268616Y-150462591D03*
D43*
X113720845Y-108662478D03*
X112700847Y-108662478D03*
D33*
X150000000Y-174610000D03*
X150000000Y-173590000D03*
D15*
X112662991Y-116163281D03*
X111702991Y-116163281D03*
D41*
X128332800Y-166706997D03*
X128332800Y-168606997D03*
D46*
X197217561Y-173870018D03*
X198177561Y-173870018D03*
D72*
X170772232Y-180355227D03*
X170772232Y-179405227D03*
X170772232Y-178455227D03*
X168497232Y-178455227D03*
X168497232Y-179405227D03*
X168497232Y-180355227D03*
D25*
X162059714Y-167904928D03*
X162059714Y-168924928D03*
D15*
X187596319Y-116132593D03*
X186636319Y-116132593D03*
D33*
X174600000Y-107610001D03*
X174600000Y-106589999D03*
D31*
X112373681Y-183867405D03*
X113393679Y-183867405D03*
D29*
X166848617Y-201085921D03*
X166848617Y-200125921D03*
D43*
X165610000Y-164400000D03*
X164590000Y-164400000D03*
D73*
X113163272Y-112526876D03*
X112208678Y-111572282D03*
X111572282Y-112208678D03*
X112526876Y-113163272D03*
D74*
X113587536Y-113587536D03*
D75*
X113233983Y-111501571D03*
D74*
X111148018Y-111148018D03*
D75*
X111501571Y-113233983D03*
D76*
X112526876Y-186836727D03*
X111572282Y-187791321D03*
X112208678Y-188427717D03*
X113163272Y-187473123D03*
D77*
X113587536Y-186412463D03*
D78*
X111501571Y-186766016D03*
D77*
X111148018Y-188851981D03*
D78*
X113233983Y-188498428D03*
D79*
X141250000Y-128250000D03*
X141250000Y-130350000D03*
X143150000Y-130350000D03*
X143150000Y-128250000D03*
D30*
X97201170Y-171010417D03*
X97201170Y-171970417D03*
D43*
X180509445Y-170325542D03*
X179489445Y-170325542D03*
X165210000Y-171200000D03*
X164190000Y-171200000D03*
D80*
X165415775Y-174674147D03*
X165415775Y-175624147D03*
X165415775Y-176574147D03*
X167690775Y-176574147D03*
X167690775Y-175624147D03*
X167690775Y-174674147D03*
D22*
X132700000Y-155700000D03*
D43*
X109310001Y-125500000D03*
X108289999Y-125500000D03*
D30*
X128653654Y-164202398D03*
X128653654Y-165162398D03*
D25*
X183836717Y-111672992D03*
X183836717Y-112692990D03*
D81*
X157750000Y-149600000D03*
X159650000Y-149600000D03*
D31*
X170980416Y-202798828D03*
X172000418Y-202798828D03*
D24*
X147200000Y-127600000D03*
D25*
X170312027Y-168151347D03*
X170312027Y-169171347D03*
X115700000Y-134590000D03*
X115700000Y-135610000D03*
D82*
X165240000Y-179190000D03*
D83*
X165240000Y-181730000D03*
X162700000Y-179190000D03*
X162700000Y-181730000D03*
X160160000Y-179190000D03*
X160160000Y-181730000D03*
X157620000Y-179190000D03*
X157620000Y-181730000D03*
X155080000Y-179190000D03*
X155080000Y-181730000D03*
X152540000Y-179190000D03*
X152540000Y-181730000D03*
X150000000Y-179190000D03*
X150000000Y-181730000D03*
X147460000Y-179190000D03*
X147460000Y-181730000D03*
X144920000Y-179190000D03*
X144920000Y-181730000D03*
X142380000Y-179190000D03*
X142380000Y-181730000D03*
X139840000Y-179190000D03*
X139840000Y-181730000D03*
X137300000Y-179190000D03*
X137300000Y-181730000D03*
X134760000Y-179190000D03*
X134760000Y-181730000D03*
D82*
X189210000Y-138570000D03*
D83*
X186670000Y-138570000D03*
X184130000Y-138570000D03*
X181590000Y-138570000D03*
X179050000Y-138570000D03*
X176510000Y-138570000D03*
X173970000Y-138570000D03*
X171430000Y-138570000D03*
X168890000Y-138570000D03*
X166350000Y-138570000D03*
X163810000Y-138570000D03*
X161270000Y-138570000D03*
X158730000Y-138570000D03*
X156190000Y-138570000D03*
X153650000Y-138570000D03*
X151110000Y-138570000D03*
X148570000Y-138570000D03*
X146030000Y-138570000D03*
X143490000Y-138570000D03*
X140950000Y-138570000D03*
X138410000Y-138570000D03*
X135870000Y-138570000D03*
X133330000Y-138570000D03*
X130790000Y-138570000D03*
D82*
X189210000Y-161430000D03*
D83*
X186670000Y-161430000D03*
X184130000Y-161430000D03*
X181590000Y-161430000D03*
X179050000Y-161430000D03*
X176510000Y-161430000D03*
X173970000Y-161430000D03*
X171430000Y-161430000D03*
X168890000Y-161430000D03*
X166350000Y-161430000D03*
X163810000Y-161430000D03*
X161270000Y-161430000D03*
X158730000Y-161430000D03*
X156190000Y-161430000D03*
X153650000Y-161430000D03*
X151110000Y-161430000D03*
X148570000Y-161430000D03*
X146030000Y-161430000D03*
X143490000Y-161430000D03*
X140950000Y-161430000D03*
X138410000Y-161430000D03*
X135870000Y-161430000D03*
X133330000Y-161430000D03*
X130790000Y-161430000D03*
%LPD*%
M02*
