G04 #@! TF.GenerationSoftware,KiCad,Pcbnew,10.0.5*
G04 #@! TF.CreationDate,2026-08-28T19:26:30-06:00*
G04 #@! TF.ProjectId,candidate_placed,63616e64-6964-4617-9465-5f706c616365,rev?*
G04 #@! TF.SameCoordinates,Original*
G04 #@! TF.FileFunction,Paste,Top*
G04 #@! TF.FilePolarity,Positive*
%FSLAX46Y46*%
G04 Gerber Fmt 4.6, Leading zero omitted, Abs format (unit mm)*
G04 Created by KiCad (PCBNEW 10.0.5) date 2026-08-28 19:26:30*
%MOMM*%
%LPD*%
G01*
G04 APERTURE LIST*
G04 Aperture macros list*
%AMRoundRect*
0 Rectangle with rounded corners*
0 $1 Rounding radius*
0 $2 $3 $4 $5 $6 $7 $8 $9 X,Y pos of 4 corners*
0 Add a 4 corners polygon primitive as box body*
4,1,4,$2,$3,$4,$5,$6,$7,$8,$9,$2,$3,0*
0 Add four circle primitives for the rounded corners*
1,1,$1+$1,$2,$3*
1,1,$1+$1,$4,$5*
1,1,$1+$1,$6,$7*
1,1,$1+$1,$8,$9*
0 Add four rect primitives between the rounded corners*
20,1,$1+$1,$2,$3,$4,$5,0*
20,1,$1+$1,$4,$5,$6,$7,0*
20,1,$1+$1,$6,$7,$8,$9,0*
20,1,$1+$1,$8,$9,$2,$3,0*%
%AMRotRect*
0 Rectangle, with rotation*
0 The origin of the aperture is its center*
0 $1 length*
0 $2 width*
0 $3 Rotation angle, in degrees counterclockwise*
0 Add horizontal line*
21,1,$1,$2,0,0,$3*%
G04 Aperture macros list end*
%ADD10RoundRect,0.140000X0.140000X0.170000X-0.140000X0.170000X-0.140000X-0.170000X0.140000X-0.170000X0*%
%ADD11RotRect,0.400000X0.950000X315.000000*%
%ADD12RotRect,1.300000X0.350000X315.000000*%
%ADD13RotRect,0.350000X2.300000X315.000000*%
%ADD14RotRect,0.400000X0.950000X22.500000*%
%ADD15RotRect,1.300000X0.350000X22.500000*%
%ADD16RotRect,0.350000X2.300000X22.500000*%
%ADD17RoundRect,0.150000X-0.512500X-0.150000X0.512500X-0.150000X0.512500X0.150000X-0.512500X0.150000X0*%
%ADD18RoundRect,0.135000X0.135000X0.185000X-0.135000X0.185000X-0.135000X-0.185000X0.135000X-0.185000X0*%
%ADD19RotRect,0.400000X0.950000X225.000000*%
%ADD20RotRect,1.300000X0.350000X225.000000*%
%ADD21RotRect,0.350000X2.300000X225.000000*%
%ADD22RoundRect,0.140000X0.170000X-0.140000X0.170000X0.140000X-0.170000X0.140000X-0.170000X-0.140000X0*%
%ADD23RoundRect,0.135000X0.185000X-0.135000X0.185000X0.135000X-0.185000X0.135000X-0.185000X-0.135000X0*%
%ADD24RoundRect,0.250000X0.250000X0.475000X-0.250000X0.475000X-0.250000X-0.475000X0.250000X-0.475000X0*%
%ADD25RoundRect,0.135000X-0.135000X-0.185000X0.135000X-0.185000X0.135000X0.185000X-0.135000X0.185000X0*%
%ADD26RotRect,0.400000X0.950000X247.500000*%
%ADD27RotRect,1.300000X0.350000X247.500000*%
%ADD28RotRect,0.350000X2.300000X247.500000*%
%ADD29RotRect,0.400000X0.950000X157.500000*%
%ADD30RotRect,1.300000X0.350000X157.500000*%
%ADD31RotRect,0.350000X2.300000X157.500000*%
%ADD32RoundRect,0.100000X-0.100000X0.637500X-0.100000X-0.637500X0.100000X-0.637500X0.100000X0.637500X0*%
%ADD33RoundRect,0.250000X-0.475000X0.250000X-0.475000X-0.250000X0.475000X-0.250000X0.475000X0.250000X0*%
%ADD34RoundRect,0.135000X-0.185000X0.135000X-0.185000X-0.135000X0.185000X-0.135000X0.185000X0.135000X0*%
%ADD35RoundRect,0.250000X0.312500X1.450000X-0.312500X1.450000X-0.312500X-1.450000X0.312500X-1.450000X0*%
%ADD36RoundRect,0.250000X-0.250000X-0.475000X0.250000X-0.475000X0.250000X0.475000X-0.250000X0.475000X0*%
%ADD37RoundRect,0.250000X-0.650000X1.000000X-0.650000X-1.000000X0.650000X-1.000000X0.650000X1.000000X0*%
%ADD38RoundRect,0.140000X-0.170000X0.140000X-0.170000X-0.140000X0.170000X-0.140000X0.170000X0.140000X0*%
%ADD39R,0.400000X0.950000*%
%ADD40R,1.300000X0.350000*%
%ADD41R,0.350000X2.300000*%
%ADD42RoundRect,0.225000X-0.225000X-0.250000X0.225000X-0.250000X0.225000X0.250000X-0.225000X0.250000X0*%
%ADD43RoundRect,0.225000X0.225000X0.250000X-0.225000X0.250000X-0.225000X-0.250000X0.225000X-0.250000X0*%
%ADD44R,0.950000X0.400000*%
%ADD45R,0.350000X1.300000*%
%ADD46R,2.300000X0.350000*%
%ADD47RotRect,0.400000X0.950000X112.500000*%
%ADD48RotRect,1.300000X0.350000X112.500000*%
%ADD49RotRect,0.350000X2.300000X112.500000*%
%ADD50RotRect,0.400000X0.950000X337.500000*%
%ADD51RotRect,1.300000X0.350000X337.500000*%
%ADD52RotRect,0.350000X2.300000X337.500000*%
%ADD53RoundRect,0.218750X0.218750X0.381250X-0.218750X0.381250X-0.218750X-0.381250X0.218750X-0.381250X0*%
%ADD54RotRect,0.400000X0.950000X202.500000*%
%ADD55RotRect,1.300000X0.350000X202.500000*%
%ADD56RotRect,0.350000X2.300000X202.500000*%
%ADD57RoundRect,0.140000X-0.140000X-0.170000X0.140000X-0.170000X0.140000X0.170000X-0.140000X0.170000X0*%
%ADD58RotRect,0.400000X0.950000X292.500000*%
%ADD59RotRect,1.300000X0.350000X292.500000*%
%ADD60RotRect,0.350000X2.300000X292.500000*%
%ADD61RotRect,0.400000X0.950000X67.500000*%
%ADD62RotRect,1.300000X0.350000X67.500000*%
%ADD63RotRect,0.350000X2.300000X67.500000*%
%ADD64RoundRect,0.150000X-0.150000X0.512500X-0.150000X-0.512500X0.150000X-0.512500X0.150000X0.512500X0*%
%ADD65RotRect,0.400000X0.950000X45.000000*%
%ADD66RotRect,1.300000X0.350000X45.000000*%
%ADD67RotRect,0.350000X2.300000X45.000000*%
%ADD68RotRect,0.400000X0.950000X135.000000*%
%ADD69RotRect,1.300000X0.350000X135.000000*%
%ADD70RotRect,0.350000X2.300000X135.000000*%
%ADD71R,1.300000X1.200000*%
%ADD72RoundRect,0.150000X0.512500X0.150000X-0.512500X0.150000X-0.512500X-0.150000X0.512500X-0.150000X0*%
G04 APERTURE END LIST*
D10*
X204034127Y-152578441D03*
X203074127Y-152578441D03*
D11*
X187473123Y-113163272D03*
X188427717Y-112208678D03*
X187791321Y-111572282D03*
X186836727Y-112526876D03*
D12*
X186412463Y-113587536D03*
D13*
X188498428Y-113233983D03*
D12*
X188851981Y-111148018D03*
D13*
X186766016Y-111501571D03*
D14*
X130307644Y-101282542D03*
X129791021Y-100035305D03*
X128959530Y-100379720D03*
X129476153Y-101626957D03*
D15*
X130293716Y-102424823D03*
D16*
X130765339Y-100362344D03*
D15*
X128973458Y-99237439D03*
D16*
X128501835Y-101299918D03*
D17*
X122962500Y-157150000D03*
X122962500Y-158100000D03*
X122962500Y-159050000D03*
X125237500Y-159050000D03*
X125237500Y-157150000D03*
D18*
X153716446Y-146873848D03*
X152696446Y-146873848D03*
D19*
X186836727Y-187473123D03*
X187791321Y-188427717D03*
X188427717Y-187791321D03*
X187473123Y-186836727D03*
D20*
X186412463Y-186412463D03*
D21*
X186766016Y-188498428D03*
D20*
X188851981Y-188851981D03*
D21*
X188498428Y-186766016D03*
D10*
X171810512Y-104506795D03*
X170850512Y-104506795D03*
D22*
X183867405Y-187596318D03*
X183867405Y-186636318D03*
D23*
X149400000Y-167810000D03*
X149400000Y-166790000D03*
D24*
X148286277Y-142898984D03*
X146386277Y-142898984D03*
D25*
X140890000Y-119200000D03*
X141910000Y-119200000D03*
D18*
X188327006Y-183836717D03*
X187307008Y-183836717D03*
D23*
X177400000Y-154810000D03*
X177400000Y-153790000D03*
D26*
X198373042Y-170523846D03*
X199620279Y-171040469D03*
X199964694Y-170208978D03*
X198717457Y-169692355D03*
D27*
X197575176Y-169706283D03*
D28*
X198700081Y-171498164D03*
D27*
X200762560Y-171026541D03*
D28*
X199637655Y-169234660D03*
D22*
X116163281Y-188297007D03*
X116163281Y-187337007D03*
D29*
X129476153Y-198373042D03*
X128959530Y-199620279D03*
X129791021Y-199964694D03*
X130307644Y-198717457D03*
D30*
X130293716Y-197575176D03*
D31*
X128501835Y-198700081D03*
D30*
X128973458Y-200762560D03*
D31*
X130765339Y-199637655D03*
D23*
X156819152Y-149602846D03*
X156819152Y-148582846D03*
D32*
X155225000Y-149537500D03*
X154575000Y-149537500D03*
X153925000Y-149537500D03*
X153275000Y-149537500D03*
X152625000Y-149537500D03*
X151975000Y-149537500D03*
X151325000Y-149537500D03*
X150675000Y-149537500D03*
X150025000Y-149537500D03*
X149375000Y-149537500D03*
X149375000Y-155262500D03*
X150025000Y-155262500D03*
X150675000Y-155262500D03*
X151325000Y-155262500D03*
X151975000Y-155262500D03*
X152625000Y-155262500D03*
X153275000Y-155262500D03*
X153925000Y-155262500D03*
X154575000Y-155262500D03*
X155225000Y-155262500D03*
D33*
X163387237Y-168628188D03*
X163387237Y-170528188D03*
D18*
X137710000Y-174900000D03*
X136690000Y-174900000D03*
D34*
X183600000Y-166589999D03*
X183600000Y-167610001D03*
D23*
X156412042Y-154475599D03*
X156412042Y-153455599D03*
D34*
X133210890Y-197377110D03*
X133210890Y-198397112D03*
D35*
X126037500Y-183800000D03*
X121762500Y-183800000D03*
D23*
X135200000Y-109510001D03*
X135200000Y-108489999D03*
D18*
X198207562Y-173870018D03*
X197187560Y-173870018D03*
D25*
X189089999Y-169100000D03*
X190110001Y-169100000D03*
D23*
X202798828Y-129019582D03*
X202798828Y-127999580D03*
D36*
X156660502Y-157095309D03*
X158560502Y-157095309D03*
D37*
X120000000Y-148900000D03*
X120000000Y-152900000D03*
D34*
X152597224Y-202830097D03*
X152597224Y-203850097D03*
D38*
X133151381Y-98914077D03*
X133151381Y-99874077D03*
X155575708Y-171454764D03*
X155575708Y-172414764D03*
D34*
X147625455Y-150115562D03*
X147625455Y-151135562D03*
D39*
X150450000Y-97455000D03*
X150450000Y-96105000D03*
X149550000Y-96105000D03*
X149550000Y-97455000D03*
D40*
X150000000Y-98505000D03*
D41*
X151225000Y-96780000D03*
D40*
X150000000Y-95055000D03*
D41*
X148775000Y-96780000D03*
D42*
X155225000Y-147000000D03*
X156775000Y-147000000D03*
D23*
X136300000Y-171410000D03*
X136300000Y-170390000D03*
D43*
X124765037Y-160697673D03*
X123215037Y-160697673D03*
D22*
X152688589Y-158466501D03*
X152688589Y-157506501D03*
D18*
X147356235Y-97322003D03*
X146336235Y-97322003D03*
D34*
X160660733Y-169393591D03*
X160660733Y-170413591D03*
D44*
X202545000Y-150450000D03*
X203895000Y-150450000D03*
X203895000Y-149550000D03*
X202545000Y-149550000D03*
D45*
X201495000Y-150000000D03*
D46*
X203220000Y-151225000D03*
D45*
X204945000Y-150000000D03*
D46*
X203220000Y-148775000D03*
D18*
X122610001Y-155600000D03*
X121589999Y-155600000D03*
D47*
X101282542Y-169692355D03*
X100035305Y-170208978D03*
X100379720Y-171040469D03*
X101626957Y-170523846D03*
D48*
X102424823Y-169706283D03*
D49*
X100362344Y-169234660D03*
D48*
X99237439Y-171026541D03*
D49*
X101299918Y-171498164D03*
D25*
X150228814Y-157777982D03*
X151248814Y-157777982D03*
D34*
X173870018Y-101792436D03*
X173870018Y-102812438D03*
D50*
X170523846Y-101626957D03*
X171040469Y-100379720D03*
X170208978Y-100035305D03*
X169692355Y-101282542D03*
D51*
X169706283Y-102424823D03*
D52*
X171498164Y-101299918D03*
D51*
X171026541Y-99237439D03*
D52*
X169234660Y-100362344D03*
D22*
X126129980Y-198177561D03*
X126129980Y-197217561D03*
D42*
X119594272Y-157377729D03*
X121144272Y-157377729D03*
D34*
X160758669Y-171706419D03*
X160758669Y-172726419D03*
D23*
X158500000Y-135009999D03*
X158500000Y-133990001D03*
D34*
X186900000Y-169990001D03*
X186900000Y-171009999D03*
X156657304Y-151278530D03*
X156657304Y-152298530D03*
D39*
X149550000Y-202545000D03*
X149550000Y-203895000D03*
X150450000Y-203895000D03*
X150450000Y-202545000D03*
D40*
X150000000Y-201495000D03*
D41*
X148775000Y-203220000D03*
D40*
X150000000Y-204945000D03*
D41*
X151225000Y-203220000D03*
D25*
X101602886Y-133210890D03*
X102622888Y-133210890D03*
D43*
X147007811Y-153676409D03*
X145457811Y-153676409D03*
D53*
X170762500Y-151700000D03*
X168637500Y-151700000D03*
D34*
X104100000Y-185689999D03*
X104100000Y-186710001D03*
D23*
X142400000Y-172310000D03*
X142400000Y-171290000D03*
D54*
X169692355Y-198717457D03*
X170208978Y-199964694D03*
X171040469Y-199620279D03*
X170523846Y-198373042D03*
D55*
X169706283Y-197575176D03*
D56*
X169234660Y-199637655D03*
D55*
X171026541Y-200762560D03*
D56*
X171498164Y-198700081D03*
D18*
X97169902Y-152597224D03*
X96149902Y-152597224D03*
D25*
X174489999Y-152500000D03*
X175510001Y-152500000D03*
D44*
X97455000Y-149550000D03*
X96105000Y-149550000D03*
X96105000Y-150450000D03*
X97455000Y-150450000D03*
D45*
X98505000Y-150000000D03*
D46*
X96780000Y-148775000D03*
D45*
X95055000Y-150000000D03*
D46*
X96780000Y-151225000D03*
D57*
X200125921Y-133151381D03*
X201085921Y-133151381D03*
X101822437Y-126129980D03*
X102782437Y-126129980D03*
D58*
X198717457Y-130307644D03*
X199964694Y-129791021D03*
X199620279Y-128959530D03*
X198373042Y-129476153D03*
D59*
X197575176Y-130293716D03*
D60*
X199637655Y-130765339D03*
D59*
X200762560Y-128973458D03*
D60*
X198700081Y-128501835D03*
D23*
X130200000Y-121209999D03*
X130200000Y-120190001D03*
D34*
X103000000Y-196890000D03*
X103000000Y-197910000D03*
D24*
X120819820Y-159310610D03*
X118919820Y-159310610D03*
D22*
X147421558Y-204034127D03*
X147421558Y-203074127D03*
D34*
X125919258Y-101123479D03*
X125919258Y-102143481D03*
D10*
X96925872Y-147421558D03*
X95965872Y-147421558D03*
D25*
X101123479Y-174080740D03*
X102143481Y-174080740D03*
D61*
X101626957Y-129476153D03*
X100379720Y-128959530D03*
X100035305Y-129791021D03*
X101282542Y-130307644D03*
D62*
X102424823Y-130293716D03*
D63*
X101299918Y-128501835D03*
D62*
X99237439Y-128973458D03*
D63*
X100362344Y-130765339D03*
D25*
X109690001Y-178300000D03*
X110709999Y-178300000D03*
D57*
X150492591Y-93731383D03*
X151452591Y-93731383D03*
D23*
X206268616Y-151482591D03*
X206268616Y-150462591D03*
D18*
X112692990Y-116163281D03*
X111672992Y-116163281D03*
D23*
X147000000Y-168610000D03*
X147000000Y-167590000D03*
D22*
X116132593Y-113363680D03*
X116132593Y-112403680D03*
D36*
X124410288Y-154515076D03*
X126310288Y-154515076D03*
D22*
X195493203Y-171810512D03*
X195493203Y-170850512D03*
D64*
X170244234Y-179762231D03*
X169294234Y-179762231D03*
X168344234Y-179762231D03*
X168344234Y-182037231D03*
X169294234Y-182037231D03*
X170244234Y-182037231D03*
D23*
X153500000Y-171110000D03*
X153500000Y-170090000D03*
D22*
X183836717Y-112662991D03*
X183836717Y-111702991D03*
D23*
X155400000Y-130210001D03*
X155400000Y-129189999D03*
D18*
X113393679Y-183867405D03*
X112373681Y-183867405D03*
D22*
X166848617Y-201085921D03*
X166848617Y-200125921D03*
D23*
X174100000Y-182910000D03*
X174100000Y-181890000D03*
D65*
X113163272Y-112526876D03*
X112208678Y-111572282D03*
X111572282Y-112208678D03*
X112526876Y-113163272D03*
D66*
X113587536Y-113587536D03*
D67*
X113233983Y-111501571D03*
D66*
X111148018Y-111148018D03*
D67*
X111501571Y-113233983D03*
D68*
X112526876Y-186836727D03*
X111572282Y-187791321D03*
X112208678Y-188427717D03*
X113163272Y-187473123D03*
D69*
X113587536Y-186412463D03*
D70*
X111501571Y-186766016D03*
D69*
X111148018Y-188851981D03*
D70*
X113233983Y-188498428D03*
D71*
X157125664Y-172869634D03*
X159225664Y-172869634D03*
X159225664Y-170969634D03*
X157125664Y-170969634D03*
D10*
X99874077Y-166848617D03*
X98914077Y-166848617D03*
D18*
X151482635Y-147579408D03*
X150462635Y-147579408D03*
D23*
X149400000Y-174910000D03*
X149400000Y-173890000D03*
D72*
X167690775Y-176574147D03*
X167690775Y-175624147D03*
X167690775Y-174674147D03*
X165415775Y-174674147D03*
X165415775Y-175624147D03*
X165415775Y-176574147D03*
D18*
X142910001Y-131500000D03*
X141889999Y-131500000D03*
D10*
X127700961Y-158806824D03*
X126740961Y-158806824D03*
D34*
X191337520Y-112700847D03*
X191337520Y-113720845D03*
D36*
X160850000Y-166300000D03*
X162750000Y-166300000D03*
D23*
X174080740Y-198876519D03*
X174080740Y-197856517D03*
X157885850Y-152512168D03*
X157885850Y-151492168D03*
X117200000Y-154310000D03*
X117200000Y-153290000D03*
M02*
