M48
; DRILL file KiCad 10.0.5 date 2026-08-28T14:03:56
; FORMAT={-:-/ absolute / metric / decimal}
; #@! TF.CreationDate,2026-08-28T14:03:56-06:00
; #@! TF.GenerationSoftware,Kicad,Pcbnew,10.0.5
; #@! TF.FileFunction,Plated,1,4,PTH
FMAT,2
METRIC
; #@! TA.AperFunction,Plated,PTH,ViaDrill
T1C0.300
; #@! TA.AperFunction,Plated,PTH,ViaDrill
T2C0.350
; #@! TA.AperFunction,Plated,PTH,ComponentDrill
T3C1.000
%
G90
G05
T1
X93.1Y-152.2
X93.967Y-150.616
X96.85Y-152.072
X97.7Y-169.2
X98.057Y-147.73
X98.192Y-128.875
X98.196Y-171.158
X99.352Y-149.93
X100.0Y-155.8
X100.373Y-167.985
X100.515Y-132.006
X101.0Y-165.6
X101.147Y-127.261
X101.289Y-172.748
X103.467Y-169.575
X103.47Y-130.392
X109.919Y-188.625
X110.052Y-113.283
X111.375Y-109.919
X111.452Y-185.317
X111.5Y-160.8
X112.5Y-160.8
X113.283Y-189.948
X113.361Y-114.817
X114.683Y-111.452
X114.817Y-186.639
X116.4Y-187.1
X117.4Y-186.1
X127.252Y-101.289
X127.261Y-198.853
X128.842Y-98.196
X128.875Y-201.808
X130.392Y-196.53
X130.425Y-103.467
X130.5Y-135.8
X132.006Y-199.485
X132.015Y-100.373
X143.5Y-124.7
X144.6Y-103.3
X145.6Y-174.2
X146.1Y-172.9
X146.9Y-167.8
X147.4Y-135.7
X147.5Y-102.5
X147.73Y-201.943
X147.928Y-96.85
X148.5Y-171.0
X149.3Y-171.8
X149.384Y-93.967
X149.93Y-200.648
X150.07Y-99.352
X150.6Y-177.3
X150.616Y-206.033
X152.072Y-203.15
X152.27Y-98.057
X161.4Y-204.4
X163.9Y-163.3
X166.8Y-178.5
X167.985Y-199.627
X167.994Y-100.515
X168.0Y-165.8
X168.1Y-177.5
X168.2Y-170.0
X168.9Y-168.5
X169.575Y-196.533
X169.608Y-103.47
X170.3Y-195.2
X171.125Y-98.192
X171.158Y-201.804
X171.2Y-194.3
X172.739Y-101.147
X172.748Y-198.711
X173.3Y-109.1
X174.1Y-109.9
X185.183Y-113.361
X185.317Y-188.548
X186.639Y-185.183
X186.717Y-110.052
X188.548Y-114.683
X188.625Y-190.081
X189.948Y-186.717
X190.081Y-111.375
X196.53Y-169.608
X196.533Y-130.425
X198.711Y-127.252
X198.853Y-172.739
X199.485Y-167.994
X199.627Y-132.015
X200.648Y-150.07
X201.804Y-128.842
X201.808Y-171.125
X203.29Y-152.072
X203.828Y-147.919
X206.033Y-149.384
T2
X96.0Y-147.5
X98.9Y-166.8
X99.2Y-148.7
X100.1Y-147.8
X102.4Y-168.2
X103.1Y-128.4
X104.5Y-128.2
X105.2Y-129.1
X112.6Y-168.4
X113.4Y-183.9
X114.4Y-182.9
X116.1Y-113.4
X120.6Y-161.6
X120.7Y-145.3
X124.8Y-146.6
X126.6Y-172.2
X128.1Y-173.7
X128.1Y-194.3
X128.2Y-195.5
X128.4Y-196.9
X128.8Y-133.1
X128.8Y-143.8
X129.4Y-97.7
X129.9Y-132.0
X129.9Y-149.9
X129.9Y-151.5
X132.1Y-101.125
X134.325Y-99.2
X137.4Y-146.7
X139.0Y-189.9
X139.0Y-193.0
X143.2Y-143.9
X145.7Y-143.9
X147.3Y-140.4
X147.4Y-149.4
X147.4Y-200.3
X147.4Y-204.0
X147.8Y-146.8
X148.2Y-128.5
X148.2Y-135.8
X148.3Y-201.2
X148.7Y-145.6
X149.0Y-173.3
X149.3Y-149.5
X149.7Y-143.6
X150.3Y-148.0
X151.2Y-147.5
X151.3Y-143.6
X151.4Y-99.1
X152.5Y-146.7
X152.7Y-145.5
X152.8Y-100.5
X152.8Y-149.6
X155.4Y-135.4
X155.425Y-129.65
X155.6Y-136.7
X155.7Y-201.7
X157.5Y-133.3
X157.6Y-139.8
X157.6Y-163.5
X157.8Y-134.5
X161.7Y-120.6
X163.1Y-122.0
X166.4Y-175.6
X167.5Y-175.6
X168.1Y-131.9
X168.5Y-179.4
X169.5Y-182.6
X169.7Y-134.6
X170.1Y-202.7
X170.8Y-105.7
X170.8Y-179.4
X170.9Y-133.8
X171.0Y-173.8
X171.9Y-202.8
X172.1Y-112.0
X173.2Y-170.1
X173.5Y-181.5
X173.9Y-102.8
X173.9Y-174.5
X181.8Y-184.5
X183.8Y-112.7
X184.0Y-111.7
X184.7Y-187.0
X185.8Y-114.3
X186.7Y-183.8
X188.3Y-183.8
X194.4Y-170.8
X194.7Y-131.6
X195.8Y-170.8
X196.1Y-131.6
T3
X130.79Y-138.57
X130.79Y-161.43
X133.33Y-138.57
X133.33Y-161.43
X134.76Y-179.19
X134.76Y-181.73
X135.87Y-138.57
X135.87Y-161.43
X137.3Y-179.19
X137.3Y-181.73
X138.41Y-138.57
X138.41Y-161.43
X139.84Y-179.19
X139.84Y-181.73
X140.95Y-138.57
X140.95Y-161.43
X142.38Y-179.19
X142.38Y-181.73
X143.49Y-138.57
X143.49Y-161.43
X144.92Y-179.19
X144.92Y-181.73
X146.03Y-138.57
X146.03Y-161.43
X147.46Y-179.19
X147.46Y-181.73
X148.57Y-138.57
X148.57Y-161.43
X150.0Y-179.19
X150.0Y-181.73
X151.11Y-138.57
X151.11Y-161.43
X152.54Y-179.19
X152.54Y-181.73
X153.65Y-138.57
X153.65Y-161.43
X155.08Y-179.19
X155.08Y-181.73
X156.19Y-138.57
X156.19Y-161.43
X157.62Y-179.19
X157.62Y-181.73
X158.73Y-138.57
X158.73Y-161.43
X160.16Y-179.19
X160.16Y-181.73
X161.27Y-138.57
X161.27Y-161.43
X162.7Y-179.19
X162.7Y-181.73
X163.81Y-138.57
X163.81Y-161.43
X165.24Y-179.19
X165.24Y-181.73
X166.35Y-138.57
X166.35Y-161.43
X168.89Y-138.57
X168.89Y-161.43
X171.43Y-138.57
X171.43Y-161.43
X173.97Y-138.57
X173.97Y-161.43
X176.51Y-138.57
X176.51Y-161.43
X179.05Y-138.57
X179.05Y-161.43
X181.59Y-138.57
X181.59Y-161.43
X184.13Y-138.57
X184.13Y-161.43
X186.67Y-138.57
X186.67Y-161.43
X189.21Y-138.57
X189.21Y-161.43
M30
