G04 #@! TF.GenerationSoftware,KiCad,Pcbnew,10.0.5*
G04 #@! TF.CreationDate,2026-08-28T19:26:35-06:00*
G04 #@! TF.ProjectId,candidate_routed,63616e64-6964-4617-9465-5f726f757465,rev?*
G04 #@! TF.SameCoordinates,Original*
G04 #@! TF.FileFunction,Copper,L4,Bot*
G04 #@! TF.FilePolarity,Positive*
%FSLAX46Y46*%
G04 Gerber Fmt 4.6, Leading zero omitted, Abs format (unit mm)*
G04 Created by KiCad (PCBNEW 10.0.5) date 2026-08-28 19:26:35*
%MOMM*%
%LPD*%
G01*
G04 APERTURE LIST*
G04 #@! TA.AperFunction,ComponentPad*
%ADD10R,1.700000X1.700000*%
G04 #@! TD*
G04 #@! TA.AperFunction,ComponentPad*
%ADD11C,1.700000*%
G04 #@! TD*
G04 #@! TA.AperFunction,ViaPad*
%ADD12C,0.600000*%
G04 #@! TD*
G04 #@! TA.AperFunction,ViaPad*
%ADD13C,0.450000*%
G04 #@! TD*
G04 #@! TA.AperFunction,Conductor*
%ADD14C,0.600000*%
G04 #@! TD*
G04 #@! TA.AperFunction,Conductor*
%ADD15C,0.300000*%
G04 #@! TD*
G04 #@! TA.AperFunction,Conductor*
%ADD16C,0.250000*%
G04 #@! TD*
G04 APERTURE END LIST*
D10*
X165240000Y-179190000D03*
D11*
X165240000Y-181730000D03*
X162700000Y-179190000D03*
X162700000Y-181730000D03*
X160160000Y-179190000D03*
X160160000Y-181730000D03*
X157620000Y-179190000D03*
X157620000Y-181730000D03*
X155080000Y-179190000D03*
X155080000Y-181730000D03*
X152540000Y-179190000D03*
X152540000Y-181730000D03*
X150000000Y-179190000D03*
X150000000Y-181730000D03*
X147460000Y-179190000D03*
X147460000Y-181730000D03*
X144920000Y-179190000D03*
X144920000Y-181730000D03*
X142380000Y-179190000D03*
X142380000Y-181730000D03*
X139840000Y-179190000D03*
X139840000Y-181730000D03*
X137300000Y-179190000D03*
X137300000Y-181730000D03*
X134760000Y-179190000D03*
X134760000Y-181730000D03*
D10*
X189210000Y-138570000D03*
D11*
X186670000Y-138570000D03*
X184130000Y-138570000D03*
X181590000Y-138570000D03*
X179050000Y-138570000D03*
X176510000Y-138570000D03*
X173970000Y-138570000D03*
X171430000Y-138570000D03*
X168890000Y-138570000D03*
X166350000Y-138570000D03*
X163810000Y-138570000D03*
X161270000Y-138570000D03*
X158730000Y-138570000D03*
X156190000Y-138570000D03*
X153650000Y-138570000D03*
X151110000Y-138570000D03*
X148570000Y-138570000D03*
X146030000Y-138570000D03*
X143490000Y-138570000D03*
X140950000Y-138570000D03*
X138410000Y-138570000D03*
X135870000Y-138570000D03*
X133330000Y-138570000D03*
X130790000Y-138570000D03*
D10*
X189210000Y-161430000D03*
D11*
X186670000Y-161430000D03*
X184130000Y-161430000D03*
X181590000Y-161430000D03*
X179050000Y-161430000D03*
X176510000Y-161430000D03*
X173970000Y-161430000D03*
X171430000Y-161430000D03*
X168890000Y-161430000D03*
X166350000Y-161430000D03*
X163810000Y-161430000D03*
X161270000Y-161430000D03*
X158730000Y-161430000D03*
X156190000Y-161430000D03*
X153650000Y-161430000D03*
X151110000Y-161430000D03*
X148570000Y-161430000D03*
X146030000Y-161430000D03*
X143490000Y-161430000D03*
X140950000Y-161430000D03*
X138410000Y-161430000D03*
X135870000Y-161430000D03*
X133330000Y-161430000D03*
X130790000Y-161430000D03*
D12*
X167500000Y-175600000D03*
X157800000Y-134500000D03*
D13*
X98192000Y-128875300D03*
X152072100Y-203149800D03*
D12*
X147300000Y-140400000D03*
D13*
X172738800Y-101146800D03*
X196533400Y-130424800D03*
X186716700Y-110052400D03*
X132005900Y-199484600D03*
X152269800Y-98057100D03*
X199627000Y-132015300D03*
X201804300Y-128842300D03*
X185316900Y-188547700D03*
D12*
X173900000Y-102800000D03*
D13*
X172748100Y-198710800D03*
X189947600Y-186716700D03*
D12*
X104500000Y-128200000D03*
D13*
X171124700Y-98192000D03*
X101289200Y-172748100D03*
X171157700Y-201804300D03*
D12*
X149700000Y-143600000D03*
D13*
X150616200Y-206032600D03*
X188547700Y-114683100D03*
D12*
X155600000Y-136700000D03*
D13*
X111374700Y-109918800D03*
D12*
X150300000Y-148000000D03*
D13*
X200647900Y-150070200D03*
X113283300Y-189947600D03*
X150070200Y-99352100D03*
D12*
X116100000Y-113400000D03*
D13*
X149929800Y-200647900D03*
D12*
X98900000Y-166800000D03*
D13*
X98195700Y-171157700D03*
X114683100Y-111452300D03*
X169608100Y-103470200D03*
X167994100Y-100515400D03*
X109918800Y-188625300D03*
X128842300Y-98195700D03*
X198853200Y-172738800D03*
X96850200Y-152072100D03*
X167984700Y-199627000D03*
X99352100Y-149929800D03*
X186639200Y-185183200D03*
D12*
X128200000Y-195500000D03*
D13*
X127251900Y-101289200D03*
X130424800Y-103466600D03*
X111452300Y-185316900D03*
X101146800Y-127261200D03*
X169575200Y-196533400D03*
X203828100Y-147919000D03*
X190081200Y-111374700D03*
X198710800Y-127251900D03*
X103470200Y-130391900D03*
X98057100Y-147730200D03*
X196529800Y-169608100D03*
X114816800Y-186639200D03*
X149383800Y-93967400D03*
D12*
X155425000Y-129650000D03*
D13*
X185183200Y-113360800D03*
X110052400Y-113283300D03*
X128875300Y-201808000D03*
X127261200Y-198853200D03*
D12*
X168500000Y-179400000D03*
X148200000Y-128500000D03*
D13*
X203290200Y-152072100D03*
X113360800Y-114816800D03*
D12*
X139000000Y-193000000D03*
D13*
X188625300Y-190081200D03*
X100373000Y-167984700D03*
X147927900Y-96850200D03*
X93967400Y-150616200D03*
X132015300Y-100373000D03*
D12*
X188300000Y-183800000D03*
D13*
X199484600Y-167994100D03*
X201808000Y-171124700D03*
D12*
X139000000Y-189900000D03*
X183800000Y-112700000D03*
D13*
X100515400Y-132005900D03*
X206032600Y-149383800D03*
X130391900Y-196529800D03*
X103466600Y-169575200D03*
X147400000Y-135700000D03*
D12*
X152700000Y-145500000D03*
D13*
X147730200Y-201942900D03*
D12*
X155700000Y-201700000D03*
X184000000Y-111700000D03*
X185800000Y-114300000D03*
X132100000Y-101125000D03*
X129400000Y-97700000D03*
X134325000Y-99200000D03*
X157600000Y-163500000D03*
X147400000Y-149400000D03*
X147800000Y-146800000D03*
X152500000Y-146700000D03*
X151200000Y-147500000D03*
X149300000Y-149500000D03*
X120600000Y-161600000D03*
X143200000Y-143900000D03*
X170900000Y-133800000D03*
X129900000Y-132000000D03*
X168100000Y-131900000D03*
X120700000Y-145300000D03*
X128800000Y-133100000D03*
X157600000Y-139800000D03*
X128800000Y-143800000D03*
X126600000Y-172200000D03*
X145700000Y-143900000D03*
X148700000Y-145600000D03*
X128100000Y-173700000D03*
X152800000Y-149600000D03*
X151300000Y-143600000D03*
X186700000Y-183800000D03*
X184700000Y-187000000D03*
X181800000Y-184500000D03*
X172100000Y-112000000D03*
X170800000Y-105700000D03*
D13*
X146100000Y-172900000D03*
D12*
X151400000Y-99100000D03*
X152800000Y-100500000D03*
X161700000Y-120600000D03*
X163100000Y-122000000D03*
D13*
X130500000Y-135800000D03*
D12*
X195800000Y-170800000D03*
X194400000Y-170800000D03*
X113400000Y-183900000D03*
X114400000Y-182900000D03*
X128400000Y-196900000D03*
X128100000Y-194300000D03*
X129900000Y-149900000D03*
X148200000Y-135800000D03*
X155400000Y-135400000D03*
X129900000Y-151500000D03*
X169700000Y-134600000D03*
X137400000Y-146700000D03*
X124800000Y-146600000D03*
X157500000Y-133300000D03*
D13*
X168000000Y-165800000D03*
X168900000Y-168500000D03*
D12*
X169500000Y-182600000D03*
X170100000Y-202700000D03*
X173200000Y-170100000D03*
X171900000Y-202800000D03*
D13*
X143500000Y-124700000D03*
X147500000Y-102500000D03*
X144600000Y-103300000D03*
X117400000Y-186100000D03*
X116400000Y-187100000D03*
D12*
X173500000Y-181500000D03*
X173900000Y-174500000D03*
X171000000Y-173800000D03*
D13*
X161400000Y-204400000D03*
X170300000Y-195200000D03*
X171200000Y-194300000D03*
D12*
X112600000Y-168400000D03*
X102400000Y-168200000D03*
D13*
X174100000Y-109900000D03*
X173300000Y-109100000D03*
D12*
X148300000Y-201200000D03*
X147400000Y-200300000D03*
X147400000Y-204000000D03*
D13*
X149300000Y-171800000D03*
X148500000Y-171000000D03*
X112500000Y-160800000D03*
X93100000Y-152200000D03*
X100000000Y-155800000D03*
X101000000Y-165600000D03*
X97700000Y-169200000D03*
X111500000Y-160800000D03*
D12*
X196100000Y-131600000D03*
X194700000Y-131600000D03*
X99200000Y-148700000D03*
X100100000Y-147800000D03*
X96000000Y-147500000D03*
X105200000Y-129100000D03*
X103100000Y-128400000D03*
D13*
X146900000Y-167800000D03*
X168100000Y-177500000D03*
X168200000Y-170000000D03*
X150600000Y-177300000D03*
X166800000Y-178500000D03*
D12*
X166400000Y-175600000D03*
X170800000Y-179400000D03*
X149000000Y-173300000D03*
D13*
X163900000Y-163300000D03*
X145600000Y-174200000D03*
D14*
X149800000Y-146900000D02*
X149900000Y-146800000D01*
D15*
X150400000Y-146900000D02*
X150500000Y-147000000D01*
X150500000Y-147000000D02*
X150700000Y-147000000D01*
D14*
X150200000Y-146700000D02*
X152500000Y-146700000D01*
D15*
X147900000Y-146900000D02*
X150400000Y-146900000D01*
D14*
X150100000Y-146800000D02*
X150200000Y-146700000D01*
X149900000Y-146800000D02*
X150100000Y-146800000D01*
D15*
X150700000Y-147000000D02*
X151200000Y-147500000D01*
D16*
X149000000Y-173300000D02*
X138500000Y-162800000D01*
X138500000Y-162800000D02*
X132200000Y-162800000D01*
X132200000Y-162800000D02*
X130800000Y-161400000D01*
M02*
