M48
; DRILL file KiCad 10.0.5 date 2026-08-28T19:28:19
; FORMAT={-:-/ absolute / metric / decimal}
; #@! TF.CreationDate,2026-08-28T19:28:19-06:00
; #@! TF.GenerationSoftware,Kicad,Pcbnew,10.0.5
; #@! TF.FileFunction,Plated,1,4,PTH
FMAT,2
METRIC
; #@! TA.AperFunction,Plated,PTH,ViaDrill
T1C0.300
; #@! TA.AperFunction,Plated,PTH,ViaDrill
T2C0.350
; #@! TA.AperFunction,Plated,PTH,ComponentDrill
T3C1.000
%
G90
G05
T1
X93.967Y-150.616
X96.172Y-152.081
X96.71Y-147.928
X98.192Y-128.875
X98.196Y-171.158
X99.352Y-149.93
X100.373Y-167.985
X100.515Y-132.006
X101.147Y-127.261
X101.289Y-172.748
X103.467Y-169.575
X103.47Y-130.392
X109.919Y-188.625
X110.052Y-113.283
X111.375Y-109.919
X111.452Y-185.317
X113.283Y-189.948
X113.361Y-114.817
X114.683Y-111.452
X114.817Y-186.639
X127.252Y-101.289
X127.261Y-198.853
X128.842Y-98.196
X128.875Y-201.808
X130.392Y-196.53
X130.425Y-103.467
X132.006Y-199.485
X132.015Y-100.373
X138.5Y-178.0
X141.7Y-177.3
X143.9Y-165.7
X145.0Y-177.3
X145.4Y-167.6
X147.73Y-201.943
X147.919Y-96.172
X148.1Y-177.8
X149.384Y-93.967
X149.93Y-200.648
X150.07Y-99.352
X150.07Y-205.792
X151.8Y-174.0
X152.072Y-96.71
X152.187Y-201.879
X152.3Y-173.4
X153.5Y-170.7
X166.4Y-164.0
X166.6Y-174.7
X167.6Y-168.8
X167.6Y-177.6
X167.985Y-199.627
X167.994Y-100.515
X168.3Y-173.3
X168.6Y-195.3
X169.1Y-177.1
X169.575Y-196.533
X169.608Y-103.47
X170.2Y-178.2
X170.2Y-180.4
X170.3Y-195.3
X171.125Y-98.192
X171.158Y-201.804
X172.739Y-101.147
X172.748Y-198.711
X185.183Y-113.361
X185.317Y-188.548
X186.639Y-185.183
X186.717Y-110.052
X188.548Y-114.683
X188.625Y-190.081
X189.948Y-186.717
X190.081Y-111.375
X196.53Y-169.608
X196.533Y-130.425
X198.711Y-127.252
X198.853Y-172.739
X199.485Y-167.994
X199.627Y-132.015
X200.648Y-150.07
X201.804Y-128.842
X201.808Y-171.125
X203.29Y-152.072
X203.828Y-147.919
X206.033Y-149.384
T2
X103.1Y-128.4
X104.5Y-128.2
X104.5Y-129.1
X104.5Y-139.8
X112.8Y-162.1
X113.4Y-183.9
X114.2Y-160.7
X114.7Y-126.6
X115.6Y-125.7
X116.1Y-113.4
X116.6Y-139.8
X116.8Y-140.9
X117.1Y-160.6
X118.5Y-138.6
X118.7Y-162.2
X124.6Y-134.5
X125.7Y-145.4
X125.8Y-192.2
X126.7Y-193.1
X127.6Y-162.2
X128.2Y-195.5
X128.3Y-149.3
X133.6Y-107.4
X133.6Y-159.4
X134.1Y-157.4
X135.0Y-106.0
X135.4Y-166.0
X135.7Y-156.1
X138.4Y-111.7
X139.3Y-110.8
X142.7Y-130.9
X142.7Y-137.1
X143.2Y-173.8
X144.3Y-135.5
X147.9Y-163.6
X149.5Y-164.6
X150.3Y-130.9
X151.9Y-169.9
X153.0Y-126.8
X154.6Y-125.2
X155.3Y-169.7
X155.4Y-142.0
X155.4Y-144.0
X155.5Y-127.3
X159.9Y-174.0
X165.4Y-175.6
X166.8Y-151.7
X166.9Y-175.6
X167.2Y-106.8
X167.7Y-197.1
X167.9Y-188.1
X168.1Y-105.9
X168.1Y-127.8
X168.4Y-179.4
X168.8Y-153.7
X169.3Y-188.1
X169.7Y-127.8
X169.7Y-194.1
X170.8Y-179.4
X172.0Y-202.6
X177.6Y-149.0
X177.6Y-151.7
X180.1Y-136.5
X180.1Y-151.6
X180.4Y-148.3
X181.4Y-148.3
X183.3Y-149.9
X186.2Y-145.5
X187.2Y-137.0
X188.4Y-133.6
X190.8Y-136.0
X195.5Y-171.8
T3
X130.79Y-138.57
X130.79Y-161.43
X133.33Y-138.57
X133.33Y-161.43
X134.76Y-179.19
X134.76Y-181.73
X135.87Y-138.57
X135.87Y-161.43
X137.3Y-179.19
X137.3Y-181.73
X138.41Y-138.57
X138.41Y-161.43
X139.84Y-179.19
X139.84Y-181.73
X140.95Y-138.57
X140.95Y-161.43
X142.38Y-179.19
X142.38Y-181.73
X143.49Y-138.57
X143.49Y-161.43
X144.92Y-179.19
X144.92Y-181.73
X146.03Y-138.57
X146.03Y-161.43
X147.46Y-179.19
X147.46Y-181.73
X148.57Y-138.57
X148.57Y-161.43
X150.0Y-179.19
X150.0Y-181.73
X151.11Y-138.57
X151.11Y-161.43
X152.54Y-179.19
X152.54Y-181.73
X153.65Y-138.57
X153.65Y-161.43
X155.08Y-179.19
X155.08Y-181.73
X156.19Y-138.57
X156.19Y-161.43
X157.62Y-179.19
X157.62Y-181.73
X158.73Y-138.57
X158.73Y-161.43
X160.16Y-179.19
X160.16Y-181.73
X161.27Y-138.57
X161.27Y-161.43
X162.7Y-179.19
X162.7Y-181.73
X163.81Y-138.57
X163.81Y-161.43
X165.24Y-179.19
X165.24Y-181.73
X166.35Y-138.57
X166.35Y-161.43
X168.89Y-138.57
X168.89Y-161.43
X171.43Y-138.57
X171.43Y-161.43
X173.97Y-138.57
X173.97Y-161.43
X176.51Y-138.57
X176.51Y-161.43
X179.05Y-138.57
X179.05Y-161.43
X181.59Y-138.57
X181.59Y-161.43
X184.13Y-138.57
X184.13Y-161.43
X186.67Y-138.57
X186.67Y-161.43
X189.21Y-138.57
X189.21Y-161.43
M30
