M48
; DRILL file KiCad 10.0.5 date 2026-08-28T19:26:36
; FORMAT={-:-/ absolute / metric / decimal}
; #@! TF.CreationDate,2026-08-28T19:26:36-06:00
; #@! TF.GenerationSoftware,Kicad,Pcbnew,10.0.5
; #@! TF.FileFunction,Plated,1,4,PTH
FMAT,2
METRIC
; #@! TA.AperFunction,Plated,PTH,ViaDrill
T1C0.300
; #@! TA.AperFunction,Plated,PTH,ViaDrill
T2C0.350
; #@! TA.AperFunction,Plated,PTH,ComponentDrill
T3C1.000
%
G90
G05
T1
X93.967Y-150.616
X96.85Y-152.072
X98.057Y-147.73
X98.192Y-128.875
X98.196Y-171.158
X99.352Y-149.93
X100.373Y-167.985
X100.515Y-132.006
X101.147Y-127.261
X101.289Y-172.748
X103.467Y-169.575
X103.47Y-130.392
X109.919Y-188.625
X110.052Y-113.283
X111.375Y-109.919
X111.452Y-185.317
X113.283Y-189.948
X113.361Y-114.817
X114.683Y-111.452
X114.817Y-186.639
X127.252Y-101.289
X127.261Y-198.853
X128.842Y-98.196
X128.875Y-201.808
X130.392Y-196.53
X130.425Y-103.467
X132.006Y-199.485
X132.015Y-100.373
X139.7Y-176.8
X144.9Y-175.4
X147.73Y-201.943
X147.928Y-96.85
X149.2Y-169.1
X149.384Y-93.967
X149.93Y-200.648
X150.07Y-99.352
X150.07Y-205.792
X150.2Y-171.7
X152.187Y-201.879
X152.27Y-98.057
X152.6Y-171.7
X154.9Y-175.8
X155.5Y-176.4
X156.3Y-175.6
X161.6Y-173.6
X161.6Y-177.0
X165.2Y-174.5
X167.7Y-176.9
X167.7Y-179.2
X167.985Y-199.627
X167.994Y-100.515
X168.0Y-175.7
X169.0Y-181.2
X169.0Y-183.0
X169.575Y-196.533
X169.608Y-103.47
X171.125Y-98.192
X171.158Y-201.804
X172.739Y-101.147
X172.748Y-198.711
X185.183Y-113.361
X185.317Y-188.548
X186.639Y-185.183
X186.717Y-110.052
X188.548Y-114.683
X188.625Y-190.081
X189.948Y-186.717
X190.081Y-111.375
X196.53Y-169.608
X196.533Y-130.425
X198.711Y-127.252
X198.853Y-172.739
X199.485Y-167.994
X199.627Y-132.015
X200.648Y-150.07
X201.804Y-128.842
X201.808Y-171.125
X201.943Y-152.27
X203.15Y-147.928
X206.033Y-149.384
T2
X96.9Y-147.4
X97.2Y-147.5
X99.9Y-166.8
X103.4Y-129.0
X105.1Y-130.7
X108.0Y-180.6
X110.5Y-183.1
X110.6Y-184.2
X113.1Y-185.0
X113.3Y-167.8
X113.6Y-160.6
X113.6Y-162.2
X114.7Y-168.4
X114.9Y-184.2
X116.0Y-188.3
X116.2Y-187.3
X117.6Y-185.9
X120.4Y-154.2
X122.5Y-156.3
X127.2Y-195.4
X128.0Y-97.4
X128.1Y-134.5
X128.2Y-195.5
X128.4Y-196.9
X129.2Y-144.7
X130.5Y-142.1
X131.4Y-159.5
X131.5Y-135.6
X133.4Y-149.9
X135.1Y-146.2
X135.3Y-149.5
X136.1Y-151.4
X136.3Y-107.0
X136.7Y-149.4
X137.2Y-107.9
X137.9Y-145.3
X138.6Y-149.3
X138.8Y-135.2
X138.8Y-147.1
X138.9Y-150.8
X140.9Y-150.3
X141.0Y-148.4
X141.8Y-146.1
X142.7Y-135.6
X142.8Y-164.6
X144.3Y-134.5
X144.3Y-136.1
X147.4Y-203.1
X147.5Y-202.8
X151.4Y-100.8
X151.4Y-102.6
X152.6Y-96.0
X157.2Y-175.7
X157.6Y-139.9
X158.6Y-140.9
X160.4Y-175.7
X160.7Y-165.3
X160.7Y-167.3
X162.7Y-166.3
X164.5Y-164.5
X164.6Y-150.0
X165.1Y-155.2
X165.9Y-175.5
X166.8Y-200.1
X167.7Y-155.0
X167.8Y-188.4
X168.4Y-115.6
X168.6Y-193.3
X168.7Y-128.2
X168.9Y-176.9
X169.4Y-114.6
X169.4Y-180.5
X169.5Y-192.4
X170.3Y-113.6
X170.3Y-128.2
X170.9Y-104.5
X171.5Y-188.4
X182.5Y-116.1
X183.5Y-113.8
X183.8Y-112.8
X186.7Y-115.0
X192.0Y-165.8
X193.1Y-164.7
X193.2Y-169.5
X194.7Y-131.6
X195.5Y-171.8
X196.1Y-131.6
X198.1Y-151.0
X200.5Y-151.0
X201.3Y-166.2
X202.6Y-128.0
T3
X130.79Y-138.57
X130.79Y-161.43
X133.33Y-138.57
X133.33Y-161.43
X134.76Y-179.19
X134.76Y-181.73
X135.87Y-138.57
X135.87Y-161.43
X137.3Y-179.19
X137.3Y-181.73
X138.41Y-138.57
X138.41Y-161.43
X139.84Y-179.19
X139.84Y-181.73
X140.95Y-138.57
X140.95Y-161.43
X142.38Y-179.19
X142.38Y-181.73
X143.49Y-138.57
X143.49Y-161.43
X144.92Y-179.19
X144.92Y-181.73
X146.03Y-138.57
X146.03Y-161.43
X147.46Y-179.19
X147.46Y-181.73
X148.57Y-138.57
X148.57Y-161.43
X150.0Y-179.19
X150.0Y-181.73
X151.11Y-138.57
X151.11Y-161.43
X152.54Y-179.19
X152.54Y-181.73
X153.65Y-138.57
X153.65Y-161.43
X155.08Y-179.19
X155.08Y-181.73
X156.19Y-138.57
X156.19Y-161.43
X157.62Y-179.19
X157.62Y-181.73
X158.73Y-138.57
X158.73Y-161.43
X160.16Y-179.19
X160.16Y-181.73
X161.27Y-138.57
X161.27Y-161.43
X162.7Y-179.19
X162.7Y-181.73
X163.81Y-138.57
X163.81Y-161.43
X165.24Y-179.19
X165.24Y-181.73
X166.35Y-138.57
X166.35Y-161.43
X168.89Y-138.57
X168.89Y-161.43
X171.43Y-138.57
X171.43Y-161.43
X173.97Y-138.57
X173.97Y-161.43
X176.51Y-138.57
X176.51Y-161.43
X179.05Y-138.57
X179.05Y-161.43
X181.59Y-138.57
X181.59Y-161.43
X184.13Y-138.57
X184.13Y-161.43
X186.67Y-138.57
X186.67Y-161.43
X189.21Y-138.57
X189.21Y-161.43
M30
