G04 #@! TF.GenerationSoftware,KiCad,Pcbnew,10.0.5*
G04 #@! TF.CreationDate,2026-08-28T19:26:35-06:00*
G04 #@! TF.ProjectId,candidate_routed,63616e64-6964-4617-9465-5f726f757465,rev?*
G04 #@! TF.SameCoordinates,Original*
G04 #@! TF.FileFunction,Copper,L4,Bot*
G04 #@! TF.FilePolarity,Positive*
%FSLAX46Y46*%
G04 Gerber Fmt 4.6, Leading zero omitted, Abs format (unit mm)*
G04 Created by KiCad (PCBNEW 10.0.5) date 2026-08-28 19:26:35*
%MOMM*%
%LPD*%
G01*
G04 APERTURE LIST*
G04 #@! TA.AperFunction,ComponentPad*
%ADD10R,1.700000X1.700000*%
G04 #@! TD*
G04 #@! TA.AperFunction,ComponentPad*
%ADD11C,1.700000*%
G04 #@! TD*
G04 #@! TA.AperFunction,ViaPad*
%ADD12C,0.600000*%
G04 #@! TD*
G04 #@! TA.AperFunction,ViaPad*
%ADD13C,0.450000*%
G04 #@! TD*
G04 #@! TA.AperFunction,Conductor*
%ADD14C,0.600000*%
G04 #@! TD*
G04 #@! TA.AperFunction,Conductor*
%ADD15C,0.200000*%
G04 #@! TD*
G04 #@! TA.AperFunction,Conductor*
%ADD16C,0.250000*%
G04 #@! TD*
G04 APERTURE END LIST*
D10*
X165240000Y-179190000D03*
D11*
X165240000Y-181730000D03*
X162700000Y-179190000D03*
X162700000Y-181730000D03*
X160160000Y-179190000D03*
X160160000Y-181730000D03*
X157620000Y-179190000D03*
X157620000Y-181730000D03*
X155080000Y-179190000D03*
X155080000Y-181730000D03*
X152540000Y-179190000D03*
X152540000Y-181730000D03*
X150000000Y-179190000D03*
X150000000Y-181730000D03*
X147460000Y-179190000D03*
X147460000Y-181730000D03*
X144920000Y-179190000D03*
X144920000Y-181730000D03*
X142380000Y-179190000D03*
X142380000Y-181730000D03*
X139840000Y-179190000D03*
X139840000Y-181730000D03*
X137300000Y-179190000D03*
X137300000Y-181730000D03*
X134760000Y-179190000D03*
X134760000Y-181730000D03*
D10*
X189210000Y-138570000D03*
D11*
X186670000Y-138570000D03*
X184130000Y-138570000D03*
X181590000Y-138570000D03*
X179050000Y-138570000D03*
X176510000Y-138570000D03*
X173970000Y-138570000D03*
X171430000Y-138570000D03*
X168890000Y-138570000D03*
X166350000Y-138570000D03*
X163810000Y-138570000D03*
X161270000Y-138570000D03*
X158730000Y-138570000D03*
X156190000Y-138570000D03*
X153650000Y-138570000D03*
X151110000Y-138570000D03*
X148570000Y-138570000D03*
X146030000Y-138570000D03*
X143490000Y-138570000D03*
X140950000Y-138570000D03*
X138410000Y-138570000D03*
X135870000Y-138570000D03*
X133330000Y-138570000D03*
X130790000Y-138570000D03*
D10*
X189210000Y-161430000D03*
D11*
X186670000Y-161430000D03*
X184130000Y-161430000D03*
X181590000Y-161430000D03*
X179050000Y-161430000D03*
X176510000Y-161430000D03*
X173970000Y-161430000D03*
X171430000Y-161430000D03*
X168890000Y-161430000D03*
X166350000Y-161430000D03*
X163810000Y-161430000D03*
X161270000Y-161430000D03*
X158730000Y-161430000D03*
X156190000Y-161430000D03*
X153650000Y-161430000D03*
X151110000Y-161430000D03*
X148570000Y-161430000D03*
X146030000Y-161430000D03*
X143490000Y-161430000D03*
X140950000Y-161430000D03*
X138410000Y-161430000D03*
X135870000Y-161430000D03*
X133330000Y-161430000D03*
X130790000Y-161430000D03*
D12*
X198100000Y-151000000D03*
X200500000Y-151000000D03*
D13*
X114683100Y-111452300D03*
D12*
X182500000Y-116100000D03*
D13*
X127251900Y-101289200D03*
X196533400Y-130424800D03*
X150070200Y-99352100D03*
X110052400Y-113283300D03*
X152269800Y-98057100D03*
X200647900Y-150070200D03*
D12*
X170300000Y-128200000D03*
D13*
X132005900Y-199484600D03*
X188625300Y-190081200D03*
X199484600Y-167994100D03*
D12*
X165900000Y-175500000D03*
D13*
X169608100Y-103470200D03*
X169575200Y-196533400D03*
D12*
X170900000Y-104500000D03*
D13*
X201942900Y-152269800D03*
X171157700Y-201804300D03*
X100515400Y-132005900D03*
D12*
X120400000Y-154200000D03*
D13*
X111452300Y-185316900D03*
X190081200Y-111374700D03*
X201804300Y-128842300D03*
X185316900Y-188547700D03*
D12*
X129200000Y-144700000D03*
X183800000Y-112800000D03*
D13*
X196529800Y-169608100D03*
D12*
X131500000Y-135600000D03*
X128000000Y-97400000D03*
D13*
X198710800Y-127251900D03*
X101289200Y-172748100D03*
X130391900Y-196529800D03*
X167984700Y-199627000D03*
D12*
X97200000Y-147500000D03*
X168900000Y-176900000D03*
D13*
X149929800Y-200647900D03*
X103470200Y-130391900D03*
X128875300Y-201808000D03*
X98195700Y-171157700D03*
D12*
X195500000Y-171800000D03*
D13*
X167994100Y-100515400D03*
X201808000Y-171124700D03*
X132015300Y-100373000D03*
X149383800Y-93967400D03*
X101146800Y-127261200D03*
X103466600Y-169575200D03*
X152187100Y-201879500D03*
X113360800Y-114816800D03*
X171124700Y-98192000D03*
X186716700Y-110052400D03*
D12*
X147400000Y-203100000D03*
X138800000Y-147100000D03*
D13*
X147730200Y-201942900D03*
D12*
X141800000Y-146100000D03*
D13*
X127261200Y-198853200D03*
X114816800Y-186639200D03*
X98057100Y-147730200D03*
D12*
X144300000Y-134500000D03*
D13*
X100373000Y-167984700D03*
D12*
X138900000Y-150800000D03*
D13*
X98192000Y-128875300D03*
X206032600Y-149383800D03*
D12*
X116000000Y-188300000D03*
D13*
X203149800Y-147927900D03*
D12*
X128200000Y-195500000D03*
X147500000Y-202800000D03*
D13*
X130424800Y-103466600D03*
D12*
X138800000Y-135200000D03*
D13*
X189947600Y-186716700D03*
X147927900Y-96850200D03*
D12*
X96900000Y-147400000D03*
X202600000Y-128000000D03*
D13*
X186639200Y-185183200D03*
X93967400Y-150616200D03*
D12*
X122500000Y-156300000D03*
X133400000Y-149900000D03*
D13*
X96850200Y-152072100D03*
X99352100Y-149929800D03*
D12*
X166800000Y-200100000D03*
X201300000Y-166200000D03*
D13*
X185183200Y-113360800D03*
X128842300Y-98195700D03*
X172738800Y-101146800D03*
X113283300Y-189947600D03*
X150070200Y-205792100D03*
X111374700Y-109918800D03*
D12*
X160700000Y-167300000D03*
X168700000Y-128200000D03*
X136700000Y-149400000D03*
D13*
X172748100Y-198710800D03*
X199627000Y-132015300D03*
X109918800Y-188625300D03*
D12*
X99900000Y-166800000D03*
D13*
X198853200Y-172738800D03*
D12*
X131400000Y-159500000D03*
D13*
X188547700Y-114683100D03*
D12*
X186700000Y-115000000D03*
X183500000Y-113800000D03*
X137200000Y-107900000D03*
X136300000Y-107000000D03*
X137900000Y-145300000D03*
X138600000Y-149300000D03*
X142800000Y-164600000D03*
X135300000Y-149500000D03*
X141000000Y-148400000D03*
X167700000Y-155000000D03*
X170300000Y-113600000D03*
X193100000Y-164700000D03*
X192000000Y-165800000D03*
X193200000Y-169500000D03*
X114700000Y-168400000D03*
X113300000Y-167800000D03*
X158600000Y-140900000D03*
X142700000Y-135600000D03*
X113600000Y-160600000D03*
X113600000Y-162200000D03*
X165100000Y-155200000D03*
X168400000Y-115600000D03*
X128100000Y-134500000D03*
X110500000Y-183100000D03*
X140900000Y-150300000D03*
X144300000Y-136100000D03*
X108000000Y-180600000D03*
X169400000Y-114600000D03*
X130500000Y-142100000D03*
X135100000Y-146200000D03*
X157600000Y-139900000D03*
X164600000Y-150000000D03*
X136100000Y-151400000D03*
D13*
X169000000Y-183000000D03*
X169000000Y-181200000D03*
D12*
X151400000Y-102600000D03*
X151400000Y-100800000D03*
X152600000Y-96000000D03*
X113100000Y-185000000D03*
X116200000Y-187300000D03*
X117600000Y-185900000D03*
X114900000Y-184200000D03*
X128400000Y-196900000D03*
X127200000Y-195400000D03*
X110600000Y-184200000D03*
X164500000Y-164500000D03*
X162700000Y-166300000D03*
X160700000Y-165300000D03*
D13*
X144900000Y-175400000D03*
D12*
X169500000Y-192400000D03*
X168600000Y-193300000D03*
D13*
X139700000Y-176800000D03*
X149200000Y-169100000D03*
X168000000Y-175700000D03*
D12*
X171500000Y-188400000D03*
X167800000Y-188400000D03*
D13*
X167700000Y-179200000D03*
D12*
X196100000Y-131600000D03*
X194700000Y-131600000D03*
X105100000Y-130700000D03*
X103400000Y-129000000D03*
D13*
X167700000Y-176900000D03*
X154900000Y-175800000D03*
X150200000Y-171700000D03*
X155500000Y-176400000D03*
X156300000Y-175600000D03*
X165200000Y-174500000D03*
X152600000Y-171700000D03*
X161600000Y-173600000D03*
X161600000Y-177000000D03*
D12*
X157200000Y-175700000D03*
X169400000Y-180500000D03*
X160400000Y-175700000D03*
D14*
X129600000Y-137500000D02*
X131500000Y-135600000D01*
X132500000Y-147800000D02*
X132400000Y-147800000D01*
X138100000Y-150800000D02*
X138900000Y-150800000D01*
X136700000Y-149400000D02*
X138100000Y-150800000D01*
X133400000Y-149900000D02*
X133900000Y-149400000D01*
X133900000Y-149200000D02*
X132500000Y-147800000D01*
X129300000Y-138000000D02*
X129400000Y-137900000D01*
X129400000Y-137800000D02*
X129600000Y-137600000D01*
X133900000Y-149400000D02*
X133900000Y-149200000D01*
X130000000Y-145500000D02*
X129200000Y-144700000D01*
X132400000Y-147800000D02*
X130100000Y-145500000D01*
X129600000Y-137600000D02*
X129600000Y-137500000D01*
X129400000Y-137900000D02*
X129400000Y-137800000D01*
X129200000Y-144700000D02*
X129200000Y-138200000D01*
X129200000Y-138200000D02*
X129300000Y-138100000D01*
X129300000Y-138100000D02*
X129300000Y-138000000D01*
X130100000Y-145500000D02*
X130000000Y-145500000D01*
D15*
X169000000Y-181200000D02*
X167700000Y-179900000D01*
X166500000Y-177100000D02*
X151100000Y-161700000D01*
X167500000Y-179900000D02*
X166400000Y-178800000D01*
X167700000Y-179900000D02*
X167500000Y-179900000D01*
X166500000Y-178300000D02*
X166500000Y-177100000D01*
X166400000Y-178400000D02*
X166500000Y-178300000D01*
X166400000Y-178800000D02*
X166400000Y-178400000D01*
X144900000Y-175400000D02*
X144900000Y-177500000D01*
X143800000Y-178600000D02*
X143800000Y-178700000D01*
X143700000Y-178800000D02*
X143700000Y-180500000D01*
X143800000Y-178700000D02*
X143700000Y-178800000D01*
X143700000Y-180500000D02*
X144900000Y-181700000D01*
X144900000Y-177500000D02*
X143800000Y-178600000D01*
X161600000Y-177000000D02*
X161600000Y-173600000D01*
D16*
X132200000Y-162800000D02*
X130800000Y-161400000D01*
X153400000Y-171500000D02*
X144400000Y-162500000D01*
X157000000Y-175400000D02*
X157000000Y-175300000D01*
X157000000Y-175300000D02*
X153400000Y-171700000D01*
X157100000Y-175500000D02*
X157000000Y-175400000D01*
X144000000Y-162800000D02*
X132200000Y-162800000D01*
X144400000Y-162500000D02*
X144300000Y-162500000D01*
X144300000Y-162500000D02*
X144000000Y-162800000D01*
X157100000Y-175600000D02*
X157100000Y-175500000D01*
X153400000Y-171700000D02*
X153400000Y-171500000D01*
M02*
