G04 #@! TF.GenerationSoftware,KiCad,Pcbnew,10.0.5*
G04 #@! TF.CreationDate,2026-08-28T19:26:35-06:00*
G04 #@! TF.ProjectId,candidate_routed,63616e64-6964-4617-9465-5f726f757465,rev?*
G04 #@! TF.SameCoordinates,Original*
G04 #@! TF.FileFunction,Paste,Top*
G04 #@! TF.FilePolarity,Positive*
%FSLAX46Y46*%
G04 Gerber Fmt 4.6, Leading zero omitted, Abs format (unit mm)*
G04 Created by KiCad (PCBNEW 10.0.5) date 2026-08-28 19:26:35*
%MOMM*%
%LPD*%
G01*
G04 APERTURE LIST*
G04 Aperture macros list*
%AMRoundRect*
0 Rectangle with rounded corners*
0 $1 Rounding radius*
0 $2 $3 $4 $5 $6 $7 $8 $9 X,Y pos of 4 corners*
0 Add a 4 corners polygon primitive as box body*
4,1,4,$2,$3,$4,$5,$6,$7,$8,$9,$2,$3,0*
0 Add four circle primitives for the rounded corners*
1,1,$1+$1,$2,$3*
1,1,$1+$1,$4,$5*
1,1,$1+$1,$6,$7*
1,1,$1+$1,$8,$9*
0 Add four rect primitives between the rounded corners*
20,1,$1+$1,$2,$3,$4,$5,0*
20,1,$1+$1,$4,$5,$6,$7,0*
20,1,$1+$1,$6,$7,$8,$9,0*
20,1,$1+$1,$8,$9,$2,$3,0*%
%AMRotRect*
0 Rectangle, with rotation*
0 The origin of the aperture is its center*
0 $1 length*
0 $2 width*
0 $3 Rotation angle, in degrees counterclockwise*
0 Add horizontal line*
21,1,$1,$2,0,0,$3*%
G04 Aperture macros list end*
%ADD10RoundRect,0.140000X0.170000X-0.140000X0.170000X0.140000X-0.170000X0.140000X-0.170000X-0.140000X0*%
%ADD11RotRect,0.400000X0.950000X315.000000*%
%ADD12RotRect,1.300000X0.350000X315.000000*%
%ADD13RotRect,0.350000X2.300000X315.000000*%
%ADD14RotRect,0.400000X0.950000X22.500000*%
%ADD15RotRect,1.300000X0.350000X22.500000*%
%ADD16RotRect,0.350000X2.300000X22.500000*%
%ADD17RoundRect,0.150000X-0.512500X-0.150000X0.512500X-0.150000X0.512500X0.150000X-0.512500X0.150000X0*%
%ADD18RoundRect,0.135000X-0.135000X-0.185000X0.135000X-0.185000X0.135000X0.185000X-0.135000X0.185000X0*%
%ADD19RotRect,0.400000X0.950000X225.000000*%
%ADD20RotRect,1.300000X0.350000X225.000000*%
%ADD21RotRect,0.350000X2.300000X225.000000*%
%ADD22RoundRect,0.140000X0.140000X0.170000X-0.140000X0.170000X-0.140000X-0.170000X0.140000X-0.170000X0*%
%ADD23RoundRect,0.140000X-0.170000X0.140000X-0.170000X-0.140000X0.170000X-0.140000X0.170000X0.140000X0*%
%ADD24RoundRect,0.135000X0.185000X-0.135000X0.185000X0.135000X-0.185000X0.135000X-0.185000X-0.135000X0*%
%ADD25RoundRect,0.250000X0.475000X-0.250000X0.475000X0.250000X-0.475000X0.250000X-0.475000X-0.250000X0*%
%ADD26RoundRect,0.135000X0.135000X0.185000X-0.135000X0.185000X-0.135000X-0.185000X0.135000X-0.185000X0*%
%ADD27RoundRect,0.135000X-0.185000X0.135000X-0.185000X-0.135000X0.185000X-0.135000X0.185000X0.135000X0*%
%ADD28RotRect,0.400000X0.950000X247.500000*%
%ADD29RotRect,1.300000X0.350000X247.500000*%
%ADD30RotRect,0.350000X2.300000X247.500000*%
%ADD31RotRect,0.400000X0.950000X157.500000*%
%ADD32RotRect,1.300000X0.350000X157.500000*%
%ADD33RotRect,0.350000X2.300000X157.500000*%
%ADD34RoundRect,0.100000X0.637500X0.100000X-0.637500X0.100000X-0.637500X-0.100000X0.637500X-0.100000X0*%
%ADD35RoundRect,0.250000X0.250000X0.475000X-0.250000X0.475000X-0.250000X-0.475000X0.250000X-0.475000X0*%
%ADD36RoundRect,0.250000X1.450000X-0.312500X1.450000X0.312500X-1.450000X0.312500X-1.450000X-0.312500X0*%
%ADD37RoundRect,0.250000X1.000000X0.650000X-1.000000X0.650000X-1.000000X-0.650000X1.000000X-0.650000X0*%
%ADD38R,0.400000X0.950000*%
%ADD39R,1.300000X0.350000*%
%ADD40R,0.350000X2.300000*%
%ADD41RoundRect,0.225000X0.250000X-0.225000X0.250000X0.225000X-0.250000X0.225000X-0.250000X-0.225000X0*%
%ADD42R,0.950000X0.400000*%
%ADD43R,0.350000X1.300000*%
%ADD44R,2.300000X0.350000*%
%ADD45RotRect,0.400000X0.950000X112.500000*%
%ADD46RotRect,1.300000X0.350000X112.500000*%
%ADD47RotRect,0.350000X2.300000X112.500000*%
%ADD48RotRect,0.400000X0.950000X337.500000*%
%ADD49RotRect,1.300000X0.350000X337.500000*%
%ADD50RotRect,0.350000X2.300000X337.500000*%
%ADD51RoundRect,0.218750X-0.381250X0.218750X-0.381250X-0.218750X0.381250X-0.218750X0.381250X0.218750X0*%
%ADD52RotRect,0.400000X0.950000X202.500000*%
%ADD53RotRect,1.300000X0.350000X202.500000*%
%ADD54RotRect,0.350000X2.300000X202.500000*%
%ADD55RotRect,0.400000X0.950000X292.500000*%
%ADD56RotRect,1.300000X0.350000X292.500000*%
%ADD57RotRect,0.350000X2.300000X292.500000*%
%ADD58RoundRect,0.140000X-0.140000X-0.170000X0.140000X-0.170000X0.140000X0.170000X-0.140000X0.170000X0*%
%ADD59RotRect,0.400000X0.950000X67.500000*%
%ADD60RotRect,1.300000X0.350000X67.500000*%
%ADD61RotRect,0.350000X2.300000X67.500000*%
%ADD62RoundRect,0.150000X0.512500X0.150000X-0.512500X0.150000X-0.512500X-0.150000X0.512500X-0.150000X0*%
%ADD63RotRect,0.400000X0.950000X45.000000*%
%ADD64RotRect,1.300000X0.350000X45.000000*%
%ADD65RotRect,0.350000X2.300000X45.000000*%
%ADD66RotRect,0.400000X0.950000X135.000000*%
%ADD67RotRect,1.300000X0.350000X135.000000*%
%ADD68RotRect,0.350000X2.300000X135.000000*%
%ADD69R,1.300000X1.200000*%
%ADD70RoundRect,0.150000X-0.150000X0.512500X-0.150000X-0.512500X0.150000X-0.512500X0.150000X0.512500X0*%
%ADD71RoundRect,0.250000X-0.250000X-0.475000X0.250000X-0.475000X0.250000X0.475000X-0.250000X0.475000X0*%
G04 APERTURE END LIST*
D10*
X206268616Y-151452591D03*
X206268616Y-150492591D03*
D11*
X187473123Y-113163272D03*
X188427717Y-112208678D03*
X187791321Y-111572282D03*
X186836727Y-112526876D03*
D12*
X186412463Y-113587536D03*
D13*
X188498428Y-113233983D03*
D12*
X188851981Y-111148018D03*
D13*
X186766016Y-111501571D03*
D14*
X130307644Y-101282542D03*
X129791021Y-100035305D03*
X128959530Y-100379720D03*
X129476153Y-101626957D03*
D15*
X130293716Y-102424823D03*
D16*
X130765339Y-100362344D03*
D15*
X128973458Y-99237439D03*
D16*
X128501835Y-101299918D03*
D17*
X138862500Y-149850000D03*
X138862500Y-150800000D03*
X138862500Y-151750000D03*
X141137500Y-151750000D03*
X141137500Y-149850000D03*
D18*
X129389896Y-152532182D03*
X130409896Y-152532182D03*
D19*
X186836727Y-187473123D03*
X187791321Y-188427717D03*
X188427717Y-187791321D03*
X187473123Y-186836727D03*
D20*
X186412463Y-186412463D03*
D21*
X186766016Y-188498428D03*
D20*
X188851981Y-188851981D03*
D21*
X188498428Y-186766016D03*
D22*
X171810512Y-104506795D03*
X170850512Y-104506795D03*
D23*
X183867405Y-186636318D03*
X183867405Y-187596318D03*
D24*
X169400000Y-183210000D03*
X169400000Y-182190000D03*
D25*
X162600000Y-155250000D03*
X162600000Y-153350000D03*
D24*
X149500000Y-120810000D03*
X149500000Y-119790000D03*
D26*
X188327006Y-183836717D03*
X187307008Y-183836717D03*
D27*
X164628013Y-149918336D03*
X164628013Y-150938336D03*
D28*
X198373042Y-170523846D03*
X199620279Y-171040469D03*
X199964694Y-170208978D03*
X198717457Y-169692355D03*
D29*
X197575176Y-169706283D03*
D30*
X198700081Y-171498164D03*
D29*
X200762560Y-171026541D03*
D30*
X199637655Y-169234660D03*
D23*
X116163281Y-187337007D03*
X116163281Y-188297007D03*
D31*
X129476153Y-198373042D03*
X128959530Y-199620279D03*
X129791021Y-199964694D03*
X130307644Y-198717457D03*
D32*
X130293716Y-197575176D03*
D33*
X128501835Y-198700081D03*
D32*
X128973458Y-200762560D03*
D33*
X130765339Y-199637655D03*
D26*
X120453337Y-153156886D03*
X119433337Y-153156886D03*
D34*
X127762500Y-155425000D03*
X127762500Y-154775000D03*
X127762500Y-154125000D03*
X127762500Y-153475000D03*
X127762500Y-152825000D03*
X127762500Y-152175000D03*
X127762500Y-151525000D03*
X127762500Y-150875000D03*
X127762500Y-150225000D03*
X127762500Y-149575000D03*
X122037500Y-149575000D03*
X122037500Y-150225000D03*
X122037500Y-150875000D03*
X122037500Y-151525000D03*
X122037500Y-152175000D03*
X122037500Y-152825000D03*
X122037500Y-153475000D03*
X122037500Y-154125000D03*
X122037500Y-154775000D03*
X122037500Y-155425000D03*
D35*
X147650000Y-134600000D03*
X145750000Y-134600000D03*
D26*
X144810000Y-175300000D03*
X143790000Y-175300000D03*
D27*
X171900000Y-154689999D03*
X171900000Y-155710001D03*
D18*
X121733723Y-148263940D03*
X122753723Y-148263940D03*
D24*
X126129980Y-198207562D03*
X126129980Y-197187560D03*
D36*
X124800000Y-184237500D03*
X124800000Y-179962500D03*
D24*
X146400000Y-124110001D03*
X146400000Y-123089999D03*
X202956273Y-170567284D03*
X202956273Y-169547282D03*
D18*
X193189999Y-169500000D03*
X194210001Y-169500000D03*
D27*
X195398615Y-129598135D03*
X195398615Y-130618137D03*
D35*
X140550000Y-135400000D03*
X138650000Y-135400000D03*
D37*
X142100000Y-168900000D03*
X138100000Y-168900000D03*
D24*
X152597224Y-203850097D03*
X152597224Y-202830097D03*
D22*
X128989581Y-97201170D03*
X128029581Y-97201170D03*
X160740712Y-165275595D03*
X159780712Y-165275595D03*
D24*
X127741601Y-157835484D03*
X127741601Y-156815484D03*
D38*
X150450000Y-97455000D03*
X150450000Y-96105000D03*
X149550000Y-96105000D03*
X149550000Y-97455000D03*
D39*
X150000000Y-98505000D03*
D40*
X151225000Y-96780000D03*
D39*
X150000000Y-95055000D03*
D40*
X148775000Y-96780000D03*
D41*
X168000000Y-129775000D03*
X168000000Y-128225000D03*
D24*
X147400000Y-169110000D03*
X147400000Y-168090000D03*
D41*
X138400000Y-144775000D03*
X138400000Y-143225000D03*
D10*
X120394381Y-155147809D03*
X120394381Y-154187809D03*
D26*
X151482591Y-93731383D03*
X150462591Y-93731383D03*
X158721558Y-166555788D03*
X157701558Y-166555788D03*
D42*
X202545000Y-150450000D03*
X203895000Y-150450000D03*
X203895000Y-149550000D03*
X202545000Y-149550000D03*
D43*
X201495000Y-150000000D03*
D44*
X203220000Y-151225000D03*
D43*
X204945000Y-150000000D03*
D44*
X203220000Y-148775000D03*
D26*
X113610001Y-165400000D03*
X112589999Y-165400000D03*
D45*
X101282542Y-169692355D03*
X100035305Y-170208978D03*
X100379720Y-171040469D03*
X101626957Y-170523846D03*
D46*
X102424823Y-169706283D03*
D47*
X100362344Y-169234660D03*
D46*
X99237439Y-171026541D03*
D47*
X101299918Y-171498164D03*
D24*
X129480276Y-155015260D03*
X129480276Y-153995260D03*
D26*
X170567284Y-97043725D03*
X169547282Y-97043725D03*
D48*
X170523846Y-101626957D03*
X171040469Y-100379720D03*
X170208978Y-100035305D03*
X169692355Y-101282542D03*
D49*
X169706283Y-102424823D03*
D50*
X171498164Y-101299918D03*
D49*
X171026541Y-99237439D03*
D50*
X169234660Y-100362344D03*
D22*
X129149486Y-195493203D03*
X128189486Y-195493203D03*
D41*
X143187148Y-151288491D03*
X143187148Y-149738491D03*
D26*
X162767158Y-165324622D03*
X161747158Y-165324622D03*
D18*
X169390001Y-114600000D03*
X170409999Y-114600000D03*
D27*
X187200000Y-171590001D03*
X187200000Y-172609999D03*
D24*
X120014512Y-151946040D03*
X120014512Y-150926040D03*
D38*
X149550000Y-202545000D03*
X149550000Y-203895000D03*
X150450000Y-203895000D03*
X150450000Y-202545000D03*
D39*
X150000000Y-201495000D03*
D40*
X148775000Y-203220000D03*
D39*
X150000000Y-204945000D03*
D40*
X151225000Y-203220000D03*
D27*
X104506795Y-128159485D03*
X104506795Y-129179487D03*
D41*
X125084565Y-147678042D03*
X125084565Y-146128042D03*
D51*
X168200000Y-154737500D03*
X168200000Y-156862500D03*
D26*
X110610001Y-183200000D03*
X109589999Y-183200000D03*
D24*
X139100000Y-173210000D03*
X139100000Y-172190000D03*
D52*
X169692355Y-198717457D03*
X170208978Y-199964694D03*
X171040469Y-199620279D03*
X170523846Y-198373042D03*
D53*
X169706283Y-197575176D03*
D54*
X169234660Y-199637655D03*
D53*
X171026541Y-200762560D03*
D54*
X171498164Y-198700081D03*
D24*
X93731383Y-149537408D03*
X93731383Y-148517408D03*
D18*
X165289999Y-147600000D03*
X166310001Y-147600000D03*
D42*
X97455000Y-149550000D03*
X96105000Y-149550000D03*
X96105000Y-150450000D03*
X97455000Y-150450000D03*
D43*
X98505000Y-150000000D03*
D44*
X96780000Y-148775000D03*
D43*
X95055000Y-150000000D03*
D44*
X96780000Y-151225000D03*
D10*
X202798828Y-128989581D03*
X202798828Y-128029581D03*
D22*
X102782437Y-126129980D03*
X101822437Y-126129980D03*
D55*
X198717457Y-130307644D03*
X199964694Y-129791021D03*
X199620279Y-128959530D03*
X198373042Y-129476153D03*
D56*
X197575176Y-130293716D03*
D57*
X199637655Y-130765339D03*
D56*
X200762560Y-128973458D03*
D57*
X198700081Y-128501835D03*
D24*
X156200000Y-134709999D03*
X156200000Y-133690001D03*
D26*
X172510000Y-188400000D03*
X171490000Y-188400000D03*
D25*
X142239134Y-147962352D03*
X142239134Y-146062352D03*
D10*
X147421558Y-204034127D03*
X147421558Y-203074127D03*
D18*
X129598135Y-104601383D03*
X130618137Y-104601383D03*
D58*
X95965872Y-147421558D03*
X96925872Y-147421558D03*
D24*
X97201170Y-172000418D03*
X97201170Y-170980416D03*
D59*
X101626957Y-129476153D03*
X100379720Y-128959530D03*
X100035305Y-129791021D03*
X101282542Y-130307644D03*
D60*
X102424823Y-130293716D03*
D61*
X101299918Y-128501835D03*
D60*
X99237439Y-128973458D03*
D61*
X100362344Y-130765339D03*
D27*
X117600000Y-168390001D03*
X117600000Y-169409999D03*
D23*
X152578441Y-95965872D03*
X152578441Y-96925872D03*
D26*
X204064127Y-152578441D03*
X203044127Y-152578441D03*
X112692990Y-116163281D03*
X111672992Y-116163281D03*
D18*
X149290000Y-171800000D03*
X150310000Y-171800000D03*
D10*
X116132593Y-113363680D03*
X116132593Y-112403680D03*
D25*
X136815029Y-151440219D03*
X136815029Y-149540219D03*
D23*
X195493203Y-170850512D03*
X195493203Y-171810512D03*
D62*
X165571690Y-176426420D03*
X165571690Y-175476420D03*
X165571690Y-174526420D03*
X163296690Y-174526420D03*
X163296690Y-175476420D03*
X163296690Y-176426420D03*
D24*
X159300000Y-173710000D03*
X159300000Y-172690000D03*
D23*
X183836717Y-111702991D03*
X183836717Y-112662991D03*
D24*
X173400000Y-106210001D03*
X173400000Y-105189999D03*
X108662478Y-187299151D03*
X108662478Y-186279153D03*
D10*
X166848617Y-201085921D03*
X166848617Y-200125921D03*
D18*
X161590000Y-170400000D03*
X162610000Y-170400000D03*
D63*
X113163272Y-112526876D03*
X112208678Y-111572282D03*
X111572282Y-112208678D03*
X112526876Y-113163272D03*
D64*
X113587536Y-113587536D03*
D65*
X113233983Y-111501571D03*
D64*
X111148018Y-111148018D03*
D65*
X111501571Y-113233983D03*
D66*
X112526876Y-186836727D03*
X111572282Y-187791321D03*
X112208678Y-188427717D03*
X113163272Y-187473123D03*
D67*
X113587536Y-186412463D03*
D68*
X111501571Y-186766016D03*
D67*
X111148018Y-188851981D03*
D68*
X113233983Y-188498428D03*
D69*
X162250000Y-166750000D03*
X160150000Y-166750000D03*
X160150000Y-168650000D03*
X162250000Y-168650000D03*
D58*
X98914077Y-166848617D03*
X99874077Y-166848617D03*
D26*
X128027904Y-148240120D03*
X127007904Y-148240120D03*
D24*
X152700000Y-171710000D03*
X152700000Y-170690000D03*
D70*
X169818911Y-176925113D03*
X168868911Y-176925113D03*
X167918911Y-176925113D03*
X167918911Y-179200113D03*
X168868911Y-179200113D03*
X169818911Y-179200113D03*
D24*
X116300000Y-142610001D03*
X116300000Y-141589999D03*
D22*
X134380000Y-149500000D03*
X133420000Y-149500000D03*
D24*
X191337520Y-113720845D03*
X191337520Y-112700847D03*
D71*
X137350000Y-146700000D03*
X139250000Y-146700000D03*
D24*
X174080740Y-198876519D03*
X174080740Y-197856517D03*
X130084716Y-150893703D03*
X130084716Y-149873703D03*
D26*
X108610000Y-152100000D03*
X107590000Y-152100000D03*
M02*
