M48
; DRILL file KiCad 10.0.5 date 2026-08-28T19:30:48
; FORMAT={-:-/ absolute / metric / decimal}
; #@! TF.CreationDate,2026-08-28T19:30:48-06:00
; #@! TF.GenerationSoftware,Kicad,Pcbnew,10.0.5
; #@! TF.FileFunction,Plated,1,4,PTH
FMAT,2
METRIC
; #@! TA.AperFunction,Plated,PTH,ViaDrill
T1C0.300
; #@! TA.AperFunction,Plated,PTH,ComponentDrill
T2C1.000
%
G90
G05
T1
X94.208Y-150.07
X98.057Y-147.73
X98.12Y-152.187
X98.192Y-128.875
X98.196Y-171.158
X99.352Y-149.93
X100.373Y-167.985
X100.515Y-132.006
X101.147Y-127.261
X101.289Y-172.748
X103.467Y-169.575
X103.47Y-130.392
X109.919Y-188.625
X110.052Y-113.283
X111.375Y-109.919
X111.452Y-185.317
X113.283Y-189.948
X113.361Y-114.817
X114.683Y-111.452
X114.817Y-186.639
X127.252Y-101.289
X127.261Y-198.853
X128.842Y-98.196
X128.875Y-201.808
X130.392Y-196.53
X130.425Y-103.467
X130.475Y-154.907
X130.861Y-148.596
X132.006Y-199.485
X132.015Y-100.373
X143.6Y-175.9
X146.1Y-171.2
X147.73Y-201.943
X147.813Y-98.12
X148.0Y-174.1
X148.3Y-177.9
X148.8Y-175.3
X148.8Y-180.4
X149.93Y-94.208
X149.93Y-200.648
X150.07Y-99.352
X150.4Y-173.7
X150.616Y-206.033
X151.5Y-171.8
X152.072Y-203.15
X152.27Y-98.057
X152.3Y-175.3
X154.2Y-167.0
X154.9Y-173.7
X155.2Y-172.4
X155.7Y-176.0
X156.6Y-169.9
X157.2Y-176.0
X165.8Y-170.4
X167.0Y-171.6
X167.3Y-174.7
X167.985Y-199.627
X167.994Y-100.515
X169.575Y-196.533
X169.608Y-103.47
X171.125Y-98.192
X171.158Y-201.804
X172.739Y-101.147
X172.748Y-198.711
X185.183Y-113.361
X185.317Y-188.548
X186.639Y-185.183
X186.717Y-110.052
X188.548Y-114.683
X188.625Y-190.081
X189.948Y-186.717
X190.081Y-111.375
X195.3Y-170.6
X196.53Y-169.608
X196.533Y-130.425
X198.711Y-127.252
X198.853Y-172.739
X199.485Y-167.994
X199.627Y-132.015
X200.648Y-150.07
X201.804Y-128.842
X201.808Y-171.125
X201.943Y-152.27
X203.15Y-147.928
X206.033Y-149.384
T2
X130.79Y-138.57
X130.79Y-161.43
X133.33Y-138.57
X133.33Y-161.43
X134.76Y-179.19
X134.76Y-181.73
X135.87Y-138.57
X135.87Y-161.43
X137.3Y-179.19
X137.3Y-181.73
X138.41Y-138.57
X138.41Y-161.43
X139.84Y-179.19
X139.84Y-181.73
X140.95Y-138.57
X140.95Y-161.43
X142.38Y-179.19
X142.38Y-181.73
X143.49Y-138.57
X143.49Y-161.43
X144.92Y-179.19
X144.92Y-181.73
X146.03Y-138.57
X146.03Y-161.43
X147.46Y-179.19
X147.46Y-181.73
X148.57Y-138.57
X148.57Y-161.43
X150.0Y-179.19
X150.0Y-181.73
X151.11Y-138.57
X151.11Y-161.43
X152.54Y-179.19
X152.54Y-181.73
X153.65Y-138.57
X153.65Y-161.43
X155.08Y-179.19
X155.08Y-181.73
X156.19Y-138.57
X156.19Y-161.43
X157.62Y-179.19
X157.62Y-181.73
X158.73Y-138.57
X158.73Y-161.43
X160.16Y-179.19
X160.16Y-181.73
X161.27Y-138.57
X161.27Y-161.43
X162.7Y-179.19
X162.7Y-181.73
X163.81Y-138.57
X163.81Y-161.43
X165.24Y-179.19
X165.24Y-181.73
X166.35Y-138.57
X166.35Y-161.43
X168.89Y-138.57
X168.89Y-161.43
X171.43Y-138.57
X171.43Y-161.43
X173.97Y-138.57
X173.97Y-161.43
X176.51Y-138.57
X176.51Y-161.43
X179.05Y-138.57
X179.05Y-161.43
X181.59Y-138.57
X181.59Y-161.43
X184.13Y-138.57
X184.13Y-161.43
X186.67Y-138.57
X186.67Y-161.43
X189.21Y-138.57
X189.21Y-161.43
M30
