G04 #@! TF.GenerationSoftware,KiCad,Pcbnew,10.0.5*
G04 #@! TF.CreationDate,2026-08-28T19:30:47-06:00*
G04 #@! TF.ProjectId,candidate_routed,63616e64-6964-4617-9465-5f726f757465,rev?*
G04 #@! TF.SameCoordinates,Original*
G04 #@! TF.FileFunction,Soldermask,Top*
G04 #@! TF.FilePolarity,Negative*
%FSLAX46Y46*%
G04 Gerber Fmt 4.6, Leading zero omitted, Abs format (unit mm)*
G04 Created by KiCad (PCBNEW 10.0.5) date 2026-08-28 19:30:47*
%MOMM*%
%LPD*%
G01*
G04 APERTURE LIST*
G04 Aperture macros list*
%AMRoundRect*
0 Rectangle with rounded corners*
0 $1 Rounding radius*
0 $2 $3 $4 $5 $6 $7 $8 $9 X,Y pos of 4 corners*
0 Add a 4 corners polygon primitive as box body*
4,1,4,$2,$3,$4,$5,$6,$7,$8,$9,$2,$3,0*
0 Add four circle primitives for the rounded corners*
1,1,$1+$1,$2,$3*
1,1,$1+$1,$4,$5*
1,1,$1+$1,$6,$7*
1,1,$1+$1,$8,$9*
0 Add four rect primitives between the rounded corners*
20,1,$1+$1,$2,$3,$4,$5,0*
20,1,$1+$1,$4,$5,$6,$7,0*
20,1,$1+$1,$6,$7,$8,$9,0*
20,1,$1+$1,$8,$9,$2,$3,0*%
%AMRotRect*
0 Rectangle, with rotation*
0 The origin of the aperture is its center*
0 $1 length*
0 $2 width*
0 $3 Rotation angle, in degrees counterclockwise*
0 Add horizontal line*
21,1,$1,$2,0,0,$3*%
G04 Aperture macros list end*
%ADD10RoundRect,0.140000X-0.140000X-0.170000X0.140000X-0.170000X0.140000X0.170000X-0.140000X0.170000X0*%
%ADD11RotRect,0.400000X0.950000X315.000000*%
%ADD12RotRect,1.300000X0.350000X315.000000*%
%ADD13RotRect,0.350000X2.300000X315.000000*%
%ADD14RotRect,0.400000X0.950000X22.500000*%
%ADD15RotRect,1.300000X0.350000X22.500000*%
%ADD16RotRect,0.350000X2.300000X22.500000*%
%ADD17C,1.000000*%
%ADD18RoundRect,0.150000X-0.512500X-0.150000X0.512500X-0.150000X0.512500X0.150000X-0.512500X0.150000X0*%
%ADD19C,1.500000*%
%ADD20RoundRect,0.135000X-0.185000X0.135000X-0.185000X-0.135000X0.185000X-0.135000X0.185000X0.135000X0*%
%ADD21RotRect,0.400000X0.950000X225.000000*%
%ADD22RotRect,1.300000X0.350000X225.000000*%
%ADD23RotRect,0.350000X2.300000X225.000000*%
%ADD24RoundRect,0.140000X-0.170000X0.140000X-0.170000X-0.140000X0.170000X-0.140000X0.170000X0.140000X0*%
%ADD25RoundRect,0.135000X0.185000X-0.135000X0.185000X0.135000X-0.185000X0.135000X-0.185000X-0.135000X0*%
%ADD26RoundRect,0.250000X-0.250000X-0.475000X0.250000X-0.475000X0.250000X0.475000X-0.250000X0.475000X0*%
%ADD27RoundRect,0.135000X-0.135000X-0.185000X0.135000X-0.185000X0.135000X0.185000X-0.135000X0.185000X0*%
%ADD28RotRect,0.400000X0.950000X247.500000*%
%ADD29RotRect,1.300000X0.350000X247.500000*%
%ADD30RotRect,0.350000X2.300000X247.500000*%
%ADD31RoundRect,0.140000X0.140000X0.170000X-0.140000X0.170000X-0.140000X-0.170000X0.140000X-0.170000X0*%
%ADD32RotRect,0.400000X0.950000X157.500000*%
%ADD33RotRect,1.300000X0.350000X157.500000*%
%ADD34RotRect,0.350000X2.300000X157.500000*%
%ADD35RoundRect,0.135000X0.135000X0.185000X-0.135000X0.185000X-0.135000X-0.185000X0.135000X-0.185000X0*%
%ADD36RoundRect,0.100000X0.100000X-0.637500X0.100000X0.637500X-0.100000X0.637500X-0.100000X-0.637500X0*%
%ADD37RoundRect,0.250000X0.475000X-0.250000X0.475000X0.250000X-0.475000X0.250000X-0.475000X-0.250000X0*%
%ADD38RoundRect,0.250000X0.312500X1.450000X-0.312500X1.450000X-0.312500X-1.450000X0.312500X-1.450000X0*%
%ADD39RoundRect,0.250000X-0.650000X1.000000X-0.650000X-1.000000X0.650000X-1.000000X0.650000X1.000000X0*%
%ADD40R,0.400000X0.950000*%
%ADD41R,1.300000X0.350000*%
%ADD42R,0.350000X2.300000*%
%ADD43RoundRect,0.225000X-0.250000X0.225000X-0.250000X-0.225000X0.250000X-0.225000X0.250000X0.225000X0*%
%ADD44RoundRect,0.225000X0.225000X0.250000X-0.225000X0.250000X-0.225000X-0.250000X0.225000X-0.250000X0*%
%ADD45RoundRect,0.140000X0.170000X-0.140000X0.170000X0.140000X-0.170000X0.140000X-0.170000X-0.140000X0*%
%ADD46R,0.950000X0.400000*%
%ADD47R,0.350000X1.300000*%
%ADD48R,2.300000X0.350000*%
%ADD49RotRect,0.400000X0.950000X112.500000*%
%ADD50RotRect,1.300000X0.350000X112.500000*%
%ADD51RotRect,0.350000X2.300000X112.500000*%
%ADD52RotRect,0.400000X0.950000X337.500000*%
%ADD53RotRect,1.300000X0.350000X337.500000*%
%ADD54RotRect,0.350000X2.300000X337.500000*%
%ADD55RoundRect,0.225000X-0.225000X-0.250000X0.225000X-0.250000X0.225000X0.250000X-0.225000X0.250000X0*%
%ADD56RoundRect,0.225000X0.250000X-0.225000X0.250000X0.225000X-0.250000X0.225000X-0.250000X-0.225000X0*%
%ADD57RoundRect,0.218750X-0.218750X-0.381250X0.218750X-0.381250X0.218750X0.381250X-0.218750X0.381250X0*%
%ADD58RotRect,0.400000X0.950000X202.500000*%
%ADD59RotRect,1.300000X0.350000X202.500000*%
%ADD60RotRect,0.350000X2.300000X202.500000*%
%ADD61RotRect,0.400000X0.950000X292.500000*%
%ADD62RotRect,1.300000X0.350000X292.500000*%
%ADD63RotRect,0.350000X2.300000X292.500000*%
%ADD64RoundRect,0.250000X-0.475000X0.250000X-0.475000X-0.250000X0.475000X-0.250000X0.475000X0.250000X0*%
%ADD65RotRect,0.400000X0.950000X67.500000*%
%ADD66RotRect,1.300000X0.350000X67.500000*%
%ADD67RotRect,0.350000X2.300000X67.500000*%
%ADD68RoundRect,0.250000X0.250000X0.475000X-0.250000X0.475000X-0.250000X-0.475000X0.250000X-0.475000X0*%
%ADD69RoundRect,0.150000X-0.150000X0.512500X-0.150000X-0.512500X0.150000X-0.512500X0.150000X0.512500X0*%
%ADD70RotRect,0.400000X0.950000X45.000000*%
%ADD71RotRect,1.300000X0.350000X45.000000*%
%ADD72RotRect,0.350000X2.300000X45.000000*%
%ADD73RotRect,0.400000X0.950000X135.000000*%
%ADD74RotRect,1.300000X0.350000X135.000000*%
%ADD75RotRect,0.350000X2.300000X135.000000*%
%ADD76R,1.300000X1.200000*%
%ADD77RoundRect,0.150000X0.512500X0.150000X-0.512500X0.150000X-0.512500X-0.150000X0.512500X-0.150000X0*%
%ADD78R,1.700000X1.700000*%
%ADD79C,1.700000*%
G04 APERTURE END LIST*
D10*
X203074127Y-152578441D03*
X204034127Y-152578441D03*
D11*
X187473123Y-113163272D03*
X188427717Y-112208678D03*
X187791321Y-111572282D03*
X186836727Y-112526876D03*
D12*
X186412463Y-113587536D03*
D13*
X188498428Y-113233983D03*
D12*
X188851981Y-111148018D03*
D13*
X186766016Y-111501571D03*
D14*
X130307644Y-101282542D03*
X129791021Y-100035305D03*
X128959530Y-100379720D03*
X129476153Y-101626957D03*
D15*
X130293716Y-102424823D03*
D16*
X130765339Y-100362344D03*
D15*
X128973458Y-99237439D03*
D16*
X128501835Y-101299918D03*
D17*
X158800000Y-156600000D03*
D18*
X129962500Y-150450000D03*
X129962500Y-151400000D03*
X129962500Y-152350000D03*
X132237500Y-152350000D03*
X132237500Y-150450000D03*
D19*
X186900000Y-133300000D03*
D20*
X131615904Y-172774656D03*
X131615904Y-173794656D03*
D21*
X186836727Y-187473123D03*
X187791321Y-188427717D03*
X188427717Y-187791321D03*
X187473123Y-186836727D03*
D22*
X186412463Y-186412463D03*
D23*
X186766016Y-188498428D03*
D22*
X188851981Y-188851981D03*
D23*
X188498428Y-186766016D03*
D24*
X173870018Y-101822437D03*
X173870018Y-102782437D03*
X183867405Y-186636318D03*
X183867405Y-187596318D03*
D25*
X152600000Y-171510000D03*
X152600000Y-170490000D03*
D26*
X131450000Y-155900000D03*
X133350000Y-155900000D03*
D25*
X155200000Y-112110000D03*
X155200000Y-111090000D03*
D20*
X191889612Y-186011087D03*
X191889612Y-187031085D03*
D27*
X189490000Y-155500000D03*
X190510000Y-155500000D03*
D19*
X113100000Y-122700000D03*
D28*
X198373042Y-170523846D03*
X199620279Y-171040469D03*
X199964694Y-170208978D03*
X198717457Y-169692355D03*
D29*
X197575176Y-169706283D03*
D30*
X198700081Y-171498164D03*
D29*
X200762560Y-171026541D03*
D30*
X199637655Y-169234660D03*
D31*
X113363680Y-183867405D03*
X112403680Y-183867405D03*
D32*
X129476153Y-198373042D03*
X128959530Y-199620279D03*
X129791021Y-199964694D03*
X130307644Y-198717457D03*
D33*
X130293716Y-197575176D03*
D34*
X128501835Y-198700081D03*
D33*
X128973458Y-200762560D03*
D34*
X130765339Y-199637655D03*
D35*
X140490239Y-168481189D03*
X139470239Y-168481189D03*
D36*
X134290510Y-176213625D03*
X134940510Y-176213625D03*
X135590510Y-176213625D03*
X136240510Y-176213625D03*
X136890510Y-176213625D03*
X137540510Y-176213625D03*
X138190510Y-176213625D03*
X138840510Y-176213625D03*
X139490510Y-176213625D03*
X140140510Y-176213625D03*
X140140510Y-170488625D03*
X139490510Y-170488625D03*
X138840510Y-170488625D03*
X138190510Y-170488625D03*
X137540510Y-170488625D03*
X136890510Y-170488625D03*
X136240510Y-170488625D03*
X135590510Y-170488625D03*
X134940510Y-170488625D03*
X134290510Y-170488625D03*
D37*
X141600000Y-143250000D03*
X141600000Y-141350000D03*
D35*
X161910000Y-152800000D03*
X160890000Y-152800000D03*
D20*
X183600000Y-157589999D03*
X183600000Y-158610001D03*
D27*
X134398978Y-168914920D03*
X135418978Y-168914920D03*
D19*
X144400000Y-100200000D03*
D25*
X126129980Y-198207562D03*
X126129980Y-197187560D03*
D38*
X135337500Y-186400000D03*
X131062500Y-186400000D03*
D35*
X144710001Y-115000000D03*
X143689999Y-115000000D03*
D25*
X195493203Y-171840513D03*
X195493203Y-170820511D03*
D27*
X199189999Y-166500000D03*
X200210001Y-166500000D03*
D20*
X202798828Y-127999580D03*
X202798828Y-129019582D03*
D26*
X127850000Y-166300000D03*
X129750000Y-166300000D03*
D39*
X123900000Y-176500000D03*
X123900000Y-180500000D03*
D25*
X147421558Y-204064127D03*
X147421558Y-203044127D03*
D31*
X128989581Y-97201170D03*
X128029581Y-97201170D03*
X161759359Y-164543717D03*
X160799359Y-164543717D03*
D25*
X142720934Y-176712493D03*
X142720934Y-175692493D03*
D40*
X150450000Y-97455000D03*
X150450000Y-96105000D03*
X149550000Y-96105000D03*
X149550000Y-97455000D03*
D41*
X150000000Y-98505000D03*
D42*
X151225000Y-96780000D03*
D41*
X150000000Y-95055000D03*
D42*
X148775000Y-96780000D03*
D43*
X162000000Y-128225000D03*
X162000000Y-129775000D03*
D25*
X148800000Y-169310000D03*
X148800000Y-168290000D03*
D44*
X133375000Y-147800000D03*
X131825000Y-147800000D03*
D45*
X137994386Y-168285554D03*
X137994386Y-167325554D03*
D25*
X147402775Y-97169902D03*
X147402775Y-96149902D03*
D20*
X166898581Y-165004134D03*
X166898581Y-166024134D03*
D46*
X202545000Y-150450000D03*
X203895000Y-150450000D03*
X203895000Y-149550000D03*
X202545000Y-149550000D03*
D47*
X201495000Y-150000000D03*
D48*
X203220000Y-151225000D03*
D47*
X204945000Y-150000000D03*
D48*
X203220000Y-148775000D03*
D35*
X119610001Y-155600000D03*
X118589999Y-155600000D03*
D49*
X101282542Y-169692355D03*
X100035305Y-170208978D03*
X100379720Y-171040469D03*
X101626957Y-170523846D03*
D50*
X102424823Y-169706283D03*
D51*
X100362344Y-169234660D03*
D50*
X99237439Y-171026541D03*
D51*
X101299918Y-171498164D03*
D20*
X132642827Y-174863641D03*
X132642827Y-175883641D03*
D35*
X171840513Y-104506795D03*
X170820511Y-104506795D03*
D52*
X170523846Y-101626957D03*
X171040469Y-100379720D03*
X170208978Y-100035305D03*
X169692355Y-101282542D03*
D53*
X169706283Y-102424823D03*
D54*
X171498164Y-101299918D03*
D53*
X171026541Y-99237439D03*
D54*
X169234660Y-100362344D03*
D10*
X128189486Y-195493203D03*
X129149486Y-195493203D03*
D19*
X172000000Y-189200000D03*
D55*
X129695529Y-153922650D03*
X131245529Y-153922650D03*
D19*
X125200000Y-188400000D03*
D35*
X165120731Y-168181365D03*
X164100731Y-168181365D03*
D25*
X173200000Y-145109999D03*
X173200000Y-144090001D03*
D19*
X194237955Y-188658393D03*
X153500000Y-197500000D03*
D20*
X192500000Y-165690001D03*
X192500000Y-166709999D03*
X133051862Y-169096257D03*
X133051862Y-170116257D03*
D40*
X149550000Y-202545000D03*
X149550000Y-203895000D03*
X150450000Y-203895000D03*
X150450000Y-202545000D03*
D41*
X150000000Y-201495000D03*
D42*
X148775000Y-203220000D03*
D41*
X150000000Y-204945000D03*
D42*
X151225000Y-203220000D03*
D25*
X97043725Y-130452716D03*
X97043725Y-129432714D03*
D56*
X141575669Y-173535352D03*
X141575669Y-171985352D03*
D19*
X193400000Y-179900000D03*
D57*
X163137500Y-150300000D03*
X165262500Y-150300000D03*
D20*
X132700000Y-172689999D03*
X132700000Y-173710001D03*
D25*
X146100000Y-173010000D03*
X146100000Y-171990000D03*
D19*
X144400000Y-154600000D03*
D58*
X169692355Y-198717457D03*
X170208978Y-199964694D03*
X171040469Y-199620279D03*
X170523846Y-198373042D03*
D59*
X169706283Y-197575176D03*
D60*
X169234660Y-199637655D03*
D59*
X171026541Y-200762560D03*
D60*
X171498164Y-198700081D03*
D19*
X120000000Y-165600000D03*
D35*
X97169902Y-152597224D03*
X96149902Y-152597224D03*
D25*
X193800000Y-145710001D03*
X193800000Y-144689999D03*
D46*
X97455000Y-149550000D03*
X96105000Y-149550000D03*
X96105000Y-150450000D03*
X97455000Y-150450000D03*
D47*
X98505000Y-150000000D03*
D48*
X96780000Y-148775000D03*
D47*
X95055000Y-150000000D03*
D48*
X96780000Y-151225000D03*
D10*
X200125921Y-133151381D03*
X201085921Y-133151381D03*
D24*
X104506795Y-128189486D03*
X104506795Y-129149486D03*
D61*
X198717457Y-130307644D03*
X199964694Y-129791021D03*
X199620279Y-128959530D03*
X198373042Y-129476153D03*
D62*
X197575176Y-130293716D03*
D63*
X199637655Y-130765339D03*
D62*
X200762560Y-128973458D03*
D63*
X198700081Y-128501835D03*
D35*
X139709999Y-117700000D03*
X138690001Y-117700000D03*
X178010000Y-175700000D03*
X176990000Y-175700000D03*
D64*
X127918187Y-150109313D03*
X127918187Y-152009313D03*
D31*
X149507408Y-206268616D03*
X148547408Y-206268616D03*
D19*
X175400000Y-109300000D03*
D20*
X133151381Y-98884076D03*
X133151381Y-99904078D03*
D31*
X96925872Y-147421558D03*
X95965872Y-147421558D03*
D25*
X97201170Y-172000418D03*
X97201170Y-170980416D03*
D65*
X101626957Y-129476153D03*
X100379720Y-128959530D03*
X100035305Y-129791021D03*
X101282542Y-130307644D03*
D66*
X102424823Y-130293716D03*
D67*
X101299918Y-128501835D03*
D66*
X99237439Y-128973458D03*
D67*
X100362344Y-130765339D03*
D35*
X118109999Y-180900000D03*
X117090001Y-180900000D03*
D45*
X152578441Y-96925872D03*
X152578441Y-95965872D03*
D20*
X206268616Y-150462591D03*
X206268616Y-151482591D03*
X116132593Y-112373681D03*
X116132593Y-113393679D03*
D25*
X156000000Y-171610000D03*
X156000000Y-170590000D03*
D10*
X111702991Y-116163281D03*
X112662991Y-116163281D03*
D68*
X136383571Y-150638321D03*
X134483571Y-150638321D03*
D10*
X197217561Y-173870018D03*
X198177561Y-173870018D03*
D69*
X170244234Y-179762231D03*
X169294234Y-179762231D03*
X168344234Y-179762231D03*
X168344234Y-182037231D03*
X169294234Y-182037231D03*
X170244234Y-182037231D03*
D35*
X165710000Y-170300000D03*
X164690000Y-170300000D03*
D10*
X186636319Y-116132593D03*
X187596319Y-116132593D03*
D27*
X165289999Y-95800000D03*
X166310001Y-95800000D03*
D20*
X116163281Y-187307008D03*
X116163281Y-188327006D03*
D24*
X166848617Y-200125921D03*
X166848617Y-201085921D03*
D27*
X169990000Y-184200000D03*
X171010000Y-184200000D03*
D70*
X113163272Y-112526876D03*
X112208678Y-111572282D03*
X111572282Y-112208678D03*
X112526876Y-113163272D03*
D71*
X113587536Y-113587536D03*
D72*
X113233983Y-111501571D03*
D71*
X111148018Y-111148018D03*
D72*
X111501571Y-113233983D03*
D73*
X112526876Y-186836727D03*
X111572282Y-187791321D03*
X112208678Y-188427717D03*
X113163272Y-187473123D03*
D74*
X113587536Y-186412463D03*
D75*
X111501571Y-186766016D03*
D74*
X111148018Y-188851981D03*
D75*
X113233983Y-188498428D03*
D76*
X165350000Y-164650000D03*
X163250000Y-164650000D03*
X163250000Y-166550000D03*
X165350000Y-166550000D03*
D31*
X99874077Y-166848617D03*
X98914077Y-166848617D03*
D20*
X141559073Y-175317706D03*
X141559073Y-176337706D03*
D25*
X155700000Y-174710000D03*
X155700000Y-173690000D03*
D77*
X167690775Y-176574147D03*
X167690775Y-175624147D03*
X167690775Y-174674147D03*
X165415775Y-174674147D03*
X165415775Y-175624147D03*
X165415775Y-176574147D03*
D17*
X144700000Y-151300000D03*
D25*
X121500000Y-154610001D03*
X121500000Y-153589999D03*
D31*
X133461015Y-153988779D03*
X132501015Y-153988779D03*
D35*
X187031085Y-108110386D03*
X186011087Y-108110386D03*
D64*
X146768609Y-141426931D03*
X146768609Y-143326931D03*
D20*
X174080740Y-197856517D03*
X174080740Y-198876519D03*
D19*
X186000000Y-166200000D03*
D27*
X132050657Y-171525652D03*
X133070657Y-171525652D03*
D35*
X111610000Y-155100000D03*
X110590000Y-155100000D03*
D78*
X165240000Y-179190000D03*
D79*
X165240000Y-181730000D03*
X162700000Y-179190000D03*
X162700000Y-181730000D03*
X160160000Y-179190000D03*
X160160000Y-181730000D03*
X157620000Y-179190000D03*
X157620000Y-181730000D03*
X155080000Y-179190000D03*
X155080000Y-181730000D03*
X152540000Y-179190000D03*
X152540000Y-181730000D03*
X150000000Y-179190000D03*
X150000000Y-181730000D03*
X147460000Y-179190000D03*
X147460000Y-181730000D03*
X144920000Y-179190000D03*
X144920000Y-181730000D03*
X142380000Y-179190000D03*
X142380000Y-181730000D03*
X139840000Y-179190000D03*
X139840000Y-181730000D03*
X137300000Y-179190000D03*
X137300000Y-181730000D03*
X134760000Y-179190000D03*
X134760000Y-181730000D03*
D78*
X189210000Y-138570000D03*
D79*
X186670000Y-138570000D03*
X184130000Y-138570000D03*
X181590000Y-138570000D03*
X179050000Y-138570000D03*
X176510000Y-138570000D03*
X173970000Y-138570000D03*
X171430000Y-138570000D03*
X168890000Y-138570000D03*
X166350000Y-138570000D03*
X163810000Y-138570000D03*
X161270000Y-138570000D03*
X158730000Y-138570000D03*
X156190000Y-138570000D03*
X153650000Y-138570000D03*
X151110000Y-138570000D03*
X148570000Y-138570000D03*
X146030000Y-138570000D03*
X143490000Y-138570000D03*
X140950000Y-138570000D03*
X138410000Y-138570000D03*
X135870000Y-138570000D03*
X133330000Y-138570000D03*
X130790000Y-138570000D03*
D78*
X189210000Y-161430000D03*
D79*
X186670000Y-161430000D03*
X184130000Y-161430000D03*
X181590000Y-161430000D03*
X179050000Y-161430000D03*
X176510000Y-161430000D03*
X173970000Y-161430000D03*
X171430000Y-161430000D03*
X168890000Y-161430000D03*
X166350000Y-161430000D03*
X163810000Y-161430000D03*
X161270000Y-161430000D03*
X158730000Y-161430000D03*
X156190000Y-161430000D03*
X153650000Y-161430000D03*
X151110000Y-161430000D03*
X148570000Y-161430000D03*
X146030000Y-161430000D03*
X143490000Y-161430000D03*
X140950000Y-161430000D03*
X138410000Y-161430000D03*
X135870000Y-161430000D03*
X133330000Y-161430000D03*
X130790000Y-161430000D03*
M02*
