G04 #@! TF.GenerationSoftware,KiCad,Pcbnew,10.0.5*
G04 #@! TF.CreationDate,2026-08-28T19:26:33-06:00*
G04 #@! TF.ProjectId,candidate_routed,63616e64-6964-4617-9465-5f726f757465,rev?*
G04 #@! TF.SameCoordinates,Original*
G04 #@! TF.FileFunction,Copper,L4,Bot*
G04 #@! TF.FilePolarity,Positive*
%FSLAX46Y46*%
G04 Gerber Fmt 4.6, Leading zero omitted, Abs format (unit mm)*
G04 Created by KiCad (PCBNEW 10.0.5) date 2026-08-28 19:26:33*
%MOMM*%
%LPD*%
G01*
G04 APERTURE LIST*
G04 #@! TA.AperFunction,ComponentPad*
%ADD10R,1.700000X1.700000*%
G04 #@! TD*
G04 #@! TA.AperFunction,ComponentPad*
%ADD11C,1.700000*%
G04 #@! TD*
G04 #@! TA.AperFunction,ViaPad*
%ADD12C,0.600000*%
G04 #@! TD*
G04 #@! TA.AperFunction,ViaPad*
%ADD13C,0.450000*%
G04 #@! TD*
G04 #@! TA.AperFunction,Conductor*
%ADD14C,0.600000*%
G04 #@! TD*
G04 APERTURE END LIST*
D10*
X165240000Y-179190000D03*
D11*
X165240000Y-181730000D03*
X162700000Y-179190000D03*
X162700000Y-181730000D03*
X160160000Y-179190000D03*
X160160000Y-181730000D03*
X157620000Y-179190000D03*
X157620000Y-181730000D03*
X155080000Y-179190000D03*
X155080000Y-181730000D03*
X152540000Y-179190000D03*
X152540000Y-181730000D03*
X150000000Y-179190000D03*
X150000000Y-181730000D03*
X147460000Y-179190000D03*
X147460000Y-181730000D03*
X144920000Y-179190000D03*
X144920000Y-181730000D03*
X142380000Y-179190000D03*
X142380000Y-181730000D03*
X139840000Y-179190000D03*
X139840000Y-181730000D03*
X137300000Y-179190000D03*
X137300000Y-181730000D03*
X134760000Y-179190000D03*
X134760000Y-181730000D03*
D10*
X189210000Y-138570000D03*
D11*
X186670000Y-138570000D03*
X184130000Y-138570000D03*
X181590000Y-138570000D03*
X179050000Y-138570000D03*
X176510000Y-138570000D03*
X173970000Y-138570000D03*
X171430000Y-138570000D03*
X168890000Y-138570000D03*
X166350000Y-138570000D03*
X163810000Y-138570000D03*
X161270000Y-138570000D03*
X158730000Y-138570000D03*
X156190000Y-138570000D03*
X153650000Y-138570000D03*
X151110000Y-138570000D03*
X148570000Y-138570000D03*
X146030000Y-138570000D03*
X143490000Y-138570000D03*
X140950000Y-138570000D03*
X138410000Y-138570000D03*
X135870000Y-138570000D03*
X133330000Y-138570000D03*
X130790000Y-138570000D03*
D10*
X189210000Y-161430000D03*
D11*
X186670000Y-161430000D03*
X184130000Y-161430000D03*
X181590000Y-161430000D03*
X179050000Y-161430000D03*
X176510000Y-161430000D03*
X173970000Y-161430000D03*
X171430000Y-161430000D03*
X168890000Y-161430000D03*
X166350000Y-161430000D03*
X163810000Y-161430000D03*
X161270000Y-161430000D03*
X158730000Y-161430000D03*
X156190000Y-161430000D03*
X153650000Y-161430000D03*
X151110000Y-161430000D03*
X148570000Y-161430000D03*
X146030000Y-161430000D03*
X143490000Y-161430000D03*
X140950000Y-161430000D03*
X138410000Y-161430000D03*
X135870000Y-161430000D03*
X133330000Y-161430000D03*
X130790000Y-161430000D03*
D12*
X206075000Y-150350000D03*
X188550000Y-146300000D03*
X124400000Y-169100000D03*
X115100000Y-188100000D03*
X94100000Y-149700000D03*
X114900000Y-186500000D03*
X188100000Y-109800000D03*
X169800000Y-196500000D03*
X169300000Y-179800000D03*
X147700000Y-202100000D03*
X201400000Y-157300000D03*
X147400000Y-204000000D03*
X158100000Y-117600000D03*
X186000000Y-110600000D03*
D13*
X200546200Y-149550300D03*
D12*
X96800000Y-153500000D03*
X143000000Y-98500000D03*
X129100000Y-196800000D03*
X167900000Y-100500000D03*
X196900000Y-168800000D03*
X134000000Y-143400000D03*
X103600000Y-169700000D03*
X199300000Y-166400000D03*
X174000000Y-197300000D03*
X127700000Y-101900000D03*
X100800000Y-168000000D03*
X146900000Y-99100000D03*
X189400000Y-186000000D03*
X190200000Y-188100000D03*
X131800000Y-102000000D03*
X138400000Y-132000000D03*
X156100000Y-119100000D03*
D13*
X152237700Y-203497500D03*
D12*
X124900000Y-167100000D03*
X200400000Y-158300000D03*
X149800000Y-115100000D03*
X132100000Y-199500000D03*
X152400000Y-114300000D03*
X167700000Y-175600000D03*
X144400000Y-107900000D03*
X168100000Y-102100000D03*
X135100000Y-159600000D03*
X182825000Y-113275000D03*
X181675000Y-112125000D03*
X135400000Y-107600000D03*
X135400000Y-104800000D03*
X137400000Y-162700000D03*
X129000000Y-168800000D03*
X122600000Y-168800000D03*
X144800000Y-155400000D03*
X131000000Y-168800000D03*
X122900000Y-165900000D03*
X126900000Y-166400000D03*
X185700000Y-177400000D03*
X126900000Y-160600000D03*
X161200000Y-158200000D03*
X177700000Y-158300000D03*
X136800000Y-155200000D03*
X118200000Y-168900000D03*
X116600000Y-170500000D03*
X189700000Y-166800000D03*
X138500000Y-153700000D03*
X136400000Y-135200000D03*
X107300000Y-121400000D03*
X165800000Y-124400000D03*
X134200000Y-135200000D03*
X136900000Y-145700000D03*
X126900000Y-164400000D03*
X170400000Y-112800000D03*
X190800000Y-165700000D03*
X176900000Y-134800000D03*
X138700000Y-147500000D03*
X176900000Y-133300000D03*
X192200000Y-177800000D03*
X108900000Y-123000000D03*
X142000000Y-135400000D03*
D13*
X180800000Y-137200000D03*
D12*
X172125000Y-103575000D03*
X173725000Y-101975000D03*
D13*
X160900000Y-174200000D03*
X144800000Y-174100000D03*
X162700000Y-176000000D03*
D12*
X167200000Y-125700000D03*
X168200000Y-124700000D03*
D13*
X200400000Y-166900000D03*
X201700000Y-168200000D03*
X201627000Y-169375000D03*
X200575000Y-168350000D03*
D12*
X121000000Y-198200000D03*
X122900000Y-198200000D03*
X150500000Y-116400000D03*
X136600000Y-147400000D03*
X148500000Y-125800000D03*
X155800000Y-115800000D03*
X140400000Y-128500000D03*
X129700000Y-137400000D03*
X152400000Y-115800000D03*
D13*
X170400000Y-181000000D03*
X171900000Y-179500000D03*
X145000000Y-98400000D03*
X147000000Y-96400000D03*
D12*
X160600000Y-183800000D03*
X132600000Y-175700000D03*
X132600000Y-173500000D03*
D13*
X140400000Y-170100000D03*
X141600000Y-168900000D03*
X168900000Y-125600000D03*
X142200000Y-176000000D03*
X172000000Y-202500000D03*
X172100000Y-197950000D03*
X141800000Y-171200000D03*
X167000000Y-178500000D03*
X162000000Y-174500000D03*
X168700000Y-183100000D03*
X171400000Y-182100000D03*
D12*
X169300000Y-182000000D03*
X165100000Y-175600000D03*
D14*
X166500000Y-182600000D02*
X166500000Y-182700000D01*
X128700000Y-137000000D02*
X128800000Y-136900000D01*
X128800000Y-136900000D02*
X128800000Y-136800000D01*
X166100000Y-183100000D02*
X165900000Y-183100000D01*
X161800000Y-183300000D02*
X160200000Y-181700000D01*
X128800000Y-136800000D02*
X133600000Y-132000000D01*
X130800000Y-140200000D02*
X130200000Y-140200000D01*
X128700000Y-137200000D02*
X128700000Y-137000000D01*
X128600000Y-138600000D02*
X128600000Y-137300000D01*
X160200000Y-181700000D02*
X160160000Y-181730000D01*
X166500000Y-182700000D02*
X166100000Y-183100000D01*
X128600000Y-137300000D02*
X128700000Y-137200000D01*
X130200000Y-140200000D02*
X128600000Y-138600000D01*
X134000000Y-143400000D02*
X130800000Y-140200000D01*
X165700000Y-183300000D02*
X161800000Y-183300000D01*
X165900000Y-183100000D02*
X165700000Y-183300000D01*
X169300000Y-179800000D02*
X166500000Y-182600000D01*
X133600000Y-132000000D02*
X138400000Y-132000000D01*
M02*
