M48
; DRILL file KiCad 10.0.5 date 2026-08-28T19:26:34
; FORMAT={-:-/ absolute / metric / decimal}
; #@! TF.CreationDate,2026-08-28T19:26:34-06:00
; #@! TF.GenerationSoftware,Kicad,Pcbnew,10.0.5
; #@! TF.FileFunction,Plated,1,4,PTH
FMAT,2
METRIC
; #@! TA.AperFunction,Plated,PTH,ViaDrill
T1C0.300
; #@! TA.AperFunction,Plated,PTH,ViaDrill
T2C0.350
; #@! TA.AperFunction,Plated,PTH,ComponentDrill
T3C1.000
%
G90
G05
T1
X140.4Y-170.1
X141.6Y-168.9
X141.8Y-171.2
X142.2Y-176.0
X144.8Y-174.1
X145.0Y-98.4
X147.0Y-96.4
X152.238Y-203.498
X160.9Y-174.2
X162.0Y-174.5
X162.7Y-176.0
X167.0Y-178.5
X168.7Y-183.1
X168.9Y-125.6
X170.4Y-181.0
X171.4Y-182.1
X171.9Y-179.5
X172.0Y-202.5
X172.1Y-197.95
X180.8Y-137.2
X200.4Y-166.9
X200.546Y-149.55
X200.575Y-168.35
X201.627Y-169.375
X201.7Y-168.2
T2
X94.1Y-149.7
X96.8Y-153.5
X100.8Y-168.0
X103.6Y-169.7
X107.3Y-121.4
X108.9Y-123.0
X114.9Y-186.5
X115.1Y-188.1
X116.6Y-170.5
X118.2Y-168.9
X121.0Y-198.2
X122.6Y-168.8
X122.9Y-165.9
X122.9Y-198.2
X124.4Y-169.1
X124.9Y-167.1
X126.9Y-160.6
X126.9Y-164.4
X126.9Y-166.4
X127.7Y-101.9
X129.0Y-168.8
X129.1Y-196.8
X129.7Y-137.4
X131.0Y-168.8
X131.8Y-102.0
X132.1Y-199.5
X132.6Y-173.5
X132.6Y-175.7
X134.0Y-143.4
X134.2Y-135.2
X135.1Y-159.6
X135.4Y-104.8
X135.4Y-107.6
X136.4Y-135.2
X136.6Y-147.4
X136.8Y-155.2
X136.9Y-145.7
X137.4Y-162.7
X138.4Y-132.0
X138.5Y-153.7
X138.7Y-147.5
X140.4Y-128.5
X142.0Y-135.4
X143.0Y-98.5
X144.4Y-107.9
X144.8Y-155.4
X146.9Y-99.1
X147.4Y-204.0
X147.7Y-202.1
X148.5Y-125.8
X149.8Y-115.1
X150.5Y-116.4
X152.4Y-114.3
X152.4Y-115.8
X155.8Y-115.8
X156.1Y-119.1
X158.1Y-117.6
X160.6Y-183.8
X161.2Y-158.2
X165.1Y-175.6
X165.8Y-124.4
X167.2Y-125.7
X167.7Y-175.6
X167.9Y-100.5
X168.1Y-102.1
X168.2Y-124.7
X169.3Y-179.8
X169.3Y-182.0
X169.8Y-196.5
X170.4Y-112.8
X172.125Y-103.575
X173.725Y-101.975
X174.0Y-197.3
X176.9Y-133.3
X176.9Y-134.8
X177.7Y-158.3
X181.675Y-112.125
X182.825Y-113.275
X185.7Y-177.4
X186.0Y-110.6
X188.1Y-109.8
X188.55Y-146.3
X189.4Y-186.0
X189.7Y-166.8
X190.2Y-188.1
X190.8Y-165.7
X192.2Y-177.8
X196.9Y-168.8
X199.3Y-166.4
X200.4Y-158.3
X201.4Y-157.3
X206.075Y-150.35
T3
X130.79Y-138.57
X130.79Y-161.43
X133.33Y-138.57
X133.33Y-161.43
X134.76Y-179.19
X134.76Y-181.73
X135.87Y-138.57
X135.87Y-161.43
X137.3Y-179.19
X137.3Y-181.73
X138.41Y-138.57
X138.41Y-161.43
X139.84Y-179.19
X139.84Y-181.73
X140.95Y-138.57
X140.95Y-161.43
X142.38Y-179.19
X142.38Y-181.73
X143.49Y-138.57
X143.49Y-161.43
X144.92Y-179.19
X144.92Y-181.73
X146.03Y-138.57
X146.03Y-161.43
X147.46Y-179.19
X147.46Y-181.73
X148.57Y-138.57
X148.57Y-161.43
X150.0Y-179.19
X150.0Y-181.73
X151.11Y-138.57
X151.11Y-161.43
X152.54Y-179.19
X152.54Y-181.73
X153.65Y-138.57
X153.65Y-161.43
X155.08Y-179.19
X155.08Y-181.73
X156.19Y-138.57
X156.19Y-161.43
X157.62Y-179.19
X157.62Y-181.73
X158.73Y-138.57
X158.73Y-161.43
X160.16Y-179.19
X160.16Y-181.73
X161.27Y-138.57
X161.27Y-161.43
X162.7Y-179.19
X162.7Y-181.73
X163.81Y-138.57
X163.81Y-161.43
X165.24Y-179.19
X165.24Y-181.73
X166.35Y-138.57
X166.35Y-161.43
X168.89Y-138.57
X168.89Y-161.43
X171.43Y-138.57
X171.43Y-161.43
X173.97Y-138.57
X173.97Y-161.43
X176.51Y-138.57
X176.51Y-161.43
X179.05Y-138.57
X179.05Y-161.43
X181.59Y-138.57
X181.59Y-161.43
X184.13Y-138.57
X184.13Y-161.43
X186.67Y-138.57
X186.67Y-161.43
X189.21Y-138.57
X189.21Y-161.43
M30
