G04 #@! TF.GenerationSoftware,KiCad,Pcbnew,10.0.5*
G04 #@! TF.CreationDate,2026-08-28T20:11:05-06:00*
G04 #@! TF.ProjectId,candidate_routed,63616e64-6964-4617-9465-5f726f757465,rev?*
G04 #@! TF.SameCoordinates,Original*
G04 #@! TF.FileFunction,Copper,L4,Bot*
G04 #@! TF.FilePolarity,Positive*
%FSLAX46Y46*%
G04 Gerber Fmt 4.6, Leading zero omitted, Abs format (unit mm)*
G04 Created by KiCad (PCBNEW 10.0.5) date 2026-08-28 20:11:05*
%MOMM*%
%LPD*%
G01*
G04 APERTURE LIST*
G04 #@! TA.AperFunction,ComponentPad*
%ADD10R,1.700000X1.700000*%
G04 #@! TD*
G04 #@! TA.AperFunction,ComponentPad*
%ADD11C,1.700000*%
G04 #@! TD*
G04 #@! TA.AperFunction,ViaPad*
%ADD12C,0.450000*%
G04 #@! TD*
G04 #@! TA.AperFunction,ViaPad*
%ADD13C,0.600000*%
G04 #@! TD*
G04 #@! TA.AperFunction,Conductor*
%ADD14C,0.300000*%
G04 #@! TD*
G04 #@! TA.AperFunction,Conductor*
%ADD15C,0.600000*%
G04 #@! TD*
G04 #@! TA.AperFunction,Conductor*
%ADD16C,0.200000*%
G04 #@! TD*
G04 APERTURE END LIST*
D10*
X165240000Y-179190000D03*
D11*
X165240000Y-181730000D03*
X162700000Y-179190000D03*
X162700000Y-181730000D03*
X160160000Y-179190000D03*
X160160000Y-181730000D03*
X157620000Y-179190000D03*
X157620000Y-181730000D03*
X155080000Y-179190000D03*
X155080000Y-181730000D03*
X152540000Y-179190000D03*
X152540000Y-181730000D03*
X150000000Y-179190000D03*
X150000000Y-181730000D03*
X147460000Y-179190000D03*
X147460000Y-181730000D03*
X144920000Y-179190000D03*
X144920000Y-181730000D03*
X142380000Y-179190000D03*
X142380000Y-181730000D03*
X139840000Y-179190000D03*
X139840000Y-181730000D03*
X137300000Y-179190000D03*
X137300000Y-181730000D03*
X134760000Y-179190000D03*
X134760000Y-181730000D03*
D10*
X189210000Y-138570000D03*
D11*
X186670000Y-138570000D03*
X184130000Y-138570000D03*
X181590000Y-138570000D03*
X179050000Y-138570000D03*
X176510000Y-138570000D03*
X173970000Y-138570000D03*
X171430000Y-138570000D03*
X168890000Y-138570000D03*
X166350000Y-138570000D03*
X163810000Y-138570000D03*
X161270000Y-138570000D03*
X158730000Y-138570000D03*
X156190000Y-138570000D03*
X153650000Y-138570000D03*
X151110000Y-138570000D03*
X148570000Y-138570000D03*
X146030000Y-138570000D03*
X143490000Y-138570000D03*
X140950000Y-138570000D03*
X138410000Y-138570000D03*
X135870000Y-138570000D03*
X133330000Y-138570000D03*
X130790000Y-138570000D03*
D10*
X189210000Y-161430000D03*
D11*
X186670000Y-161430000D03*
X184130000Y-161430000D03*
X181590000Y-161430000D03*
X179050000Y-161430000D03*
X176510000Y-161430000D03*
X173970000Y-161430000D03*
X171430000Y-161430000D03*
X168890000Y-161430000D03*
X166350000Y-161430000D03*
X163810000Y-161430000D03*
X161270000Y-161430000D03*
X158730000Y-161430000D03*
X156190000Y-161430000D03*
X153650000Y-161430000D03*
X151110000Y-161430000D03*
X148570000Y-161430000D03*
X146030000Y-161430000D03*
X143490000Y-161430000D03*
X140950000Y-161430000D03*
X138410000Y-161430000D03*
X135870000Y-161430000D03*
X133330000Y-161430000D03*
X130790000Y-161430000D03*
D12*
X147919000Y-96171900D03*
X100515400Y-132005900D03*
X114683100Y-111452300D03*
X128875300Y-201808000D03*
X198853200Y-172738800D03*
X149383800Y-93967400D03*
D13*
X133800000Y-197600000D03*
D12*
X130391900Y-196529800D03*
D13*
X167400000Y-170200000D03*
D12*
X96850200Y-152072100D03*
X147927900Y-203290200D03*
X200647900Y-150070200D03*
X127251900Y-101289200D03*
D13*
X183800000Y-112700000D03*
X158500000Y-126000000D03*
D12*
X205792100Y-149929800D03*
X93967400Y-150616200D03*
X99352100Y-149929800D03*
X98195700Y-171157700D03*
X171157700Y-201804300D03*
X152081000Y-203828100D03*
X186639200Y-185183200D03*
X172748100Y-198710800D03*
D13*
X168900000Y-176900000D03*
X96000000Y-147400000D03*
D12*
X114816800Y-186639200D03*
X167994100Y-100515400D03*
D13*
X173900000Y-105500000D03*
D12*
X130424800Y-103466600D03*
X101289200Y-172748100D03*
D13*
X108900000Y-112100000D03*
X175300000Y-166600000D03*
D12*
X201942900Y-152269800D03*
X199484600Y-167994100D03*
X109918800Y-188625300D03*
X103466600Y-169575200D03*
X152072100Y-96709800D03*
X196533400Y-130424800D03*
X150616200Y-206032600D03*
X149929800Y-200647900D03*
X189947600Y-186716700D03*
X186716700Y-110052400D03*
X167984700Y-199627000D03*
X111452300Y-185316900D03*
X132005900Y-199484600D03*
D13*
X131300000Y-159400000D03*
X158500000Y-129400000D03*
D12*
X150070200Y-99352100D03*
X198710800Y-127251900D03*
X199627000Y-132015300D03*
D13*
X133000000Y-200500000D03*
X160500000Y-135700000D03*
D12*
X128842300Y-98195700D03*
X196529800Y-169608100D03*
X190081200Y-111374700D03*
X103470200Y-130391900D03*
X171124700Y-98192000D03*
X101146800Y-127261200D03*
X201804300Y-128842300D03*
X188625300Y-190081200D03*
X185316900Y-188547700D03*
X201808000Y-171124700D03*
X100373000Y-167984700D03*
X172738800Y-101146800D03*
X188547700Y-114683100D03*
X127261200Y-198853200D03*
D13*
X174900000Y-174900000D03*
D12*
X169608100Y-103470200D03*
D13*
X128200000Y-195200000D03*
D12*
X98192000Y-128875300D03*
D13*
X173900000Y-107700000D03*
D12*
X185183200Y-113360800D03*
X111374700Y-109918800D03*
X132015300Y-100373000D03*
X169575200Y-196533400D03*
X98057100Y-147730200D03*
X113283300Y-189947600D03*
X110052400Y-113283300D03*
X113360800Y-114816800D03*
X201879500Y-147812900D03*
D13*
X175700000Y-174800000D03*
X154500000Y-126600000D03*
X156900000Y-140100000D03*
X162800000Y-175500000D03*
X181200000Y-114800000D03*
X187200000Y-114800000D03*
X182100000Y-113900000D03*
D12*
X158700000Y-163200000D03*
X160800000Y-165300000D03*
D13*
X155900000Y-140200000D03*
X154900000Y-136200000D03*
X185400000Y-162500000D03*
X176600000Y-148600000D03*
X156200000Y-143700000D03*
X159600000Y-124900000D03*
X158400000Y-143700000D03*
X157500000Y-125500000D03*
X141200000Y-190200000D03*
X176400000Y-121600000D03*
X142400000Y-128700000D03*
X146500000Y-130200000D03*
X159600000Y-128600000D03*
X194200000Y-165600000D03*
X162800000Y-144900000D03*
X192600000Y-165900000D03*
X191400000Y-161000000D03*
X128300000Y-187300000D03*
X177900000Y-123100000D03*
X165900000Y-159800000D03*
X123300000Y-161300000D03*
X146500000Y-109800000D03*
X144900000Y-130200000D03*
X172900000Y-108800000D03*
X123900000Y-159700000D03*
X159400000Y-130600000D03*
X172500000Y-159800000D03*
X190000000Y-176100000D03*
X144900000Y-108200000D03*
X126200000Y-185200000D03*
X156200000Y-125700000D03*
X129200000Y-139800000D03*
X174900000Y-110800000D03*
X159700000Y-135000000D03*
X142300000Y-191300000D03*
X188400000Y-177700000D03*
X162800000Y-127500000D03*
X171300000Y-103600000D03*
X171500000Y-105500000D03*
D12*
X167000000Y-181700000D03*
X146000000Y-163200000D03*
X191000000Y-163200000D03*
X108100000Y-118900000D03*
X108100000Y-117400000D03*
D13*
X128200000Y-189200000D03*
X125600000Y-186600000D03*
X129100000Y-195500000D03*
X128400000Y-196900000D03*
X140300000Y-152000000D03*
X154000000Y-152000000D03*
X166700000Y-158500000D03*
X162000000Y-142800000D03*
X173600000Y-174900000D03*
X162000000Y-144600000D03*
X133000000Y-155600000D03*
X156900000Y-133500000D03*
X160300000Y-152000000D03*
X166700000Y-171300000D03*
X154800000Y-131400000D03*
D12*
X165000000Y-174500000D03*
X161700000Y-177600000D03*
X154200000Y-177500000D03*
X161500000Y-171000000D03*
D13*
X168200000Y-197800000D03*
X188500000Y-171700000D03*
X170300000Y-201900000D03*
X189900000Y-170300000D03*
X168800000Y-195400000D03*
D12*
X129700000Y-104800000D03*
X136300000Y-105000000D03*
X147300000Y-97400000D03*
D13*
X169900000Y-180700000D03*
D12*
X166400000Y-167700000D03*
X168200000Y-175700000D03*
X143000000Y-176900000D03*
X141700000Y-163200000D03*
D13*
X121400000Y-159800000D03*
X102200000Y-168000000D03*
X99600000Y-168400000D03*
X103100000Y-167100000D03*
X120000000Y-161200000D03*
D12*
X142700000Y-176300000D03*
X167000000Y-179700000D03*
X141000000Y-170200000D03*
D13*
X195400000Y-131400000D03*
X202800000Y-128100000D03*
X197600000Y-131800000D03*
X102100000Y-145800000D03*
X97000000Y-147600000D03*
X99200000Y-148700000D03*
X108800000Y-124100000D03*
X107400000Y-124100000D03*
D12*
X111000000Y-115200000D03*
X108300000Y-114200000D03*
X166800000Y-177700000D03*
X154800000Y-176900000D03*
X144300000Y-172200000D03*
X146800000Y-163200000D03*
X160700000Y-174400000D03*
X157900000Y-172600000D03*
X148000000Y-173600000D03*
X147900000Y-172900000D03*
X160300000Y-175600000D03*
X151600000Y-173200000D03*
X165200000Y-176400000D03*
X157500000Y-174900000D03*
D13*
X165400000Y-175500000D03*
X141900000Y-164000000D03*
X170600000Y-178000000D03*
D12*
X155400000Y-163200000D03*
X162000000Y-163200000D03*
X151800000Y-163200000D03*
D14*
X166600000Y-170200000D02*
X167400000Y-170200000D01*
X165900000Y-170900000D02*
X166600000Y-170200000D01*
D15*
X168900000Y-177300000D02*
X168900000Y-176900000D01*
D14*
X164200000Y-172700000D02*
X165900000Y-171000000D01*
D15*
X170085714Y-179685714D02*
X170100000Y-179700000D01*
D14*
X167300000Y-176900000D02*
X166300000Y-176900000D01*
D15*
X170100000Y-179700000D02*
X170400000Y-179700000D01*
D14*
X170800000Y-180400000D02*
X167300000Y-176900000D01*
X162700000Y-183600000D02*
X168200000Y-183600000D01*
X165900000Y-171000000D02*
X165900000Y-170900000D01*
D15*
X168300000Y-177900000D02*
X168900000Y-177300000D01*
D14*
X160160000Y-181730000D02*
X160200000Y-181700000D01*
X165700000Y-177500000D02*
X165300000Y-177500000D01*
X160800000Y-181700000D02*
X162700000Y-183600000D01*
D15*
X170400000Y-179700000D02*
X174900000Y-175200000D01*
D14*
X170800000Y-181000000D02*
X170800000Y-180400000D01*
X163300000Y-175500000D02*
X164200000Y-174600000D01*
X160200000Y-181700000D02*
X160800000Y-181700000D01*
X168200000Y-183600000D02*
X170800000Y-181000000D01*
X166300000Y-176900000D02*
X165700000Y-177500000D01*
D15*
X174900000Y-175200000D02*
X174900000Y-174900000D01*
D14*
X165300000Y-177500000D02*
X163300000Y-175500000D01*
X163300000Y-175500000D02*
X162800000Y-175500000D01*
X164200000Y-174600000D02*
X164200000Y-172700000D01*
D15*
X165200000Y-181700000D02*
X162700000Y-181700000D01*
X165200000Y-181700000D02*
X166100000Y-180800000D01*
X166900000Y-180700000D02*
X169900000Y-180700000D01*
X166800000Y-180800000D02*
X166900000Y-180700000D01*
X166100000Y-180800000D02*
X166800000Y-180800000D01*
D16*
X152900000Y-180400000D02*
X153000000Y-180300000D01*
X149500000Y-180300000D02*
X149600000Y-180400000D01*
X154400000Y-178100000D02*
X154500000Y-178100000D01*
X149300000Y-180300000D02*
X149500000Y-180300000D01*
X153800000Y-178500000D02*
X154100000Y-178200000D01*
X157500000Y-175100000D02*
X157500000Y-174900000D01*
X154100000Y-178200000D02*
X154300000Y-178200000D01*
X149200000Y-180200000D02*
X149300000Y-180300000D01*
X149600000Y-180400000D02*
X152900000Y-180400000D01*
X153300000Y-180200000D02*
X153900000Y-179600000D01*
X154500000Y-178100000D02*
X157500000Y-175100000D01*
X153800000Y-179400000D02*
X153800000Y-178500000D01*
X153900000Y-179600000D02*
X153900000Y-179500000D01*
X149000000Y-180200000D02*
X149200000Y-180200000D01*
X154300000Y-178200000D02*
X154400000Y-178100000D01*
X153900000Y-179500000D02*
X153800000Y-179400000D01*
X147500000Y-181700000D02*
X149000000Y-180200000D01*
X153000000Y-180300000D02*
X153100000Y-180300000D01*
X153100000Y-180300000D02*
X153200000Y-180200000D01*
X153200000Y-180200000D02*
X153300000Y-180200000D01*
M02*
