M48
; DRILL file KiCad 10.0.5 date 2026-08-28T19:26:36
; FORMAT={-:-/ absolute / metric / decimal}
; #@! TF.CreationDate,2026-08-28T19:26:36-06:00
; #@! TF.GenerationSoftware,Kicad,Pcbnew,10.0.5
; #@! TF.FileFunction,Plated,1,4,PTH
FMAT,2
METRIC
; #@! TA.AperFunction,Plated,PTH,ViaDrill
T1C0.300
; #@! TA.AperFunction,Plated,PTH,ViaDrill
T2C0.350
; #@! TA.AperFunction,Plated,PTH,ComponentDrill
T3C1.000
%
G90
G05
T1
X93.967Y-150.616
X96.85Y-152.072
X98.057Y-147.73
X98.192Y-128.875
X98.196Y-171.158
X99.352Y-149.93
X100.373Y-167.985
X100.515Y-132.006
X101.147Y-127.261
X101.289Y-172.748
X103.467Y-169.575
X103.47Y-130.392
X108.1Y-117.4
X108.1Y-118.9
X108.3Y-114.2
X109.919Y-188.625
X110.052Y-113.283
X111.0Y-115.2
X111.375Y-109.919
X111.452Y-185.317
X113.283Y-189.948
X113.361Y-114.817
X114.683Y-111.452
X114.817Y-186.639
X127.252Y-101.289
X127.261Y-198.853
X128.842Y-98.196
X128.875Y-201.808
X129.7Y-104.8
X130.392Y-196.53
X130.425Y-103.467
X132.006Y-199.485
X132.015Y-100.373
X136.3Y-105.0
X141.0Y-170.2
X141.7Y-163.2
X142.7Y-176.3
X143.0Y-176.9
X144.3Y-172.2
X146.0Y-163.2
X146.8Y-163.2
X147.3Y-97.4
X147.9Y-172.9
X147.919Y-96.172
X147.928Y-203.29
X148.0Y-173.6
X149.384Y-93.967
X149.93Y-200.648
X150.07Y-99.352
X150.616Y-206.033
X151.6Y-173.2
X151.8Y-163.2
X152.072Y-96.71
X152.081Y-203.828
X154.2Y-177.5
X154.8Y-176.9
X155.4Y-163.2
X157.5Y-174.9
X157.9Y-172.6
X158.7Y-163.2
X160.3Y-175.6
X160.7Y-174.4
X160.8Y-165.3
X161.5Y-171.0
X161.7Y-177.6
X162.0Y-163.2
X165.0Y-174.5
X165.2Y-176.4
X166.4Y-167.7
X166.8Y-177.7
X167.0Y-179.7
X167.0Y-181.7
X167.985Y-199.627
X167.994Y-100.515
X168.2Y-175.7
X169.575Y-196.533
X169.608Y-103.47
X171.125Y-98.192
X171.158Y-201.804
X172.739Y-101.147
X172.748Y-198.711
X185.183Y-113.361
X185.317Y-188.548
X186.639Y-185.183
X186.717Y-110.052
X188.548Y-114.683
X188.625Y-190.081
X189.948Y-186.717
X190.081Y-111.375
X191.0Y-163.2
X196.53Y-169.608
X196.533Y-130.425
X198.711Y-127.252
X198.853Y-172.739
X199.485Y-167.994
X199.627Y-132.015
X200.648Y-150.07
X201.804Y-128.842
X201.808Y-171.125
X201.879Y-147.813
X201.943Y-152.27
X205.792Y-149.93
T2
X96.0Y-147.4
X97.0Y-147.6
X99.2Y-148.7
X99.6Y-168.4
X102.1Y-145.8
X102.2Y-168.0
X103.1Y-167.1
X107.4Y-124.1
X108.8Y-124.1
X108.9Y-112.1
X120.0Y-161.2
X121.4Y-159.8
X123.3Y-161.3
X123.9Y-159.7
X125.6Y-186.6
X126.2Y-185.2
X128.2Y-189.2
X128.2Y-195.2
X128.3Y-187.3
X128.4Y-196.9
X129.1Y-195.5
X129.2Y-139.8
X131.3Y-159.4
X133.0Y-155.6
X133.0Y-200.5
X133.8Y-197.6
X140.3Y-152.0
X141.2Y-190.2
X141.9Y-164.0
X142.3Y-191.3
X142.4Y-128.7
X144.9Y-108.2
X144.9Y-130.2
X146.5Y-109.8
X146.5Y-130.2
X154.0Y-152.0
X154.5Y-126.6
X154.8Y-131.4
X154.9Y-136.2
X155.9Y-140.2
X156.2Y-125.7
X156.2Y-143.7
X156.9Y-133.5
X156.9Y-140.1
X157.5Y-125.5
X158.4Y-143.7
X158.5Y-126.0
X158.5Y-129.4
X159.4Y-130.6
X159.6Y-124.9
X159.6Y-128.6
X159.7Y-135.0
X160.3Y-152.0
X160.5Y-135.7
X162.0Y-142.8
X162.0Y-144.6
X162.8Y-127.5
X162.8Y-144.9
X162.8Y-175.5
X165.4Y-175.5
X165.9Y-159.8
X166.7Y-158.5
X166.7Y-171.3
X167.4Y-170.2
X168.2Y-197.8
X168.8Y-195.4
X168.9Y-176.9
X169.9Y-180.7
X170.3Y-201.9
X170.6Y-178.0
X171.3Y-103.6
X171.5Y-105.5
X172.5Y-159.8
X172.9Y-108.8
X173.6Y-174.9
X173.9Y-105.5
X173.9Y-107.7
X174.9Y-110.8
X174.9Y-174.9
X175.3Y-166.6
X175.7Y-174.8
X176.4Y-121.6
X176.6Y-148.6
X177.9Y-123.1
X181.2Y-114.8
X182.1Y-113.9
X183.8Y-112.7
X185.4Y-162.5
X187.2Y-114.8
X188.4Y-177.7
X188.5Y-171.7
X189.9Y-170.3
X190.0Y-176.1
X191.4Y-161.0
X192.6Y-165.9
X194.2Y-165.6
X195.4Y-131.4
X197.6Y-131.8
X202.8Y-128.1
T3
X130.79Y-138.57
X130.79Y-161.43
X133.33Y-138.57
X133.33Y-161.43
X134.76Y-179.19
X134.76Y-181.73
X135.87Y-138.57
X135.87Y-161.43
X137.3Y-179.19
X137.3Y-181.73
X138.41Y-138.57
X138.41Y-161.43
X139.84Y-179.19
X139.84Y-181.73
X140.95Y-138.57
X140.95Y-161.43
X142.38Y-179.19
X142.38Y-181.73
X143.49Y-138.57
X143.49Y-161.43
X144.92Y-179.19
X144.92Y-181.73
X146.03Y-138.57
X146.03Y-161.43
X147.46Y-179.19
X147.46Y-181.73
X148.57Y-138.57
X148.57Y-161.43
X150.0Y-179.19
X150.0Y-181.73
X151.11Y-138.57
X151.11Y-161.43
X152.54Y-179.19
X152.54Y-181.73
X153.65Y-138.57
X153.65Y-161.43
X155.08Y-179.19
X155.08Y-181.73
X156.19Y-138.57
X156.19Y-161.43
X157.62Y-179.19
X157.62Y-181.73
X158.73Y-138.57
X158.73Y-161.43
X160.16Y-179.19
X160.16Y-181.73
X161.27Y-138.57
X161.27Y-161.43
X162.7Y-179.19
X162.7Y-181.73
X163.81Y-138.57
X163.81Y-161.43
X165.24Y-179.19
X165.24Y-181.73
X166.35Y-138.57
X166.35Y-161.43
X168.89Y-138.57
X168.89Y-161.43
X171.43Y-138.57
X171.43Y-161.43
X173.97Y-138.57
X173.97Y-161.43
X176.51Y-138.57
X176.51Y-161.43
X179.05Y-138.57
X179.05Y-161.43
X181.59Y-138.57
X181.59Y-161.43
X184.13Y-138.57
X184.13Y-161.43
X186.67Y-138.57
X186.67Y-161.43
X189.21Y-138.57
X189.21Y-161.43
M30
